M48
;DRILL file {KiCad (5.0.2)-1} date 7/28/2019 11:35:28 PM
;FORMAT={-:-/ absolute / inch / decimal}
FMAT,2
INCH,TZ
T1C0.0200
T2C0.0236
%
G90
G05
T1
X8.0827Y-5.1575
X8.1299Y-4.6457
X8.2035Y-4.6169
X8.2035Y-4.8319
X8.2087Y-5.4724
X8.3035Y-4.6169
X8.3035Y-4.8319
X8.3612Y-4.9341
X8.3976Y-5.2283
X8.4016Y-5.1339
X8.4035Y-4.6169
X8.4035Y-4.8319
X8.4783Y-5.1476
X8.5035Y-4.6169
X8.5035Y-4.8319
X8.514Y-5.308
X8.5217Y-5.2303
X8.563Y-5.5906
X8.6024Y-4.8319
X8.6035Y-4.6169
X8.622Y-5.2854
X8.6721Y-5.2175
X8.7035Y-4.6169
X8.7035Y-4.8319
X8.7661Y-5.2503
X8.789Y-4.9309
X8.8031Y-5.0669
X8.8035Y-4.6169
X8.8035Y-4.8319
X8.8335Y-4.9209
X8.874Y-5.
X8.9035Y-4.6169
X8.9035Y-4.8319
X8.9331Y-5.2756
X8.9567Y-5.4331
X8.9882Y-4.9252
X9.0035Y-4.8319
X9.0045Y-4.6179
X9.0059Y-5.1181
X9.0256Y-5.2756
X9.1035Y-4.6169
X9.1035Y-4.8319
X9.2035Y-4.6169
X9.2035Y-4.8319
X9.252Y-5.0787
X9.3035Y-4.6169
X9.3035Y-4.8319
X9.3189Y-5.3386
X9.3504Y-5.4331
X9.3661Y-5.0433
X9.3819Y-4.9213
X9.4035Y-4.6169
X9.4035Y-4.8319
X9.4055Y-5.2736
X9.4488Y-4.9597
X9.5035Y-4.6169
X9.5035Y-4.8316
X9.6035Y-4.6169
X9.6035Y-4.8319
X9.6128Y-5.1859
X9.6722Y-5.2535
X9.689Y-5.2953
X9.6949Y-4.9705
X9.7035Y-4.6169
X9.7035Y-4.8319
X9.7441Y-5.5906
X9.8035Y-4.6169
X9.8035Y-4.8319
X9.8524Y-5.0197
X9.8937Y-5.0906
X9.9035Y-4.6169
X9.9035Y-4.8319
X10.0035Y-4.6169
X10.0035Y-4.8319
X10.0984Y-5.4724
X10.1035Y-4.6169
X10.1035Y-4.8319
T2
X8.7402Y-5.3543
X8.878Y-5.1575
T0
M30
