G04 #@! TF.GenerationSoftware,KiCad,Pcbnew,(5.0.2)-1*
G04 #@! TF.CreationDate,2019-09-16T21:44:15-04:00*
G04 #@! TF.ProjectId,AD3D Cloud Connect Board,41443344-2043-46c6-9f75-6420436f6e6e,rev?*
G04 #@! TF.SameCoordinates,Original*
G04 #@! TF.FileFunction,Soldermask,Bot*
G04 #@! TF.FilePolarity,Negative*
%FSLAX46Y46*%
G04 Gerber Fmt 4.6, Leading zero omitted, Abs format (unit mm)*
G04 Created by KiCad (PCBNEW (5.0.2)-1) date 9/16/2019 9:44:15 PM*
%MOMM*%
%LPD*%
G01*
G04 APERTURE LIST*
%ADD10C,0.150000*%
G04 APERTURE END LIST*
D10*
G36*
X239364612Y-181798037D02*
X239592096Y-181892264D01*
X239796831Y-182029064D01*
X239970936Y-182203169D01*
X240107736Y-182407904D01*
X240201963Y-182635388D01*
X240250000Y-182876885D01*
X240250000Y-183123115D01*
X240201963Y-183364612D01*
X240107736Y-183592096D01*
X239970936Y-183796831D01*
X239796831Y-183970936D01*
X239592096Y-184107736D01*
X239364612Y-184201963D01*
X239123115Y-184250000D01*
X238876885Y-184250000D01*
X238635388Y-184201963D01*
X238407904Y-184107736D01*
X238203169Y-183970936D01*
X238029064Y-183796831D01*
X237892264Y-183592096D01*
X237798037Y-183364612D01*
X237750000Y-183123115D01*
X237750000Y-182876885D01*
X237798037Y-182635388D01*
X237892264Y-182407904D01*
X238029064Y-182203169D01*
X238203169Y-182029064D01*
X238407904Y-181892264D01*
X238635388Y-181798037D01*
X238876885Y-181750000D01*
X239123115Y-181750000D01*
X239364612Y-181798037D01*
X239364612Y-181798037D01*
G37*
G36*
X175364612Y-181798037D02*
X175592096Y-181892264D01*
X175796831Y-182029064D01*
X175970936Y-182203169D01*
X176107736Y-182407904D01*
X176201963Y-182635388D01*
X176250000Y-182876885D01*
X176250000Y-183123115D01*
X176201963Y-183364612D01*
X176107736Y-183592096D01*
X175970936Y-183796831D01*
X175796831Y-183970936D01*
X175592096Y-184107736D01*
X175364612Y-184201963D01*
X175123115Y-184250000D01*
X174876885Y-184250000D01*
X174635388Y-184201963D01*
X174407904Y-184107736D01*
X174203169Y-183970936D01*
X174029064Y-183796831D01*
X173892264Y-183592096D01*
X173798037Y-183364612D01*
X173750000Y-183123115D01*
X173750000Y-182876885D01*
X173798037Y-182635388D01*
X173892264Y-182407904D01*
X174029064Y-182203169D01*
X174203169Y-182029064D01*
X174407904Y-181892264D01*
X174635388Y-181798037D01*
X174876885Y-181750000D01*
X175123115Y-181750000D01*
X175364612Y-181798037D01*
X175364612Y-181798037D01*
G37*
G36*
X205980000Y-163630000D02*
X202980000Y-163630000D01*
X202980000Y-162630000D01*
X205980000Y-162630000D01*
X205980000Y-163630000D01*
X205980000Y-163630000D01*
G37*
G36*
X211020000Y-163630000D02*
X208020000Y-163630000D01*
X208020000Y-162630000D01*
X211020000Y-162630000D01*
X211020000Y-163630000D01*
X211020000Y-163630000D01*
G37*
G36*
X191410000Y-162770000D02*
X188900000Y-162770000D01*
X188900000Y-161770000D01*
X191410000Y-161770000D01*
X191410000Y-162770000D01*
X191410000Y-162770000D01*
G37*
G36*
X211020000Y-161090000D02*
X208020000Y-161090000D01*
X208020000Y-160090000D01*
X211020000Y-160090000D01*
X211020000Y-161090000D01*
X211020000Y-161090000D01*
G37*
G36*
X205980000Y-161090000D02*
X202980000Y-161090000D01*
X202980000Y-160090000D01*
X205980000Y-160090000D01*
X205980000Y-161090000D01*
X205980000Y-161090000D01*
G37*
G36*
X188100000Y-160230000D02*
X185590000Y-160230000D01*
X185590000Y-159230000D01*
X188100000Y-159230000D01*
X188100000Y-160230000D01*
X188100000Y-160230000D01*
G37*
G36*
X211020000Y-158550000D02*
X208020000Y-158550000D01*
X208020000Y-157550000D01*
X211020000Y-157550000D01*
X211020000Y-158550000D01*
X211020000Y-158550000D01*
G37*
G36*
X205980000Y-158550000D02*
X202980000Y-158550000D01*
X202980000Y-157550000D01*
X205980000Y-157550000D01*
X205980000Y-158550000D01*
X205980000Y-158550000D01*
G37*
G36*
X211020000Y-156010000D02*
X208020000Y-156010000D01*
X208020000Y-155010000D01*
X211020000Y-155010000D01*
X211020000Y-156010000D01*
X211020000Y-156010000D01*
G37*
G36*
X205980000Y-156010000D02*
X202980000Y-156010000D01*
X202980000Y-155010000D01*
X205980000Y-155010000D01*
X205980000Y-156010000D01*
X205980000Y-156010000D01*
G37*
G36*
X205980000Y-153470000D02*
X202980000Y-153470000D01*
X202980000Y-152470000D01*
X205980000Y-152470000D01*
X205980000Y-153470000D01*
X205980000Y-153470000D01*
G37*
G36*
X211020000Y-153470000D02*
X208020000Y-153470000D01*
X208020000Y-152470000D01*
X211020000Y-152470000D01*
X211020000Y-153470000D01*
X211020000Y-153470000D01*
G37*
G36*
X205980000Y-150930000D02*
X202980000Y-150930000D01*
X202980000Y-149930000D01*
X205980000Y-149930000D01*
X205980000Y-150930000D01*
X205980000Y-150930000D01*
G37*
G36*
X211020000Y-150930000D02*
X208020000Y-150930000D01*
X208020000Y-149930000D01*
X211020000Y-149930000D01*
X211020000Y-150930000D01*
X211020000Y-150930000D01*
G37*
G36*
X205980000Y-148390000D02*
X202980000Y-148390000D01*
X202980000Y-147390000D01*
X205980000Y-147390000D01*
X205980000Y-148390000D01*
X205980000Y-148390000D01*
G37*
G36*
X211020000Y-148390000D02*
X208020000Y-148390000D01*
X208020000Y-147390000D01*
X211020000Y-147390000D01*
X211020000Y-148390000D01*
X211020000Y-148390000D01*
G37*
G36*
X211020000Y-145850000D02*
X208020000Y-145850000D01*
X208020000Y-144850000D01*
X211020000Y-144850000D01*
X211020000Y-145850000D01*
X211020000Y-145850000D01*
G37*
G36*
X205980000Y-145850000D02*
X202980000Y-145850000D01*
X202980000Y-144850000D01*
X205980000Y-144850000D01*
X205980000Y-145850000D01*
X205980000Y-145850000D01*
G37*
G36*
X211020000Y-143310000D02*
X208020000Y-143310000D01*
X208020000Y-142310000D01*
X211020000Y-142310000D01*
X211020000Y-143310000D01*
X211020000Y-143310000D01*
G37*
G36*
X205980000Y-143310000D02*
X202980000Y-143310000D01*
X202980000Y-142310000D01*
X205980000Y-142310000D01*
X205980000Y-143310000D01*
X205980000Y-143310000D01*
G37*
G36*
X211020000Y-140770000D02*
X208020000Y-140770000D01*
X208020000Y-139770000D01*
X211020000Y-139770000D01*
X211020000Y-140770000D01*
X211020000Y-140770000D01*
G37*
G36*
X205980000Y-140770000D02*
X202980000Y-140770000D01*
X202980000Y-139770000D01*
X205980000Y-139770000D01*
X205980000Y-140770000D01*
X205980000Y-140770000D01*
G37*
G36*
X205980000Y-138230000D02*
X202980000Y-138230000D01*
X202980000Y-137230000D01*
X205980000Y-137230000D01*
X205980000Y-138230000D01*
X205980000Y-138230000D01*
G37*
G36*
X211020000Y-138230000D02*
X208020000Y-138230000D01*
X208020000Y-137230000D01*
X211020000Y-137230000D01*
X211020000Y-138230000D01*
X211020000Y-138230000D01*
G37*
G36*
X205980000Y-135690000D02*
X202980000Y-135690000D01*
X202980000Y-134690000D01*
X205980000Y-134690000D01*
X205980000Y-135690000D01*
X205980000Y-135690000D01*
G37*
G36*
X211020000Y-135690000D02*
X208020000Y-135690000D01*
X208020000Y-134690000D01*
X211020000Y-134690000D01*
X211020000Y-135690000D01*
X211020000Y-135690000D01*
G37*
G36*
X205980000Y-133150000D02*
X202980000Y-133150000D01*
X202980000Y-132150000D01*
X205980000Y-132150000D01*
X205980000Y-133150000D01*
X205980000Y-133150000D01*
G37*
G36*
X211020000Y-133150000D02*
X208020000Y-133150000D01*
X208020000Y-132150000D01*
X211020000Y-132150000D01*
X211020000Y-133150000D01*
X211020000Y-133150000D01*
G37*
G36*
X211020000Y-130610000D02*
X208020000Y-130610000D01*
X208020000Y-129610000D01*
X211020000Y-129610000D01*
X211020000Y-130610000D01*
X211020000Y-130610000D01*
G37*
G36*
X205980000Y-130610000D02*
X202980000Y-130610000D01*
X202980000Y-129610000D01*
X205980000Y-129610000D01*
X205980000Y-130610000D01*
X205980000Y-130610000D01*
G37*
G36*
X191410000Y-128310000D02*
X188900000Y-128310000D01*
X188900000Y-127310000D01*
X191410000Y-127310000D01*
X191410000Y-128310000D01*
X191410000Y-128310000D01*
G37*
G36*
X205980000Y-128070000D02*
X202980000Y-128070000D01*
X202980000Y-127070000D01*
X205980000Y-127070000D01*
X205980000Y-128070000D01*
X205980000Y-128070000D01*
G37*
G36*
X211020000Y-128070000D02*
X208020000Y-128070000D01*
X208020000Y-127070000D01*
X211020000Y-127070000D01*
X211020000Y-128070000D01*
X211020000Y-128070000D01*
G37*
G36*
X225524116Y-126528595D02*
X225553313Y-126537452D01*
X225580218Y-126551833D01*
X225603808Y-126571192D01*
X225623167Y-126594782D01*
X225637548Y-126621687D01*
X225646405Y-126650884D01*
X225650000Y-126687390D01*
X225650000Y-127312610D01*
X225646405Y-127349116D01*
X225637548Y-127378313D01*
X225623167Y-127405218D01*
X225603808Y-127428808D01*
X225580218Y-127448167D01*
X225553313Y-127462548D01*
X225524116Y-127471405D01*
X225487610Y-127475000D01*
X224937390Y-127475000D01*
X224900884Y-127471405D01*
X224871687Y-127462548D01*
X224844782Y-127448167D01*
X224821192Y-127428808D01*
X224801833Y-127405218D01*
X224787452Y-127378313D01*
X224778595Y-127349116D01*
X224775000Y-127312610D01*
X224775000Y-126687390D01*
X224778595Y-126650884D01*
X224787452Y-126621687D01*
X224801833Y-126594782D01*
X224821192Y-126571192D01*
X224844782Y-126551833D01*
X224871687Y-126537452D01*
X224900884Y-126528595D01*
X224937390Y-126525000D01*
X225487610Y-126525000D01*
X225524116Y-126528595D01*
X225524116Y-126528595D01*
G37*
G36*
X227099116Y-126528595D02*
X227128313Y-126537452D01*
X227155218Y-126551833D01*
X227178808Y-126571192D01*
X227198167Y-126594782D01*
X227212548Y-126621687D01*
X227221405Y-126650884D01*
X227225000Y-126687390D01*
X227225000Y-127312610D01*
X227221405Y-127349116D01*
X227212548Y-127378313D01*
X227198167Y-127405218D01*
X227178808Y-127428808D01*
X227155218Y-127448167D01*
X227128313Y-127462548D01*
X227099116Y-127471405D01*
X227062610Y-127475000D01*
X226512390Y-127475000D01*
X226475884Y-127471405D01*
X226446687Y-127462548D01*
X226419782Y-127448167D01*
X226396192Y-127428808D01*
X226376833Y-127405218D01*
X226362452Y-127378313D01*
X226353595Y-127349116D01*
X226350000Y-127312610D01*
X226350000Y-126687390D01*
X226353595Y-126650884D01*
X226362452Y-126621687D01*
X226376833Y-126594782D01*
X226396192Y-126571192D01*
X226419782Y-126551833D01*
X226446687Y-126537452D01*
X226475884Y-126528595D01*
X226512390Y-126525000D01*
X227062610Y-126525000D01*
X227099116Y-126528595D01*
X227099116Y-126528595D01*
G37*
G36*
X188100000Y-125770000D02*
X185590000Y-125770000D01*
X185590000Y-124770000D01*
X188100000Y-124770000D01*
X188100000Y-125770000D01*
X188100000Y-125770000D01*
G37*
G36*
X205980000Y-125530000D02*
X202980000Y-125530000D01*
X202980000Y-124530000D01*
X205980000Y-124530000D01*
X205980000Y-125530000D01*
X205980000Y-125530000D01*
G37*
G36*
X211020000Y-125530000D02*
X208020000Y-125530000D01*
X208020000Y-124530000D01*
X211020000Y-124530000D01*
X211020000Y-125530000D01*
X211020000Y-125530000D01*
G37*
G36*
X225524116Y-123528595D02*
X225553313Y-123537452D01*
X225580218Y-123551833D01*
X225603808Y-123571192D01*
X225623167Y-123594782D01*
X225637548Y-123621687D01*
X225646405Y-123650884D01*
X225650000Y-123687390D01*
X225650000Y-124312610D01*
X225646405Y-124349116D01*
X225637548Y-124378313D01*
X225623167Y-124405218D01*
X225603808Y-124428808D01*
X225580218Y-124448167D01*
X225553313Y-124462548D01*
X225524116Y-124471405D01*
X225487610Y-124475000D01*
X224937390Y-124475000D01*
X224900884Y-124471405D01*
X224871687Y-124462548D01*
X224844782Y-124448167D01*
X224821192Y-124428808D01*
X224801833Y-124405218D01*
X224787452Y-124378313D01*
X224778595Y-124349116D01*
X224775000Y-124312610D01*
X224775000Y-123687390D01*
X224778595Y-123650884D01*
X224787452Y-123621687D01*
X224801833Y-123594782D01*
X224821192Y-123571192D01*
X224844782Y-123551833D01*
X224871687Y-123537452D01*
X224900884Y-123528595D01*
X224937390Y-123525000D01*
X225487610Y-123525000D01*
X225524116Y-123528595D01*
X225524116Y-123528595D01*
G37*
G36*
X227099116Y-123528595D02*
X227128313Y-123537452D01*
X227155218Y-123551833D01*
X227178808Y-123571192D01*
X227198167Y-123594782D01*
X227212548Y-123621687D01*
X227221405Y-123650884D01*
X227225000Y-123687390D01*
X227225000Y-124312610D01*
X227221405Y-124349116D01*
X227212548Y-124378313D01*
X227198167Y-124405218D01*
X227178808Y-124428808D01*
X227155218Y-124448167D01*
X227128313Y-124462548D01*
X227099116Y-124471405D01*
X227062610Y-124475000D01*
X226512390Y-124475000D01*
X226475884Y-124471405D01*
X226446687Y-124462548D01*
X226419782Y-124448167D01*
X226396192Y-124428808D01*
X226376833Y-124405218D01*
X226362452Y-124378313D01*
X226353595Y-124349116D01*
X226350000Y-124312610D01*
X226350000Y-123687390D01*
X226353595Y-123650884D01*
X226362452Y-123621687D01*
X226376833Y-123594782D01*
X226396192Y-123571192D01*
X226419782Y-123551833D01*
X226446687Y-123537452D01*
X226475884Y-123528595D01*
X226512390Y-123525000D01*
X227062610Y-123525000D01*
X227099116Y-123528595D01*
X227099116Y-123528595D01*
G37*
G36*
X191410000Y-123230000D02*
X188900000Y-123230000D01*
X188900000Y-122230000D01*
X191410000Y-122230000D01*
X191410000Y-123230000D01*
X191410000Y-123230000D01*
G37*
G36*
X205980000Y-122990000D02*
X202980000Y-122990000D01*
X202980000Y-121990000D01*
X205980000Y-121990000D01*
X205980000Y-122990000D01*
X205980000Y-122990000D01*
G37*
G36*
X211020000Y-122990000D02*
X208020000Y-122990000D01*
X208020000Y-121990000D01*
X211020000Y-121990000D01*
X211020000Y-122990000D01*
X211020000Y-122990000D01*
G37*
G36*
X227099116Y-120528595D02*
X227128313Y-120537452D01*
X227155218Y-120551833D01*
X227178808Y-120571192D01*
X227198167Y-120594782D01*
X227212548Y-120621687D01*
X227221405Y-120650884D01*
X227225000Y-120687390D01*
X227225000Y-121312610D01*
X227221405Y-121349116D01*
X227212548Y-121378313D01*
X227198167Y-121405218D01*
X227178808Y-121428808D01*
X227155218Y-121448167D01*
X227128313Y-121462548D01*
X227099116Y-121471405D01*
X227062610Y-121475000D01*
X226512390Y-121475000D01*
X226475884Y-121471405D01*
X226446687Y-121462548D01*
X226419782Y-121448167D01*
X226396192Y-121428808D01*
X226376833Y-121405218D01*
X226362452Y-121378313D01*
X226353595Y-121349116D01*
X226350000Y-121312610D01*
X226350000Y-120687390D01*
X226353595Y-120650884D01*
X226362452Y-120621687D01*
X226376833Y-120594782D01*
X226396192Y-120571192D01*
X226419782Y-120551833D01*
X226446687Y-120537452D01*
X226475884Y-120528595D01*
X226512390Y-120525000D01*
X227062610Y-120525000D01*
X227099116Y-120528595D01*
X227099116Y-120528595D01*
G37*
G36*
X225524116Y-120528595D02*
X225553313Y-120537452D01*
X225580218Y-120551833D01*
X225603808Y-120571192D01*
X225623167Y-120594782D01*
X225637548Y-120621687D01*
X225646405Y-120650884D01*
X225650000Y-120687390D01*
X225650000Y-121312610D01*
X225646405Y-121349116D01*
X225637548Y-121378313D01*
X225623167Y-121405218D01*
X225603808Y-121428808D01*
X225580218Y-121448167D01*
X225553313Y-121462548D01*
X225524116Y-121471405D01*
X225487610Y-121475000D01*
X224937390Y-121475000D01*
X224900884Y-121471405D01*
X224871687Y-121462548D01*
X224844782Y-121448167D01*
X224821192Y-121428808D01*
X224801833Y-121405218D01*
X224787452Y-121378313D01*
X224778595Y-121349116D01*
X224775000Y-121312610D01*
X224775000Y-120687390D01*
X224778595Y-120650884D01*
X224787452Y-120621687D01*
X224801833Y-120594782D01*
X224821192Y-120571192D01*
X224844782Y-120551833D01*
X224871687Y-120537452D01*
X224900884Y-120528595D01*
X224937390Y-120525000D01*
X225487610Y-120525000D01*
X225524116Y-120528595D01*
X225524116Y-120528595D01*
G37*
G36*
X188100000Y-120690000D02*
X185590000Y-120690000D01*
X185590000Y-119690000D01*
X188100000Y-119690000D01*
X188100000Y-120690000D01*
X188100000Y-120690000D01*
G37*
G36*
X211020000Y-120450000D02*
X208020000Y-120450000D01*
X208020000Y-119450000D01*
X211020000Y-119450000D01*
X211020000Y-120450000D01*
X211020000Y-120450000D01*
G37*
G36*
X205980000Y-120450000D02*
X202980000Y-120450000D01*
X202980000Y-119450000D01*
X205980000Y-119450000D01*
X205980000Y-120450000D01*
X205980000Y-120450000D01*
G37*
G36*
X205980000Y-117910000D02*
X202980000Y-117910000D01*
X202980000Y-116910000D01*
X205980000Y-116910000D01*
X205980000Y-117910000D01*
X205980000Y-117910000D01*
G37*
G36*
X211020000Y-117910000D02*
X208020000Y-117910000D01*
X208020000Y-116910000D01*
X211020000Y-116910000D01*
X211020000Y-117910000D01*
X211020000Y-117910000D01*
G37*
G36*
X211020000Y-115370000D02*
X208020000Y-115370000D01*
X208020000Y-114370000D01*
X211020000Y-114370000D01*
X211020000Y-115370000D01*
X211020000Y-115370000D01*
G37*
G36*
X205980000Y-115370000D02*
X202980000Y-115370000D01*
X202980000Y-114370000D01*
X205980000Y-114370000D01*
X205980000Y-115370000D01*
X205980000Y-115370000D01*
G37*
G36*
X191410000Y-108310000D02*
X188900000Y-108310000D01*
X188900000Y-107310000D01*
X191410000Y-107310000D01*
X191410000Y-108310000D01*
X191410000Y-108310000D01*
G37*
G36*
X228410000Y-106040000D02*
X225900000Y-106040000D01*
X225900000Y-105040000D01*
X228410000Y-105040000D01*
X228410000Y-106040000D01*
X228410000Y-106040000D01*
G37*
G36*
X188100000Y-105770000D02*
X185590000Y-105770000D01*
X185590000Y-104770000D01*
X188100000Y-104770000D01*
X188100000Y-105770000D01*
X188100000Y-105770000D01*
G37*
G36*
X215500000Y-104910000D02*
X214500000Y-104910000D01*
X214500000Y-102400000D01*
X215500000Y-102400000D01*
X215500000Y-104910000D01*
X215500000Y-104910000D01*
G37*
G36*
X199500000Y-104910000D02*
X198500000Y-104910000D01*
X198500000Y-102400000D01*
X199500000Y-102400000D01*
X199500000Y-104910000D01*
X199500000Y-104910000D01*
G37*
G36*
X225100000Y-103500000D02*
X222590000Y-103500000D01*
X222590000Y-102500000D01*
X225100000Y-102500000D01*
X225100000Y-103500000D01*
X225100000Y-103500000D01*
G37*
G36*
X191410000Y-103230000D02*
X188900000Y-103230000D01*
X188900000Y-102230000D01*
X191410000Y-102230000D01*
X191410000Y-103230000D01*
X191410000Y-103230000D01*
G37*
G36*
X218040000Y-101600000D02*
X217040000Y-101600000D01*
X217040000Y-99090000D01*
X218040000Y-99090000D01*
X218040000Y-101600000D01*
X218040000Y-101600000D01*
G37*
G36*
X212960000Y-101600000D02*
X211960000Y-101600000D01*
X211960000Y-99090000D01*
X212960000Y-99090000D01*
X212960000Y-101600000D01*
X212960000Y-101600000D01*
G37*
G36*
X202040000Y-101600000D02*
X201040000Y-101600000D01*
X201040000Y-99090000D01*
X202040000Y-99090000D01*
X202040000Y-101600000D01*
X202040000Y-101600000D01*
G37*
G36*
X196960000Y-101600000D02*
X195960000Y-101600000D01*
X195960000Y-99090000D01*
X196960000Y-99090000D01*
X196960000Y-101600000D01*
X196960000Y-101600000D01*
G37*
G36*
X228410000Y-100960000D02*
X225900000Y-100960000D01*
X225900000Y-99960000D01*
X228410000Y-99960000D01*
X228410000Y-100960000D01*
X228410000Y-100960000D01*
G37*
G36*
X188100000Y-100690000D02*
X185590000Y-100690000D01*
X185590000Y-99690000D01*
X188100000Y-99690000D01*
X188100000Y-100690000D01*
X188100000Y-100690000D01*
G37*
G36*
X239364612Y-93798037D02*
X239592096Y-93892264D01*
X239796831Y-94029064D01*
X239970936Y-94203169D01*
X240107736Y-94407904D01*
X240201963Y-94635388D01*
X240250000Y-94876885D01*
X240250000Y-95123115D01*
X240201963Y-95364612D01*
X240107736Y-95592096D01*
X239970936Y-95796831D01*
X239796831Y-95970936D01*
X239592096Y-96107736D01*
X239364612Y-96201963D01*
X239123115Y-96250000D01*
X238876885Y-96250000D01*
X238635388Y-96201963D01*
X238407904Y-96107736D01*
X238203169Y-95970936D01*
X238029064Y-95796831D01*
X237892264Y-95592096D01*
X237798037Y-95364612D01*
X237750000Y-95123115D01*
X237750000Y-94876885D01*
X237798037Y-94635388D01*
X237892264Y-94407904D01*
X238029064Y-94203169D01*
X238203169Y-94029064D01*
X238407904Y-93892264D01*
X238635388Y-93798037D01*
X238876885Y-93750000D01*
X239123115Y-93750000D01*
X239364612Y-93798037D01*
X239364612Y-93798037D01*
G37*
G36*
X175364612Y-93798037D02*
X175592096Y-93892264D01*
X175796831Y-94029064D01*
X175970936Y-94203169D01*
X176107736Y-94407904D01*
X176201963Y-94635388D01*
X176250000Y-94876885D01*
X176250000Y-95123115D01*
X176201963Y-95364612D01*
X176107736Y-95592096D01*
X175970936Y-95796831D01*
X175796831Y-95970936D01*
X175592096Y-96107736D01*
X175364612Y-96201963D01*
X175123115Y-96250000D01*
X174876885Y-96250000D01*
X174635388Y-96201963D01*
X174407904Y-96107736D01*
X174203169Y-95970936D01*
X174029064Y-95796831D01*
X173892264Y-95592096D01*
X173798037Y-95364612D01*
X173750000Y-95123115D01*
X173750000Y-94876885D01*
X173798037Y-94635388D01*
X173892264Y-94407904D01*
X174029064Y-94203169D01*
X174203169Y-94029064D01*
X174407904Y-93892264D01*
X174635388Y-93798037D01*
X174876885Y-93750000D01*
X175123115Y-93750000D01*
X175364612Y-93798037D01*
X175364612Y-93798037D01*
G37*
M02*
