G04 #@! TF.GenerationSoftware,KiCad,Pcbnew,(5.0.2)-1*
G04 #@! TF.CreationDate,2019-09-16T21:44:15-04:00*
G04 #@! TF.ProjectId,AD3D Cloud Connect Board,41443344-2043-46c6-9f75-6420436f6e6e,rev?*
G04 #@! TF.SameCoordinates,Original*
G04 #@! TF.FileFunction,Copper,L1,Top*
G04 #@! TF.FilePolarity,Positive*
%FSLAX46Y46*%
G04 Gerber Fmt 4.6, Leading zero omitted, Abs format (unit mm)*
G04 Created by KiCad (PCBNEW (5.0.2)-1) date 9/16/2019 9:44:15 PM*
%MOMM*%
%LPD*%
G01*
G04 APERTURE LIST*
G04 #@! TA.AperFunction,Conductor*
%ADD10C,0.150000*%
G04 #@! TD*
G04 #@! TA.AperFunction,SMDPad,CuDef*
%ADD11C,0.850000*%
G04 #@! TD*
G04 #@! TA.AperFunction,SMDPad,CuDef*
%ADD12R,1.550000X1.000000*%
G04 #@! TD*
G04 #@! TA.AperFunction,ViaPad*
%ADD13C,1.524000*%
G04 #@! TD*
G04 #@! TA.AperFunction,ViaPad*
%ADD14C,0.900000*%
G04 #@! TD*
G04 #@! TA.AperFunction,ViaPad*
%ADD15C,0.609600*%
G04 #@! TD*
G04 #@! TA.AperFunction,Conductor*
%ADD16C,1.270000*%
G04 #@! TD*
G04 #@! TA.AperFunction,Conductor*
%ADD17C,0.254000*%
G04 #@! TD*
G04 #@! TA.AperFunction,Conductor*
%ADD18C,0.127000*%
G04 #@! TD*
G04 APERTURE END LIST*
D10*
G04 #@! TO.N,Net-(D1-Pad2)*
G04 #@! TO.C,D1*
G36*
X223233329Y-120576023D02*
X223253957Y-120579083D01*
X223274185Y-120584150D01*
X223293820Y-120591176D01*
X223312672Y-120600092D01*
X223330559Y-120610813D01*
X223347309Y-120623235D01*
X223362760Y-120637240D01*
X223376765Y-120652691D01*
X223389187Y-120669441D01*
X223399908Y-120687328D01*
X223408824Y-120706180D01*
X223415850Y-120725815D01*
X223420917Y-120746043D01*
X223423977Y-120766671D01*
X223425000Y-120787500D01*
X223425000Y-121212500D01*
X223423977Y-121233329D01*
X223420917Y-121253957D01*
X223415850Y-121274185D01*
X223408824Y-121293820D01*
X223399908Y-121312672D01*
X223389187Y-121330559D01*
X223376765Y-121347309D01*
X223362760Y-121362760D01*
X223347309Y-121376765D01*
X223330559Y-121389187D01*
X223312672Y-121399908D01*
X223293820Y-121408824D01*
X223274185Y-121415850D01*
X223253957Y-121420917D01*
X223233329Y-121423977D01*
X223212500Y-121425000D01*
X222412500Y-121425000D01*
X222391671Y-121423977D01*
X222371043Y-121420917D01*
X222350815Y-121415850D01*
X222331180Y-121408824D01*
X222312328Y-121399908D01*
X222294441Y-121389187D01*
X222277691Y-121376765D01*
X222262240Y-121362760D01*
X222248235Y-121347309D01*
X222235813Y-121330559D01*
X222225092Y-121312672D01*
X222216176Y-121293820D01*
X222209150Y-121274185D01*
X222204083Y-121253957D01*
X222201023Y-121233329D01*
X222200000Y-121212500D01*
X222200000Y-120787500D01*
X222201023Y-120766671D01*
X222204083Y-120746043D01*
X222209150Y-120725815D01*
X222216176Y-120706180D01*
X222225092Y-120687328D01*
X222235813Y-120669441D01*
X222248235Y-120652691D01*
X222262240Y-120637240D01*
X222277691Y-120623235D01*
X222294441Y-120610813D01*
X222312328Y-120600092D01*
X222331180Y-120591176D01*
X222350815Y-120584150D01*
X222371043Y-120579083D01*
X222391671Y-120576023D01*
X222412500Y-120575000D01*
X223212500Y-120575000D01*
X223233329Y-120576023D01*
X223233329Y-120576023D01*
G37*
D11*
G04 #@! TD*
G04 #@! TO.P,D1,2*
G04 #@! TO.N,Net-(D1-Pad2)*
X222812500Y-121000000D03*
D10*
G04 #@! TO.N,/GPIO4(GCLK)*
G04 #@! TO.C,D1*
G36*
X221608329Y-120576023D02*
X221628957Y-120579083D01*
X221649185Y-120584150D01*
X221668820Y-120591176D01*
X221687672Y-120600092D01*
X221705559Y-120610813D01*
X221722309Y-120623235D01*
X221737760Y-120637240D01*
X221751765Y-120652691D01*
X221764187Y-120669441D01*
X221774908Y-120687328D01*
X221783824Y-120706180D01*
X221790850Y-120725815D01*
X221795917Y-120746043D01*
X221798977Y-120766671D01*
X221800000Y-120787500D01*
X221800000Y-121212500D01*
X221798977Y-121233329D01*
X221795917Y-121253957D01*
X221790850Y-121274185D01*
X221783824Y-121293820D01*
X221774908Y-121312672D01*
X221764187Y-121330559D01*
X221751765Y-121347309D01*
X221737760Y-121362760D01*
X221722309Y-121376765D01*
X221705559Y-121389187D01*
X221687672Y-121399908D01*
X221668820Y-121408824D01*
X221649185Y-121415850D01*
X221628957Y-121420917D01*
X221608329Y-121423977D01*
X221587500Y-121425000D01*
X220787500Y-121425000D01*
X220766671Y-121423977D01*
X220746043Y-121420917D01*
X220725815Y-121415850D01*
X220706180Y-121408824D01*
X220687328Y-121399908D01*
X220669441Y-121389187D01*
X220652691Y-121376765D01*
X220637240Y-121362760D01*
X220623235Y-121347309D01*
X220610813Y-121330559D01*
X220600092Y-121312672D01*
X220591176Y-121293820D01*
X220584150Y-121274185D01*
X220579083Y-121253957D01*
X220576023Y-121233329D01*
X220575000Y-121212500D01*
X220575000Y-120787500D01*
X220576023Y-120766671D01*
X220579083Y-120746043D01*
X220584150Y-120725815D01*
X220591176Y-120706180D01*
X220600092Y-120687328D01*
X220610813Y-120669441D01*
X220623235Y-120652691D01*
X220637240Y-120637240D01*
X220652691Y-120623235D01*
X220669441Y-120610813D01*
X220687328Y-120600092D01*
X220706180Y-120591176D01*
X220725815Y-120584150D01*
X220746043Y-120579083D01*
X220766671Y-120576023D01*
X220787500Y-120575000D01*
X221587500Y-120575000D01*
X221608329Y-120576023D01*
X221608329Y-120576023D01*
G37*
D11*
G04 #@! TD*
G04 #@! TO.P,D1,1*
G04 #@! TO.N,/GPIO4(GCLK)*
X221187500Y-121000000D03*
D10*
G04 #@! TO.N,/GPIO5*
G04 #@! TO.C,D2*
G36*
X221608329Y-123576023D02*
X221628957Y-123579083D01*
X221649185Y-123584150D01*
X221668820Y-123591176D01*
X221687672Y-123600092D01*
X221705559Y-123610813D01*
X221722309Y-123623235D01*
X221737760Y-123637240D01*
X221751765Y-123652691D01*
X221764187Y-123669441D01*
X221774908Y-123687328D01*
X221783824Y-123706180D01*
X221790850Y-123725815D01*
X221795917Y-123746043D01*
X221798977Y-123766671D01*
X221800000Y-123787500D01*
X221800000Y-124212500D01*
X221798977Y-124233329D01*
X221795917Y-124253957D01*
X221790850Y-124274185D01*
X221783824Y-124293820D01*
X221774908Y-124312672D01*
X221764187Y-124330559D01*
X221751765Y-124347309D01*
X221737760Y-124362760D01*
X221722309Y-124376765D01*
X221705559Y-124389187D01*
X221687672Y-124399908D01*
X221668820Y-124408824D01*
X221649185Y-124415850D01*
X221628957Y-124420917D01*
X221608329Y-124423977D01*
X221587500Y-124425000D01*
X220787500Y-124425000D01*
X220766671Y-124423977D01*
X220746043Y-124420917D01*
X220725815Y-124415850D01*
X220706180Y-124408824D01*
X220687328Y-124399908D01*
X220669441Y-124389187D01*
X220652691Y-124376765D01*
X220637240Y-124362760D01*
X220623235Y-124347309D01*
X220610813Y-124330559D01*
X220600092Y-124312672D01*
X220591176Y-124293820D01*
X220584150Y-124274185D01*
X220579083Y-124253957D01*
X220576023Y-124233329D01*
X220575000Y-124212500D01*
X220575000Y-123787500D01*
X220576023Y-123766671D01*
X220579083Y-123746043D01*
X220584150Y-123725815D01*
X220591176Y-123706180D01*
X220600092Y-123687328D01*
X220610813Y-123669441D01*
X220623235Y-123652691D01*
X220637240Y-123637240D01*
X220652691Y-123623235D01*
X220669441Y-123610813D01*
X220687328Y-123600092D01*
X220706180Y-123591176D01*
X220725815Y-123584150D01*
X220746043Y-123579083D01*
X220766671Y-123576023D01*
X220787500Y-123575000D01*
X221587500Y-123575000D01*
X221608329Y-123576023D01*
X221608329Y-123576023D01*
G37*
D11*
G04 #@! TD*
G04 #@! TO.P,D2,1*
G04 #@! TO.N,/GPIO5*
X221187500Y-124000000D03*
D10*
G04 #@! TO.N,Net-(D2-Pad2)*
G04 #@! TO.C,D2*
G36*
X223233329Y-123576023D02*
X223253957Y-123579083D01*
X223274185Y-123584150D01*
X223293820Y-123591176D01*
X223312672Y-123600092D01*
X223330559Y-123610813D01*
X223347309Y-123623235D01*
X223362760Y-123637240D01*
X223376765Y-123652691D01*
X223389187Y-123669441D01*
X223399908Y-123687328D01*
X223408824Y-123706180D01*
X223415850Y-123725815D01*
X223420917Y-123746043D01*
X223423977Y-123766671D01*
X223425000Y-123787500D01*
X223425000Y-124212500D01*
X223423977Y-124233329D01*
X223420917Y-124253957D01*
X223415850Y-124274185D01*
X223408824Y-124293820D01*
X223399908Y-124312672D01*
X223389187Y-124330559D01*
X223376765Y-124347309D01*
X223362760Y-124362760D01*
X223347309Y-124376765D01*
X223330559Y-124389187D01*
X223312672Y-124399908D01*
X223293820Y-124408824D01*
X223274185Y-124415850D01*
X223253957Y-124420917D01*
X223233329Y-124423977D01*
X223212500Y-124425000D01*
X222412500Y-124425000D01*
X222391671Y-124423977D01*
X222371043Y-124420917D01*
X222350815Y-124415850D01*
X222331180Y-124408824D01*
X222312328Y-124399908D01*
X222294441Y-124389187D01*
X222277691Y-124376765D01*
X222262240Y-124362760D01*
X222248235Y-124347309D01*
X222235813Y-124330559D01*
X222225092Y-124312672D01*
X222216176Y-124293820D01*
X222209150Y-124274185D01*
X222204083Y-124253957D01*
X222201023Y-124233329D01*
X222200000Y-124212500D01*
X222200000Y-123787500D01*
X222201023Y-123766671D01*
X222204083Y-123746043D01*
X222209150Y-123725815D01*
X222216176Y-123706180D01*
X222225092Y-123687328D01*
X222235813Y-123669441D01*
X222248235Y-123652691D01*
X222262240Y-123637240D01*
X222277691Y-123623235D01*
X222294441Y-123610813D01*
X222312328Y-123600092D01*
X222331180Y-123591176D01*
X222350815Y-123584150D01*
X222371043Y-123579083D01*
X222391671Y-123576023D01*
X222412500Y-123575000D01*
X223212500Y-123575000D01*
X223233329Y-123576023D01*
X223233329Y-123576023D01*
G37*
D11*
G04 #@! TD*
G04 #@! TO.P,D2,2*
G04 #@! TO.N,Net-(D2-Pad2)*
X222812500Y-124000000D03*
D10*
G04 #@! TO.N,/GPIO24(GEN5)*
G04 #@! TO.C,D3*
G36*
X221608329Y-126576023D02*
X221628957Y-126579083D01*
X221649185Y-126584150D01*
X221668820Y-126591176D01*
X221687672Y-126600092D01*
X221705559Y-126610813D01*
X221722309Y-126623235D01*
X221737760Y-126637240D01*
X221751765Y-126652691D01*
X221764187Y-126669441D01*
X221774908Y-126687328D01*
X221783824Y-126706180D01*
X221790850Y-126725815D01*
X221795917Y-126746043D01*
X221798977Y-126766671D01*
X221800000Y-126787500D01*
X221800000Y-127212500D01*
X221798977Y-127233329D01*
X221795917Y-127253957D01*
X221790850Y-127274185D01*
X221783824Y-127293820D01*
X221774908Y-127312672D01*
X221764187Y-127330559D01*
X221751765Y-127347309D01*
X221737760Y-127362760D01*
X221722309Y-127376765D01*
X221705559Y-127389187D01*
X221687672Y-127399908D01*
X221668820Y-127408824D01*
X221649185Y-127415850D01*
X221628957Y-127420917D01*
X221608329Y-127423977D01*
X221587500Y-127425000D01*
X220787500Y-127425000D01*
X220766671Y-127423977D01*
X220746043Y-127420917D01*
X220725815Y-127415850D01*
X220706180Y-127408824D01*
X220687328Y-127399908D01*
X220669441Y-127389187D01*
X220652691Y-127376765D01*
X220637240Y-127362760D01*
X220623235Y-127347309D01*
X220610813Y-127330559D01*
X220600092Y-127312672D01*
X220591176Y-127293820D01*
X220584150Y-127274185D01*
X220579083Y-127253957D01*
X220576023Y-127233329D01*
X220575000Y-127212500D01*
X220575000Y-126787500D01*
X220576023Y-126766671D01*
X220579083Y-126746043D01*
X220584150Y-126725815D01*
X220591176Y-126706180D01*
X220600092Y-126687328D01*
X220610813Y-126669441D01*
X220623235Y-126652691D01*
X220637240Y-126637240D01*
X220652691Y-126623235D01*
X220669441Y-126610813D01*
X220687328Y-126600092D01*
X220706180Y-126591176D01*
X220725815Y-126584150D01*
X220746043Y-126579083D01*
X220766671Y-126576023D01*
X220787500Y-126575000D01*
X221587500Y-126575000D01*
X221608329Y-126576023D01*
X221608329Y-126576023D01*
G37*
D11*
G04 #@! TD*
G04 #@! TO.P,D3,1*
G04 #@! TO.N,/GPIO24(GEN5)*
X221187500Y-127000000D03*
D10*
G04 #@! TO.N,Net-(D3-Pad2)*
G04 #@! TO.C,D3*
G36*
X223233329Y-126576023D02*
X223253957Y-126579083D01*
X223274185Y-126584150D01*
X223293820Y-126591176D01*
X223312672Y-126600092D01*
X223330559Y-126610813D01*
X223347309Y-126623235D01*
X223362760Y-126637240D01*
X223376765Y-126652691D01*
X223389187Y-126669441D01*
X223399908Y-126687328D01*
X223408824Y-126706180D01*
X223415850Y-126725815D01*
X223420917Y-126746043D01*
X223423977Y-126766671D01*
X223425000Y-126787500D01*
X223425000Y-127212500D01*
X223423977Y-127233329D01*
X223420917Y-127253957D01*
X223415850Y-127274185D01*
X223408824Y-127293820D01*
X223399908Y-127312672D01*
X223389187Y-127330559D01*
X223376765Y-127347309D01*
X223362760Y-127362760D01*
X223347309Y-127376765D01*
X223330559Y-127389187D01*
X223312672Y-127399908D01*
X223293820Y-127408824D01*
X223274185Y-127415850D01*
X223253957Y-127420917D01*
X223233329Y-127423977D01*
X223212500Y-127425000D01*
X222412500Y-127425000D01*
X222391671Y-127423977D01*
X222371043Y-127420917D01*
X222350815Y-127415850D01*
X222331180Y-127408824D01*
X222312328Y-127399908D01*
X222294441Y-127389187D01*
X222277691Y-127376765D01*
X222262240Y-127362760D01*
X222248235Y-127347309D01*
X222235813Y-127330559D01*
X222225092Y-127312672D01*
X222216176Y-127293820D01*
X222209150Y-127274185D01*
X222204083Y-127253957D01*
X222201023Y-127233329D01*
X222200000Y-127212500D01*
X222200000Y-126787500D01*
X222201023Y-126766671D01*
X222204083Y-126746043D01*
X222209150Y-126725815D01*
X222216176Y-126706180D01*
X222225092Y-126687328D01*
X222235813Y-126669441D01*
X222248235Y-126652691D01*
X222262240Y-126637240D01*
X222277691Y-126623235D01*
X222294441Y-126610813D01*
X222312328Y-126600092D01*
X222331180Y-126591176D01*
X222350815Y-126584150D01*
X222371043Y-126579083D01*
X222391671Y-126576023D01*
X222412500Y-126575000D01*
X223212500Y-126575000D01*
X223233329Y-126576023D01*
X223233329Y-126576023D01*
G37*
D11*
G04 #@! TD*
G04 #@! TO.P,D3,2*
G04 #@! TO.N,Net-(D3-Pad2)*
X222812500Y-127000000D03*
D12*
G04 #@! TO.P,SW1,1*
G04 #@! TO.N,/GPIO16*
X189375000Y-172400000D03*
G04 #@! TO.P,SW1,2*
X194625000Y-172400000D03*
G04 #@! TO.P,SW1,3*
G04 #@! TO.N,GND*
X189375000Y-175600000D03*
G04 #@! TO.P,SW1,4*
X194625000Y-175600000D03*
G04 #@! TD*
G04 #@! TO.P,SW2,4*
G04 #@! TO.N,GND*
X224625000Y-175600000D03*
G04 #@! TO.P,SW2,3*
X219375000Y-175600000D03*
G04 #@! TO.P,SW2,2*
G04 #@! TO.N,/GPIO17(GEN0)*
X224625000Y-172400000D03*
G04 #@! TO.P,SW2,1*
X219375000Y-172400000D03*
G04 #@! TD*
G04 #@! TO.P,SW3,1*
G04 #@! TO.N,/GPIO13(PWM1)*
X189375000Y-122400000D03*
G04 #@! TO.P,SW3,2*
X194625000Y-122400000D03*
G04 #@! TO.P,SW3,3*
G04 #@! TO.N,GND*
X189375000Y-125600000D03*
G04 #@! TO.P,SW3,4*
X194625000Y-125600000D03*
G04 #@! TD*
G04 #@! TO.P,SW4,4*
G04 #@! TO.N,GND*
X194625000Y-145600000D03*
G04 #@! TO.P,SW4,3*
X189375000Y-145600000D03*
G04 #@! TO.P,SW4,2*
G04 #@! TO.N,/GPIO18(GEN1)(PWM0)*
X194625000Y-142400000D03*
G04 #@! TO.P,SW4,1*
X189375000Y-142400000D03*
G04 #@! TD*
G04 #@! TO.P,SW5,1*
G04 #@! TO.N,/GPIO12(PWM0)*
X219375000Y-142400000D03*
G04 #@! TO.P,SW5,2*
X224625000Y-142400000D03*
G04 #@! TO.P,SW5,3*
G04 #@! TO.N,GND*
X219375000Y-145600000D03*
G04 #@! TO.P,SW5,4*
X224625000Y-145600000D03*
G04 #@! TD*
D13*
G04 #@! TO.N,+3V3*
X204000000Y-100000000D03*
X231130000Y-161860000D03*
X212080000Y-163130000D03*
X212080000Y-142810000D03*
X231130000Y-147890000D03*
X195500000Y-104000000D03*
X231499998Y-112500000D03*
X222000000Y-99500008D03*
G04 #@! TO.N,+5V*
X200080000Y-159730000D03*
X190229994Y-159729994D03*
D14*
G04 #@! TO.N,GND*
X209540000Y-152970000D03*
X204460000Y-147890000D03*
X204460000Y-158050000D03*
X204460000Y-140270000D03*
X209540000Y-132650000D03*
X204460000Y-127570000D03*
X204460000Y-122490000D03*
X209540000Y-114870000D03*
X186845000Y-120190000D03*
X186845000Y-100190000D03*
X196460000Y-100345000D03*
X212460000Y-100345000D03*
X190155000Y-162270000D03*
X227155000Y-100460000D03*
D15*
G04 #@! TO.N,/GPIO5*
X209520000Y-127570000D03*
G04 #@! TO.N,/GPIO2(SDA1)*
X195570000Y-161860000D03*
X209520000Y-160590000D03*
G04 #@! TO.N,/GPIO3(SCL1)*
X187950000Y-158050000D03*
X209520000Y-158050000D03*
G04 #@! TO.N,/GPIO4(GCLK)*
X213350000Y-122490000D03*
G04 #@! TO.N,/GPIO14(TXD0)*
X199380000Y-127570000D03*
X186845000Y-125270000D03*
G04 #@! TO.N,/GPIO15(RXD0)*
X200650000Y-125030000D03*
X194000000Y-124000000D03*
G04 #@! TO.N,/GPIO17(GEN0)*
X207000000Y-172020000D03*
G04 #@! TO.N,/GPIO23(GEN4)*
X233670000Y-149160000D03*
X204460000Y-145350000D03*
G04 #@! TO.N,/GPIO24(GEN5)*
X201920000Y-128840000D03*
G04 #@! TO.N,/GPIO18(GEN1)(PWM0)*
X204480000Y-150430000D03*
G04 #@! TO.N,/GPIO12(PWM0)*
X206365000Y-133920000D03*
G04 #@! TO.N,/GPIO13(PWM1)*
X209520000Y-122490000D03*
G04 #@! TO.N,/GPIO16*
X194625000Y-172400000D03*
G04 #@! TO.N,Net-(D1-Pad2)*
X225212500Y-121000000D03*
G04 #@! TO.N,Net-(D2-Pad2)*
X225212500Y-124000000D03*
G04 #@! TO.N,Net-(D3-Pad2)*
X225212500Y-127000000D03*
G04 #@! TD*
D16*
G04 #@! TO.N,+3V3*
X222000000Y-102000000D02*
X221999990Y-101999990D01*
X204000000Y-101999990D02*
X204000000Y-100000000D01*
X221999990Y-101999990D02*
X204000000Y-101999990D01*
X229860000Y-163130000D02*
X231130000Y-161860000D01*
X212080000Y-163130000D02*
X229860000Y-163130000D01*
X212080000Y-142810000D02*
X217160000Y-147890000D01*
X230052370Y-147890000D02*
X231130000Y-147890000D01*
X217160000Y-147890000D02*
X230052370Y-147890000D01*
X196261999Y-103238001D02*
X195500000Y-104000000D01*
X197500010Y-101999990D02*
X196261999Y-103238001D01*
X204000000Y-101999990D02*
X197500010Y-101999990D01*
X222000000Y-103000002D02*
X230737999Y-111738001D01*
X230737999Y-111738001D02*
X231499998Y-112500000D01*
X222000000Y-102000000D02*
X222000000Y-103000002D01*
X222000000Y-102000000D02*
X222000000Y-99500008D01*
G04 #@! TO.N,+5V*
X200080000Y-159730000D02*
X190230000Y-159730000D01*
X190230000Y-159730000D02*
X190229994Y-159729994D01*
D17*
G04 #@! TO.N,/GPIO5*
X221187500Y-124000000D02*
X213090000Y-124000000D01*
X213090000Y-124000000D02*
X209520000Y-127570000D01*
G04 #@! TO.N,/GPIO2(SDA1)*
X195570000Y-161860000D02*
X208250000Y-161860000D01*
X208250000Y-161860000D02*
X209520000Y-160590000D01*
G04 #@! TO.N,/GPIO3(SCL1)*
X208815999Y-158754001D02*
X209520000Y-158050000D01*
X204122079Y-158754001D02*
X208815999Y-158754001D01*
X203418078Y-158050000D02*
X204122079Y-158754001D01*
X187950000Y-158050000D02*
X203418078Y-158050000D01*
G04 #@! TO.N,/GPIO4(GCLK)*
X219697500Y-122490000D02*
X221187500Y-121000000D01*
X213350000Y-122490000D02*
X219697500Y-122490000D01*
G04 #@! TO.N,/GPIO14(TXD0)*
X199380000Y-127570000D02*
X189145000Y-127570000D01*
X189145000Y-127570000D02*
X186845000Y-125270000D01*
G04 #@! TO.N,/GPIO15(RXD0)*
X199620000Y-124000000D02*
X200650000Y-125030000D01*
X194000000Y-124000000D02*
X199620000Y-124000000D01*
G04 #@! TO.N,/GPIO17(GEN0)*
X219375000Y-172400000D02*
X224625000Y-172400000D01*
X219375000Y-172400000D02*
X207380000Y-172400000D01*
X207380000Y-172400000D02*
X207000000Y-172020000D01*
G04 #@! TO.N,/GPIO23(GEN4)*
X233670000Y-149160000D02*
X208270000Y-149160000D01*
X208270000Y-149160000D02*
X204460000Y-145350000D01*
G04 #@! TO.N,/GPIO24(GEN5)*
X209077026Y-128840000D02*
X201920000Y-128840000D01*
X221187500Y-127000000D02*
X219347500Y-128840000D01*
X219347500Y-128840000D02*
X209077026Y-128840000D01*
G04 #@! TO.N,/GPIO18(GEN1)(PWM0)*
X194975000Y-142750000D02*
X194625000Y-142400000D01*
X194625000Y-142400000D02*
X189375000Y-142400000D01*
X202726000Y-150430000D02*
X204480000Y-150430000D01*
X201901000Y-150430000D02*
X202726000Y-150430000D01*
X194625000Y-143154000D02*
X201901000Y-150430000D01*
X194625000Y-142400000D02*
X194625000Y-143154000D01*
G04 #@! TO.N,/GPIO12(PWM0)*
X224625000Y-142400000D02*
X219375000Y-142400000D01*
D18*
X219375000Y-142400000D02*
X218473000Y-142400000D01*
D17*
X219375000Y-142400000D02*
X214845000Y-142400000D01*
X206669799Y-134224799D02*
X206365000Y-133920000D01*
X214845000Y-142400000D02*
X206669799Y-134224799D01*
G04 #@! TO.N,/GPIO13(PWM1)*
X189475000Y-122500000D02*
X189375000Y-122400000D01*
X192250000Y-122500000D02*
X189475000Y-122500000D01*
X194525000Y-122500000D02*
X194625000Y-122400000D01*
X192250000Y-122500000D02*
X194525000Y-122500000D01*
X208815999Y-121785999D02*
X209520000Y-122490000D01*
X208676000Y-121646000D02*
X208815999Y-121785999D01*
X195654000Y-121646000D02*
X208676000Y-121646000D01*
X194900000Y-122400000D02*
X195654000Y-121646000D01*
X194625000Y-122400000D02*
X194900000Y-122400000D01*
G04 #@! TO.N,/GPIO16*
X190404000Y-172400000D02*
X194625000Y-172400000D01*
X189375000Y-172400000D02*
X190404000Y-172400000D01*
G04 #@! TO.N,Net-(D1-Pad2)*
X222812500Y-121000000D02*
X225212500Y-121000000D01*
G04 #@! TO.N,Net-(D2-Pad2)*
X222812500Y-124000000D02*
X225212500Y-124000000D01*
G04 #@! TO.N,Net-(D3-Pad2)*
X222812500Y-127000000D02*
X225212500Y-127000000D01*
G04 #@! TD*
G04 #@! TO.N,GND*
G36*
X241873000Y-186373000D02*
X172127000Y-186373000D01*
X172127000Y-182625050D01*
X173115000Y-182625050D01*
X173115000Y-183374950D01*
X173401974Y-184067767D01*
X173932233Y-184598026D01*
X174625050Y-184885000D01*
X175374950Y-184885000D01*
X176067767Y-184598026D01*
X176598026Y-184067767D01*
X176885000Y-183374950D01*
X176885000Y-182625050D01*
X237115000Y-182625050D01*
X237115000Y-183374950D01*
X237401974Y-184067767D01*
X237932233Y-184598026D01*
X238625050Y-184885000D01*
X239374950Y-184885000D01*
X240067767Y-184598026D01*
X240598026Y-184067767D01*
X240885000Y-183374950D01*
X240885000Y-182625050D01*
X240598026Y-181932233D01*
X240067767Y-181401974D01*
X239374950Y-181115000D01*
X238625050Y-181115000D01*
X237932233Y-181401974D01*
X237401974Y-181932233D01*
X237115000Y-182625050D01*
X176885000Y-182625050D01*
X176598026Y-181932233D01*
X176067767Y-181401974D01*
X175374950Y-181115000D01*
X174625050Y-181115000D01*
X173932233Y-181401974D01*
X173401974Y-181932233D01*
X173115000Y-182625050D01*
X172127000Y-182625050D01*
X172127000Y-175885750D01*
X187965000Y-175885750D01*
X187965000Y-176226310D01*
X188061673Y-176459699D01*
X188240302Y-176638327D01*
X188473691Y-176735000D01*
X189089250Y-176735000D01*
X189248000Y-176576250D01*
X189248000Y-175727000D01*
X189502000Y-175727000D01*
X189502000Y-176576250D01*
X189660750Y-176735000D01*
X190276309Y-176735000D01*
X190509698Y-176638327D01*
X190688327Y-176459699D01*
X190785000Y-176226310D01*
X190785000Y-175885750D01*
X193215000Y-175885750D01*
X193215000Y-176226310D01*
X193311673Y-176459699D01*
X193490302Y-176638327D01*
X193723691Y-176735000D01*
X194339250Y-176735000D01*
X194498000Y-176576250D01*
X194498000Y-175727000D01*
X194752000Y-175727000D01*
X194752000Y-176576250D01*
X194910750Y-176735000D01*
X195526309Y-176735000D01*
X195759698Y-176638327D01*
X195938327Y-176459699D01*
X196035000Y-176226310D01*
X196035000Y-175885750D01*
X217965000Y-175885750D01*
X217965000Y-176226310D01*
X218061673Y-176459699D01*
X218240302Y-176638327D01*
X218473691Y-176735000D01*
X219089250Y-176735000D01*
X219248000Y-176576250D01*
X219248000Y-175727000D01*
X219502000Y-175727000D01*
X219502000Y-176576250D01*
X219660750Y-176735000D01*
X220276309Y-176735000D01*
X220509698Y-176638327D01*
X220688327Y-176459699D01*
X220785000Y-176226310D01*
X220785000Y-175885750D01*
X223215000Y-175885750D01*
X223215000Y-176226310D01*
X223311673Y-176459699D01*
X223490302Y-176638327D01*
X223723691Y-176735000D01*
X224339250Y-176735000D01*
X224498000Y-176576250D01*
X224498000Y-175727000D01*
X224752000Y-175727000D01*
X224752000Y-176576250D01*
X224910750Y-176735000D01*
X225526309Y-176735000D01*
X225759698Y-176638327D01*
X225938327Y-176459699D01*
X226035000Y-176226310D01*
X226035000Y-175885750D01*
X225876250Y-175727000D01*
X224752000Y-175727000D01*
X224498000Y-175727000D01*
X223373750Y-175727000D01*
X223215000Y-175885750D01*
X220785000Y-175885750D01*
X220626250Y-175727000D01*
X219502000Y-175727000D01*
X219248000Y-175727000D01*
X218123750Y-175727000D01*
X217965000Y-175885750D01*
X196035000Y-175885750D01*
X195876250Y-175727000D01*
X194752000Y-175727000D01*
X194498000Y-175727000D01*
X193373750Y-175727000D01*
X193215000Y-175885750D01*
X190785000Y-175885750D01*
X190626250Y-175727000D01*
X189502000Y-175727000D01*
X189248000Y-175727000D01*
X188123750Y-175727000D01*
X187965000Y-175885750D01*
X172127000Y-175885750D01*
X172127000Y-174973690D01*
X187965000Y-174973690D01*
X187965000Y-175314250D01*
X188123750Y-175473000D01*
X189248000Y-175473000D01*
X189248000Y-174623750D01*
X189502000Y-174623750D01*
X189502000Y-175473000D01*
X190626250Y-175473000D01*
X190785000Y-175314250D01*
X190785000Y-174973690D01*
X193215000Y-174973690D01*
X193215000Y-175314250D01*
X193373750Y-175473000D01*
X194498000Y-175473000D01*
X194498000Y-174623750D01*
X194752000Y-174623750D01*
X194752000Y-175473000D01*
X195876250Y-175473000D01*
X196035000Y-175314250D01*
X196035000Y-174973690D01*
X217965000Y-174973690D01*
X217965000Y-175314250D01*
X218123750Y-175473000D01*
X219248000Y-175473000D01*
X219248000Y-174623750D01*
X219502000Y-174623750D01*
X219502000Y-175473000D01*
X220626250Y-175473000D01*
X220785000Y-175314250D01*
X220785000Y-174973690D01*
X223215000Y-174973690D01*
X223215000Y-175314250D01*
X223373750Y-175473000D01*
X224498000Y-175473000D01*
X224498000Y-174623750D01*
X224752000Y-174623750D01*
X224752000Y-175473000D01*
X225876250Y-175473000D01*
X226035000Y-175314250D01*
X226035000Y-174973690D01*
X225938327Y-174740301D01*
X225759698Y-174561673D01*
X225526309Y-174465000D01*
X224910750Y-174465000D01*
X224752000Y-174623750D01*
X224498000Y-174623750D01*
X224339250Y-174465000D01*
X223723691Y-174465000D01*
X223490302Y-174561673D01*
X223311673Y-174740301D01*
X223215000Y-174973690D01*
X220785000Y-174973690D01*
X220688327Y-174740301D01*
X220509698Y-174561673D01*
X220276309Y-174465000D01*
X219660750Y-174465000D01*
X219502000Y-174623750D01*
X219248000Y-174623750D01*
X219089250Y-174465000D01*
X218473691Y-174465000D01*
X218240302Y-174561673D01*
X218061673Y-174740301D01*
X217965000Y-174973690D01*
X196035000Y-174973690D01*
X195938327Y-174740301D01*
X195759698Y-174561673D01*
X195526309Y-174465000D01*
X194910750Y-174465000D01*
X194752000Y-174623750D01*
X194498000Y-174623750D01*
X194339250Y-174465000D01*
X193723691Y-174465000D01*
X193490302Y-174561673D01*
X193311673Y-174740301D01*
X193215000Y-174973690D01*
X190785000Y-174973690D01*
X190688327Y-174740301D01*
X190509698Y-174561673D01*
X190276309Y-174465000D01*
X189660750Y-174465000D01*
X189502000Y-174623750D01*
X189248000Y-174623750D01*
X189089250Y-174465000D01*
X188473691Y-174465000D01*
X188240302Y-174561673D01*
X188061673Y-174740301D01*
X187965000Y-174973690D01*
X172127000Y-174973690D01*
X172127000Y-171900000D01*
X187952560Y-171900000D01*
X187952560Y-172900000D01*
X188001843Y-173147765D01*
X188142191Y-173357809D01*
X188352235Y-173498157D01*
X188600000Y-173547440D01*
X190150000Y-173547440D01*
X190397765Y-173498157D01*
X190607809Y-173357809D01*
X190738645Y-173162000D01*
X193261355Y-173162000D01*
X193392191Y-173357809D01*
X193602235Y-173498157D01*
X193850000Y-173547440D01*
X195400000Y-173547440D01*
X195647765Y-173498157D01*
X195857809Y-173357809D01*
X195998157Y-173147765D01*
X196047440Y-172900000D01*
X196047440Y-171900000D01*
X196034126Y-171833062D01*
X206060200Y-171833062D01*
X206060200Y-172206938D01*
X206203276Y-172552354D01*
X206467646Y-172816724D01*
X206813062Y-172959800D01*
X206846237Y-172959800D01*
X207007319Y-173067431D01*
X207082681Y-173117787D01*
X207082682Y-173117787D01*
X207082683Y-173117788D01*
X207304952Y-173162000D01*
X207304956Y-173162000D01*
X207379999Y-173176927D01*
X207455042Y-173162000D01*
X218011355Y-173162000D01*
X218142191Y-173357809D01*
X218352235Y-173498157D01*
X218600000Y-173547440D01*
X220150000Y-173547440D01*
X220397765Y-173498157D01*
X220607809Y-173357809D01*
X220738645Y-173162000D01*
X223261355Y-173162000D01*
X223392191Y-173357809D01*
X223602235Y-173498157D01*
X223850000Y-173547440D01*
X225400000Y-173547440D01*
X225647765Y-173498157D01*
X225857809Y-173357809D01*
X225998157Y-173147765D01*
X226047440Y-172900000D01*
X226047440Y-171900000D01*
X225998157Y-171652235D01*
X225857809Y-171442191D01*
X225647765Y-171301843D01*
X225400000Y-171252560D01*
X223850000Y-171252560D01*
X223602235Y-171301843D01*
X223392191Y-171442191D01*
X223261355Y-171638000D01*
X220738645Y-171638000D01*
X220607809Y-171442191D01*
X220397765Y-171301843D01*
X220150000Y-171252560D01*
X218600000Y-171252560D01*
X218352235Y-171301843D01*
X218142191Y-171442191D01*
X218011355Y-171638000D01*
X207859003Y-171638000D01*
X207796724Y-171487646D01*
X207532354Y-171223276D01*
X207186938Y-171080200D01*
X206813062Y-171080200D01*
X206467646Y-171223276D01*
X206203276Y-171487646D01*
X206060200Y-171833062D01*
X196034126Y-171833062D01*
X195998157Y-171652235D01*
X195857809Y-171442191D01*
X195647765Y-171301843D01*
X195400000Y-171252560D01*
X193850000Y-171252560D01*
X193602235Y-171301843D01*
X193392191Y-171442191D01*
X193261355Y-171638000D01*
X190738645Y-171638000D01*
X190607809Y-171442191D01*
X190397765Y-171301843D01*
X190150000Y-171252560D01*
X188600000Y-171252560D01*
X188352235Y-171301843D01*
X188142191Y-171442191D01*
X188001843Y-171652235D01*
X187952560Y-171900000D01*
X172127000Y-171900000D01*
X172127000Y-162852119D01*
X210683000Y-162852119D01*
X210683000Y-163407881D01*
X210895680Y-163921337D01*
X211288663Y-164314320D01*
X211802119Y-164527000D01*
X212357881Y-164527000D01*
X212664487Y-164400000D01*
X229734925Y-164400000D01*
X229860000Y-164424879D01*
X229985075Y-164400000D01*
X229985080Y-164400000D01*
X230355529Y-164326313D01*
X230775618Y-164045618D01*
X230846471Y-163939579D01*
X231614730Y-163171320D01*
X231921337Y-163044320D01*
X232314320Y-162651337D01*
X232527000Y-162137881D01*
X232527000Y-161582119D01*
X232314320Y-161068663D01*
X231921337Y-160675680D01*
X231407881Y-160463000D01*
X230852119Y-160463000D01*
X230338663Y-160675680D01*
X229945680Y-161068663D01*
X229818680Y-161375270D01*
X229333950Y-161860000D01*
X212664487Y-161860000D01*
X212357881Y-161733000D01*
X211802119Y-161733000D01*
X211288663Y-161945680D01*
X210895680Y-162338663D01*
X210683000Y-162852119D01*
X172127000Y-162852119D01*
X172127000Y-157863062D01*
X187010200Y-157863062D01*
X187010200Y-158236938D01*
X187153276Y-158582354D01*
X187417646Y-158846724D01*
X187763062Y-158989800D01*
X188136938Y-158989800D01*
X188482354Y-158846724D01*
X188517078Y-158812000D01*
X189172331Y-158812000D01*
X189045674Y-158938657D01*
X188832994Y-159452113D01*
X188832994Y-160007875D01*
X189045674Y-160521331D01*
X189438657Y-160914314D01*
X189952113Y-161126994D01*
X190507875Y-161126994D01*
X190814466Y-161000000D01*
X195190408Y-161000000D01*
X195037646Y-161063276D01*
X194773276Y-161327646D01*
X194630200Y-161673062D01*
X194630200Y-162046938D01*
X194773276Y-162392354D01*
X195037646Y-162656724D01*
X195383062Y-162799800D01*
X195756938Y-162799800D01*
X196102354Y-162656724D01*
X196137078Y-162622000D01*
X208174957Y-162622000D01*
X208250000Y-162636927D01*
X208325043Y-162622000D01*
X208325048Y-162622000D01*
X208547317Y-162577788D01*
X208799371Y-162409371D01*
X208841883Y-162345747D01*
X209657831Y-161529800D01*
X209706938Y-161529800D01*
X210052354Y-161386724D01*
X210316724Y-161122354D01*
X210459800Y-160776938D01*
X210459800Y-160403062D01*
X210316724Y-160057646D01*
X210052354Y-159793276D01*
X209706938Y-159650200D01*
X209333062Y-159650200D01*
X208987646Y-159793276D01*
X208723276Y-160057646D01*
X208580200Y-160403062D01*
X208580200Y-160452169D01*
X207934370Y-161098000D01*
X200427893Y-161098000D01*
X200871337Y-160914320D01*
X201264320Y-160521337D01*
X201477000Y-160007881D01*
X201477000Y-159452119D01*
X201264320Y-158938663D01*
X201137657Y-158812000D01*
X203102448Y-158812000D01*
X203530197Y-159239750D01*
X203572708Y-159303372D01*
X203824762Y-159471789D01*
X204047031Y-159516001D01*
X204047032Y-159516001D01*
X204122079Y-159530929D01*
X204197126Y-159516001D01*
X208740956Y-159516001D01*
X208815999Y-159530928D01*
X208891042Y-159516001D01*
X208891047Y-159516001D01*
X209113316Y-159471789D01*
X209365370Y-159303372D01*
X209407882Y-159239748D01*
X209657830Y-158989800D01*
X209706938Y-158989800D01*
X210052354Y-158846724D01*
X210316724Y-158582354D01*
X210459800Y-158236938D01*
X210459800Y-157863062D01*
X210316724Y-157517646D01*
X210052354Y-157253276D01*
X209706938Y-157110200D01*
X209333062Y-157110200D01*
X208987646Y-157253276D01*
X208723276Y-157517646D01*
X208580200Y-157863062D01*
X208580200Y-157912170D01*
X208500369Y-157992001D01*
X204437710Y-157992001D01*
X204009961Y-157564253D01*
X203967449Y-157500629D01*
X203715395Y-157332212D01*
X203493126Y-157288000D01*
X203493121Y-157288000D01*
X203418078Y-157273073D01*
X203343035Y-157288000D01*
X188517078Y-157288000D01*
X188482354Y-157253276D01*
X188136938Y-157110200D01*
X187763062Y-157110200D01*
X187417646Y-157253276D01*
X187153276Y-157517646D01*
X187010200Y-157863062D01*
X172127000Y-157863062D01*
X172127000Y-145885750D01*
X187965000Y-145885750D01*
X187965000Y-146226310D01*
X188061673Y-146459699D01*
X188240302Y-146638327D01*
X188473691Y-146735000D01*
X189089250Y-146735000D01*
X189248000Y-146576250D01*
X189248000Y-145727000D01*
X189502000Y-145727000D01*
X189502000Y-146576250D01*
X189660750Y-146735000D01*
X190276309Y-146735000D01*
X190509698Y-146638327D01*
X190688327Y-146459699D01*
X190785000Y-146226310D01*
X190785000Y-145885750D01*
X193215000Y-145885750D01*
X193215000Y-146226310D01*
X193311673Y-146459699D01*
X193490302Y-146638327D01*
X193723691Y-146735000D01*
X194339250Y-146735000D01*
X194498000Y-146576250D01*
X194498000Y-145727000D01*
X193373750Y-145727000D01*
X193215000Y-145885750D01*
X190785000Y-145885750D01*
X190626250Y-145727000D01*
X189502000Y-145727000D01*
X189248000Y-145727000D01*
X188123750Y-145727000D01*
X187965000Y-145885750D01*
X172127000Y-145885750D01*
X172127000Y-144973690D01*
X187965000Y-144973690D01*
X187965000Y-145314250D01*
X188123750Y-145473000D01*
X189248000Y-145473000D01*
X189248000Y-144623750D01*
X189502000Y-144623750D01*
X189502000Y-145473000D01*
X190626250Y-145473000D01*
X190785000Y-145314250D01*
X190785000Y-144973690D01*
X193215000Y-144973690D01*
X193215000Y-145314250D01*
X193373750Y-145473000D01*
X194498000Y-145473000D01*
X194498000Y-144623750D01*
X194339250Y-144465000D01*
X193723691Y-144465000D01*
X193490302Y-144561673D01*
X193311673Y-144740301D01*
X193215000Y-144973690D01*
X190785000Y-144973690D01*
X190688327Y-144740301D01*
X190509698Y-144561673D01*
X190276309Y-144465000D01*
X189660750Y-144465000D01*
X189502000Y-144623750D01*
X189248000Y-144623750D01*
X189089250Y-144465000D01*
X188473691Y-144465000D01*
X188240302Y-144561673D01*
X188061673Y-144740301D01*
X187965000Y-144973690D01*
X172127000Y-144973690D01*
X172127000Y-141900000D01*
X187952560Y-141900000D01*
X187952560Y-142900000D01*
X188001843Y-143147765D01*
X188142191Y-143357809D01*
X188352235Y-143498157D01*
X188600000Y-143547440D01*
X190150000Y-143547440D01*
X190397765Y-143498157D01*
X190607809Y-143357809D01*
X190738645Y-143162000D01*
X193261355Y-143162000D01*
X193392191Y-143357809D01*
X193602235Y-143498157D01*
X193850000Y-143547440D01*
X193971440Y-143547440D01*
X194019643Y-143619580D01*
X194075630Y-143703371D01*
X194139251Y-143745881D01*
X194884560Y-144491190D01*
X194752000Y-144623750D01*
X194752000Y-145473000D01*
X194772000Y-145473000D01*
X194772000Y-145727000D01*
X194752000Y-145727000D01*
X194752000Y-146576250D01*
X194910750Y-146735000D01*
X195526309Y-146735000D01*
X195759698Y-146638327D01*
X195938327Y-146459699D01*
X196035000Y-146226310D01*
X196035000Y-145885750D01*
X195876252Y-145727002D01*
X196035000Y-145727002D01*
X196035000Y-145641630D01*
X201309118Y-150915749D01*
X201351629Y-150979371D01*
X201603683Y-151147788D01*
X201825952Y-151192000D01*
X201825953Y-151192000D01*
X201901000Y-151206928D01*
X201976047Y-151192000D01*
X203912922Y-151192000D01*
X203947646Y-151226724D01*
X204293062Y-151369800D01*
X204666938Y-151369800D01*
X205012354Y-151226724D01*
X205276724Y-150962354D01*
X205419800Y-150616938D01*
X205419800Y-150243062D01*
X205276724Y-149897646D01*
X205012354Y-149633276D01*
X204666938Y-149490200D01*
X204293062Y-149490200D01*
X203947646Y-149633276D01*
X203912922Y-149668000D01*
X202216631Y-149668000D01*
X197711693Y-145163062D01*
X203520200Y-145163062D01*
X203520200Y-145536938D01*
X203663276Y-145882354D01*
X203927646Y-146146724D01*
X204273062Y-146289800D01*
X204322170Y-146289800D01*
X207678118Y-149645749D01*
X207720629Y-149709371D01*
X207972683Y-149877788D01*
X208194952Y-149922000D01*
X208194953Y-149922000D01*
X208270000Y-149936928D01*
X208345047Y-149922000D01*
X233102922Y-149922000D01*
X233137646Y-149956724D01*
X233483062Y-150099800D01*
X233856938Y-150099800D01*
X234202354Y-149956724D01*
X234466724Y-149692354D01*
X234609800Y-149346938D01*
X234609800Y-148973062D01*
X234466724Y-148627646D01*
X234202354Y-148363276D01*
X233856938Y-148220200D01*
X233483062Y-148220200D01*
X233137646Y-148363276D01*
X233102922Y-148398000D01*
X232431682Y-148398000D01*
X232527000Y-148167881D01*
X232527000Y-147612119D01*
X232314320Y-147098663D01*
X231921337Y-146705680D01*
X231407881Y-146493000D01*
X230852119Y-146493000D01*
X230545513Y-146620000D01*
X225778025Y-146620000D01*
X225938327Y-146459699D01*
X226035000Y-146226310D01*
X226035000Y-145885750D01*
X225876250Y-145727000D01*
X224752000Y-145727000D01*
X224752000Y-145747000D01*
X224498000Y-145747000D01*
X224498000Y-145727000D01*
X223373750Y-145727000D01*
X223215000Y-145885750D01*
X223215000Y-146226310D01*
X223311673Y-146459699D01*
X223471975Y-146620000D01*
X220528025Y-146620000D01*
X220688327Y-146459699D01*
X220785000Y-146226310D01*
X220785000Y-145885750D01*
X220626250Y-145727000D01*
X219502000Y-145727000D01*
X219502000Y-145747000D01*
X219248000Y-145747000D01*
X219248000Y-145727000D01*
X218123750Y-145727000D01*
X217965000Y-145885750D01*
X217965000Y-146226310D01*
X218061673Y-146459699D01*
X218221975Y-146620000D01*
X217686051Y-146620000D01*
X216039741Y-144973690D01*
X217965000Y-144973690D01*
X217965000Y-145314250D01*
X218123750Y-145473000D01*
X219248000Y-145473000D01*
X219248000Y-144623750D01*
X219502000Y-144623750D01*
X219502000Y-145473000D01*
X220626250Y-145473000D01*
X220785000Y-145314250D01*
X220785000Y-144973690D01*
X223215000Y-144973690D01*
X223215000Y-145314250D01*
X223373750Y-145473000D01*
X224498000Y-145473000D01*
X224498000Y-144623750D01*
X224752000Y-144623750D01*
X224752000Y-145473000D01*
X225876250Y-145473000D01*
X226035000Y-145314250D01*
X226035000Y-144973690D01*
X225938327Y-144740301D01*
X225759698Y-144561673D01*
X225526309Y-144465000D01*
X224910750Y-144465000D01*
X224752000Y-144623750D01*
X224498000Y-144623750D01*
X224339250Y-144465000D01*
X223723691Y-144465000D01*
X223490302Y-144561673D01*
X223311673Y-144740301D01*
X223215000Y-144973690D01*
X220785000Y-144973690D01*
X220688327Y-144740301D01*
X220509698Y-144561673D01*
X220276309Y-144465000D01*
X219660750Y-144465000D01*
X219502000Y-144623750D01*
X219248000Y-144623750D01*
X219089250Y-144465000D01*
X218473691Y-144465000D01*
X218240302Y-144561673D01*
X218061673Y-144740301D01*
X217965000Y-144973690D01*
X216039741Y-144973690D01*
X213391321Y-142325271D01*
X213264320Y-142018663D01*
X212871337Y-141625680D01*
X212357881Y-141413000D01*
X211802119Y-141413000D01*
X211288663Y-141625680D01*
X210895680Y-142018663D01*
X210683000Y-142532119D01*
X210683000Y-143087881D01*
X210895680Y-143601337D01*
X211288663Y-143994320D01*
X211595271Y-144121321D01*
X215871949Y-148398000D01*
X208585631Y-148398000D01*
X205399800Y-145212170D01*
X205399800Y-145163062D01*
X205256724Y-144817646D01*
X204992354Y-144553276D01*
X204646938Y-144410200D01*
X204273062Y-144410200D01*
X203927646Y-144553276D01*
X203663276Y-144817646D01*
X203520200Y-145163062D01*
X197711693Y-145163062D01*
X195877288Y-143328657D01*
X195998157Y-143147765D01*
X196047440Y-142900000D01*
X196047440Y-141900000D01*
X195998157Y-141652235D01*
X195857809Y-141442191D01*
X195647765Y-141301843D01*
X195400000Y-141252560D01*
X193850000Y-141252560D01*
X193602235Y-141301843D01*
X193392191Y-141442191D01*
X193261355Y-141638000D01*
X190738645Y-141638000D01*
X190607809Y-141442191D01*
X190397765Y-141301843D01*
X190150000Y-141252560D01*
X188600000Y-141252560D01*
X188352235Y-141301843D01*
X188142191Y-141442191D01*
X188001843Y-141652235D01*
X187952560Y-141900000D01*
X172127000Y-141900000D01*
X172127000Y-133733062D01*
X205425200Y-133733062D01*
X205425200Y-134106938D01*
X205568276Y-134452354D01*
X205832646Y-134716724D01*
X206178062Y-134859800D01*
X206227170Y-134859800D01*
X214253117Y-142885748D01*
X214295629Y-142949371D01*
X214547683Y-143117788D01*
X214769952Y-143162000D01*
X214769956Y-143162000D01*
X214844999Y-143176927D01*
X214920042Y-143162000D01*
X218011355Y-143162000D01*
X218142191Y-143357809D01*
X218352235Y-143498157D01*
X218600000Y-143547440D01*
X220150000Y-143547440D01*
X220397765Y-143498157D01*
X220607809Y-143357809D01*
X220738645Y-143162000D01*
X223261355Y-143162000D01*
X223392191Y-143357809D01*
X223602235Y-143498157D01*
X223850000Y-143547440D01*
X225400000Y-143547440D01*
X225647765Y-143498157D01*
X225857809Y-143357809D01*
X225998157Y-143147765D01*
X226047440Y-142900000D01*
X226047440Y-141900000D01*
X225998157Y-141652235D01*
X225857809Y-141442191D01*
X225647765Y-141301843D01*
X225400000Y-141252560D01*
X223850000Y-141252560D01*
X223602235Y-141301843D01*
X223392191Y-141442191D01*
X223261355Y-141638000D01*
X220738645Y-141638000D01*
X220607809Y-141442191D01*
X220397765Y-141301843D01*
X220150000Y-141252560D01*
X218600000Y-141252560D01*
X218352235Y-141301843D01*
X218142191Y-141442191D01*
X218011355Y-141638000D01*
X215160631Y-141638000D01*
X207304800Y-133782170D01*
X207304800Y-133733062D01*
X207161724Y-133387646D01*
X206897354Y-133123276D01*
X206551938Y-132980200D01*
X206178062Y-132980200D01*
X205832646Y-133123276D01*
X205568276Y-133387646D01*
X205425200Y-133733062D01*
X172127000Y-133733062D01*
X172127000Y-128653062D01*
X200980200Y-128653062D01*
X200980200Y-129026938D01*
X201123276Y-129372354D01*
X201387646Y-129636724D01*
X201733062Y-129779800D01*
X202106938Y-129779800D01*
X202452354Y-129636724D01*
X202487078Y-129602000D01*
X219272457Y-129602000D01*
X219347500Y-129616927D01*
X219422543Y-129602000D01*
X219422548Y-129602000D01*
X219644817Y-129557788D01*
X219896871Y-129389371D01*
X219939383Y-129325747D01*
X221192691Y-128072440D01*
X221587500Y-128072440D01*
X221916585Y-128006981D01*
X222000000Y-127951245D01*
X222083415Y-128006981D01*
X222412500Y-128072440D01*
X223212500Y-128072440D01*
X223541585Y-128006981D01*
X223820569Y-127820569D01*
X223859704Y-127762000D01*
X224645422Y-127762000D01*
X224680146Y-127796724D01*
X225025562Y-127939800D01*
X225399438Y-127939800D01*
X225744854Y-127796724D01*
X226009224Y-127532354D01*
X226152300Y-127186938D01*
X226152300Y-126813062D01*
X226009224Y-126467646D01*
X225744854Y-126203276D01*
X225399438Y-126060200D01*
X225025562Y-126060200D01*
X224680146Y-126203276D01*
X224645422Y-126238000D01*
X223859704Y-126238000D01*
X223820569Y-126179431D01*
X223541585Y-125993019D01*
X223212500Y-125927560D01*
X222412500Y-125927560D01*
X222083415Y-125993019D01*
X222000000Y-126048755D01*
X221916585Y-125993019D01*
X221587500Y-125927560D01*
X220787500Y-125927560D01*
X220458415Y-125993019D01*
X220179431Y-126179431D01*
X219993019Y-126458415D01*
X219927560Y-126787500D01*
X219927560Y-127182309D01*
X219031870Y-128078000D01*
X210326812Y-128078000D01*
X210459800Y-127756938D01*
X210459800Y-127707830D01*
X213405631Y-124762000D01*
X220140296Y-124762000D01*
X220179431Y-124820569D01*
X220458415Y-125006981D01*
X220787500Y-125072440D01*
X221587500Y-125072440D01*
X221916585Y-125006981D01*
X222000000Y-124951245D01*
X222083415Y-125006981D01*
X222412500Y-125072440D01*
X223212500Y-125072440D01*
X223541585Y-125006981D01*
X223820569Y-124820569D01*
X223859704Y-124762000D01*
X224645422Y-124762000D01*
X224680146Y-124796724D01*
X225025562Y-124939800D01*
X225399438Y-124939800D01*
X225744854Y-124796724D01*
X226009224Y-124532354D01*
X226152300Y-124186938D01*
X226152300Y-123813062D01*
X226009224Y-123467646D01*
X225744854Y-123203276D01*
X225399438Y-123060200D01*
X225025562Y-123060200D01*
X224680146Y-123203276D01*
X224645422Y-123238000D01*
X223859704Y-123238000D01*
X223820569Y-123179431D01*
X223541585Y-122993019D01*
X223212500Y-122927560D01*
X222412500Y-122927560D01*
X222083415Y-122993019D01*
X222000000Y-123048755D01*
X221916585Y-122993019D01*
X221587500Y-122927560D01*
X220787500Y-122927560D01*
X220458415Y-122993019D01*
X220179431Y-123179431D01*
X220140296Y-123238000D01*
X219842931Y-123238000D01*
X219994817Y-123207788D01*
X220246871Y-123039371D01*
X220289383Y-122975747D01*
X221192691Y-122072440D01*
X221587500Y-122072440D01*
X221916585Y-122006981D01*
X222000000Y-121951245D01*
X222083415Y-122006981D01*
X222412500Y-122072440D01*
X223212500Y-122072440D01*
X223541585Y-122006981D01*
X223820569Y-121820569D01*
X223859704Y-121762000D01*
X224645422Y-121762000D01*
X224680146Y-121796724D01*
X225025562Y-121939800D01*
X225399438Y-121939800D01*
X225744854Y-121796724D01*
X226009224Y-121532354D01*
X226152300Y-121186938D01*
X226152300Y-120813062D01*
X226009224Y-120467646D01*
X225744854Y-120203276D01*
X225399438Y-120060200D01*
X225025562Y-120060200D01*
X224680146Y-120203276D01*
X224645422Y-120238000D01*
X223859704Y-120238000D01*
X223820569Y-120179431D01*
X223541585Y-119993019D01*
X223212500Y-119927560D01*
X222412500Y-119927560D01*
X222083415Y-119993019D01*
X222000000Y-120048755D01*
X221916585Y-119993019D01*
X221587500Y-119927560D01*
X220787500Y-119927560D01*
X220458415Y-119993019D01*
X220179431Y-120179431D01*
X219993019Y-120458415D01*
X219927560Y-120787500D01*
X219927560Y-121182309D01*
X219381870Y-121728000D01*
X213917078Y-121728000D01*
X213882354Y-121693276D01*
X213536938Y-121550200D01*
X213163062Y-121550200D01*
X212817646Y-121693276D01*
X212553276Y-121957646D01*
X212410200Y-122303062D01*
X212410200Y-122676938D01*
X212553276Y-123022354D01*
X212809741Y-123278819D01*
X212792683Y-123282212D01*
X212792682Y-123282213D01*
X212792681Y-123282213D01*
X212785930Y-123286724D01*
X212540629Y-123450629D01*
X212498118Y-123514251D01*
X209382170Y-126630200D01*
X209333062Y-126630200D01*
X208987646Y-126773276D01*
X208723276Y-127037646D01*
X208580200Y-127383062D01*
X208580200Y-127756938D01*
X208713188Y-128078000D01*
X202487078Y-128078000D01*
X202452354Y-128043276D01*
X202106938Y-127900200D01*
X201733062Y-127900200D01*
X201387646Y-128043276D01*
X201123276Y-128307646D01*
X200980200Y-128653062D01*
X172127000Y-128653062D01*
X172127000Y-125083062D01*
X185905200Y-125083062D01*
X185905200Y-125456938D01*
X186048276Y-125802354D01*
X186312646Y-126066724D01*
X186658062Y-126209800D01*
X186707170Y-126209800D01*
X188553118Y-128055749D01*
X188595629Y-128119371D01*
X188659251Y-128161882D01*
X188847681Y-128287787D01*
X188847682Y-128287787D01*
X188847683Y-128287788D01*
X189069952Y-128332000D01*
X189069956Y-128332000D01*
X189144999Y-128346927D01*
X189220042Y-128332000D01*
X198812922Y-128332000D01*
X198847646Y-128366724D01*
X199193062Y-128509800D01*
X199566938Y-128509800D01*
X199912354Y-128366724D01*
X200176724Y-128102354D01*
X200319800Y-127756938D01*
X200319800Y-127383062D01*
X200176724Y-127037646D01*
X199912354Y-126773276D01*
X199566938Y-126630200D01*
X199193062Y-126630200D01*
X198847646Y-126773276D01*
X198812922Y-126808000D01*
X189460631Y-126808000D01*
X189387631Y-126735000D01*
X189502002Y-126735000D01*
X189502002Y-126576252D01*
X189660750Y-126735000D01*
X190276309Y-126735000D01*
X190509698Y-126638327D01*
X190688327Y-126459699D01*
X190785000Y-126226310D01*
X190785000Y-125885750D01*
X193215000Y-125885750D01*
X193215000Y-126226310D01*
X193311673Y-126459699D01*
X193490302Y-126638327D01*
X193723691Y-126735000D01*
X194339250Y-126735000D01*
X194498000Y-126576250D01*
X194498000Y-125727000D01*
X194752000Y-125727000D01*
X194752000Y-126576250D01*
X194910750Y-126735000D01*
X195526309Y-126735000D01*
X195759698Y-126638327D01*
X195938327Y-126459699D01*
X196035000Y-126226310D01*
X196035000Y-125885750D01*
X195876250Y-125727000D01*
X194752000Y-125727000D01*
X194498000Y-125727000D01*
X193373750Y-125727000D01*
X193215000Y-125885750D01*
X190785000Y-125885750D01*
X190626250Y-125727000D01*
X189502000Y-125727000D01*
X189502000Y-125747000D01*
X189248000Y-125747000D01*
X189248000Y-125727000D01*
X189228000Y-125727000D01*
X189228000Y-125473000D01*
X189248000Y-125473000D01*
X189248000Y-124623750D01*
X189502000Y-124623750D01*
X189502000Y-125473000D01*
X190626250Y-125473000D01*
X190785000Y-125314250D01*
X190785000Y-124973690D01*
X190688327Y-124740301D01*
X190509698Y-124561673D01*
X190276309Y-124465000D01*
X189660750Y-124465000D01*
X189502000Y-124623750D01*
X189248000Y-124623750D01*
X189089250Y-124465000D01*
X188473691Y-124465000D01*
X188240302Y-124561673D01*
X188061673Y-124740301D01*
X187965000Y-124973690D01*
X187965000Y-125312370D01*
X187784800Y-125132170D01*
X187784800Y-125083062D01*
X187641724Y-124737646D01*
X187377354Y-124473276D01*
X187031938Y-124330200D01*
X186658062Y-124330200D01*
X186312646Y-124473276D01*
X186048276Y-124737646D01*
X185905200Y-125083062D01*
X172127000Y-125083062D01*
X172127000Y-121900000D01*
X187952560Y-121900000D01*
X187952560Y-122900000D01*
X188001843Y-123147765D01*
X188142191Y-123357809D01*
X188352235Y-123498157D01*
X188600000Y-123547440D01*
X190150000Y-123547440D01*
X190397765Y-123498157D01*
X190607809Y-123357809D01*
X190671827Y-123262000D01*
X193328173Y-123262000D01*
X193360517Y-123310405D01*
X193203276Y-123467646D01*
X193060200Y-123813062D01*
X193060200Y-124186938D01*
X193203276Y-124532354D01*
X193361448Y-124690526D01*
X193311673Y-124740301D01*
X193215000Y-124973690D01*
X193215000Y-125314250D01*
X193373750Y-125473000D01*
X194498000Y-125473000D01*
X194498000Y-125453000D01*
X194752000Y-125453000D01*
X194752000Y-125473000D01*
X195876250Y-125473000D01*
X196035000Y-125314250D01*
X196035000Y-124973690D01*
X195947315Y-124762000D01*
X199304370Y-124762000D01*
X199710200Y-125167831D01*
X199710200Y-125216938D01*
X199853276Y-125562354D01*
X200117646Y-125826724D01*
X200463062Y-125969800D01*
X200836938Y-125969800D01*
X201182354Y-125826724D01*
X201446724Y-125562354D01*
X201589800Y-125216938D01*
X201589800Y-124843062D01*
X201446724Y-124497646D01*
X201182354Y-124233276D01*
X200836938Y-124090200D01*
X200787831Y-124090200D01*
X200211883Y-123514253D01*
X200169371Y-123450629D01*
X199917317Y-123282212D01*
X199695048Y-123238000D01*
X199695043Y-123238000D01*
X199620000Y-123223073D01*
X199544957Y-123238000D01*
X195937863Y-123238000D01*
X195998157Y-123147765D01*
X196047440Y-122900000D01*
X196047440Y-122408000D01*
X208360370Y-122408000D01*
X208580200Y-122627830D01*
X208580200Y-122676938D01*
X208723276Y-123022354D01*
X208987646Y-123286724D01*
X209333062Y-123429800D01*
X209706938Y-123429800D01*
X210052354Y-123286724D01*
X210316724Y-123022354D01*
X210459800Y-122676938D01*
X210459800Y-122303062D01*
X210316724Y-121957646D01*
X210052354Y-121693276D01*
X209706938Y-121550200D01*
X209657830Y-121550200D01*
X209301747Y-121194117D01*
X209301745Y-121194116D01*
X209267884Y-121160255D01*
X209225371Y-121096629D01*
X208973317Y-120928212D01*
X208751048Y-120884000D01*
X208751043Y-120884000D01*
X208676000Y-120869073D01*
X208600957Y-120884000D01*
X195729042Y-120884000D01*
X195653999Y-120869073D01*
X195578956Y-120884000D01*
X195578952Y-120884000D01*
X195356683Y-120928212D01*
X195104629Y-121096629D01*
X195062118Y-121160251D01*
X194969809Y-121252560D01*
X193850000Y-121252560D01*
X193602235Y-121301843D01*
X193392191Y-121442191D01*
X193251843Y-121652235D01*
X193234783Y-121738000D01*
X190765217Y-121738000D01*
X190748157Y-121652235D01*
X190607809Y-121442191D01*
X190397765Y-121301843D01*
X190150000Y-121252560D01*
X188600000Y-121252560D01*
X188352235Y-121301843D01*
X188142191Y-121442191D01*
X188001843Y-121652235D01*
X187952560Y-121900000D01*
X172127000Y-121900000D01*
X172127000Y-103722119D01*
X194103000Y-103722119D01*
X194103000Y-104277881D01*
X194315680Y-104791337D01*
X194708663Y-105184320D01*
X195222119Y-105397000D01*
X195777881Y-105397000D01*
X196291337Y-105184320D01*
X196684320Y-104791337D01*
X196811321Y-104484729D01*
X197248469Y-104047581D01*
X198026061Y-103269990D01*
X203874920Y-103269990D01*
X204000000Y-103294870D01*
X204125080Y-103269990D01*
X220758824Y-103269990D01*
X220803687Y-103495531D01*
X221084383Y-103915620D01*
X221190419Y-103986471D01*
X229928418Y-112724471D01*
X229928421Y-112724473D01*
X230188677Y-112984729D01*
X230315678Y-113291337D01*
X230708661Y-113684320D01*
X231222117Y-113897000D01*
X231777879Y-113897000D01*
X232291335Y-113684320D01*
X232684318Y-113291337D01*
X232896998Y-112777881D01*
X232896998Y-112222119D01*
X232684318Y-111708663D01*
X232291335Y-111315680D01*
X231984727Y-111188679D01*
X231724471Y-110928423D01*
X231724469Y-110928420D01*
X223270000Y-102473952D01*
X223270000Y-102125074D01*
X223294879Y-101999999D01*
X223270000Y-101874924D01*
X223270000Y-100084495D01*
X223397000Y-99777889D01*
X223397000Y-99222127D01*
X223184320Y-98708671D01*
X222791337Y-98315688D01*
X222277881Y-98103008D01*
X221722119Y-98103008D01*
X221208663Y-98315688D01*
X220815680Y-98708671D01*
X220603000Y-99222127D01*
X220603000Y-99777889D01*
X220730001Y-100084497D01*
X220730001Y-100729990D01*
X205270000Y-100729990D01*
X205270000Y-100584487D01*
X205397000Y-100277881D01*
X205397000Y-99722119D01*
X205184320Y-99208663D01*
X204791337Y-98815680D01*
X204277881Y-98603000D01*
X203722119Y-98603000D01*
X203208663Y-98815680D01*
X202815680Y-99208663D01*
X202603000Y-99722119D01*
X202603000Y-100277881D01*
X202730001Y-100584488D01*
X202730001Y-100729990D01*
X197625085Y-100729990D01*
X197500010Y-100705111D01*
X197374935Y-100729990D01*
X197374930Y-100729990D01*
X197004481Y-100803677D01*
X196584392Y-101084372D01*
X196513540Y-101190409D01*
X195452419Y-102251531D01*
X195015271Y-102688679D01*
X194708663Y-102815680D01*
X194315680Y-103208663D01*
X194103000Y-103722119D01*
X172127000Y-103722119D01*
X172127000Y-94625050D01*
X173115000Y-94625050D01*
X173115000Y-95374950D01*
X173401974Y-96067767D01*
X173932233Y-96598026D01*
X174625050Y-96885000D01*
X175374950Y-96885000D01*
X176067767Y-96598026D01*
X176598026Y-96067767D01*
X176885000Y-95374950D01*
X176885000Y-94625050D01*
X237115000Y-94625050D01*
X237115000Y-95374950D01*
X237401974Y-96067767D01*
X237932233Y-96598026D01*
X238625050Y-96885000D01*
X239374950Y-96885000D01*
X240067767Y-96598026D01*
X240598026Y-96067767D01*
X240885000Y-95374950D01*
X240885000Y-94625050D01*
X240598026Y-93932233D01*
X240067767Y-93401974D01*
X239374950Y-93115000D01*
X238625050Y-93115000D01*
X237932233Y-93401974D01*
X237401974Y-93932233D01*
X237115000Y-94625050D01*
X176885000Y-94625050D01*
X176598026Y-93932233D01*
X176067767Y-93401974D01*
X175374950Y-93115000D01*
X174625050Y-93115000D01*
X173932233Y-93401974D01*
X173401974Y-93932233D01*
X173115000Y-94625050D01*
X172127000Y-94625050D01*
X172127000Y-91627000D01*
X241873000Y-91627000D01*
X241873000Y-186373000D01*
X241873000Y-186373000D01*
G37*
X241873000Y-186373000D02*
X172127000Y-186373000D01*
X172127000Y-182625050D01*
X173115000Y-182625050D01*
X173115000Y-183374950D01*
X173401974Y-184067767D01*
X173932233Y-184598026D01*
X174625050Y-184885000D01*
X175374950Y-184885000D01*
X176067767Y-184598026D01*
X176598026Y-184067767D01*
X176885000Y-183374950D01*
X176885000Y-182625050D01*
X237115000Y-182625050D01*
X237115000Y-183374950D01*
X237401974Y-184067767D01*
X237932233Y-184598026D01*
X238625050Y-184885000D01*
X239374950Y-184885000D01*
X240067767Y-184598026D01*
X240598026Y-184067767D01*
X240885000Y-183374950D01*
X240885000Y-182625050D01*
X240598026Y-181932233D01*
X240067767Y-181401974D01*
X239374950Y-181115000D01*
X238625050Y-181115000D01*
X237932233Y-181401974D01*
X237401974Y-181932233D01*
X237115000Y-182625050D01*
X176885000Y-182625050D01*
X176598026Y-181932233D01*
X176067767Y-181401974D01*
X175374950Y-181115000D01*
X174625050Y-181115000D01*
X173932233Y-181401974D01*
X173401974Y-181932233D01*
X173115000Y-182625050D01*
X172127000Y-182625050D01*
X172127000Y-175885750D01*
X187965000Y-175885750D01*
X187965000Y-176226310D01*
X188061673Y-176459699D01*
X188240302Y-176638327D01*
X188473691Y-176735000D01*
X189089250Y-176735000D01*
X189248000Y-176576250D01*
X189248000Y-175727000D01*
X189502000Y-175727000D01*
X189502000Y-176576250D01*
X189660750Y-176735000D01*
X190276309Y-176735000D01*
X190509698Y-176638327D01*
X190688327Y-176459699D01*
X190785000Y-176226310D01*
X190785000Y-175885750D01*
X193215000Y-175885750D01*
X193215000Y-176226310D01*
X193311673Y-176459699D01*
X193490302Y-176638327D01*
X193723691Y-176735000D01*
X194339250Y-176735000D01*
X194498000Y-176576250D01*
X194498000Y-175727000D01*
X194752000Y-175727000D01*
X194752000Y-176576250D01*
X194910750Y-176735000D01*
X195526309Y-176735000D01*
X195759698Y-176638327D01*
X195938327Y-176459699D01*
X196035000Y-176226310D01*
X196035000Y-175885750D01*
X217965000Y-175885750D01*
X217965000Y-176226310D01*
X218061673Y-176459699D01*
X218240302Y-176638327D01*
X218473691Y-176735000D01*
X219089250Y-176735000D01*
X219248000Y-176576250D01*
X219248000Y-175727000D01*
X219502000Y-175727000D01*
X219502000Y-176576250D01*
X219660750Y-176735000D01*
X220276309Y-176735000D01*
X220509698Y-176638327D01*
X220688327Y-176459699D01*
X220785000Y-176226310D01*
X220785000Y-175885750D01*
X223215000Y-175885750D01*
X223215000Y-176226310D01*
X223311673Y-176459699D01*
X223490302Y-176638327D01*
X223723691Y-176735000D01*
X224339250Y-176735000D01*
X224498000Y-176576250D01*
X224498000Y-175727000D01*
X224752000Y-175727000D01*
X224752000Y-176576250D01*
X224910750Y-176735000D01*
X225526309Y-176735000D01*
X225759698Y-176638327D01*
X225938327Y-176459699D01*
X226035000Y-176226310D01*
X226035000Y-175885750D01*
X225876250Y-175727000D01*
X224752000Y-175727000D01*
X224498000Y-175727000D01*
X223373750Y-175727000D01*
X223215000Y-175885750D01*
X220785000Y-175885750D01*
X220626250Y-175727000D01*
X219502000Y-175727000D01*
X219248000Y-175727000D01*
X218123750Y-175727000D01*
X217965000Y-175885750D01*
X196035000Y-175885750D01*
X195876250Y-175727000D01*
X194752000Y-175727000D01*
X194498000Y-175727000D01*
X193373750Y-175727000D01*
X193215000Y-175885750D01*
X190785000Y-175885750D01*
X190626250Y-175727000D01*
X189502000Y-175727000D01*
X189248000Y-175727000D01*
X188123750Y-175727000D01*
X187965000Y-175885750D01*
X172127000Y-175885750D01*
X172127000Y-174973690D01*
X187965000Y-174973690D01*
X187965000Y-175314250D01*
X188123750Y-175473000D01*
X189248000Y-175473000D01*
X189248000Y-174623750D01*
X189502000Y-174623750D01*
X189502000Y-175473000D01*
X190626250Y-175473000D01*
X190785000Y-175314250D01*
X190785000Y-174973690D01*
X193215000Y-174973690D01*
X193215000Y-175314250D01*
X193373750Y-175473000D01*
X194498000Y-175473000D01*
X194498000Y-174623750D01*
X194752000Y-174623750D01*
X194752000Y-175473000D01*
X195876250Y-175473000D01*
X196035000Y-175314250D01*
X196035000Y-174973690D01*
X217965000Y-174973690D01*
X217965000Y-175314250D01*
X218123750Y-175473000D01*
X219248000Y-175473000D01*
X219248000Y-174623750D01*
X219502000Y-174623750D01*
X219502000Y-175473000D01*
X220626250Y-175473000D01*
X220785000Y-175314250D01*
X220785000Y-174973690D01*
X223215000Y-174973690D01*
X223215000Y-175314250D01*
X223373750Y-175473000D01*
X224498000Y-175473000D01*
X224498000Y-174623750D01*
X224752000Y-174623750D01*
X224752000Y-175473000D01*
X225876250Y-175473000D01*
X226035000Y-175314250D01*
X226035000Y-174973690D01*
X225938327Y-174740301D01*
X225759698Y-174561673D01*
X225526309Y-174465000D01*
X224910750Y-174465000D01*
X224752000Y-174623750D01*
X224498000Y-174623750D01*
X224339250Y-174465000D01*
X223723691Y-174465000D01*
X223490302Y-174561673D01*
X223311673Y-174740301D01*
X223215000Y-174973690D01*
X220785000Y-174973690D01*
X220688327Y-174740301D01*
X220509698Y-174561673D01*
X220276309Y-174465000D01*
X219660750Y-174465000D01*
X219502000Y-174623750D01*
X219248000Y-174623750D01*
X219089250Y-174465000D01*
X218473691Y-174465000D01*
X218240302Y-174561673D01*
X218061673Y-174740301D01*
X217965000Y-174973690D01*
X196035000Y-174973690D01*
X195938327Y-174740301D01*
X195759698Y-174561673D01*
X195526309Y-174465000D01*
X194910750Y-174465000D01*
X194752000Y-174623750D01*
X194498000Y-174623750D01*
X194339250Y-174465000D01*
X193723691Y-174465000D01*
X193490302Y-174561673D01*
X193311673Y-174740301D01*
X193215000Y-174973690D01*
X190785000Y-174973690D01*
X190688327Y-174740301D01*
X190509698Y-174561673D01*
X190276309Y-174465000D01*
X189660750Y-174465000D01*
X189502000Y-174623750D01*
X189248000Y-174623750D01*
X189089250Y-174465000D01*
X188473691Y-174465000D01*
X188240302Y-174561673D01*
X188061673Y-174740301D01*
X187965000Y-174973690D01*
X172127000Y-174973690D01*
X172127000Y-171900000D01*
X187952560Y-171900000D01*
X187952560Y-172900000D01*
X188001843Y-173147765D01*
X188142191Y-173357809D01*
X188352235Y-173498157D01*
X188600000Y-173547440D01*
X190150000Y-173547440D01*
X190397765Y-173498157D01*
X190607809Y-173357809D01*
X190738645Y-173162000D01*
X193261355Y-173162000D01*
X193392191Y-173357809D01*
X193602235Y-173498157D01*
X193850000Y-173547440D01*
X195400000Y-173547440D01*
X195647765Y-173498157D01*
X195857809Y-173357809D01*
X195998157Y-173147765D01*
X196047440Y-172900000D01*
X196047440Y-171900000D01*
X196034126Y-171833062D01*
X206060200Y-171833062D01*
X206060200Y-172206938D01*
X206203276Y-172552354D01*
X206467646Y-172816724D01*
X206813062Y-172959800D01*
X206846237Y-172959800D01*
X207007319Y-173067431D01*
X207082681Y-173117787D01*
X207082682Y-173117787D01*
X207082683Y-173117788D01*
X207304952Y-173162000D01*
X207304956Y-173162000D01*
X207379999Y-173176927D01*
X207455042Y-173162000D01*
X218011355Y-173162000D01*
X218142191Y-173357809D01*
X218352235Y-173498157D01*
X218600000Y-173547440D01*
X220150000Y-173547440D01*
X220397765Y-173498157D01*
X220607809Y-173357809D01*
X220738645Y-173162000D01*
X223261355Y-173162000D01*
X223392191Y-173357809D01*
X223602235Y-173498157D01*
X223850000Y-173547440D01*
X225400000Y-173547440D01*
X225647765Y-173498157D01*
X225857809Y-173357809D01*
X225998157Y-173147765D01*
X226047440Y-172900000D01*
X226047440Y-171900000D01*
X225998157Y-171652235D01*
X225857809Y-171442191D01*
X225647765Y-171301843D01*
X225400000Y-171252560D01*
X223850000Y-171252560D01*
X223602235Y-171301843D01*
X223392191Y-171442191D01*
X223261355Y-171638000D01*
X220738645Y-171638000D01*
X220607809Y-171442191D01*
X220397765Y-171301843D01*
X220150000Y-171252560D01*
X218600000Y-171252560D01*
X218352235Y-171301843D01*
X218142191Y-171442191D01*
X218011355Y-171638000D01*
X207859003Y-171638000D01*
X207796724Y-171487646D01*
X207532354Y-171223276D01*
X207186938Y-171080200D01*
X206813062Y-171080200D01*
X206467646Y-171223276D01*
X206203276Y-171487646D01*
X206060200Y-171833062D01*
X196034126Y-171833062D01*
X195998157Y-171652235D01*
X195857809Y-171442191D01*
X195647765Y-171301843D01*
X195400000Y-171252560D01*
X193850000Y-171252560D01*
X193602235Y-171301843D01*
X193392191Y-171442191D01*
X193261355Y-171638000D01*
X190738645Y-171638000D01*
X190607809Y-171442191D01*
X190397765Y-171301843D01*
X190150000Y-171252560D01*
X188600000Y-171252560D01*
X188352235Y-171301843D01*
X188142191Y-171442191D01*
X188001843Y-171652235D01*
X187952560Y-171900000D01*
X172127000Y-171900000D01*
X172127000Y-162852119D01*
X210683000Y-162852119D01*
X210683000Y-163407881D01*
X210895680Y-163921337D01*
X211288663Y-164314320D01*
X211802119Y-164527000D01*
X212357881Y-164527000D01*
X212664487Y-164400000D01*
X229734925Y-164400000D01*
X229860000Y-164424879D01*
X229985075Y-164400000D01*
X229985080Y-164400000D01*
X230355529Y-164326313D01*
X230775618Y-164045618D01*
X230846471Y-163939579D01*
X231614730Y-163171320D01*
X231921337Y-163044320D01*
X232314320Y-162651337D01*
X232527000Y-162137881D01*
X232527000Y-161582119D01*
X232314320Y-161068663D01*
X231921337Y-160675680D01*
X231407881Y-160463000D01*
X230852119Y-160463000D01*
X230338663Y-160675680D01*
X229945680Y-161068663D01*
X229818680Y-161375270D01*
X229333950Y-161860000D01*
X212664487Y-161860000D01*
X212357881Y-161733000D01*
X211802119Y-161733000D01*
X211288663Y-161945680D01*
X210895680Y-162338663D01*
X210683000Y-162852119D01*
X172127000Y-162852119D01*
X172127000Y-157863062D01*
X187010200Y-157863062D01*
X187010200Y-158236938D01*
X187153276Y-158582354D01*
X187417646Y-158846724D01*
X187763062Y-158989800D01*
X188136938Y-158989800D01*
X188482354Y-158846724D01*
X188517078Y-158812000D01*
X189172331Y-158812000D01*
X189045674Y-158938657D01*
X188832994Y-159452113D01*
X188832994Y-160007875D01*
X189045674Y-160521331D01*
X189438657Y-160914314D01*
X189952113Y-161126994D01*
X190507875Y-161126994D01*
X190814466Y-161000000D01*
X195190408Y-161000000D01*
X195037646Y-161063276D01*
X194773276Y-161327646D01*
X194630200Y-161673062D01*
X194630200Y-162046938D01*
X194773276Y-162392354D01*
X195037646Y-162656724D01*
X195383062Y-162799800D01*
X195756938Y-162799800D01*
X196102354Y-162656724D01*
X196137078Y-162622000D01*
X208174957Y-162622000D01*
X208250000Y-162636927D01*
X208325043Y-162622000D01*
X208325048Y-162622000D01*
X208547317Y-162577788D01*
X208799371Y-162409371D01*
X208841883Y-162345747D01*
X209657831Y-161529800D01*
X209706938Y-161529800D01*
X210052354Y-161386724D01*
X210316724Y-161122354D01*
X210459800Y-160776938D01*
X210459800Y-160403062D01*
X210316724Y-160057646D01*
X210052354Y-159793276D01*
X209706938Y-159650200D01*
X209333062Y-159650200D01*
X208987646Y-159793276D01*
X208723276Y-160057646D01*
X208580200Y-160403062D01*
X208580200Y-160452169D01*
X207934370Y-161098000D01*
X200427893Y-161098000D01*
X200871337Y-160914320D01*
X201264320Y-160521337D01*
X201477000Y-160007881D01*
X201477000Y-159452119D01*
X201264320Y-158938663D01*
X201137657Y-158812000D01*
X203102448Y-158812000D01*
X203530197Y-159239750D01*
X203572708Y-159303372D01*
X203824762Y-159471789D01*
X204047031Y-159516001D01*
X204047032Y-159516001D01*
X204122079Y-159530929D01*
X204197126Y-159516001D01*
X208740956Y-159516001D01*
X208815999Y-159530928D01*
X208891042Y-159516001D01*
X208891047Y-159516001D01*
X209113316Y-159471789D01*
X209365370Y-159303372D01*
X209407882Y-159239748D01*
X209657830Y-158989800D01*
X209706938Y-158989800D01*
X210052354Y-158846724D01*
X210316724Y-158582354D01*
X210459800Y-158236938D01*
X210459800Y-157863062D01*
X210316724Y-157517646D01*
X210052354Y-157253276D01*
X209706938Y-157110200D01*
X209333062Y-157110200D01*
X208987646Y-157253276D01*
X208723276Y-157517646D01*
X208580200Y-157863062D01*
X208580200Y-157912170D01*
X208500369Y-157992001D01*
X204437710Y-157992001D01*
X204009961Y-157564253D01*
X203967449Y-157500629D01*
X203715395Y-157332212D01*
X203493126Y-157288000D01*
X203493121Y-157288000D01*
X203418078Y-157273073D01*
X203343035Y-157288000D01*
X188517078Y-157288000D01*
X188482354Y-157253276D01*
X188136938Y-157110200D01*
X187763062Y-157110200D01*
X187417646Y-157253276D01*
X187153276Y-157517646D01*
X187010200Y-157863062D01*
X172127000Y-157863062D01*
X172127000Y-145885750D01*
X187965000Y-145885750D01*
X187965000Y-146226310D01*
X188061673Y-146459699D01*
X188240302Y-146638327D01*
X188473691Y-146735000D01*
X189089250Y-146735000D01*
X189248000Y-146576250D01*
X189248000Y-145727000D01*
X189502000Y-145727000D01*
X189502000Y-146576250D01*
X189660750Y-146735000D01*
X190276309Y-146735000D01*
X190509698Y-146638327D01*
X190688327Y-146459699D01*
X190785000Y-146226310D01*
X190785000Y-145885750D01*
X193215000Y-145885750D01*
X193215000Y-146226310D01*
X193311673Y-146459699D01*
X193490302Y-146638327D01*
X193723691Y-146735000D01*
X194339250Y-146735000D01*
X194498000Y-146576250D01*
X194498000Y-145727000D01*
X193373750Y-145727000D01*
X193215000Y-145885750D01*
X190785000Y-145885750D01*
X190626250Y-145727000D01*
X189502000Y-145727000D01*
X189248000Y-145727000D01*
X188123750Y-145727000D01*
X187965000Y-145885750D01*
X172127000Y-145885750D01*
X172127000Y-144973690D01*
X187965000Y-144973690D01*
X187965000Y-145314250D01*
X188123750Y-145473000D01*
X189248000Y-145473000D01*
X189248000Y-144623750D01*
X189502000Y-144623750D01*
X189502000Y-145473000D01*
X190626250Y-145473000D01*
X190785000Y-145314250D01*
X190785000Y-144973690D01*
X193215000Y-144973690D01*
X193215000Y-145314250D01*
X193373750Y-145473000D01*
X194498000Y-145473000D01*
X194498000Y-144623750D01*
X194339250Y-144465000D01*
X193723691Y-144465000D01*
X193490302Y-144561673D01*
X193311673Y-144740301D01*
X193215000Y-144973690D01*
X190785000Y-144973690D01*
X190688327Y-144740301D01*
X190509698Y-144561673D01*
X190276309Y-144465000D01*
X189660750Y-144465000D01*
X189502000Y-144623750D01*
X189248000Y-144623750D01*
X189089250Y-144465000D01*
X188473691Y-144465000D01*
X188240302Y-144561673D01*
X188061673Y-144740301D01*
X187965000Y-144973690D01*
X172127000Y-144973690D01*
X172127000Y-141900000D01*
X187952560Y-141900000D01*
X187952560Y-142900000D01*
X188001843Y-143147765D01*
X188142191Y-143357809D01*
X188352235Y-143498157D01*
X188600000Y-143547440D01*
X190150000Y-143547440D01*
X190397765Y-143498157D01*
X190607809Y-143357809D01*
X190738645Y-143162000D01*
X193261355Y-143162000D01*
X193392191Y-143357809D01*
X193602235Y-143498157D01*
X193850000Y-143547440D01*
X193971440Y-143547440D01*
X194019643Y-143619580D01*
X194075630Y-143703371D01*
X194139251Y-143745881D01*
X194884560Y-144491190D01*
X194752000Y-144623750D01*
X194752000Y-145473000D01*
X194772000Y-145473000D01*
X194772000Y-145727000D01*
X194752000Y-145727000D01*
X194752000Y-146576250D01*
X194910750Y-146735000D01*
X195526309Y-146735000D01*
X195759698Y-146638327D01*
X195938327Y-146459699D01*
X196035000Y-146226310D01*
X196035000Y-145885750D01*
X195876252Y-145727002D01*
X196035000Y-145727002D01*
X196035000Y-145641630D01*
X201309118Y-150915749D01*
X201351629Y-150979371D01*
X201603683Y-151147788D01*
X201825952Y-151192000D01*
X201825953Y-151192000D01*
X201901000Y-151206928D01*
X201976047Y-151192000D01*
X203912922Y-151192000D01*
X203947646Y-151226724D01*
X204293062Y-151369800D01*
X204666938Y-151369800D01*
X205012354Y-151226724D01*
X205276724Y-150962354D01*
X205419800Y-150616938D01*
X205419800Y-150243062D01*
X205276724Y-149897646D01*
X205012354Y-149633276D01*
X204666938Y-149490200D01*
X204293062Y-149490200D01*
X203947646Y-149633276D01*
X203912922Y-149668000D01*
X202216631Y-149668000D01*
X197711693Y-145163062D01*
X203520200Y-145163062D01*
X203520200Y-145536938D01*
X203663276Y-145882354D01*
X203927646Y-146146724D01*
X204273062Y-146289800D01*
X204322170Y-146289800D01*
X207678118Y-149645749D01*
X207720629Y-149709371D01*
X207972683Y-149877788D01*
X208194952Y-149922000D01*
X208194953Y-149922000D01*
X208270000Y-149936928D01*
X208345047Y-149922000D01*
X233102922Y-149922000D01*
X233137646Y-149956724D01*
X233483062Y-150099800D01*
X233856938Y-150099800D01*
X234202354Y-149956724D01*
X234466724Y-149692354D01*
X234609800Y-149346938D01*
X234609800Y-148973062D01*
X234466724Y-148627646D01*
X234202354Y-148363276D01*
X233856938Y-148220200D01*
X233483062Y-148220200D01*
X233137646Y-148363276D01*
X233102922Y-148398000D01*
X232431682Y-148398000D01*
X232527000Y-148167881D01*
X232527000Y-147612119D01*
X232314320Y-147098663D01*
X231921337Y-146705680D01*
X231407881Y-146493000D01*
X230852119Y-146493000D01*
X230545513Y-146620000D01*
X225778025Y-146620000D01*
X225938327Y-146459699D01*
X226035000Y-146226310D01*
X226035000Y-145885750D01*
X225876250Y-145727000D01*
X224752000Y-145727000D01*
X224752000Y-145747000D01*
X224498000Y-145747000D01*
X224498000Y-145727000D01*
X223373750Y-145727000D01*
X223215000Y-145885750D01*
X223215000Y-146226310D01*
X223311673Y-146459699D01*
X223471975Y-146620000D01*
X220528025Y-146620000D01*
X220688327Y-146459699D01*
X220785000Y-146226310D01*
X220785000Y-145885750D01*
X220626250Y-145727000D01*
X219502000Y-145727000D01*
X219502000Y-145747000D01*
X219248000Y-145747000D01*
X219248000Y-145727000D01*
X218123750Y-145727000D01*
X217965000Y-145885750D01*
X217965000Y-146226310D01*
X218061673Y-146459699D01*
X218221975Y-146620000D01*
X217686051Y-146620000D01*
X216039741Y-144973690D01*
X217965000Y-144973690D01*
X217965000Y-145314250D01*
X218123750Y-145473000D01*
X219248000Y-145473000D01*
X219248000Y-144623750D01*
X219502000Y-144623750D01*
X219502000Y-145473000D01*
X220626250Y-145473000D01*
X220785000Y-145314250D01*
X220785000Y-144973690D01*
X223215000Y-144973690D01*
X223215000Y-145314250D01*
X223373750Y-145473000D01*
X224498000Y-145473000D01*
X224498000Y-144623750D01*
X224752000Y-144623750D01*
X224752000Y-145473000D01*
X225876250Y-145473000D01*
X226035000Y-145314250D01*
X226035000Y-144973690D01*
X225938327Y-144740301D01*
X225759698Y-144561673D01*
X225526309Y-144465000D01*
X224910750Y-144465000D01*
X224752000Y-144623750D01*
X224498000Y-144623750D01*
X224339250Y-144465000D01*
X223723691Y-144465000D01*
X223490302Y-144561673D01*
X223311673Y-144740301D01*
X223215000Y-144973690D01*
X220785000Y-144973690D01*
X220688327Y-144740301D01*
X220509698Y-144561673D01*
X220276309Y-144465000D01*
X219660750Y-144465000D01*
X219502000Y-144623750D01*
X219248000Y-144623750D01*
X219089250Y-144465000D01*
X218473691Y-144465000D01*
X218240302Y-144561673D01*
X218061673Y-144740301D01*
X217965000Y-144973690D01*
X216039741Y-144973690D01*
X213391321Y-142325271D01*
X213264320Y-142018663D01*
X212871337Y-141625680D01*
X212357881Y-141413000D01*
X211802119Y-141413000D01*
X211288663Y-141625680D01*
X210895680Y-142018663D01*
X210683000Y-142532119D01*
X210683000Y-143087881D01*
X210895680Y-143601337D01*
X211288663Y-143994320D01*
X211595271Y-144121321D01*
X215871949Y-148398000D01*
X208585631Y-148398000D01*
X205399800Y-145212170D01*
X205399800Y-145163062D01*
X205256724Y-144817646D01*
X204992354Y-144553276D01*
X204646938Y-144410200D01*
X204273062Y-144410200D01*
X203927646Y-144553276D01*
X203663276Y-144817646D01*
X203520200Y-145163062D01*
X197711693Y-145163062D01*
X195877288Y-143328657D01*
X195998157Y-143147765D01*
X196047440Y-142900000D01*
X196047440Y-141900000D01*
X195998157Y-141652235D01*
X195857809Y-141442191D01*
X195647765Y-141301843D01*
X195400000Y-141252560D01*
X193850000Y-141252560D01*
X193602235Y-141301843D01*
X193392191Y-141442191D01*
X193261355Y-141638000D01*
X190738645Y-141638000D01*
X190607809Y-141442191D01*
X190397765Y-141301843D01*
X190150000Y-141252560D01*
X188600000Y-141252560D01*
X188352235Y-141301843D01*
X188142191Y-141442191D01*
X188001843Y-141652235D01*
X187952560Y-141900000D01*
X172127000Y-141900000D01*
X172127000Y-133733062D01*
X205425200Y-133733062D01*
X205425200Y-134106938D01*
X205568276Y-134452354D01*
X205832646Y-134716724D01*
X206178062Y-134859800D01*
X206227170Y-134859800D01*
X214253117Y-142885748D01*
X214295629Y-142949371D01*
X214547683Y-143117788D01*
X214769952Y-143162000D01*
X214769956Y-143162000D01*
X214844999Y-143176927D01*
X214920042Y-143162000D01*
X218011355Y-143162000D01*
X218142191Y-143357809D01*
X218352235Y-143498157D01*
X218600000Y-143547440D01*
X220150000Y-143547440D01*
X220397765Y-143498157D01*
X220607809Y-143357809D01*
X220738645Y-143162000D01*
X223261355Y-143162000D01*
X223392191Y-143357809D01*
X223602235Y-143498157D01*
X223850000Y-143547440D01*
X225400000Y-143547440D01*
X225647765Y-143498157D01*
X225857809Y-143357809D01*
X225998157Y-143147765D01*
X226047440Y-142900000D01*
X226047440Y-141900000D01*
X225998157Y-141652235D01*
X225857809Y-141442191D01*
X225647765Y-141301843D01*
X225400000Y-141252560D01*
X223850000Y-141252560D01*
X223602235Y-141301843D01*
X223392191Y-141442191D01*
X223261355Y-141638000D01*
X220738645Y-141638000D01*
X220607809Y-141442191D01*
X220397765Y-141301843D01*
X220150000Y-141252560D01*
X218600000Y-141252560D01*
X218352235Y-141301843D01*
X218142191Y-141442191D01*
X218011355Y-141638000D01*
X215160631Y-141638000D01*
X207304800Y-133782170D01*
X207304800Y-133733062D01*
X207161724Y-133387646D01*
X206897354Y-133123276D01*
X206551938Y-132980200D01*
X206178062Y-132980200D01*
X205832646Y-133123276D01*
X205568276Y-133387646D01*
X205425200Y-133733062D01*
X172127000Y-133733062D01*
X172127000Y-128653062D01*
X200980200Y-128653062D01*
X200980200Y-129026938D01*
X201123276Y-129372354D01*
X201387646Y-129636724D01*
X201733062Y-129779800D01*
X202106938Y-129779800D01*
X202452354Y-129636724D01*
X202487078Y-129602000D01*
X219272457Y-129602000D01*
X219347500Y-129616927D01*
X219422543Y-129602000D01*
X219422548Y-129602000D01*
X219644817Y-129557788D01*
X219896871Y-129389371D01*
X219939383Y-129325747D01*
X221192691Y-128072440D01*
X221587500Y-128072440D01*
X221916585Y-128006981D01*
X222000000Y-127951245D01*
X222083415Y-128006981D01*
X222412500Y-128072440D01*
X223212500Y-128072440D01*
X223541585Y-128006981D01*
X223820569Y-127820569D01*
X223859704Y-127762000D01*
X224645422Y-127762000D01*
X224680146Y-127796724D01*
X225025562Y-127939800D01*
X225399438Y-127939800D01*
X225744854Y-127796724D01*
X226009224Y-127532354D01*
X226152300Y-127186938D01*
X226152300Y-126813062D01*
X226009224Y-126467646D01*
X225744854Y-126203276D01*
X225399438Y-126060200D01*
X225025562Y-126060200D01*
X224680146Y-126203276D01*
X224645422Y-126238000D01*
X223859704Y-126238000D01*
X223820569Y-126179431D01*
X223541585Y-125993019D01*
X223212500Y-125927560D01*
X222412500Y-125927560D01*
X222083415Y-125993019D01*
X222000000Y-126048755D01*
X221916585Y-125993019D01*
X221587500Y-125927560D01*
X220787500Y-125927560D01*
X220458415Y-125993019D01*
X220179431Y-126179431D01*
X219993019Y-126458415D01*
X219927560Y-126787500D01*
X219927560Y-127182309D01*
X219031870Y-128078000D01*
X210326812Y-128078000D01*
X210459800Y-127756938D01*
X210459800Y-127707830D01*
X213405631Y-124762000D01*
X220140296Y-124762000D01*
X220179431Y-124820569D01*
X220458415Y-125006981D01*
X220787500Y-125072440D01*
X221587500Y-125072440D01*
X221916585Y-125006981D01*
X222000000Y-124951245D01*
X222083415Y-125006981D01*
X222412500Y-125072440D01*
X223212500Y-125072440D01*
X223541585Y-125006981D01*
X223820569Y-124820569D01*
X223859704Y-124762000D01*
X224645422Y-124762000D01*
X224680146Y-124796724D01*
X225025562Y-124939800D01*
X225399438Y-124939800D01*
X225744854Y-124796724D01*
X226009224Y-124532354D01*
X226152300Y-124186938D01*
X226152300Y-123813062D01*
X226009224Y-123467646D01*
X225744854Y-123203276D01*
X225399438Y-123060200D01*
X225025562Y-123060200D01*
X224680146Y-123203276D01*
X224645422Y-123238000D01*
X223859704Y-123238000D01*
X223820569Y-123179431D01*
X223541585Y-122993019D01*
X223212500Y-122927560D01*
X222412500Y-122927560D01*
X222083415Y-122993019D01*
X222000000Y-123048755D01*
X221916585Y-122993019D01*
X221587500Y-122927560D01*
X220787500Y-122927560D01*
X220458415Y-122993019D01*
X220179431Y-123179431D01*
X220140296Y-123238000D01*
X219842931Y-123238000D01*
X219994817Y-123207788D01*
X220246871Y-123039371D01*
X220289383Y-122975747D01*
X221192691Y-122072440D01*
X221587500Y-122072440D01*
X221916585Y-122006981D01*
X222000000Y-121951245D01*
X222083415Y-122006981D01*
X222412500Y-122072440D01*
X223212500Y-122072440D01*
X223541585Y-122006981D01*
X223820569Y-121820569D01*
X223859704Y-121762000D01*
X224645422Y-121762000D01*
X224680146Y-121796724D01*
X225025562Y-121939800D01*
X225399438Y-121939800D01*
X225744854Y-121796724D01*
X226009224Y-121532354D01*
X226152300Y-121186938D01*
X226152300Y-120813062D01*
X226009224Y-120467646D01*
X225744854Y-120203276D01*
X225399438Y-120060200D01*
X225025562Y-120060200D01*
X224680146Y-120203276D01*
X224645422Y-120238000D01*
X223859704Y-120238000D01*
X223820569Y-120179431D01*
X223541585Y-119993019D01*
X223212500Y-119927560D01*
X222412500Y-119927560D01*
X222083415Y-119993019D01*
X222000000Y-120048755D01*
X221916585Y-119993019D01*
X221587500Y-119927560D01*
X220787500Y-119927560D01*
X220458415Y-119993019D01*
X220179431Y-120179431D01*
X219993019Y-120458415D01*
X219927560Y-120787500D01*
X219927560Y-121182309D01*
X219381870Y-121728000D01*
X213917078Y-121728000D01*
X213882354Y-121693276D01*
X213536938Y-121550200D01*
X213163062Y-121550200D01*
X212817646Y-121693276D01*
X212553276Y-121957646D01*
X212410200Y-122303062D01*
X212410200Y-122676938D01*
X212553276Y-123022354D01*
X212809741Y-123278819D01*
X212792683Y-123282212D01*
X212792682Y-123282213D01*
X212792681Y-123282213D01*
X212785930Y-123286724D01*
X212540629Y-123450629D01*
X212498118Y-123514251D01*
X209382170Y-126630200D01*
X209333062Y-126630200D01*
X208987646Y-126773276D01*
X208723276Y-127037646D01*
X208580200Y-127383062D01*
X208580200Y-127756938D01*
X208713188Y-128078000D01*
X202487078Y-128078000D01*
X202452354Y-128043276D01*
X202106938Y-127900200D01*
X201733062Y-127900200D01*
X201387646Y-128043276D01*
X201123276Y-128307646D01*
X200980200Y-128653062D01*
X172127000Y-128653062D01*
X172127000Y-125083062D01*
X185905200Y-125083062D01*
X185905200Y-125456938D01*
X186048276Y-125802354D01*
X186312646Y-126066724D01*
X186658062Y-126209800D01*
X186707170Y-126209800D01*
X188553118Y-128055749D01*
X188595629Y-128119371D01*
X188659251Y-128161882D01*
X188847681Y-128287787D01*
X188847682Y-128287787D01*
X188847683Y-128287788D01*
X189069952Y-128332000D01*
X189069956Y-128332000D01*
X189144999Y-128346927D01*
X189220042Y-128332000D01*
X198812922Y-128332000D01*
X198847646Y-128366724D01*
X199193062Y-128509800D01*
X199566938Y-128509800D01*
X199912354Y-128366724D01*
X200176724Y-128102354D01*
X200319800Y-127756938D01*
X200319800Y-127383062D01*
X200176724Y-127037646D01*
X199912354Y-126773276D01*
X199566938Y-126630200D01*
X199193062Y-126630200D01*
X198847646Y-126773276D01*
X198812922Y-126808000D01*
X189460631Y-126808000D01*
X189387631Y-126735000D01*
X189502002Y-126735000D01*
X189502002Y-126576252D01*
X189660750Y-126735000D01*
X190276309Y-126735000D01*
X190509698Y-126638327D01*
X190688327Y-126459699D01*
X190785000Y-126226310D01*
X190785000Y-125885750D01*
X193215000Y-125885750D01*
X193215000Y-126226310D01*
X193311673Y-126459699D01*
X193490302Y-126638327D01*
X193723691Y-126735000D01*
X194339250Y-126735000D01*
X194498000Y-126576250D01*
X194498000Y-125727000D01*
X194752000Y-125727000D01*
X194752000Y-126576250D01*
X194910750Y-126735000D01*
X195526309Y-126735000D01*
X195759698Y-126638327D01*
X195938327Y-126459699D01*
X196035000Y-126226310D01*
X196035000Y-125885750D01*
X195876250Y-125727000D01*
X194752000Y-125727000D01*
X194498000Y-125727000D01*
X193373750Y-125727000D01*
X193215000Y-125885750D01*
X190785000Y-125885750D01*
X190626250Y-125727000D01*
X189502000Y-125727000D01*
X189502000Y-125747000D01*
X189248000Y-125747000D01*
X189248000Y-125727000D01*
X189228000Y-125727000D01*
X189228000Y-125473000D01*
X189248000Y-125473000D01*
X189248000Y-124623750D01*
X189502000Y-124623750D01*
X189502000Y-125473000D01*
X190626250Y-125473000D01*
X190785000Y-125314250D01*
X190785000Y-124973690D01*
X190688327Y-124740301D01*
X190509698Y-124561673D01*
X190276309Y-124465000D01*
X189660750Y-124465000D01*
X189502000Y-124623750D01*
X189248000Y-124623750D01*
X189089250Y-124465000D01*
X188473691Y-124465000D01*
X188240302Y-124561673D01*
X188061673Y-124740301D01*
X187965000Y-124973690D01*
X187965000Y-125312370D01*
X187784800Y-125132170D01*
X187784800Y-125083062D01*
X187641724Y-124737646D01*
X187377354Y-124473276D01*
X187031938Y-124330200D01*
X186658062Y-124330200D01*
X186312646Y-124473276D01*
X186048276Y-124737646D01*
X185905200Y-125083062D01*
X172127000Y-125083062D01*
X172127000Y-121900000D01*
X187952560Y-121900000D01*
X187952560Y-122900000D01*
X188001843Y-123147765D01*
X188142191Y-123357809D01*
X188352235Y-123498157D01*
X188600000Y-123547440D01*
X190150000Y-123547440D01*
X190397765Y-123498157D01*
X190607809Y-123357809D01*
X190671827Y-123262000D01*
X193328173Y-123262000D01*
X193360517Y-123310405D01*
X193203276Y-123467646D01*
X193060200Y-123813062D01*
X193060200Y-124186938D01*
X193203276Y-124532354D01*
X193361448Y-124690526D01*
X193311673Y-124740301D01*
X193215000Y-124973690D01*
X193215000Y-125314250D01*
X193373750Y-125473000D01*
X194498000Y-125473000D01*
X194498000Y-125453000D01*
X194752000Y-125453000D01*
X194752000Y-125473000D01*
X195876250Y-125473000D01*
X196035000Y-125314250D01*
X196035000Y-124973690D01*
X195947315Y-124762000D01*
X199304370Y-124762000D01*
X199710200Y-125167831D01*
X199710200Y-125216938D01*
X199853276Y-125562354D01*
X200117646Y-125826724D01*
X200463062Y-125969800D01*
X200836938Y-125969800D01*
X201182354Y-125826724D01*
X201446724Y-125562354D01*
X201589800Y-125216938D01*
X201589800Y-124843062D01*
X201446724Y-124497646D01*
X201182354Y-124233276D01*
X200836938Y-124090200D01*
X200787831Y-124090200D01*
X200211883Y-123514253D01*
X200169371Y-123450629D01*
X199917317Y-123282212D01*
X199695048Y-123238000D01*
X199695043Y-123238000D01*
X199620000Y-123223073D01*
X199544957Y-123238000D01*
X195937863Y-123238000D01*
X195998157Y-123147765D01*
X196047440Y-122900000D01*
X196047440Y-122408000D01*
X208360370Y-122408000D01*
X208580200Y-122627830D01*
X208580200Y-122676938D01*
X208723276Y-123022354D01*
X208987646Y-123286724D01*
X209333062Y-123429800D01*
X209706938Y-123429800D01*
X210052354Y-123286724D01*
X210316724Y-123022354D01*
X210459800Y-122676938D01*
X210459800Y-122303062D01*
X210316724Y-121957646D01*
X210052354Y-121693276D01*
X209706938Y-121550200D01*
X209657830Y-121550200D01*
X209301747Y-121194117D01*
X209301745Y-121194116D01*
X209267884Y-121160255D01*
X209225371Y-121096629D01*
X208973317Y-120928212D01*
X208751048Y-120884000D01*
X208751043Y-120884000D01*
X208676000Y-120869073D01*
X208600957Y-120884000D01*
X195729042Y-120884000D01*
X195653999Y-120869073D01*
X195578956Y-120884000D01*
X195578952Y-120884000D01*
X195356683Y-120928212D01*
X195104629Y-121096629D01*
X195062118Y-121160251D01*
X194969809Y-121252560D01*
X193850000Y-121252560D01*
X193602235Y-121301843D01*
X193392191Y-121442191D01*
X193251843Y-121652235D01*
X193234783Y-121738000D01*
X190765217Y-121738000D01*
X190748157Y-121652235D01*
X190607809Y-121442191D01*
X190397765Y-121301843D01*
X190150000Y-121252560D01*
X188600000Y-121252560D01*
X188352235Y-121301843D01*
X188142191Y-121442191D01*
X188001843Y-121652235D01*
X187952560Y-121900000D01*
X172127000Y-121900000D01*
X172127000Y-103722119D01*
X194103000Y-103722119D01*
X194103000Y-104277881D01*
X194315680Y-104791337D01*
X194708663Y-105184320D01*
X195222119Y-105397000D01*
X195777881Y-105397000D01*
X196291337Y-105184320D01*
X196684320Y-104791337D01*
X196811321Y-104484729D01*
X197248469Y-104047581D01*
X198026061Y-103269990D01*
X203874920Y-103269990D01*
X204000000Y-103294870D01*
X204125080Y-103269990D01*
X220758824Y-103269990D01*
X220803687Y-103495531D01*
X221084383Y-103915620D01*
X221190419Y-103986471D01*
X229928418Y-112724471D01*
X229928421Y-112724473D01*
X230188677Y-112984729D01*
X230315678Y-113291337D01*
X230708661Y-113684320D01*
X231222117Y-113897000D01*
X231777879Y-113897000D01*
X232291335Y-113684320D01*
X232684318Y-113291337D01*
X232896998Y-112777881D01*
X232896998Y-112222119D01*
X232684318Y-111708663D01*
X232291335Y-111315680D01*
X231984727Y-111188679D01*
X231724471Y-110928423D01*
X231724469Y-110928420D01*
X223270000Y-102473952D01*
X223270000Y-102125074D01*
X223294879Y-101999999D01*
X223270000Y-101874924D01*
X223270000Y-100084495D01*
X223397000Y-99777889D01*
X223397000Y-99222127D01*
X223184320Y-98708671D01*
X222791337Y-98315688D01*
X222277881Y-98103008D01*
X221722119Y-98103008D01*
X221208663Y-98315688D01*
X220815680Y-98708671D01*
X220603000Y-99222127D01*
X220603000Y-99777889D01*
X220730001Y-100084497D01*
X220730001Y-100729990D01*
X205270000Y-100729990D01*
X205270000Y-100584487D01*
X205397000Y-100277881D01*
X205397000Y-99722119D01*
X205184320Y-99208663D01*
X204791337Y-98815680D01*
X204277881Y-98603000D01*
X203722119Y-98603000D01*
X203208663Y-98815680D01*
X202815680Y-99208663D01*
X202603000Y-99722119D01*
X202603000Y-100277881D01*
X202730001Y-100584488D01*
X202730001Y-100729990D01*
X197625085Y-100729990D01*
X197500010Y-100705111D01*
X197374935Y-100729990D01*
X197374930Y-100729990D01*
X197004481Y-100803677D01*
X196584392Y-101084372D01*
X196513540Y-101190409D01*
X195452419Y-102251531D01*
X195015271Y-102688679D01*
X194708663Y-102815680D01*
X194315680Y-103208663D01*
X194103000Y-103722119D01*
X172127000Y-103722119D01*
X172127000Y-94625050D01*
X173115000Y-94625050D01*
X173115000Y-95374950D01*
X173401974Y-96067767D01*
X173932233Y-96598026D01*
X174625050Y-96885000D01*
X175374950Y-96885000D01*
X176067767Y-96598026D01*
X176598026Y-96067767D01*
X176885000Y-95374950D01*
X176885000Y-94625050D01*
X237115000Y-94625050D01*
X237115000Y-95374950D01*
X237401974Y-96067767D01*
X237932233Y-96598026D01*
X238625050Y-96885000D01*
X239374950Y-96885000D01*
X240067767Y-96598026D01*
X240598026Y-96067767D01*
X240885000Y-95374950D01*
X240885000Y-94625050D01*
X240598026Y-93932233D01*
X240067767Y-93401974D01*
X239374950Y-93115000D01*
X238625050Y-93115000D01*
X237932233Y-93401974D01*
X237401974Y-93932233D01*
X237115000Y-94625050D01*
X176885000Y-94625050D01*
X176598026Y-93932233D01*
X176067767Y-93401974D01*
X175374950Y-93115000D01*
X174625050Y-93115000D01*
X173932233Y-93401974D01*
X173401974Y-93932233D01*
X173115000Y-94625050D01*
X172127000Y-94625050D01*
X172127000Y-91627000D01*
X241873000Y-91627000D01*
X241873000Y-186373000D01*
G04 #@! TD*
M02*
