G04 #@! TF.GenerationSoftware,KiCad,Pcbnew,(5.0.2)-1*
G04 #@! TF.CreationDate,2019-07-28T23:35:27-04:00*
G04 #@! TF.ProjectId,AD3D Cloud Connect Board,41443344-2043-46c6-9f75-6420436f6e6e,rev?*
G04 #@! TF.SameCoordinates,Original*
G04 #@! TF.FileFunction,Soldermask,Top*
G04 #@! TF.FilePolarity,Negative*
%FSLAX46Y46*%
G04 Gerber Fmt 4.6, Leading zero omitted, Abs format (unit mm)*
G04 Created by KiCad (PCBNEW (5.0.2)-1) date 7/28/2019 11:35:27 PM*
%MOMM*%
%LPD*%
G01*
G04 APERTURE LIST*
%ADD10C,0.150000*%
G04 APERTURE END LIST*
D10*
G36*
X261893778Y-141701879D02*
X262139466Y-141803646D01*
X262360578Y-141951389D01*
X262548611Y-142139422D01*
X262696354Y-142360534D01*
X262798121Y-142606222D01*
X262850000Y-142867035D01*
X262850000Y-143132965D01*
X262798121Y-143393778D01*
X262696354Y-143639466D01*
X262548611Y-143860578D01*
X262360578Y-144048611D01*
X262139466Y-144196354D01*
X261893778Y-144298121D01*
X261632965Y-144350000D01*
X261367035Y-144350000D01*
X261106222Y-144298121D01*
X260860534Y-144196354D01*
X260639422Y-144048611D01*
X260451389Y-143860578D01*
X260303646Y-143639466D01*
X260201879Y-143393778D01*
X260150000Y-143132965D01*
X260150000Y-142867035D01*
X260201879Y-142606222D01*
X260303646Y-142360534D01*
X260451389Y-142139422D01*
X260639422Y-141951389D01*
X260860534Y-141803646D01*
X261106222Y-141701879D01*
X261367035Y-141650000D01*
X261632965Y-141650000D01*
X261893778Y-141701879D01*
X261893778Y-141701879D01*
G37*
G36*
X203893778Y-141701879D02*
X204139466Y-141803646D01*
X204360578Y-141951389D01*
X204548611Y-142139422D01*
X204696354Y-142360534D01*
X204798121Y-142606222D01*
X204850000Y-142867035D01*
X204850000Y-143132965D01*
X204798121Y-143393778D01*
X204696354Y-143639466D01*
X204548611Y-143860578D01*
X204360578Y-144048611D01*
X204139466Y-144196354D01*
X203893778Y-144298121D01*
X203632965Y-144350000D01*
X203367035Y-144350000D01*
X203106222Y-144298121D01*
X202860534Y-144196354D01*
X202639422Y-144048611D01*
X202451389Y-143860578D01*
X202303646Y-143639466D01*
X202201879Y-143393778D01*
X202150000Y-143132965D01*
X202150000Y-142867035D01*
X202201879Y-142606222D01*
X202303646Y-142360534D01*
X202451389Y-142139422D01*
X202639422Y-141951389D01*
X202860534Y-141803646D01*
X203106222Y-141701879D01*
X203367035Y-141650000D01*
X203632965Y-141650000D01*
X203893778Y-141701879D01*
X203893778Y-141701879D01*
G37*
G36*
X251000000Y-140500000D02*
X250300000Y-140500000D01*
X250300000Y-139500000D01*
X251000000Y-139500000D01*
X251000000Y-140500000D01*
X251000000Y-140500000D01*
G37*
G36*
X231000000Y-140500000D02*
X230300000Y-140500000D01*
X230300000Y-139500000D01*
X231000000Y-139500000D01*
X231000000Y-140500000D01*
X231000000Y-140500000D01*
G37*
G36*
X234700000Y-140500000D02*
X234000000Y-140500000D01*
X234000000Y-139500000D01*
X234700000Y-139500000D01*
X234700000Y-140500000D01*
X234700000Y-140500000D01*
G37*
G36*
X254700000Y-140500000D02*
X254000000Y-140500000D01*
X254000000Y-139500000D01*
X254700000Y-139500000D01*
X254700000Y-140500000D01*
X254700000Y-140500000D01*
G37*
G36*
X244700000Y-140500000D02*
X244000000Y-140500000D01*
X244000000Y-139500000D01*
X244700000Y-139500000D01*
X244700000Y-140500000D01*
X244700000Y-140500000D01*
G37*
G36*
X241000000Y-140500000D02*
X240300000Y-140500000D01*
X240300000Y-139500000D01*
X241000000Y-139500000D01*
X241000000Y-140500000D01*
X241000000Y-140500000D01*
G37*
G36*
X224700000Y-140500000D02*
X224000000Y-140500000D01*
X224000000Y-139500000D01*
X224700000Y-139500000D01*
X224700000Y-140500000D01*
X224700000Y-140500000D01*
G37*
G36*
X221000000Y-140500000D02*
X220300000Y-140500000D01*
X220300000Y-139500000D01*
X221000000Y-139500000D01*
X221000000Y-140500000D01*
X221000000Y-140500000D01*
G37*
G36*
X214700000Y-140500000D02*
X214000000Y-140500000D01*
X214000000Y-139500000D01*
X214700000Y-139500000D01*
X214700000Y-140500000D01*
X214700000Y-140500000D01*
G37*
G36*
X211000000Y-140500000D02*
X210300000Y-140500000D01*
X210300000Y-139500000D01*
X211000000Y-139500000D01*
X211000000Y-140500000D01*
X211000000Y-140500000D01*
G37*
G36*
X224700000Y-134500000D02*
X224000000Y-134500000D01*
X224000000Y-133500000D01*
X224700000Y-133500000D01*
X224700000Y-134500000D01*
X224700000Y-134500000D01*
G37*
G36*
X211000000Y-134500000D02*
X210300000Y-134500000D01*
X210300000Y-133500000D01*
X211000000Y-133500000D01*
X211000000Y-134500000D01*
X211000000Y-134500000D01*
G37*
G36*
X214700000Y-134500000D02*
X214000000Y-134500000D01*
X214000000Y-133500000D01*
X214700000Y-133500000D01*
X214700000Y-134500000D01*
X214700000Y-134500000D01*
G37*
G36*
X221000000Y-134500000D02*
X220300000Y-134500000D01*
X220300000Y-133500000D01*
X221000000Y-133500000D01*
X221000000Y-134500000D01*
X221000000Y-134500000D01*
G37*
G36*
X241000000Y-134500000D02*
X240300000Y-134500000D01*
X240300000Y-133500000D01*
X241000000Y-133500000D01*
X241000000Y-134500000D01*
X241000000Y-134500000D01*
G37*
G36*
X254700000Y-134500000D02*
X254000000Y-134500000D01*
X254000000Y-133500000D01*
X254700000Y-133500000D01*
X254700000Y-134500000D01*
X254700000Y-134500000D01*
G37*
G36*
X231000000Y-134500000D02*
X230300000Y-134500000D01*
X230300000Y-133500000D01*
X231000000Y-133500000D01*
X231000000Y-134500000D01*
X231000000Y-134500000D01*
G37*
G36*
X251000000Y-134500000D02*
X250300000Y-134500000D01*
X250300000Y-133500000D01*
X251000000Y-133500000D01*
X251000000Y-134500000D01*
X251000000Y-134500000D01*
G37*
G36*
X234700000Y-134500000D02*
X234000000Y-134500000D01*
X234000000Y-133500000D01*
X234700000Y-133500000D01*
X234700000Y-134500000D01*
X234700000Y-134500000D01*
G37*
G36*
X244700000Y-134500000D02*
X244000000Y-134500000D01*
X244000000Y-133500000D01*
X244700000Y-133500000D01*
X244700000Y-134500000D01*
X244700000Y-134500000D01*
G37*
G36*
X209450000Y-127200000D02*
X208950000Y-127200000D01*
X208950000Y-126800000D01*
X209450000Y-126800000D01*
X209450000Y-127200000D01*
X209450000Y-127200000D01*
G37*
G36*
X208250000Y-127200000D02*
X207750000Y-127200000D01*
X207750000Y-126800000D01*
X208250000Y-126800000D01*
X208250000Y-127200000D01*
X208250000Y-127200000D01*
G37*
G36*
X208250000Y-126500000D02*
X207750000Y-126500000D01*
X207750000Y-126100000D01*
X208250000Y-126100000D01*
X208250000Y-126500000D01*
X208250000Y-126500000D01*
G37*
G36*
X209450000Y-126500000D02*
X208950000Y-126500000D01*
X208950000Y-126100000D01*
X209450000Y-126100000D01*
X209450000Y-126500000D01*
X209450000Y-126500000D01*
G37*
G36*
X209005000Y-124230000D02*
X207735000Y-124230000D01*
X207735000Y-121230000D01*
X209005000Y-121230000D01*
X209005000Y-124230000D01*
X209005000Y-124230000D01*
G37*
G36*
X214085000Y-124230000D02*
X212815000Y-124230000D01*
X212815000Y-121230000D01*
X214085000Y-121230000D01*
X214085000Y-124230000D01*
X214085000Y-124230000D01*
G37*
G36*
X252185000Y-124230000D02*
X250915000Y-124230000D01*
X250915000Y-121230000D01*
X252185000Y-121230000D01*
X252185000Y-124230000D01*
X252185000Y-124230000D01*
G37*
G36*
X216625000Y-124230000D02*
X215355000Y-124230000D01*
X215355000Y-121230000D01*
X216625000Y-121230000D01*
X216625000Y-124230000D01*
X216625000Y-124230000D01*
G37*
G36*
X226785000Y-124230000D02*
X225515000Y-124230000D01*
X225515000Y-121230000D01*
X226785000Y-121230000D01*
X226785000Y-124230000D01*
X226785000Y-124230000D01*
G37*
G36*
X219165000Y-124230000D02*
X217895000Y-124230000D01*
X217895000Y-121230000D01*
X219165000Y-121230000D01*
X219165000Y-124230000D01*
X219165000Y-124230000D01*
G37*
G36*
X254725000Y-124230000D02*
X253455000Y-124230000D01*
X253455000Y-121230000D01*
X254725000Y-121230000D01*
X254725000Y-124230000D01*
X254725000Y-124230000D01*
G37*
G36*
X221705000Y-124230000D02*
X220435000Y-124230000D01*
X220435000Y-121230000D01*
X221705000Y-121230000D01*
X221705000Y-124230000D01*
X221705000Y-124230000D01*
G37*
G36*
X257265000Y-124230000D02*
X255995000Y-124230000D01*
X255995000Y-121230000D01*
X257265000Y-121230000D01*
X257265000Y-124230000D01*
X257265000Y-124230000D01*
G37*
G36*
X231865000Y-124230000D02*
X230595000Y-124230000D01*
X230595000Y-121230000D01*
X231865000Y-121230000D01*
X231865000Y-124230000D01*
X231865000Y-124230000D01*
G37*
G36*
X249645000Y-124230000D02*
X248375000Y-124230000D01*
X248375000Y-121230000D01*
X249645000Y-121230000D01*
X249645000Y-124230000D01*
X249645000Y-124230000D01*
G37*
G36*
X247105000Y-124230000D02*
X245835000Y-124230000D01*
X245835000Y-121230000D01*
X247105000Y-121230000D01*
X247105000Y-124230000D01*
X247105000Y-124230000D01*
G37*
G36*
X224245000Y-124230000D02*
X222975000Y-124230000D01*
X222975000Y-121230000D01*
X224245000Y-121230000D01*
X224245000Y-124230000D01*
X224245000Y-124230000D01*
G37*
G36*
X244565000Y-124230000D02*
X243295000Y-124230000D01*
X243295000Y-121230000D01*
X244565000Y-121230000D01*
X244565000Y-124230000D01*
X244565000Y-124230000D01*
G37*
G36*
X236945000Y-124230000D02*
X235675000Y-124230000D01*
X235675000Y-121230000D01*
X236945000Y-121230000D01*
X236945000Y-124230000D01*
X236945000Y-124230000D01*
G37*
G36*
X239485000Y-124230000D02*
X238215000Y-124230000D01*
X238215000Y-121230000D01*
X239485000Y-121230000D01*
X239485000Y-124230000D01*
X239485000Y-124230000D01*
G37*
G36*
X211545000Y-124230000D02*
X210275000Y-124230000D01*
X210275000Y-121230000D01*
X211545000Y-121230000D01*
X211545000Y-124230000D01*
X211545000Y-124230000D01*
G37*
G36*
X242025000Y-124230000D02*
X240755000Y-124230000D01*
X240755000Y-121230000D01*
X242025000Y-121230000D01*
X242025000Y-124230000D01*
X242025000Y-124230000D01*
G37*
G36*
X234405000Y-124230000D02*
X233135000Y-124230000D01*
X233135000Y-121230000D01*
X234405000Y-121230000D01*
X234405000Y-124230000D01*
X234405000Y-124230000D01*
G37*
G36*
X229325000Y-124230000D02*
X228055000Y-124230000D01*
X228055000Y-121230000D01*
X229325000Y-121230000D01*
X229325000Y-124230000D01*
X229325000Y-124230000D01*
G37*
G36*
X261893778Y-118701879D02*
X262139466Y-118803646D01*
X262360578Y-118951389D01*
X262548611Y-119139422D01*
X262696354Y-119360534D01*
X262798121Y-119606222D01*
X262850000Y-119867035D01*
X262850000Y-120132965D01*
X262798121Y-120393778D01*
X262696354Y-120639466D01*
X262548611Y-120860578D01*
X262360578Y-121048611D01*
X262139466Y-121196354D01*
X261893778Y-121298121D01*
X261632965Y-121350000D01*
X261367035Y-121350000D01*
X261106222Y-121298121D01*
X260860534Y-121196354D01*
X260639422Y-121048611D01*
X260451389Y-120860578D01*
X260303646Y-120639466D01*
X260201879Y-120393778D01*
X260150000Y-120132965D01*
X260150000Y-119867035D01*
X260201879Y-119606222D01*
X260303646Y-119360534D01*
X260451389Y-119139422D01*
X260639422Y-118951389D01*
X260860534Y-118803646D01*
X261106222Y-118701879D01*
X261367035Y-118650000D01*
X261632965Y-118650000D01*
X261893778Y-118701879D01*
X261893778Y-118701879D01*
G37*
G36*
X203893778Y-118701879D02*
X204139466Y-118803646D01*
X204360578Y-118951389D01*
X204548611Y-119139422D01*
X204696354Y-119360534D01*
X204798121Y-119606222D01*
X204850000Y-119867035D01*
X204850000Y-120132965D01*
X204798121Y-120393778D01*
X204696354Y-120639466D01*
X204548611Y-120860578D01*
X204360578Y-121048611D01*
X204139466Y-121196354D01*
X203893778Y-121298121D01*
X203632965Y-121350000D01*
X203367035Y-121350000D01*
X203106222Y-121298121D01*
X202860534Y-121196354D01*
X202639422Y-121048611D01*
X202451389Y-120860578D01*
X202303646Y-120639466D01*
X202201879Y-120393778D01*
X202150000Y-120132965D01*
X202150000Y-119867035D01*
X202201879Y-119606222D01*
X202303646Y-119360534D01*
X202451389Y-119139422D01*
X202639422Y-118951389D01*
X202860534Y-118803646D01*
X203106222Y-118701879D01*
X203367035Y-118650000D01*
X203632965Y-118650000D01*
X203893778Y-118701879D01*
X203893778Y-118701879D01*
G37*
G36*
X209005000Y-118770000D02*
X207735000Y-118770000D01*
X207735000Y-115770000D01*
X209005000Y-115770000D01*
X209005000Y-118770000D01*
X209005000Y-118770000D01*
G37*
G36*
X257265000Y-118770000D02*
X255995000Y-118770000D01*
X255995000Y-115770000D01*
X257265000Y-115770000D01*
X257265000Y-118770000D01*
X257265000Y-118770000D01*
G37*
G36*
X254725000Y-118770000D02*
X253455000Y-118770000D01*
X253455000Y-115770000D01*
X254725000Y-115770000D01*
X254725000Y-118770000D01*
X254725000Y-118770000D01*
G37*
G36*
X252185000Y-118770000D02*
X250915000Y-118770000D01*
X250915000Y-115770000D01*
X252185000Y-115770000D01*
X252185000Y-118770000D01*
X252185000Y-118770000D01*
G37*
G36*
X249645000Y-118770000D02*
X248375000Y-118770000D01*
X248375000Y-115770000D01*
X249645000Y-115770000D01*
X249645000Y-118770000D01*
X249645000Y-118770000D01*
G37*
G36*
X247105000Y-118770000D02*
X245835000Y-118770000D01*
X245835000Y-115770000D01*
X247105000Y-115770000D01*
X247105000Y-118770000D01*
X247105000Y-118770000D01*
G37*
G36*
X244565000Y-118770000D02*
X243295000Y-118770000D01*
X243295000Y-115770000D01*
X244565000Y-115770000D01*
X244565000Y-118770000D01*
X244565000Y-118770000D01*
G37*
G36*
X242025000Y-118770000D02*
X240755000Y-118770000D01*
X240755000Y-115770000D01*
X242025000Y-115770000D01*
X242025000Y-118770000D01*
X242025000Y-118770000D01*
G37*
G36*
X239485000Y-118770000D02*
X238215000Y-118770000D01*
X238215000Y-115770000D01*
X239485000Y-115770000D01*
X239485000Y-118770000D01*
X239485000Y-118770000D01*
G37*
G36*
X236945000Y-118770000D02*
X235675000Y-118770000D01*
X235675000Y-115770000D01*
X236945000Y-115770000D01*
X236945000Y-118770000D01*
X236945000Y-118770000D01*
G37*
G36*
X234405000Y-118770000D02*
X233135000Y-118770000D01*
X233135000Y-115770000D01*
X234405000Y-115770000D01*
X234405000Y-118770000D01*
X234405000Y-118770000D01*
G37*
G36*
X231865000Y-118770000D02*
X230595000Y-118770000D01*
X230595000Y-115770000D01*
X231865000Y-115770000D01*
X231865000Y-118770000D01*
X231865000Y-118770000D01*
G37*
G36*
X229325000Y-118770000D02*
X228055000Y-118770000D01*
X228055000Y-115770000D01*
X229325000Y-115770000D01*
X229325000Y-118770000D01*
X229325000Y-118770000D01*
G37*
G36*
X226785000Y-118770000D02*
X225515000Y-118770000D01*
X225515000Y-115770000D01*
X226785000Y-115770000D01*
X226785000Y-118770000D01*
X226785000Y-118770000D01*
G37*
G36*
X224245000Y-118770000D02*
X222975000Y-118770000D01*
X222975000Y-115770000D01*
X224245000Y-115770000D01*
X224245000Y-118770000D01*
X224245000Y-118770000D01*
G37*
G36*
X221705000Y-118770000D02*
X220435000Y-118770000D01*
X220435000Y-115770000D01*
X221705000Y-115770000D01*
X221705000Y-118770000D01*
X221705000Y-118770000D01*
G37*
G36*
X219165000Y-118770000D02*
X217895000Y-118770000D01*
X217895000Y-115770000D01*
X219165000Y-115770000D01*
X219165000Y-118770000D01*
X219165000Y-118770000D01*
G37*
G36*
X216625000Y-118770000D02*
X215355000Y-118770000D01*
X215355000Y-115770000D01*
X216625000Y-115770000D01*
X216625000Y-118770000D01*
X216625000Y-118770000D01*
G37*
G36*
X211545000Y-118770000D02*
X210275000Y-118770000D01*
X210275000Y-115770000D01*
X211545000Y-115770000D01*
X211545000Y-118770000D01*
X211545000Y-118770000D01*
G37*
G36*
X214085000Y-118770000D02*
X212815000Y-118770000D01*
X212815000Y-115770000D01*
X214085000Y-115770000D01*
X214085000Y-118770000D01*
X214085000Y-118770000D01*
G37*
M02*
