G04 #@! TF.GenerationSoftware,KiCad,Pcbnew,(5.0.2)-1*
G04 #@! TF.CreationDate,2019-09-16T21:44:15-04:00*
G04 #@! TF.ProjectId,AD3D Cloud Connect Board,41443344-2043-46c6-9f75-6420436f6e6e,rev?*
G04 #@! TF.SameCoordinates,Original*
G04 #@! TF.FileFunction,Soldermask,Top*
G04 #@! TF.FilePolarity,Negative*
%FSLAX46Y46*%
G04 Gerber Fmt 4.6, Leading zero omitted, Abs format (unit mm)*
G04 Created by KiCad (PCBNEW (5.0.2)-1) date 9/16/2019 9:44:15 PM*
%MOMM*%
%LPD*%
G01*
G04 APERTURE LIST*
%ADD10C,0.150000*%
G04 APERTURE END LIST*
D10*
G36*
X239364612Y-181798037D02*
X239592096Y-181892264D01*
X239796831Y-182029064D01*
X239970936Y-182203169D01*
X240107736Y-182407904D01*
X240201963Y-182635388D01*
X240250000Y-182876885D01*
X240250000Y-183123115D01*
X240201963Y-183364612D01*
X240107736Y-183592096D01*
X239970936Y-183796831D01*
X239796831Y-183970936D01*
X239592096Y-184107736D01*
X239364612Y-184201963D01*
X239123115Y-184250000D01*
X238876885Y-184250000D01*
X238635388Y-184201963D01*
X238407904Y-184107736D01*
X238203169Y-183970936D01*
X238029064Y-183796831D01*
X237892264Y-183592096D01*
X237798037Y-183364612D01*
X237750000Y-183123115D01*
X237750000Y-182876885D01*
X237798037Y-182635388D01*
X237892264Y-182407904D01*
X238029064Y-182203169D01*
X238203169Y-182029064D01*
X238407904Y-181892264D01*
X238635388Y-181798037D01*
X238876885Y-181750000D01*
X239123115Y-181750000D01*
X239364612Y-181798037D01*
X239364612Y-181798037D01*
G37*
G36*
X175364612Y-181798037D02*
X175592096Y-181892264D01*
X175796831Y-182029064D01*
X175970936Y-182203169D01*
X176107736Y-182407904D01*
X176201963Y-182635388D01*
X176250000Y-182876885D01*
X176250000Y-183123115D01*
X176201963Y-183364612D01*
X176107736Y-183592096D01*
X175970936Y-183796831D01*
X175796831Y-183970936D01*
X175592096Y-184107736D01*
X175364612Y-184201963D01*
X175123115Y-184250000D01*
X174876885Y-184250000D01*
X174635388Y-184201963D01*
X174407904Y-184107736D01*
X174203169Y-183970936D01*
X174029064Y-183796831D01*
X173892264Y-183592096D01*
X173798037Y-183364612D01*
X173750000Y-183123115D01*
X173750000Y-182876885D01*
X173798037Y-182635388D01*
X173892264Y-182407904D01*
X174029064Y-182203169D01*
X174203169Y-182029064D01*
X174407904Y-181892264D01*
X174635388Y-181798037D01*
X174876885Y-181750000D01*
X175123115Y-181750000D01*
X175364612Y-181798037D01*
X175364612Y-181798037D01*
G37*
G36*
X190150000Y-176100000D02*
X188600000Y-176100000D01*
X188600000Y-175100000D01*
X190150000Y-175100000D01*
X190150000Y-176100000D01*
X190150000Y-176100000D01*
G37*
G36*
X225400000Y-176100000D02*
X223850000Y-176100000D01*
X223850000Y-175100000D01*
X225400000Y-175100000D01*
X225400000Y-176100000D01*
X225400000Y-176100000D01*
G37*
G36*
X220150000Y-176100000D02*
X218600000Y-176100000D01*
X218600000Y-175100000D01*
X220150000Y-175100000D01*
X220150000Y-176100000D01*
X220150000Y-176100000D01*
G37*
G36*
X195400000Y-176100000D02*
X193850000Y-176100000D01*
X193850000Y-175100000D01*
X195400000Y-175100000D01*
X195400000Y-176100000D01*
X195400000Y-176100000D01*
G37*
G36*
X220150000Y-172900000D02*
X218600000Y-172900000D01*
X218600000Y-171900000D01*
X220150000Y-171900000D01*
X220150000Y-172900000D01*
X220150000Y-172900000D01*
G37*
G36*
X190150000Y-172900000D02*
X188600000Y-172900000D01*
X188600000Y-171900000D01*
X190150000Y-171900000D01*
X190150000Y-172900000D01*
X190150000Y-172900000D01*
G37*
G36*
X195400000Y-172900000D02*
X193850000Y-172900000D01*
X193850000Y-171900000D01*
X195400000Y-171900000D01*
X195400000Y-172900000D01*
X195400000Y-172900000D01*
G37*
G36*
X225400000Y-172900000D02*
X223850000Y-172900000D01*
X223850000Y-171900000D01*
X225400000Y-171900000D01*
X225400000Y-172900000D01*
X225400000Y-172900000D01*
G37*
G36*
X195400000Y-146100000D02*
X193850000Y-146100000D01*
X193850000Y-145100000D01*
X195400000Y-145100000D01*
X195400000Y-146100000D01*
X195400000Y-146100000D01*
G37*
G36*
X190150000Y-146100000D02*
X188600000Y-146100000D01*
X188600000Y-145100000D01*
X190150000Y-145100000D01*
X190150000Y-146100000D01*
X190150000Y-146100000D01*
G37*
G36*
X220150000Y-146100000D02*
X218600000Y-146100000D01*
X218600000Y-145100000D01*
X220150000Y-145100000D01*
X220150000Y-146100000D01*
X220150000Y-146100000D01*
G37*
G36*
X225400000Y-146100000D02*
X223850000Y-146100000D01*
X223850000Y-145100000D01*
X225400000Y-145100000D01*
X225400000Y-146100000D01*
X225400000Y-146100000D01*
G37*
G36*
X220150000Y-142900000D02*
X218600000Y-142900000D01*
X218600000Y-141900000D01*
X220150000Y-141900000D01*
X220150000Y-142900000D01*
X220150000Y-142900000D01*
G37*
G36*
X195400000Y-142900000D02*
X193850000Y-142900000D01*
X193850000Y-141900000D01*
X195400000Y-141900000D01*
X195400000Y-142900000D01*
X195400000Y-142900000D01*
G37*
G36*
X190150000Y-142900000D02*
X188600000Y-142900000D01*
X188600000Y-141900000D01*
X190150000Y-141900000D01*
X190150000Y-142900000D01*
X190150000Y-142900000D01*
G37*
G36*
X225400000Y-142900000D02*
X223850000Y-142900000D01*
X223850000Y-141900000D01*
X225400000Y-141900000D01*
X225400000Y-142900000D01*
X225400000Y-142900000D01*
G37*
G36*
X221679144Y-126578475D02*
X221707172Y-126586977D01*
X221732998Y-126600782D01*
X221755638Y-126619362D01*
X221774218Y-126642002D01*
X221788023Y-126667828D01*
X221796525Y-126695856D01*
X221800000Y-126731140D01*
X221800000Y-127268860D01*
X221796525Y-127304144D01*
X221788023Y-127332172D01*
X221774218Y-127357998D01*
X221755638Y-127380638D01*
X221732998Y-127399218D01*
X221707172Y-127413023D01*
X221679144Y-127421525D01*
X221643860Y-127425000D01*
X220731140Y-127425000D01*
X220695856Y-127421525D01*
X220667828Y-127413023D01*
X220642002Y-127399218D01*
X220619362Y-127380638D01*
X220600782Y-127357998D01*
X220586977Y-127332172D01*
X220578475Y-127304144D01*
X220575000Y-127268860D01*
X220575000Y-126731140D01*
X220578475Y-126695856D01*
X220586977Y-126667828D01*
X220600782Y-126642002D01*
X220619362Y-126619362D01*
X220642002Y-126600782D01*
X220667828Y-126586977D01*
X220695856Y-126578475D01*
X220731140Y-126575000D01*
X221643860Y-126575000D01*
X221679144Y-126578475D01*
X221679144Y-126578475D01*
G37*
G36*
X223304144Y-126578475D02*
X223332172Y-126586977D01*
X223357998Y-126600782D01*
X223380638Y-126619362D01*
X223399218Y-126642002D01*
X223413023Y-126667828D01*
X223421525Y-126695856D01*
X223425000Y-126731140D01*
X223425000Y-127268860D01*
X223421525Y-127304144D01*
X223413023Y-127332172D01*
X223399218Y-127357998D01*
X223380638Y-127380638D01*
X223357998Y-127399218D01*
X223332172Y-127413023D01*
X223304144Y-127421525D01*
X223268860Y-127425000D01*
X222356140Y-127425000D01*
X222320856Y-127421525D01*
X222292828Y-127413023D01*
X222267002Y-127399218D01*
X222244362Y-127380638D01*
X222225782Y-127357998D01*
X222211977Y-127332172D01*
X222203475Y-127304144D01*
X222200000Y-127268860D01*
X222200000Y-126731140D01*
X222203475Y-126695856D01*
X222211977Y-126667828D01*
X222225782Y-126642002D01*
X222244362Y-126619362D01*
X222267002Y-126600782D01*
X222292828Y-126586977D01*
X222320856Y-126578475D01*
X222356140Y-126575000D01*
X223268860Y-126575000D01*
X223304144Y-126578475D01*
X223304144Y-126578475D01*
G37*
G36*
X190150000Y-126100000D02*
X188600000Y-126100000D01*
X188600000Y-125100000D01*
X190150000Y-125100000D01*
X190150000Y-126100000D01*
X190150000Y-126100000D01*
G37*
G36*
X195400000Y-126100000D02*
X193850000Y-126100000D01*
X193850000Y-125100000D01*
X195400000Y-125100000D01*
X195400000Y-126100000D01*
X195400000Y-126100000D01*
G37*
G36*
X223304144Y-123578475D02*
X223332172Y-123586977D01*
X223357998Y-123600782D01*
X223380638Y-123619362D01*
X223399218Y-123642002D01*
X223413023Y-123667828D01*
X223421525Y-123695856D01*
X223425000Y-123731140D01*
X223425000Y-124268860D01*
X223421525Y-124304144D01*
X223413023Y-124332172D01*
X223399218Y-124357998D01*
X223380638Y-124380638D01*
X223357998Y-124399218D01*
X223332172Y-124413023D01*
X223304144Y-124421525D01*
X223268860Y-124425000D01*
X222356140Y-124425000D01*
X222320856Y-124421525D01*
X222292828Y-124413023D01*
X222267002Y-124399218D01*
X222244362Y-124380638D01*
X222225782Y-124357998D01*
X222211977Y-124332172D01*
X222203475Y-124304144D01*
X222200000Y-124268860D01*
X222200000Y-123731140D01*
X222203475Y-123695856D01*
X222211977Y-123667828D01*
X222225782Y-123642002D01*
X222244362Y-123619362D01*
X222267002Y-123600782D01*
X222292828Y-123586977D01*
X222320856Y-123578475D01*
X222356140Y-123575000D01*
X223268860Y-123575000D01*
X223304144Y-123578475D01*
X223304144Y-123578475D01*
G37*
G36*
X221679144Y-123578475D02*
X221707172Y-123586977D01*
X221732998Y-123600782D01*
X221755638Y-123619362D01*
X221774218Y-123642002D01*
X221788023Y-123667828D01*
X221796525Y-123695856D01*
X221800000Y-123731140D01*
X221800000Y-124268860D01*
X221796525Y-124304144D01*
X221788023Y-124332172D01*
X221774218Y-124357998D01*
X221755638Y-124380638D01*
X221732998Y-124399218D01*
X221707172Y-124413023D01*
X221679144Y-124421525D01*
X221643860Y-124425000D01*
X220731140Y-124425000D01*
X220695856Y-124421525D01*
X220667828Y-124413023D01*
X220642002Y-124399218D01*
X220619362Y-124380638D01*
X220600782Y-124357998D01*
X220586977Y-124332172D01*
X220578475Y-124304144D01*
X220575000Y-124268860D01*
X220575000Y-123731140D01*
X220578475Y-123695856D01*
X220586977Y-123667828D01*
X220600782Y-123642002D01*
X220619362Y-123619362D01*
X220642002Y-123600782D01*
X220667828Y-123586977D01*
X220695856Y-123578475D01*
X220731140Y-123575000D01*
X221643860Y-123575000D01*
X221679144Y-123578475D01*
X221679144Y-123578475D01*
G37*
G36*
X190150000Y-122900000D02*
X188600000Y-122900000D01*
X188600000Y-121900000D01*
X190150000Y-121900000D01*
X190150000Y-122900000D01*
X190150000Y-122900000D01*
G37*
G36*
X195400000Y-122900000D02*
X193850000Y-122900000D01*
X193850000Y-121900000D01*
X195400000Y-121900000D01*
X195400000Y-122900000D01*
X195400000Y-122900000D01*
G37*
G36*
X221679144Y-120578475D02*
X221707172Y-120586977D01*
X221732998Y-120600782D01*
X221755638Y-120619362D01*
X221774218Y-120642002D01*
X221788023Y-120667828D01*
X221796525Y-120695856D01*
X221800000Y-120731140D01*
X221800000Y-121268860D01*
X221796525Y-121304144D01*
X221788023Y-121332172D01*
X221774218Y-121357998D01*
X221755638Y-121380638D01*
X221732998Y-121399218D01*
X221707172Y-121413023D01*
X221679144Y-121421525D01*
X221643860Y-121425000D01*
X220731140Y-121425000D01*
X220695856Y-121421525D01*
X220667828Y-121413023D01*
X220642002Y-121399218D01*
X220619362Y-121380638D01*
X220600782Y-121357998D01*
X220586977Y-121332172D01*
X220578475Y-121304144D01*
X220575000Y-121268860D01*
X220575000Y-120731140D01*
X220578475Y-120695856D01*
X220586977Y-120667828D01*
X220600782Y-120642002D01*
X220619362Y-120619362D01*
X220642002Y-120600782D01*
X220667828Y-120586977D01*
X220695856Y-120578475D01*
X220731140Y-120575000D01*
X221643860Y-120575000D01*
X221679144Y-120578475D01*
X221679144Y-120578475D01*
G37*
G36*
X223304144Y-120578475D02*
X223332172Y-120586977D01*
X223357998Y-120600782D01*
X223380638Y-120619362D01*
X223399218Y-120642002D01*
X223413023Y-120667828D01*
X223421525Y-120695856D01*
X223425000Y-120731140D01*
X223425000Y-121268860D01*
X223421525Y-121304144D01*
X223413023Y-121332172D01*
X223399218Y-121357998D01*
X223380638Y-121380638D01*
X223357998Y-121399218D01*
X223332172Y-121413023D01*
X223304144Y-121421525D01*
X223268860Y-121425000D01*
X222356140Y-121425000D01*
X222320856Y-121421525D01*
X222292828Y-121413023D01*
X222267002Y-121399218D01*
X222244362Y-121380638D01*
X222225782Y-121357998D01*
X222211977Y-121332172D01*
X222203475Y-121304144D01*
X222200000Y-121268860D01*
X222200000Y-120731140D01*
X222203475Y-120695856D01*
X222211977Y-120667828D01*
X222225782Y-120642002D01*
X222244362Y-120619362D01*
X222267002Y-120600782D01*
X222292828Y-120586977D01*
X222320856Y-120578475D01*
X222356140Y-120575000D01*
X223268860Y-120575000D01*
X223304144Y-120578475D01*
X223304144Y-120578475D01*
G37*
G36*
X175364612Y-93798037D02*
X175592096Y-93892264D01*
X175796831Y-94029064D01*
X175970936Y-94203169D01*
X176107736Y-94407904D01*
X176201963Y-94635388D01*
X176250000Y-94876885D01*
X176250000Y-95123115D01*
X176201963Y-95364612D01*
X176107736Y-95592096D01*
X175970936Y-95796831D01*
X175796831Y-95970936D01*
X175592096Y-96107736D01*
X175364612Y-96201963D01*
X175123115Y-96250000D01*
X174876885Y-96250000D01*
X174635388Y-96201963D01*
X174407904Y-96107736D01*
X174203169Y-95970936D01*
X174029064Y-95796831D01*
X173892264Y-95592096D01*
X173798037Y-95364612D01*
X173750000Y-95123115D01*
X173750000Y-94876885D01*
X173798037Y-94635388D01*
X173892264Y-94407904D01*
X174029064Y-94203169D01*
X174203169Y-94029064D01*
X174407904Y-93892264D01*
X174635388Y-93798037D01*
X174876885Y-93750000D01*
X175123115Y-93750000D01*
X175364612Y-93798037D01*
X175364612Y-93798037D01*
G37*
G36*
X239364612Y-93798037D02*
X239592096Y-93892264D01*
X239796831Y-94029064D01*
X239970936Y-94203169D01*
X240107736Y-94407904D01*
X240201963Y-94635388D01*
X240250000Y-94876885D01*
X240250000Y-95123115D01*
X240201963Y-95364612D01*
X240107736Y-95592096D01*
X239970936Y-95796831D01*
X239796831Y-95970936D01*
X239592096Y-96107736D01*
X239364612Y-96201963D01*
X239123115Y-96250000D01*
X238876885Y-96250000D01*
X238635388Y-96201963D01*
X238407904Y-96107736D01*
X238203169Y-95970936D01*
X238029064Y-95796831D01*
X237892264Y-95592096D01*
X237798037Y-95364612D01*
X237750000Y-95123115D01*
X237750000Y-94876885D01*
X237798037Y-94635388D01*
X237892264Y-94407904D01*
X238029064Y-94203169D01*
X238203169Y-94029064D01*
X238407904Y-93892264D01*
X238635388Y-93798037D01*
X238876885Y-93750000D01*
X239123115Y-93750000D01*
X239364612Y-93798037D01*
X239364612Y-93798037D01*
G37*
M02*
