G04 #@! TF.GenerationSoftware,KiCad,Pcbnew,(5.0.2)-1*
G04 #@! TF.CreationDate,2019-07-28T23:35:27-04:00*
G04 #@! TF.ProjectId,AD3D Cloud Connect Board,41443344-2043-46c6-9f75-6420436f6e6e,rev?*
G04 #@! TF.SameCoordinates,Original*
G04 #@! TF.FileFunction,Legend,Bot*
G04 #@! TF.FilePolarity,Positive*
%FSLAX46Y46*%
G04 Gerber Fmt 4.6, Leading zero omitted, Abs format (unit mm)*
G04 Created by KiCad (PCBNEW (5.0.2)-1) date 7/28/2019 11:35:27 PM*
%MOMM*%
%LPD*%
G01*
G04 APERTURE LIST*
%ADD10C,0.250000*%
%ADD11C,0.150000*%
%ADD12C,0.050000*%
%ADD13C,0.200000*%
%ADD14C,0.120000*%
G04 APERTURE END LIST*
D10*
X247704761Y-132685714D02*
X247752380Y-132828571D01*
X247752380Y-133066666D01*
X247704761Y-133161904D01*
X247657142Y-133209523D01*
X247561904Y-133257142D01*
X247466666Y-133257142D01*
X247371428Y-133209523D01*
X247323809Y-133161904D01*
X247276190Y-133066666D01*
X247228571Y-132876190D01*
X247180952Y-132780952D01*
X247133333Y-132733333D01*
X247038095Y-132685714D01*
X246942857Y-132685714D01*
X246847619Y-132733333D01*
X246800000Y-132780952D01*
X246752380Y-132876190D01*
X246752380Y-133114285D01*
X246800000Y-133257142D01*
X247752380Y-133685714D02*
X246752380Y-133685714D01*
X246752380Y-133923809D01*
X246800000Y-134066666D01*
X246895238Y-134161904D01*
X246990476Y-134209523D01*
X247180952Y-134257142D01*
X247323809Y-134257142D01*
X247514285Y-134209523D01*
X247609523Y-134161904D01*
X247704761Y-134066666D01*
X247752380Y-133923809D01*
X247752380Y-133685714D01*
X247466666Y-134638095D02*
X247466666Y-135114285D01*
X247752380Y-134542857D02*
X246752380Y-134876190D01*
X247752380Y-135209523D01*
X250104761Y-132709523D02*
X250152380Y-132852380D01*
X250152380Y-133090476D01*
X250104761Y-133185714D01*
X250057142Y-133233333D01*
X249961904Y-133280952D01*
X249866666Y-133280952D01*
X249771428Y-133233333D01*
X249723809Y-133185714D01*
X249676190Y-133090476D01*
X249628571Y-132900000D01*
X249580952Y-132804761D01*
X249533333Y-132757142D01*
X249438095Y-132709523D01*
X249342857Y-132709523D01*
X249247619Y-132757142D01*
X249200000Y-132804761D01*
X249152380Y-132900000D01*
X249152380Y-133138095D01*
X249200000Y-133280952D01*
X250057142Y-134280952D02*
X250104761Y-134233333D01*
X250152380Y-134090476D01*
X250152380Y-133995238D01*
X250104761Y-133852380D01*
X250009523Y-133757142D01*
X249914285Y-133709523D01*
X249723809Y-133661904D01*
X249580952Y-133661904D01*
X249390476Y-133709523D01*
X249295238Y-133757142D01*
X249200000Y-133852380D01*
X249152380Y-133995238D01*
X249152380Y-134090476D01*
X249200000Y-134233333D01*
X249247619Y-134280952D01*
X250152380Y-135185714D02*
X250152380Y-134709523D01*
X249152380Y-134709523D01*
X249476190Y-132352380D02*
X249476190Y-131352380D01*
X249047619Y-131447619D02*
X249000000Y-131400000D01*
X248904761Y-131352380D01*
X248666666Y-131352380D01*
X248571428Y-131400000D01*
X248523809Y-131447619D01*
X248476190Y-131542857D01*
X248476190Y-131638095D01*
X248523809Y-131780952D01*
X249095238Y-132352380D01*
X248476190Y-132352380D01*
X247476190Y-132257142D02*
X247523809Y-132304761D01*
X247666666Y-132352380D01*
X247761904Y-132352380D01*
X247904761Y-132304761D01*
X248000000Y-132209523D01*
X248047619Y-132114285D01*
X248095238Y-131923809D01*
X248095238Y-131780952D01*
X248047619Y-131590476D01*
X248000000Y-131495238D01*
X247904761Y-131400000D01*
X247761904Y-131352380D01*
X247666666Y-131352380D01*
X247523809Y-131400000D01*
X247476190Y-131447619D01*
X215552380Y-133233333D02*
X215076190Y-132900000D01*
X215552380Y-132661904D02*
X214552380Y-132661904D01*
X214552380Y-133042857D01*
X214600000Y-133138095D01*
X214647619Y-133185714D01*
X214742857Y-133233333D01*
X214885714Y-133233333D01*
X214980952Y-133185714D01*
X215028571Y-133138095D01*
X215076190Y-133042857D01*
X215076190Y-132661904D01*
X214552380Y-133566666D02*
X215552380Y-134233333D01*
X214552380Y-134233333D02*
X215552380Y-133566666D01*
X215552380Y-134614285D02*
X214552380Y-134614285D01*
X214552380Y-134852380D01*
X214600000Y-134995238D01*
X214695238Y-135090476D01*
X214790476Y-135138095D01*
X214980952Y-135185714D01*
X215123809Y-135185714D01*
X215314285Y-135138095D01*
X215409523Y-135090476D01*
X215504761Y-134995238D01*
X215552380Y-134852380D01*
X215552380Y-134614285D01*
X217252380Y-132738095D02*
X217252380Y-133309523D01*
X218252380Y-133023809D02*
X217252380Y-133023809D01*
X217252380Y-133547619D02*
X218252380Y-134214285D01*
X217252380Y-134214285D02*
X218252380Y-133547619D01*
X218252380Y-134595238D02*
X217252380Y-134595238D01*
X217252380Y-134833333D01*
X217300000Y-134976190D01*
X217395238Y-135071428D01*
X217490476Y-135119047D01*
X217680952Y-135166666D01*
X217823809Y-135166666D01*
X218014285Y-135119047D01*
X218109523Y-135071428D01*
X218204761Y-134976190D01*
X218252380Y-134833333D01*
X218252380Y-134595238D01*
X218095238Y-131352380D02*
X218095238Y-132161904D01*
X218047619Y-132257142D01*
X218000000Y-132304761D01*
X217904761Y-132352380D01*
X217714285Y-132352380D01*
X217619047Y-132304761D01*
X217571428Y-132257142D01*
X217523809Y-132161904D01*
X217523809Y-131352380D01*
X217095238Y-132066666D02*
X216619047Y-132066666D01*
X217190476Y-132352380D02*
X216857142Y-131352380D01*
X216523809Y-132352380D01*
X215619047Y-132352380D02*
X215952380Y-131876190D01*
X216190476Y-132352380D02*
X216190476Y-131352380D01*
X215809523Y-131352380D01*
X215714285Y-131400000D01*
X215666666Y-131447619D01*
X215619047Y-131542857D01*
X215619047Y-131685714D01*
X215666666Y-131780952D01*
X215714285Y-131828571D01*
X215809523Y-131876190D01*
X216190476Y-131876190D01*
X215333333Y-131352380D02*
X214761904Y-131352380D01*
X215047619Y-132352380D02*
X215047619Y-131352380D01*
X212252380Y-129166666D02*
X211252380Y-129166666D01*
X211966666Y-129500000D01*
X211252380Y-129833333D01*
X212252380Y-129833333D01*
X212252380Y-130452380D02*
X212204761Y-130357142D01*
X212157142Y-130309523D01*
X212061904Y-130261904D01*
X211776190Y-130261904D01*
X211680952Y-130309523D01*
X211633333Y-130357142D01*
X211585714Y-130452380D01*
X211585714Y-130595238D01*
X211633333Y-130690476D01*
X211680952Y-130738095D01*
X211776190Y-130785714D01*
X212061904Y-130785714D01*
X212157142Y-130738095D01*
X212204761Y-130690476D01*
X212252380Y-130595238D01*
X212252380Y-130452380D01*
X211585714Y-131071428D02*
X211585714Y-131452380D01*
X211252380Y-131214285D02*
X212109523Y-131214285D01*
X212204761Y-131261904D01*
X212252380Y-131357142D01*
X212252380Y-131452380D01*
X212252380Y-131928571D02*
X212204761Y-131833333D01*
X212157142Y-131785714D01*
X212061904Y-131738095D01*
X211776190Y-131738095D01*
X211680952Y-131785714D01*
X211633333Y-131833333D01*
X211585714Y-131928571D01*
X211585714Y-132071428D01*
X211633333Y-132166666D01*
X211680952Y-132214285D01*
X211776190Y-132261904D01*
X212061904Y-132261904D01*
X212157142Y-132214285D01*
X212204761Y-132166666D01*
X212252380Y-132071428D01*
X212252380Y-131928571D01*
X212252380Y-132690476D02*
X211585714Y-132690476D01*
X211776190Y-132690476D02*
X211680952Y-132738095D01*
X211633333Y-132785714D01*
X211585714Y-132880952D01*
X211585714Y-132976190D01*
X253128571Y-127880952D02*
X253128571Y-127547619D01*
X253652380Y-127547619D02*
X252652380Y-127547619D01*
X252652380Y-128023809D01*
X253652380Y-128404761D02*
X252985714Y-128404761D01*
X252652380Y-128404761D02*
X252700000Y-128357142D01*
X252747619Y-128404761D01*
X252700000Y-128452380D01*
X252652380Y-128404761D01*
X252747619Y-128404761D01*
X253652380Y-129023809D02*
X253604761Y-128928571D01*
X253509523Y-128880952D01*
X252652380Y-128880952D01*
X253652380Y-129833333D02*
X253128571Y-129833333D01*
X253033333Y-129785714D01*
X252985714Y-129690476D01*
X252985714Y-129500000D01*
X253033333Y-129404761D01*
X253604761Y-129833333D02*
X253652380Y-129738095D01*
X253652380Y-129500000D01*
X253604761Y-129404761D01*
X253509523Y-129357142D01*
X253414285Y-129357142D01*
X253319047Y-129404761D01*
X253271428Y-129500000D01*
X253271428Y-129738095D01*
X253223809Y-129833333D01*
X253652380Y-130309523D02*
X252985714Y-130309523D01*
X253080952Y-130309523D02*
X253033333Y-130357142D01*
X252985714Y-130452380D01*
X252985714Y-130595238D01*
X253033333Y-130690476D01*
X253128571Y-130738095D01*
X253652380Y-130738095D01*
X253128571Y-130738095D02*
X253033333Y-130785714D01*
X252985714Y-130880952D01*
X252985714Y-131023809D01*
X253033333Y-131119047D01*
X253128571Y-131166666D01*
X253652380Y-131166666D01*
X253604761Y-132023809D02*
X253652380Y-131928571D01*
X253652380Y-131738095D01*
X253604761Y-131642857D01*
X253509523Y-131595238D01*
X253128571Y-131595238D01*
X253033333Y-131642857D01*
X252985714Y-131738095D01*
X252985714Y-131928571D01*
X253033333Y-132023809D01*
X253128571Y-132071428D01*
X253223809Y-132071428D01*
X253319047Y-131595238D01*
X252985714Y-132500000D02*
X253652380Y-132500000D01*
X253080952Y-132500000D02*
X253033333Y-132547619D01*
X252985714Y-132642857D01*
X252985714Y-132785714D01*
X253033333Y-132880952D01*
X253128571Y-132928571D01*
X253652380Y-132928571D01*
X252985714Y-133261904D02*
X252985714Y-133642857D01*
X252652380Y-133404761D02*
X253509523Y-133404761D01*
X253604761Y-133452380D01*
X253652380Y-133547619D01*
X253652380Y-133642857D01*
X252747619Y-133928571D02*
X252700000Y-133976190D01*
X252652380Y-134071428D01*
X252652380Y-134309523D01*
X252700000Y-134404761D01*
X252747619Y-134452380D01*
X252842857Y-134500000D01*
X252938095Y-134500000D01*
X253080952Y-134452380D01*
X253652380Y-133880952D01*
X253652380Y-134500000D01*
X235619047Y-134628571D02*
X235952380Y-134628571D01*
X235952380Y-135152380D02*
X235952380Y-134152380D01*
X235476190Y-134152380D01*
X235095238Y-135152380D02*
X235095238Y-134485714D01*
X235095238Y-134152380D02*
X235142857Y-134200000D01*
X235095238Y-134247619D01*
X235047619Y-134200000D01*
X235095238Y-134152380D01*
X235095238Y-134247619D01*
X234476190Y-135152380D02*
X234571428Y-135104761D01*
X234619047Y-135009523D01*
X234619047Y-134152380D01*
X233666666Y-135152380D02*
X233666666Y-134628571D01*
X233714285Y-134533333D01*
X233809523Y-134485714D01*
X234000000Y-134485714D01*
X234095238Y-134533333D01*
X233666666Y-135104761D02*
X233761904Y-135152380D01*
X234000000Y-135152380D01*
X234095238Y-135104761D01*
X234142857Y-135009523D01*
X234142857Y-134914285D01*
X234095238Y-134819047D01*
X234000000Y-134771428D01*
X233761904Y-134771428D01*
X233666666Y-134723809D01*
X233190476Y-135152380D02*
X233190476Y-134485714D01*
X233190476Y-134580952D02*
X233142857Y-134533333D01*
X233047619Y-134485714D01*
X232904761Y-134485714D01*
X232809523Y-134533333D01*
X232761904Y-134628571D01*
X232761904Y-135152380D01*
X232761904Y-134628571D02*
X232714285Y-134533333D01*
X232619047Y-134485714D01*
X232476190Y-134485714D01*
X232380952Y-134533333D01*
X232333333Y-134628571D01*
X232333333Y-135152380D01*
X231476190Y-135104761D02*
X231571428Y-135152380D01*
X231761904Y-135152380D01*
X231857142Y-135104761D01*
X231904761Y-135009523D01*
X231904761Y-134628571D01*
X231857142Y-134533333D01*
X231761904Y-134485714D01*
X231571428Y-134485714D01*
X231476190Y-134533333D01*
X231428571Y-134628571D01*
X231428571Y-134723809D01*
X231904761Y-134819047D01*
X231000000Y-134485714D02*
X231000000Y-135152380D01*
X231000000Y-134580952D02*
X230952380Y-134533333D01*
X230857142Y-134485714D01*
X230714285Y-134485714D01*
X230619047Y-134533333D01*
X230571428Y-134628571D01*
X230571428Y-135152380D01*
X230238095Y-134485714D02*
X229857142Y-134485714D01*
X230095238Y-134152380D02*
X230095238Y-135009523D01*
X230047619Y-135104761D01*
X229952380Y-135152380D01*
X229857142Y-135152380D01*
X229000000Y-135152380D02*
X229571428Y-135152380D01*
X229285714Y-135152380D02*
X229285714Y-134152380D01*
X229380952Y-134295238D01*
X229476190Y-134390476D01*
X229571428Y-134438095D01*
X234295238Y-130777380D02*
X234628571Y-130301190D01*
X234866666Y-130777380D02*
X234866666Y-129777380D01*
X234485714Y-129777380D01*
X234390476Y-129825000D01*
X234342857Y-129872619D01*
X234295238Y-129967857D01*
X234295238Y-130110714D01*
X234342857Y-130205952D01*
X234390476Y-130253571D01*
X234485714Y-130301190D01*
X234866666Y-130301190D01*
X233485714Y-130729761D02*
X233580952Y-130777380D01*
X233771428Y-130777380D01*
X233866666Y-130729761D01*
X233914285Y-130634523D01*
X233914285Y-130253571D01*
X233866666Y-130158333D01*
X233771428Y-130110714D01*
X233580952Y-130110714D01*
X233485714Y-130158333D01*
X233438095Y-130253571D01*
X233438095Y-130348809D01*
X233914285Y-130444047D01*
X233104761Y-130110714D02*
X232866666Y-130777380D01*
X232628571Y-130110714D01*
X232247619Y-130682142D02*
X232200000Y-130729761D01*
X232247619Y-130777380D01*
X232295238Y-130729761D01*
X232247619Y-130682142D01*
X232247619Y-130777380D01*
X232247619Y-130158333D02*
X232200000Y-130205952D01*
X232247619Y-130253571D01*
X232295238Y-130205952D01*
X232247619Y-130158333D01*
X232247619Y-130253571D01*
X230819047Y-129777380D02*
X230723809Y-129777380D01*
X230628571Y-129825000D01*
X230580952Y-129872619D01*
X230533333Y-129967857D01*
X230485714Y-130158333D01*
X230485714Y-130396428D01*
X230533333Y-130586904D01*
X230580952Y-130682142D01*
X230628571Y-130729761D01*
X230723809Y-130777380D01*
X230819047Y-130777380D01*
X230914285Y-130729761D01*
X230961904Y-130682142D01*
X231009523Y-130586904D01*
X231057142Y-130396428D01*
X231057142Y-130158333D01*
X231009523Y-129967857D01*
X230961904Y-129872619D01*
X230914285Y-129825000D01*
X230819047Y-129777380D01*
X239247619Y-132527380D02*
X239247619Y-131527380D01*
X238866666Y-131527380D01*
X238771428Y-131575000D01*
X238723809Y-131622619D01*
X238676190Y-131717857D01*
X238676190Y-131860714D01*
X238723809Y-131955952D01*
X238771428Y-132003571D01*
X238866666Y-132051190D01*
X239247619Y-132051190D01*
X237533333Y-131479761D02*
X238390476Y-132765476D01*
X237200000Y-132527380D02*
X237200000Y-131527380D01*
X236628571Y-132527380D01*
X236628571Y-131527380D01*
X236152380Y-132432142D02*
X236104761Y-132479761D01*
X236152380Y-132527380D01*
X236200000Y-132479761D01*
X236152380Y-132432142D01*
X236152380Y-132527380D01*
X236152380Y-131908333D02*
X236104761Y-131955952D01*
X236152380Y-132003571D01*
X236200000Y-131955952D01*
X236152380Y-131908333D01*
X236152380Y-132003571D01*
X234961904Y-132241666D02*
X234485714Y-132241666D01*
X235057142Y-132527380D02*
X234723809Y-131527380D01*
X234390476Y-132527380D01*
X234057142Y-132527380D02*
X234057142Y-131527380D01*
X233819047Y-131527380D01*
X233676190Y-131575000D01*
X233580952Y-131670238D01*
X233533333Y-131765476D01*
X233485714Y-131955952D01*
X233485714Y-132098809D01*
X233533333Y-132289285D01*
X233580952Y-132384523D01*
X233676190Y-132479761D01*
X233819047Y-132527380D01*
X234057142Y-132527380D01*
X233057142Y-132146428D02*
X232295238Y-132146428D01*
X231247619Y-132432142D02*
X231295238Y-132479761D01*
X231438095Y-132527380D01*
X231533333Y-132527380D01*
X231676190Y-132479761D01*
X231771428Y-132384523D01*
X231819047Y-132289285D01*
X231866666Y-132098809D01*
X231866666Y-131955952D01*
X231819047Y-131765476D01*
X231771428Y-131670238D01*
X231676190Y-131575000D01*
X231533333Y-131527380D01*
X231438095Y-131527380D01*
X231295238Y-131575000D01*
X231247619Y-131622619D01*
X230247619Y-132432142D02*
X230295238Y-132479761D01*
X230438095Y-132527380D01*
X230533333Y-132527380D01*
X230676190Y-132479761D01*
X230771428Y-132384523D01*
X230819047Y-132289285D01*
X230866666Y-132098809D01*
X230866666Y-131955952D01*
X230819047Y-131765476D01*
X230771428Y-131670238D01*
X230676190Y-131575000D01*
X230533333Y-131527380D01*
X230438095Y-131527380D01*
X230295238Y-131575000D01*
X230247619Y-131622619D01*
X229485714Y-132003571D02*
X229342857Y-132051190D01*
X229295238Y-132098809D01*
X229247619Y-132194047D01*
X229247619Y-132336904D01*
X229295238Y-132432142D01*
X229342857Y-132479761D01*
X229438095Y-132527380D01*
X229819047Y-132527380D01*
X229819047Y-131527380D01*
X229485714Y-131527380D01*
X229390476Y-131575000D01*
X229342857Y-131622619D01*
X229295238Y-131717857D01*
X229295238Y-131813095D01*
X229342857Y-131908333D01*
X229390476Y-131955952D01*
X229485714Y-132003571D01*
X229819047Y-132003571D01*
X228819047Y-132146428D02*
X228057142Y-132146428D01*
X227390476Y-131527380D02*
X227295238Y-131527380D01*
X227200000Y-131575000D01*
X227152380Y-131622619D01*
X227104761Y-131717857D01*
X227057142Y-131908333D01*
X227057142Y-132146428D01*
X227104761Y-132336904D01*
X227152380Y-132432142D01*
X227200000Y-132479761D01*
X227295238Y-132527380D01*
X227390476Y-132527380D01*
X227485714Y-132479761D01*
X227533333Y-132432142D01*
X227580952Y-132336904D01*
X227628571Y-132146428D01*
X227628571Y-131908333D01*
X227580952Y-131717857D01*
X227533333Y-131622619D01*
X227485714Y-131575000D01*
X227390476Y-131527380D01*
X226104761Y-132527380D02*
X226676190Y-132527380D01*
X226390476Y-132527380D02*
X226390476Y-131527380D01*
X226485714Y-131670238D01*
X226580952Y-131765476D01*
X226676190Y-131813095D01*
D11*
G04 #@! TO.C,P1*
X207700000Y-122500000D02*
X206140000Y-122500000D01*
X206140000Y-122500000D02*
X206140000Y-117500000D01*
X206140000Y-117500000D02*
X207700000Y-117500000D01*
X257300000Y-122500000D02*
X258860000Y-122500000D01*
X258860000Y-122500000D02*
X258860000Y-117500000D01*
X258860000Y-117500000D02*
X257300000Y-117500000D01*
D12*
G36*
X208370000Y-124790000D02*
X207810000Y-125540000D01*
X208910000Y-125540000D01*
X208370000Y-124790000D01*
G37*
X208370000Y-124790000D02*
X207810000Y-125540000D01*
X208910000Y-125540000D01*
X208370000Y-124790000D01*
D13*
G04 #@! TO.C,J3*
X226100000Y-142200000D02*
X226100000Y-139000000D01*
X228900000Y-139000000D02*
X226100000Y-139000000D01*
X237000000Y-146400000D02*
X228000000Y-146400000D01*
X238900000Y-142300000D02*
X238900000Y-139000000D01*
X238900000Y-139000000D02*
X236100000Y-139000000D01*
D11*
X236200000Y-137000000D02*
X237000000Y-136400000D01*
X237000000Y-136400000D02*
X237000000Y-137600000D01*
X237000000Y-137600000D02*
X236200000Y-137000000D01*
X236900000Y-136500000D02*
X236900000Y-137500000D01*
X236800000Y-136600000D02*
X236800000Y-137400000D01*
X236700000Y-136700000D02*
X236700000Y-137300000D01*
X236600000Y-136700000D02*
X236600000Y-137300000D01*
X236500000Y-136800000D02*
X236500000Y-137200000D01*
X236400000Y-136900000D02*
X236400000Y-137100000D01*
D13*
G04 #@! TO.C,J6*
X204300000Y-124600000D02*
X207500000Y-124600000D01*
X207500000Y-127400000D02*
X207500000Y-124600000D01*
X200100000Y-135500000D02*
X200100000Y-126500000D01*
X204200000Y-137400000D02*
X207500000Y-137400000D01*
X207500000Y-137400000D02*
X207500000Y-134600000D01*
D11*
X209500000Y-134700000D02*
X210100000Y-135500000D01*
X210100000Y-135500000D02*
X208900000Y-135500000D01*
X208900000Y-135500000D02*
X209500000Y-134700000D01*
X210000000Y-135400000D02*
X209000000Y-135400000D01*
X209900000Y-135300000D02*
X209100000Y-135300000D01*
X209800000Y-135200000D02*
X209200000Y-135200000D01*
X209800000Y-135100000D02*
X209200000Y-135100000D01*
X209700000Y-135000000D02*
X209300000Y-135000000D01*
X209600000Y-134900000D02*
X209400000Y-134900000D01*
D13*
G04 #@! TO.C,J5*
X260700000Y-137400000D02*
X257500000Y-137400000D01*
X257500000Y-134600000D02*
X257500000Y-137400000D01*
X264900000Y-126500000D02*
X264900000Y-135500000D01*
X260800000Y-124600000D02*
X257500000Y-124600000D01*
X257500000Y-124600000D02*
X257500000Y-127400000D01*
D11*
X255500000Y-127300000D02*
X254900000Y-126500000D01*
X254900000Y-126500000D02*
X256100000Y-126500000D01*
X256100000Y-126500000D02*
X255500000Y-127300000D01*
X255000000Y-126600000D02*
X256000000Y-126600000D01*
X255100000Y-126700000D02*
X255900000Y-126700000D01*
X255200000Y-126800000D02*
X255800000Y-126800000D01*
X255200000Y-126900000D02*
X255800000Y-126900000D01*
X255300000Y-127000000D02*
X255700000Y-127000000D01*
X255400000Y-127100000D02*
X255600000Y-127100000D01*
G04 #@! TO.C,J2*
G36*
X253500000Y-137000000D02*
X254400000Y-136400000D01*
X254400000Y-137600000D01*
X253500000Y-137000000D01*
G37*
X253500000Y-137000000D02*
X254400000Y-136400000D01*
X254400000Y-137600000D01*
X253500000Y-137000000D01*
D13*
X254200000Y-146400000D02*
X242800000Y-146400000D01*
X256000000Y-139000000D02*
X256000000Y-142300000D01*
X241000000Y-139000000D02*
X241000000Y-142300000D01*
X256000000Y-139000000D02*
X253240000Y-139000000D01*
X241000000Y-139000000D02*
X243760000Y-139000000D01*
G04 #@! TO.C,J4*
X209000000Y-139000000D02*
X211760000Y-139000000D01*
X224000000Y-139000000D02*
X221240000Y-139000000D01*
X209000000Y-139000000D02*
X209000000Y-142300000D01*
X224000000Y-139000000D02*
X224000000Y-142300000D01*
X222200000Y-146400000D02*
X210800000Y-146400000D01*
D11*
G36*
X221500000Y-137000000D02*
X222400000Y-136400000D01*
X222400000Y-137600000D01*
X221500000Y-137000000D01*
G37*
X221500000Y-137000000D02*
X222400000Y-136400000D01*
X222400000Y-137600000D01*
X221500000Y-137000000D01*
D14*
G04 #@! TO.C,R8*
X215173779Y-129415000D02*
X214848221Y-129415000D01*
X215173779Y-128395000D02*
X214848221Y-128395000D01*
G04 #@! TO.C,R7*
X214848221Y-127637000D02*
X215173779Y-127637000D01*
X214848221Y-126617000D02*
X215173779Y-126617000D01*
G04 #@! TO.C,P1*
D11*
X233238095Y-125387380D02*
X233238095Y-124387380D01*
X232857142Y-124387380D01*
X232761904Y-124435000D01*
X232714285Y-124482619D01*
X232666666Y-124577857D01*
X232666666Y-124720714D01*
X232714285Y-124815952D01*
X232761904Y-124863571D01*
X232857142Y-124911190D01*
X233238095Y-124911190D01*
X231714285Y-125387380D02*
X232285714Y-125387380D01*
X232000000Y-125387380D02*
X232000000Y-124387380D01*
X232095238Y-124530238D01*
X232190476Y-124625476D01*
X232285714Y-124673095D01*
G04 #@! TO.C,J3*
X238433333Y-136452380D02*
X238433333Y-137166666D01*
X238480952Y-137309523D01*
X238576190Y-137404761D01*
X238719047Y-137452380D01*
X238814285Y-137452380D01*
X238052380Y-136452380D02*
X237433333Y-136452380D01*
X237766666Y-136833333D01*
X237623809Y-136833333D01*
X237528571Y-136880952D01*
X237480952Y-136928571D01*
X237433333Y-137023809D01*
X237433333Y-137261904D01*
X237480952Y-137357142D01*
X237528571Y-137404761D01*
X237623809Y-137452380D01*
X237909523Y-137452380D01*
X238004761Y-137404761D01*
X238052380Y-137357142D01*
G04 #@! TO.C,J6*
X208952380Y-136266666D02*
X209666666Y-136266666D01*
X209809523Y-136219047D01*
X209904761Y-136123809D01*
X209952380Y-135980952D01*
X209952380Y-135885714D01*
X208952380Y-137171428D02*
X208952380Y-136980952D01*
X209000000Y-136885714D01*
X209047619Y-136838095D01*
X209190476Y-136742857D01*
X209380952Y-136695238D01*
X209761904Y-136695238D01*
X209857142Y-136742857D01*
X209904761Y-136790476D01*
X209952380Y-136885714D01*
X209952380Y-137076190D01*
X209904761Y-137171428D01*
X209857142Y-137219047D01*
X209761904Y-137266666D01*
X209523809Y-137266666D01*
X209428571Y-137219047D01*
X209380952Y-137171428D01*
X209333333Y-137076190D01*
X209333333Y-136885714D01*
X209380952Y-136790476D01*
X209428571Y-136742857D01*
X209523809Y-136695238D01*
G04 #@! TO.C,J5*
X254952380Y-125066666D02*
X255666666Y-125066666D01*
X255809523Y-125019047D01*
X255904761Y-124923809D01*
X255952380Y-124780952D01*
X255952380Y-124685714D01*
X254952380Y-126019047D02*
X254952380Y-125542857D01*
X255428571Y-125495238D01*
X255380952Y-125542857D01*
X255333333Y-125638095D01*
X255333333Y-125876190D01*
X255380952Y-125971428D01*
X255428571Y-126019047D01*
X255523809Y-126066666D01*
X255761904Y-126066666D01*
X255857142Y-126019047D01*
X255904761Y-125971428D01*
X255952380Y-125876190D01*
X255952380Y-125638095D01*
X255904761Y-125542857D01*
X255857142Y-125495238D01*
G04 #@! TO.C,J2*
X255833333Y-136452380D02*
X255833333Y-137166666D01*
X255880952Y-137309523D01*
X255976190Y-137404761D01*
X256119047Y-137452380D01*
X256214285Y-137452380D01*
X255404761Y-136547619D02*
X255357142Y-136500000D01*
X255261904Y-136452380D01*
X255023809Y-136452380D01*
X254928571Y-136500000D01*
X254880952Y-136547619D01*
X254833333Y-136642857D01*
X254833333Y-136738095D01*
X254880952Y-136880952D01*
X255452380Y-137452380D01*
X254833333Y-137452380D01*
G04 #@! TO.C,J4*
X223833333Y-136452380D02*
X223833333Y-137166666D01*
X223880952Y-137309523D01*
X223976190Y-137404761D01*
X224119047Y-137452380D01*
X224214285Y-137452380D01*
X222928571Y-136785714D02*
X222928571Y-137452380D01*
X223166666Y-136404761D02*
X223404761Y-137119047D01*
X222785714Y-137119047D01*
G04 #@! TD*
M02*
