G04 #@! TF.GenerationSoftware,KiCad,Pcbnew,(5.0.2)-1*
G04 #@! TF.CreationDate,2019-07-28T23:35:27-04:00*
G04 #@! TF.ProjectId,AD3D Cloud Connect Board,41443344-2043-46c6-9f75-6420436f6e6e,rev?*
G04 #@! TF.SameCoordinates,Original*
G04 #@! TF.FileFunction,Legend,Top*
G04 #@! TF.FilePolarity,Positive*
%FSLAX46Y46*%
G04 Gerber Fmt 4.6, Leading zero omitted, Abs format (unit mm)*
G04 Created by KiCad (PCBNEW (5.0.2)-1) date 7/28/2019 11:35:27 PM*
%MOMM*%
%LPD*%
G01*
G04 APERTURE LIST*
%ADD10C,0.100000*%
%ADD11C,0.350000*%
%ADD12C,0.250000*%
%ADD13C,0.228600*%
%ADD14C,0.150000*%
G04 APERTURE END LIST*
D10*
X209900000Y-127700000D02*
X209900000Y-125400000D01*
X235800000Y-132700000D02*
X235800000Y-125400000D01*
X209900000Y-132700000D02*
X235800000Y-132700000D01*
X209900000Y-127700000D02*
X209900000Y-132700000D01*
X201200000Y-127700000D02*
X209900000Y-127700000D01*
X201200000Y-125400000D02*
X201200000Y-127700000D01*
X235800000Y-125400000D02*
X201200000Y-125400000D01*
D11*
X236501309Y-129583333D02*
X237310833Y-129583333D01*
X236339404Y-130069047D02*
X236906071Y-128369047D01*
X237472738Y-130069047D01*
X238767976Y-128935714D02*
X238767976Y-130069047D01*
X238039404Y-128935714D02*
X238039404Y-129826190D01*
X238120357Y-129988095D01*
X238282261Y-130069047D01*
X238525119Y-130069047D01*
X238687023Y-129988095D01*
X238767976Y-129907142D01*
X239334642Y-128935714D02*
X239982261Y-128935714D01*
X239577500Y-128369047D02*
X239577500Y-129826190D01*
X239658452Y-129988095D01*
X239820357Y-130069047D01*
X239982261Y-130069047D01*
X240791785Y-130069047D02*
X240629880Y-129988095D01*
X240548928Y-129907142D01*
X240467976Y-129745238D01*
X240467976Y-129259523D01*
X240548928Y-129097619D01*
X240629880Y-129016666D01*
X240791785Y-128935714D01*
X241034642Y-128935714D01*
X241196547Y-129016666D01*
X241277500Y-129097619D01*
X241358452Y-129259523D01*
X241358452Y-129745238D01*
X241277500Y-129907142D01*
X241196547Y-129988095D01*
X241034642Y-130069047D01*
X240791785Y-130069047D01*
X242815595Y-130069047D02*
X242815595Y-128369047D01*
X242815595Y-129988095D02*
X242653690Y-130069047D01*
X242329880Y-130069047D01*
X242167976Y-129988095D01*
X242087023Y-129907142D01*
X242006071Y-129745238D01*
X242006071Y-129259523D01*
X242087023Y-129097619D01*
X242167976Y-129016666D01*
X242329880Y-128935714D01*
X242653690Y-128935714D01*
X242815595Y-129016666D01*
X243625119Y-130069047D02*
X243625119Y-128935714D01*
X243625119Y-129259523D02*
X243706071Y-129097619D01*
X243787023Y-129016666D01*
X243948928Y-128935714D01*
X244110833Y-128935714D01*
X244920357Y-130069047D02*
X244758452Y-129988095D01*
X244677500Y-129907142D01*
X244596547Y-129745238D01*
X244596547Y-129259523D01*
X244677500Y-129097619D01*
X244758452Y-129016666D01*
X244920357Y-128935714D01*
X245163214Y-128935714D01*
X245325119Y-129016666D01*
X245406071Y-129097619D01*
X245487023Y-129259523D01*
X245487023Y-129745238D01*
X245406071Y-129907142D01*
X245325119Y-129988095D01*
X245163214Y-130069047D01*
X244920357Y-130069047D01*
X246215595Y-128935714D02*
X246215595Y-130635714D01*
X246215595Y-129016666D02*
X246377500Y-128935714D01*
X246701309Y-128935714D01*
X246863214Y-129016666D01*
X246944166Y-129097619D01*
X247025119Y-129259523D01*
X247025119Y-129745238D01*
X246944166Y-129907142D01*
X246863214Y-129988095D01*
X246701309Y-130069047D01*
X246377500Y-130069047D01*
X246215595Y-129988095D01*
X247591785Y-128369047D02*
X248644166Y-128369047D01*
X248077500Y-129016666D01*
X248320357Y-129016666D01*
X248482261Y-129097619D01*
X248563214Y-129178571D01*
X248644166Y-129340476D01*
X248644166Y-129745238D01*
X248563214Y-129907142D01*
X248482261Y-129988095D01*
X248320357Y-130069047D01*
X247834642Y-130069047D01*
X247672738Y-129988095D01*
X247591785Y-129907142D01*
X250101309Y-130069047D02*
X250101309Y-128369047D01*
X250101309Y-129988095D02*
X249939404Y-130069047D01*
X249615595Y-130069047D01*
X249453690Y-129988095D01*
X249372738Y-129907142D01*
X249291785Y-129745238D01*
X249291785Y-129259523D01*
X249372738Y-129097619D01*
X249453690Y-129016666D01*
X249615595Y-128935714D01*
X249939404Y-128935714D01*
X250101309Y-129016666D01*
X237553690Y-132807142D02*
X237472738Y-132888095D01*
X237229880Y-132969047D01*
X237067976Y-132969047D01*
X236825119Y-132888095D01*
X236663214Y-132726190D01*
X236582261Y-132564285D01*
X236501309Y-132240476D01*
X236501309Y-131997619D01*
X236582261Y-131673809D01*
X236663214Y-131511904D01*
X236825119Y-131350000D01*
X237067976Y-131269047D01*
X237229880Y-131269047D01*
X237472738Y-131350000D01*
X237553690Y-131430952D01*
X238525119Y-132969047D02*
X238363214Y-132888095D01*
X238282261Y-132726190D01*
X238282261Y-131269047D01*
X239415595Y-132969047D02*
X239253690Y-132888095D01*
X239172738Y-132807142D01*
X239091785Y-132645238D01*
X239091785Y-132159523D01*
X239172738Y-131997619D01*
X239253690Y-131916666D01*
X239415595Y-131835714D01*
X239658452Y-131835714D01*
X239820357Y-131916666D01*
X239901309Y-131997619D01*
X239982261Y-132159523D01*
X239982261Y-132645238D01*
X239901309Y-132807142D01*
X239820357Y-132888095D01*
X239658452Y-132969047D01*
X239415595Y-132969047D01*
X241439404Y-131835714D02*
X241439404Y-132969047D01*
X240710833Y-131835714D02*
X240710833Y-132726190D01*
X240791785Y-132888095D01*
X240953690Y-132969047D01*
X241196547Y-132969047D01*
X241358452Y-132888095D01*
X241439404Y-132807142D01*
X242977500Y-132969047D02*
X242977500Y-131269047D01*
X242977500Y-132888095D02*
X242815595Y-132969047D01*
X242491785Y-132969047D01*
X242329880Y-132888095D01*
X242248928Y-132807142D01*
X242167976Y-132645238D01*
X242167976Y-132159523D01*
X242248928Y-131997619D01*
X242329880Y-131916666D01*
X242491785Y-131835714D01*
X242815595Y-131835714D01*
X242977500Y-131916666D01*
X246053690Y-132807142D02*
X245972738Y-132888095D01*
X245729880Y-132969047D01*
X245567976Y-132969047D01*
X245325119Y-132888095D01*
X245163214Y-132726190D01*
X245082261Y-132564285D01*
X245001309Y-132240476D01*
X245001309Y-131997619D01*
X245082261Y-131673809D01*
X245163214Y-131511904D01*
X245325119Y-131350000D01*
X245567976Y-131269047D01*
X245729880Y-131269047D01*
X245972738Y-131350000D01*
X246053690Y-131430952D01*
X247025119Y-132969047D02*
X246863214Y-132888095D01*
X246782261Y-132807142D01*
X246701309Y-132645238D01*
X246701309Y-132159523D01*
X246782261Y-131997619D01*
X246863214Y-131916666D01*
X247025119Y-131835714D01*
X247267976Y-131835714D01*
X247429880Y-131916666D01*
X247510833Y-131997619D01*
X247591785Y-132159523D01*
X247591785Y-132645238D01*
X247510833Y-132807142D01*
X247429880Y-132888095D01*
X247267976Y-132969047D01*
X247025119Y-132969047D01*
X248320357Y-131835714D02*
X248320357Y-132969047D01*
X248320357Y-131997619D02*
X248401309Y-131916666D01*
X248563214Y-131835714D01*
X248806071Y-131835714D01*
X248967976Y-131916666D01*
X249048928Y-132078571D01*
X249048928Y-132969047D01*
X249858452Y-131835714D02*
X249858452Y-132969047D01*
X249858452Y-131997619D02*
X249939404Y-131916666D01*
X250101309Y-131835714D01*
X250344166Y-131835714D01*
X250506071Y-131916666D01*
X250587023Y-132078571D01*
X250587023Y-132969047D01*
X252044166Y-132888095D02*
X251882261Y-132969047D01*
X251558452Y-132969047D01*
X251396547Y-132888095D01*
X251315595Y-132726190D01*
X251315595Y-132078571D01*
X251396547Y-131916666D01*
X251558452Y-131835714D01*
X251882261Y-131835714D01*
X252044166Y-131916666D01*
X252125119Y-132078571D01*
X252125119Y-132240476D01*
X251315595Y-132402380D01*
X253582261Y-132888095D02*
X253420357Y-132969047D01*
X253096547Y-132969047D01*
X252934642Y-132888095D01*
X252853690Y-132807142D01*
X252772738Y-132645238D01*
X252772738Y-132159523D01*
X252853690Y-131997619D01*
X252934642Y-131916666D01*
X253096547Y-131835714D01*
X253420357Y-131835714D01*
X253582261Y-131916666D01*
X254067976Y-131835714D02*
X254715595Y-131835714D01*
X254310833Y-131269047D02*
X254310833Y-132726190D01*
X254391785Y-132888095D01*
X254553690Y-132969047D01*
X254715595Y-132969047D01*
X257144166Y-132078571D02*
X257387023Y-132159523D01*
X257467976Y-132240476D01*
X257548928Y-132402380D01*
X257548928Y-132645238D01*
X257467976Y-132807142D01*
X257387023Y-132888095D01*
X257225119Y-132969047D01*
X256577500Y-132969047D01*
X256577500Y-131269047D01*
X257144166Y-131269047D01*
X257306071Y-131350000D01*
X257387023Y-131430952D01*
X257467976Y-131592857D01*
X257467976Y-131754761D01*
X257387023Y-131916666D01*
X257306071Y-131997619D01*
X257144166Y-132078571D01*
X256577500Y-132078571D01*
X258520357Y-132969047D02*
X258358452Y-132888095D01*
X258277500Y-132807142D01*
X258196547Y-132645238D01*
X258196547Y-132159523D01*
X258277500Y-131997619D01*
X258358452Y-131916666D01*
X258520357Y-131835714D01*
X258763214Y-131835714D01*
X258925119Y-131916666D01*
X259006071Y-131997619D01*
X259087023Y-132159523D01*
X259087023Y-132645238D01*
X259006071Y-132807142D01*
X258925119Y-132888095D01*
X258763214Y-132969047D01*
X258520357Y-132969047D01*
X260544166Y-132969047D02*
X260544166Y-132078571D01*
X260463214Y-131916666D01*
X260301309Y-131835714D01*
X259977500Y-131835714D01*
X259815595Y-131916666D01*
X260544166Y-132888095D02*
X260382261Y-132969047D01*
X259977500Y-132969047D01*
X259815595Y-132888095D01*
X259734642Y-132726190D01*
X259734642Y-132564285D01*
X259815595Y-132402380D01*
X259977500Y-132321428D01*
X260382261Y-132321428D01*
X260544166Y-132240476D01*
X261353690Y-132969047D02*
X261353690Y-131835714D01*
X261353690Y-132159523D02*
X261434642Y-131997619D01*
X261515595Y-131916666D01*
X261677500Y-131835714D01*
X261839404Y-131835714D01*
X263134642Y-132969047D02*
X263134642Y-131269047D01*
X263134642Y-132888095D02*
X262972738Y-132969047D01*
X262648928Y-132969047D01*
X262487023Y-132888095D01*
X262406071Y-132807142D01*
X262325119Y-132645238D01*
X262325119Y-132159523D01*
X262406071Y-131997619D01*
X262487023Y-131916666D01*
X262648928Y-131835714D01*
X262972738Y-131835714D01*
X263134642Y-131916666D01*
D12*
X211024404Y-125825000D02*
X210929166Y-125777380D01*
X210786309Y-125777380D01*
X210643452Y-125825000D01*
X210548214Y-125920238D01*
X210500595Y-126015476D01*
X210452976Y-126205952D01*
X210452976Y-126348809D01*
X210500595Y-126539285D01*
X210548214Y-126634523D01*
X210643452Y-126729761D01*
X210786309Y-126777380D01*
X210881547Y-126777380D01*
X211024404Y-126729761D01*
X211072023Y-126682142D01*
X211072023Y-126348809D01*
X210881547Y-126348809D01*
X211500595Y-126777380D02*
X211500595Y-126110714D01*
X211500595Y-126301190D02*
X211548214Y-126205952D01*
X211595833Y-126158333D01*
X211691071Y-126110714D01*
X211786309Y-126110714D01*
X212500595Y-126729761D02*
X212405357Y-126777380D01*
X212214880Y-126777380D01*
X212119642Y-126729761D01*
X212072023Y-126634523D01*
X212072023Y-126253571D01*
X212119642Y-126158333D01*
X212214880Y-126110714D01*
X212405357Y-126110714D01*
X212500595Y-126158333D01*
X212548214Y-126253571D01*
X212548214Y-126348809D01*
X212072023Y-126444047D01*
X213357738Y-126729761D02*
X213262500Y-126777380D01*
X213072023Y-126777380D01*
X212976785Y-126729761D01*
X212929166Y-126634523D01*
X212929166Y-126253571D01*
X212976785Y-126158333D01*
X213072023Y-126110714D01*
X213262500Y-126110714D01*
X213357738Y-126158333D01*
X213405357Y-126253571D01*
X213405357Y-126348809D01*
X212929166Y-126444047D01*
X213833928Y-126110714D02*
X213833928Y-126777380D01*
X213833928Y-126205952D02*
X213881547Y-126158333D01*
X213976785Y-126110714D01*
X214119642Y-126110714D01*
X214214880Y-126158333D01*
X214262500Y-126253571D01*
X214262500Y-126777380D01*
X215500595Y-126253571D02*
X216262500Y-126253571D01*
X216262500Y-126539285D02*
X215500595Y-126539285D01*
X218072023Y-126682142D02*
X218024404Y-126729761D01*
X217881547Y-126777380D01*
X217786309Y-126777380D01*
X217643452Y-126729761D01*
X217548214Y-126634523D01*
X217500595Y-126539285D01*
X217452976Y-126348809D01*
X217452976Y-126205952D01*
X217500595Y-126015476D01*
X217548214Y-125920238D01*
X217643452Y-125825000D01*
X217786309Y-125777380D01*
X217881547Y-125777380D01*
X218024404Y-125825000D01*
X218072023Y-125872619D01*
X218643452Y-126777380D02*
X218548214Y-126729761D01*
X218500595Y-126682142D01*
X218452976Y-126586904D01*
X218452976Y-126301190D01*
X218500595Y-126205952D01*
X218548214Y-126158333D01*
X218643452Y-126110714D01*
X218786309Y-126110714D01*
X218881547Y-126158333D01*
X218929166Y-126205952D01*
X218976785Y-126301190D01*
X218976785Y-126586904D01*
X218929166Y-126682142D01*
X218881547Y-126729761D01*
X218786309Y-126777380D01*
X218643452Y-126777380D01*
X219405357Y-126110714D02*
X219405357Y-126777380D01*
X219405357Y-126205952D02*
X219452976Y-126158333D01*
X219548214Y-126110714D01*
X219691071Y-126110714D01*
X219786309Y-126158333D01*
X219833928Y-126253571D01*
X219833928Y-126777380D01*
X220310119Y-126110714D02*
X220310119Y-126777380D01*
X220310119Y-126205952D02*
X220357738Y-126158333D01*
X220452976Y-126110714D01*
X220595833Y-126110714D01*
X220691071Y-126158333D01*
X220738690Y-126253571D01*
X220738690Y-126777380D01*
X221595833Y-126729761D02*
X221500595Y-126777380D01*
X221310119Y-126777380D01*
X221214880Y-126729761D01*
X221167261Y-126634523D01*
X221167261Y-126253571D01*
X221214880Y-126158333D01*
X221310119Y-126110714D01*
X221500595Y-126110714D01*
X221595833Y-126158333D01*
X221643452Y-126253571D01*
X221643452Y-126348809D01*
X221167261Y-126444047D01*
X222500595Y-126729761D02*
X222405357Y-126777380D01*
X222214880Y-126777380D01*
X222119642Y-126729761D01*
X222072023Y-126682142D01*
X222024404Y-126586904D01*
X222024404Y-126301190D01*
X222072023Y-126205952D01*
X222119642Y-126158333D01*
X222214880Y-126110714D01*
X222405357Y-126110714D01*
X222500595Y-126158333D01*
X222786309Y-126110714D02*
X223167261Y-126110714D01*
X222929166Y-125777380D02*
X222929166Y-126634523D01*
X222976785Y-126729761D01*
X223072023Y-126777380D01*
X223167261Y-126777380D01*
X223881547Y-126729761D02*
X223786309Y-126777380D01*
X223595833Y-126777380D01*
X223500595Y-126729761D01*
X223452976Y-126634523D01*
X223452976Y-126253571D01*
X223500595Y-126158333D01*
X223595833Y-126110714D01*
X223786309Y-126110714D01*
X223881547Y-126158333D01*
X223929166Y-126253571D01*
X223929166Y-126348809D01*
X223452976Y-126444047D01*
X224786309Y-126777380D02*
X224786309Y-125777380D01*
X224786309Y-126729761D02*
X224691071Y-126777380D01*
X224500595Y-126777380D01*
X224405357Y-126729761D01*
X224357738Y-126682142D01*
X224310119Y-126586904D01*
X224310119Y-126301190D01*
X224357738Y-126205952D01*
X224405357Y-126158333D01*
X224500595Y-126110714D01*
X224691071Y-126110714D01*
X224786309Y-126158333D01*
X226024404Y-126777380D02*
X226024404Y-125777380D01*
X226929166Y-126777380D02*
X226929166Y-125777380D01*
X226929166Y-126729761D02*
X226833928Y-126777380D01*
X226643452Y-126777380D01*
X226548214Y-126729761D01*
X226500595Y-126682142D01*
X226452976Y-126586904D01*
X226452976Y-126301190D01*
X226500595Y-126205952D01*
X226548214Y-126158333D01*
X226643452Y-126110714D01*
X226833928Y-126110714D01*
X226929166Y-126158333D01*
X227548214Y-126777380D02*
X227452976Y-126729761D01*
X227405357Y-126634523D01*
X227405357Y-125777380D01*
X228310119Y-126729761D02*
X228214880Y-126777380D01*
X228024404Y-126777380D01*
X227929166Y-126729761D01*
X227881547Y-126634523D01*
X227881547Y-126253571D01*
X227929166Y-126158333D01*
X228024404Y-126110714D01*
X228214880Y-126110714D01*
X228310119Y-126158333D01*
X228357738Y-126253571D01*
X228357738Y-126348809D01*
X227881547Y-126444047D01*
X229500595Y-125729761D02*
X228643452Y-127015476D01*
X229833928Y-126777380D02*
X229833928Y-125777380D01*
X230214880Y-125777380D01*
X230310119Y-125825000D01*
X230357738Y-125872619D01*
X230405357Y-125967857D01*
X230405357Y-126110714D01*
X230357738Y-126205952D01*
X230310119Y-126253571D01*
X230214880Y-126301190D01*
X229833928Y-126301190D01*
X230833928Y-126777380D02*
X230833928Y-126110714D01*
X230833928Y-126301190D02*
X230881547Y-126205952D01*
X230929166Y-126158333D01*
X231024404Y-126110714D01*
X231119642Y-126110714D01*
X231452976Y-126777380D02*
X231452976Y-126110714D01*
X231452976Y-125777380D02*
X231405357Y-125825000D01*
X231452976Y-125872619D01*
X231500595Y-125825000D01*
X231452976Y-125777380D01*
X231452976Y-125872619D01*
X231929166Y-126110714D02*
X231929166Y-126777380D01*
X231929166Y-126205952D02*
X231976785Y-126158333D01*
X232072023Y-126110714D01*
X232214880Y-126110714D01*
X232310119Y-126158333D01*
X232357738Y-126253571D01*
X232357738Y-126777380D01*
X232691071Y-126110714D02*
X233072023Y-126110714D01*
X232833928Y-125777380D02*
X232833928Y-126634523D01*
X232881547Y-126729761D01*
X232976785Y-126777380D01*
X233072023Y-126777380D01*
X233405357Y-126777380D02*
X233405357Y-126110714D01*
X233405357Y-125777380D02*
X233357738Y-125825000D01*
X233405357Y-125872619D01*
X233452976Y-125825000D01*
X233405357Y-125777380D01*
X233405357Y-125872619D01*
X233881547Y-126110714D02*
X233881547Y-126777380D01*
X233881547Y-126205952D02*
X233929166Y-126158333D01*
X234024404Y-126110714D01*
X234167261Y-126110714D01*
X234262500Y-126158333D01*
X234310119Y-126253571D01*
X234310119Y-126777380D01*
X235214880Y-126110714D02*
X235214880Y-126920238D01*
X235167261Y-127015476D01*
X235119642Y-127063095D01*
X235024404Y-127110714D01*
X234881547Y-127110714D01*
X234786309Y-127063095D01*
X235214880Y-126729761D02*
X235119642Y-126777380D01*
X234929166Y-126777380D01*
X234833928Y-126729761D01*
X234786309Y-126682142D01*
X234738690Y-126586904D01*
X234738690Y-126301190D01*
X234786309Y-126205952D01*
X234833928Y-126158333D01*
X234929166Y-126110714D01*
X235119642Y-126110714D01*
X235214880Y-126158333D01*
X210833928Y-128003571D02*
X210976785Y-128051190D01*
X211024404Y-128098809D01*
X211072023Y-128194047D01*
X211072023Y-128336904D01*
X211024404Y-128432142D01*
X210976785Y-128479761D01*
X210881547Y-128527380D01*
X210500595Y-128527380D01*
X210500595Y-127527380D01*
X210833928Y-127527380D01*
X210929166Y-127575000D01*
X210976785Y-127622619D01*
X211024404Y-127717857D01*
X211024404Y-127813095D01*
X210976785Y-127908333D01*
X210929166Y-127955952D01*
X210833928Y-128003571D01*
X210500595Y-128003571D01*
X211643452Y-128527380D02*
X211548214Y-128479761D01*
X211500595Y-128384523D01*
X211500595Y-127527380D01*
X212024404Y-128527380D02*
X212024404Y-127860714D01*
X212024404Y-127527380D02*
X211976785Y-127575000D01*
X212024404Y-127622619D01*
X212072023Y-127575000D01*
X212024404Y-127527380D01*
X212024404Y-127622619D01*
X212500595Y-127860714D02*
X212500595Y-128527380D01*
X212500595Y-127955952D02*
X212548214Y-127908333D01*
X212643452Y-127860714D01*
X212786309Y-127860714D01*
X212881547Y-127908333D01*
X212929166Y-128003571D01*
X212929166Y-128527380D01*
X213405357Y-128527380D02*
X213405357Y-127527380D01*
X213500595Y-128146428D02*
X213786309Y-128527380D01*
X213786309Y-127860714D02*
X213405357Y-128241666D01*
X214214880Y-128527380D02*
X214214880Y-127860714D01*
X214214880Y-127527380D02*
X214167261Y-127575000D01*
X214214880Y-127622619D01*
X214262500Y-127575000D01*
X214214880Y-127527380D01*
X214214880Y-127622619D01*
X214691071Y-127860714D02*
X214691071Y-128527380D01*
X214691071Y-127955952D02*
X214738690Y-127908333D01*
X214833928Y-127860714D01*
X214976785Y-127860714D01*
X215072023Y-127908333D01*
X215119642Y-128003571D01*
X215119642Y-128527380D01*
X216024404Y-127860714D02*
X216024404Y-128670238D01*
X215976785Y-128765476D01*
X215929166Y-128813095D01*
X215833928Y-128860714D01*
X215691071Y-128860714D01*
X215595833Y-128813095D01*
X216024404Y-128479761D02*
X215929166Y-128527380D01*
X215738690Y-128527380D01*
X215643452Y-128479761D01*
X215595833Y-128432142D01*
X215548214Y-128336904D01*
X215548214Y-128051190D01*
X215595833Y-127955952D01*
X215643452Y-127908333D01*
X215738690Y-127860714D01*
X215929166Y-127860714D01*
X216024404Y-127908333D01*
X217786309Y-127575000D02*
X217691071Y-127527380D01*
X217548214Y-127527380D01*
X217405357Y-127575000D01*
X217310119Y-127670238D01*
X217262500Y-127765476D01*
X217214880Y-127955952D01*
X217214880Y-128098809D01*
X217262500Y-128289285D01*
X217310119Y-128384523D01*
X217405357Y-128479761D01*
X217548214Y-128527380D01*
X217643452Y-128527380D01*
X217786309Y-128479761D01*
X217833928Y-128432142D01*
X217833928Y-128098809D01*
X217643452Y-128098809D01*
X218262500Y-128527380D02*
X218262500Y-127860714D01*
X218262500Y-128051190D02*
X218310119Y-127955952D01*
X218357738Y-127908333D01*
X218452976Y-127860714D01*
X218548214Y-127860714D01*
X219262500Y-128479761D02*
X219167261Y-128527380D01*
X218976785Y-128527380D01*
X218881547Y-128479761D01*
X218833928Y-128384523D01*
X218833928Y-128003571D01*
X218881547Y-127908333D01*
X218976785Y-127860714D01*
X219167261Y-127860714D01*
X219262500Y-127908333D01*
X219310119Y-128003571D01*
X219310119Y-128098809D01*
X218833928Y-128194047D01*
X220119642Y-128479761D02*
X220024404Y-128527380D01*
X219833928Y-128527380D01*
X219738690Y-128479761D01*
X219691071Y-128384523D01*
X219691071Y-128003571D01*
X219738690Y-127908333D01*
X219833928Y-127860714D01*
X220024404Y-127860714D01*
X220119642Y-127908333D01*
X220167261Y-128003571D01*
X220167261Y-128098809D01*
X219691071Y-128194047D01*
X220595833Y-127860714D02*
X220595833Y-128527380D01*
X220595833Y-127955952D02*
X220643452Y-127908333D01*
X220738690Y-127860714D01*
X220881547Y-127860714D01*
X220976785Y-127908333D01*
X221024404Y-128003571D01*
X221024404Y-128527380D01*
X222262500Y-128003571D02*
X223024404Y-128003571D01*
X223024404Y-128289285D02*
X222262500Y-128289285D01*
X224262500Y-128527380D02*
X224262500Y-127527380D01*
X224643452Y-127527380D01*
X224738690Y-127575000D01*
X224786309Y-127622619D01*
X224833928Y-127717857D01*
X224833928Y-127860714D01*
X224786309Y-127955952D01*
X224738690Y-128003571D01*
X224643452Y-128051190D01*
X224262500Y-128051190D01*
X225262500Y-128527380D02*
X225262500Y-127860714D01*
X225262500Y-128051190D02*
X225310119Y-127955952D01*
X225357738Y-127908333D01*
X225452976Y-127860714D01*
X225548214Y-127860714D01*
X225881547Y-128527380D02*
X225881547Y-127860714D01*
X225881547Y-127527380D02*
X225833928Y-127575000D01*
X225881547Y-127622619D01*
X225929166Y-127575000D01*
X225881547Y-127527380D01*
X225881547Y-127622619D01*
X226357738Y-127860714D02*
X226357738Y-128527380D01*
X226357738Y-127955952D02*
X226405357Y-127908333D01*
X226500595Y-127860714D01*
X226643452Y-127860714D01*
X226738690Y-127908333D01*
X226786309Y-128003571D01*
X226786309Y-128527380D01*
X227119642Y-127860714D02*
X227500595Y-127860714D01*
X227262500Y-127527380D02*
X227262500Y-128384523D01*
X227310119Y-128479761D01*
X227405357Y-128527380D01*
X227500595Y-128527380D01*
X229167261Y-128432142D02*
X229119642Y-128479761D01*
X228976785Y-128527380D01*
X228881547Y-128527380D01*
X228738690Y-128479761D01*
X228643452Y-128384523D01*
X228595833Y-128289285D01*
X228548214Y-128098809D01*
X228548214Y-127955952D01*
X228595833Y-127765476D01*
X228643452Y-127670238D01*
X228738690Y-127575000D01*
X228881547Y-127527380D01*
X228976785Y-127527380D01*
X229119642Y-127575000D01*
X229167261Y-127622619D01*
X229738690Y-128527380D02*
X229643452Y-128479761D01*
X229595833Y-128432142D01*
X229548214Y-128336904D01*
X229548214Y-128051190D01*
X229595833Y-127955952D01*
X229643452Y-127908333D01*
X229738690Y-127860714D01*
X229881547Y-127860714D01*
X229976785Y-127908333D01*
X230024404Y-127955952D01*
X230072023Y-128051190D01*
X230072023Y-128336904D01*
X230024404Y-128432142D01*
X229976785Y-128479761D01*
X229881547Y-128527380D01*
X229738690Y-128527380D01*
X230500595Y-128527380D02*
X230500595Y-127860714D01*
X230500595Y-127955952D02*
X230548214Y-127908333D01*
X230643452Y-127860714D01*
X230786309Y-127860714D01*
X230881547Y-127908333D01*
X230929166Y-128003571D01*
X230929166Y-128527380D01*
X230929166Y-128003571D02*
X230976785Y-127908333D01*
X231072023Y-127860714D01*
X231214880Y-127860714D01*
X231310119Y-127908333D01*
X231357738Y-128003571D01*
X231357738Y-128527380D01*
X231833928Y-127860714D02*
X231833928Y-128860714D01*
X231833928Y-127908333D02*
X231929166Y-127860714D01*
X232119642Y-127860714D01*
X232214880Y-127908333D01*
X232262500Y-127955952D01*
X232310119Y-128051190D01*
X232310119Y-128336904D01*
X232262500Y-128432142D01*
X232214880Y-128479761D01*
X232119642Y-128527380D01*
X231929166Y-128527380D01*
X231833928Y-128479761D01*
X232881547Y-128527380D02*
X232786309Y-128479761D01*
X232738690Y-128384523D01*
X232738690Y-127527380D01*
X233643452Y-128479761D02*
X233548214Y-128527380D01*
X233357738Y-128527380D01*
X233262500Y-128479761D01*
X233214880Y-128384523D01*
X233214880Y-128003571D01*
X233262500Y-127908333D01*
X233357738Y-127860714D01*
X233548214Y-127860714D01*
X233643452Y-127908333D01*
X233691071Y-128003571D01*
X233691071Y-128098809D01*
X233214880Y-128194047D01*
X233976785Y-127860714D02*
X234357738Y-127860714D01*
X234119642Y-127527380D02*
X234119642Y-128384523D01*
X234167261Y-128479761D01*
X234262500Y-128527380D01*
X234357738Y-128527380D01*
X235072023Y-128479761D02*
X234976785Y-128527380D01*
X234786309Y-128527380D01*
X234691071Y-128479761D01*
X234643452Y-128384523D01*
X234643452Y-128003571D01*
X234691071Y-127908333D01*
X234786309Y-127860714D01*
X234976785Y-127860714D01*
X235072023Y-127908333D01*
X235119642Y-128003571D01*
X235119642Y-128098809D01*
X234643452Y-128194047D01*
X211072023Y-130277380D02*
X210738690Y-129801190D01*
X210500595Y-130277380D02*
X210500595Y-129277380D01*
X210881547Y-129277380D01*
X210976785Y-129325000D01*
X211024404Y-129372619D01*
X211072023Y-129467857D01*
X211072023Y-129610714D01*
X211024404Y-129705952D01*
X210976785Y-129753571D01*
X210881547Y-129801190D01*
X210500595Y-129801190D01*
X211881547Y-130229761D02*
X211786309Y-130277380D01*
X211595833Y-130277380D01*
X211500595Y-130229761D01*
X211452976Y-130134523D01*
X211452976Y-129753571D01*
X211500595Y-129658333D01*
X211595833Y-129610714D01*
X211786309Y-129610714D01*
X211881547Y-129658333D01*
X211929166Y-129753571D01*
X211929166Y-129848809D01*
X211452976Y-129944047D01*
X212786309Y-130277380D02*
X212786309Y-129277380D01*
X212786309Y-130229761D02*
X212691071Y-130277380D01*
X212500595Y-130277380D01*
X212405357Y-130229761D01*
X212357738Y-130182142D01*
X212310119Y-130086904D01*
X212310119Y-129801190D01*
X212357738Y-129705952D01*
X212405357Y-129658333D01*
X212500595Y-129610714D01*
X212691071Y-129610714D01*
X212786309Y-129658333D01*
X214024404Y-129753571D02*
X214786309Y-129753571D01*
X214786309Y-130039285D02*
X214024404Y-130039285D01*
X216024404Y-130277380D02*
X216024404Y-129277380D01*
X216595833Y-130277380D01*
X216595833Y-129277380D01*
X217214880Y-130277380D02*
X217119642Y-130229761D01*
X217072023Y-130182142D01*
X217024404Y-130086904D01*
X217024404Y-129801190D01*
X217072023Y-129705952D01*
X217119642Y-129658333D01*
X217214880Y-129610714D01*
X217357738Y-129610714D01*
X217452976Y-129658333D01*
X217500595Y-129705952D01*
X217548214Y-129801190D01*
X217548214Y-130086904D01*
X217500595Y-130182142D01*
X217452976Y-130229761D01*
X217357738Y-130277380D01*
X217214880Y-130277380D01*
X217833928Y-129610714D02*
X218214880Y-129610714D01*
X217976785Y-129277380D02*
X217976785Y-130134523D01*
X218024404Y-130229761D01*
X218119642Y-130277380D01*
X218214880Y-130277380D01*
X219881547Y-130182142D02*
X219833928Y-130229761D01*
X219691071Y-130277380D01*
X219595833Y-130277380D01*
X219452976Y-130229761D01*
X219357738Y-130134523D01*
X219310119Y-130039285D01*
X219262500Y-129848809D01*
X219262500Y-129705952D01*
X219310119Y-129515476D01*
X219357738Y-129420238D01*
X219452976Y-129325000D01*
X219595833Y-129277380D01*
X219691071Y-129277380D01*
X219833928Y-129325000D01*
X219881547Y-129372619D01*
X220452976Y-130277380D02*
X220357738Y-130229761D01*
X220310119Y-130182142D01*
X220262500Y-130086904D01*
X220262500Y-129801190D01*
X220310119Y-129705952D01*
X220357738Y-129658333D01*
X220452976Y-129610714D01*
X220595833Y-129610714D01*
X220691071Y-129658333D01*
X220738690Y-129705952D01*
X220786309Y-129801190D01*
X220786309Y-130086904D01*
X220738690Y-130182142D01*
X220691071Y-130229761D01*
X220595833Y-130277380D01*
X220452976Y-130277380D01*
X221214880Y-129610714D02*
X221214880Y-130277380D01*
X221214880Y-129705952D02*
X221262500Y-129658333D01*
X221357738Y-129610714D01*
X221500595Y-129610714D01*
X221595833Y-129658333D01*
X221643452Y-129753571D01*
X221643452Y-130277380D01*
X222119642Y-129610714D02*
X222119642Y-130277380D01*
X222119642Y-129705952D02*
X222167261Y-129658333D01*
X222262500Y-129610714D01*
X222405357Y-129610714D01*
X222500595Y-129658333D01*
X222548214Y-129753571D01*
X222548214Y-130277380D01*
X223405357Y-130229761D02*
X223310119Y-130277380D01*
X223119642Y-130277380D01*
X223024404Y-130229761D01*
X222976785Y-130134523D01*
X222976785Y-129753571D01*
X223024404Y-129658333D01*
X223119642Y-129610714D01*
X223310119Y-129610714D01*
X223405357Y-129658333D01*
X223452976Y-129753571D01*
X223452976Y-129848809D01*
X222976785Y-129944047D01*
X224310119Y-130229761D02*
X224214880Y-130277380D01*
X224024404Y-130277380D01*
X223929166Y-130229761D01*
X223881547Y-130182142D01*
X223833928Y-130086904D01*
X223833928Y-129801190D01*
X223881547Y-129705952D01*
X223929166Y-129658333D01*
X224024404Y-129610714D01*
X224214880Y-129610714D01*
X224310119Y-129658333D01*
X224595833Y-129610714D02*
X224976785Y-129610714D01*
X224738690Y-129277380D02*
X224738690Y-130134523D01*
X224786309Y-130229761D01*
X224881547Y-130277380D01*
X224976785Y-130277380D01*
X225691071Y-130229761D02*
X225595833Y-130277380D01*
X225405357Y-130277380D01*
X225310119Y-130229761D01*
X225262500Y-130134523D01*
X225262500Y-129753571D01*
X225310119Y-129658333D01*
X225405357Y-129610714D01*
X225595833Y-129610714D01*
X225691071Y-129658333D01*
X225738690Y-129753571D01*
X225738690Y-129848809D01*
X225262500Y-129944047D01*
X226595833Y-130277380D02*
X226595833Y-129277380D01*
X226595833Y-130229761D02*
X226500595Y-130277380D01*
X226310119Y-130277380D01*
X226214880Y-130229761D01*
X226167261Y-130182142D01*
X226119642Y-130086904D01*
X226119642Y-129801190D01*
X226167261Y-129705952D01*
X226214880Y-129658333D01*
X226310119Y-129610714D01*
X226500595Y-129610714D01*
X226595833Y-129658333D01*
X210833928Y-131503571D02*
X210976785Y-131551190D01*
X211024404Y-131598809D01*
X211072023Y-131694047D01*
X211072023Y-131836904D01*
X211024404Y-131932142D01*
X210976785Y-131979761D01*
X210881547Y-132027380D01*
X210500595Y-132027380D01*
X210500595Y-131027380D01*
X210833928Y-131027380D01*
X210929166Y-131075000D01*
X210976785Y-131122619D01*
X211024404Y-131217857D01*
X211024404Y-131313095D01*
X210976785Y-131408333D01*
X210929166Y-131455952D01*
X210833928Y-131503571D01*
X210500595Y-131503571D01*
X211643452Y-132027380D02*
X211548214Y-131979761D01*
X211500595Y-131884523D01*
X211500595Y-131027380D01*
X212024404Y-132027380D02*
X212024404Y-131360714D01*
X212024404Y-131027380D02*
X211976785Y-131075000D01*
X212024404Y-131122619D01*
X212072023Y-131075000D01*
X212024404Y-131027380D01*
X212024404Y-131122619D01*
X212500595Y-131360714D02*
X212500595Y-132027380D01*
X212500595Y-131455952D02*
X212548214Y-131408333D01*
X212643452Y-131360714D01*
X212786309Y-131360714D01*
X212881547Y-131408333D01*
X212929166Y-131503571D01*
X212929166Y-132027380D01*
X213405357Y-132027380D02*
X213405357Y-131027380D01*
X213500595Y-131646428D02*
X213786309Y-132027380D01*
X213786309Y-131360714D02*
X213405357Y-131741666D01*
X214214880Y-132027380D02*
X214214880Y-131360714D01*
X214214880Y-131027380D02*
X214167261Y-131075000D01*
X214214880Y-131122619D01*
X214262500Y-131075000D01*
X214214880Y-131027380D01*
X214214880Y-131122619D01*
X214691071Y-131360714D02*
X214691071Y-132027380D01*
X214691071Y-131455952D02*
X214738690Y-131408333D01*
X214833928Y-131360714D01*
X214976785Y-131360714D01*
X215072023Y-131408333D01*
X215119642Y-131503571D01*
X215119642Y-132027380D01*
X216024404Y-131360714D02*
X216024404Y-132170238D01*
X215976785Y-132265476D01*
X215929166Y-132313095D01*
X215833928Y-132360714D01*
X215691071Y-132360714D01*
X215595833Y-132313095D01*
X216024404Y-131979761D02*
X215929166Y-132027380D01*
X215738690Y-132027380D01*
X215643452Y-131979761D01*
X215595833Y-131932142D01*
X215548214Y-131836904D01*
X215548214Y-131551190D01*
X215595833Y-131455952D01*
X215643452Y-131408333D01*
X215738690Y-131360714D01*
X215929166Y-131360714D01*
X216024404Y-131408333D01*
X217833928Y-132027380D02*
X217500595Y-131551190D01*
X217262500Y-132027380D02*
X217262500Y-131027380D01*
X217643452Y-131027380D01*
X217738690Y-131075000D01*
X217786309Y-131122619D01*
X217833928Y-131217857D01*
X217833928Y-131360714D01*
X217786309Y-131455952D01*
X217738690Y-131503571D01*
X217643452Y-131551190D01*
X217262500Y-131551190D01*
X218643452Y-131979761D02*
X218548214Y-132027380D01*
X218357738Y-132027380D01*
X218262500Y-131979761D01*
X218214880Y-131884523D01*
X218214880Y-131503571D01*
X218262500Y-131408333D01*
X218357738Y-131360714D01*
X218548214Y-131360714D01*
X218643452Y-131408333D01*
X218691071Y-131503571D01*
X218691071Y-131598809D01*
X218214880Y-131694047D01*
X219548214Y-132027380D02*
X219548214Y-131027380D01*
X219548214Y-131979761D02*
X219452976Y-132027380D01*
X219262500Y-132027380D01*
X219167261Y-131979761D01*
X219119642Y-131932142D01*
X219072023Y-131836904D01*
X219072023Y-131551190D01*
X219119642Y-131455952D01*
X219167261Y-131408333D01*
X219262500Y-131360714D01*
X219452976Y-131360714D01*
X219548214Y-131408333D01*
X220786309Y-131503571D02*
X221548214Y-131503571D01*
X221548214Y-131789285D02*
X220786309Y-131789285D01*
X222976785Y-131027380D02*
X223167261Y-131027380D01*
X223262500Y-131075000D01*
X223357738Y-131170238D01*
X223405357Y-131360714D01*
X223405357Y-131694047D01*
X223357738Y-131884523D01*
X223262500Y-131979761D01*
X223167261Y-132027380D01*
X222976785Y-132027380D01*
X222881547Y-131979761D01*
X222786309Y-131884523D01*
X222738690Y-131694047D01*
X222738690Y-131360714D01*
X222786309Y-131170238D01*
X222881547Y-131075000D01*
X222976785Y-131027380D01*
X224262500Y-131360714D02*
X224262500Y-132027380D01*
X223833928Y-131360714D02*
X223833928Y-131884523D01*
X223881547Y-131979761D01*
X223976785Y-132027380D01*
X224119642Y-132027380D01*
X224214880Y-131979761D01*
X224262500Y-131932142D01*
X224595833Y-131360714D02*
X224976785Y-131360714D01*
X224738690Y-131027380D02*
X224738690Y-131884523D01*
X224786309Y-131979761D01*
X224881547Y-132027380D01*
X224976785Y-132027380D01*
X226214880Y-132027380D02*
X226119642Y-131979761D01*
X226072023Y-131932142D01*
X226024404Y-131836904D01*
X226024404Y-131551190D01*
X226072023Y-131455952D01*
X226119642Y-131408333D01*
X226214880Y-131360714D01*
X226357738Y-131360714D01*
X226452976Y-131408333D01*
X226500595Y-131455952D01*
X226548214Y-131551190D01*
X226548214Y-131836904D01*
X226500595Y-131932142D01*
X226452976Y-131979761D01*
X226357738Y-132027380D01*
X226214880Y-132027380D01*
X226833928Y-131360714D02*
X227214880Y-131360714D01*
X226976785Y-132027380D02*
X226976785Y-131170238D01*
X227024404Y-131075000D01*
X227119642Y-131027380D01*
X227214880Y-131027380D01*
X228643452Y-131503571D02*
X228310119Y-131503571D01*
X228310119Y-132027380D02*
X228310119Y-131027380D01*
X228786309Y-131027380D01*
X229167261Y-132027380D02*
X229167261Y-131360714D01*
X229167261Y-131027380D02*
X229119642Y-131075000D01*
X229167261Y-131122619D01*
X229214880Y-131075000D01*
X229167261Y-131027380D01*
X229167261Y-131122619D01*
X229786309Y-132027380D02*
X229691071Y-131979761D01*
X229643452Y-131884523D01*
X229643452Y-131027380D01*
X230595833Y-132027380D02*
X230595833Y-131503571D01*
X230548214Y-131408333D01*
X230452976Y-131360714D01*
X230262500Y-131360714D01*
X230167261Y-131408333D01*
X230595833Y-131979761D02*
X230500595Y-132027380D01*
X230262500Y-132027380D01*
X230167261Y-131979761D01*
X230119642Y-131884523D01*
X230119642Y-131789285D01*
X230167261Y-131694047D01*
X230262500Y-131646428D01*
X230500595Y-131646428D01*
X230595833Y-131598809D01*
X231072023Y-132027380D02*
X231072023Y-131360714D01*
X231072023Y-131455952D02*
X231119642Y-131408333D01*
X231214880Y-131360714D01*
X231357738Y-131360714D01*
X231452976Y-131408333D01*
X231500595Y-131503571D01*
X231500595Y-132027380D01*
X231500595Y-131503571D02*
X231548214Y-131408333D01*
X231643452Y-131360714D01*
X231786309Y-131360714D01*
X231881547Y-131408333D01*
X231929166Y-131503571D01*
X231929166Y-132027380D01*
X232786309Y-131979761D02*
X232691071Y-132027380D01*
X232500595Y-132027380D01*
X232405357Y-131979761D01*
X232357738Y-131884523D01*
X232357738Y-131503571D01*
X232405357Y-131408333D01*
X232500595Y-131360714D01*
X232691071Y-131360714D01*
X232786309Y-131408333D01*
X232833928Y-131503571D01*
X232833928Y-131598809D01*
X232357738Y-131694047D01*
X233262500Y-131360714D02*
X233262500Y-132027380D01*
X233262500Y-131455952D02*
X233310119Y-131408333D01*
X233405357Y-131360714D01*
X233548214Y-131360714D01*
X233643452Y-131408333D01*
X233691071Y-131503571D01*
X233691071Y-132027380D01*
X234024404Y-131360714D02*
X234405357Y-131360714D01*
X234167261Y-131027380D02*
X234167261Y-131884523D01*
X234214880Y-131979761D01*
X234310119Y-132027380D01*
X234405357Y-132027380D01*
D13*
X201626267Y-127011238D02*
X201771410Y-127059619D01*
X202013314Y-127059619D01*
X202110076Y-127011238D01*
X202158457Y-126962857D01*
X202206838Y-126866095D01*
X202206838Y-126769333D01*
X202158457Y-126672571D01*
X202110076Y-126624190D01*
X202013314Y-126575809D01*
X201819790Y-126527428D01*
X201723029Y-126479047D01*
X201674648Y-126430666D01*
X201626267Y-126333904D01*
X201626267Y-126237142D01*
X201674648Y-126140380D01*
X201723029Y-126092000D01*
X201819790Y-126043619D01*
X202061695Y-126043619D01*
X202206838Y-126092000D01*
X202497124Y-126043619D02*
X203077695Y-126043619D01*
X202787410Y-127059619D02*
X202787410Y-126043619D01*
X203367981Y-126769333D02*
X203851790Y-126769333D01*
X203271219Y-127059619D02*
X203609886Y-126043619D01*
X203948552Y-127059619D01*
X204142076Y-126043619D02*
X204722648Y-126043619D01*
X204432362Y-127059619D02*
X204432362Y-126043619D01*
X205061314Y-126043619D02*
X205061314Y-126866095D01*
X205109695Y-126962857D01*
X205158076Y-127011238D01*
X205254838Y-127059619D01*
X205448362Y-127059619D01*
X205545124Y-127011238D01*
X205593505Y-126962857D01*
X205641886Y-126866095D01*
X205641886Y-126043619D01*
X206077314Y-127011238D02*
X206222457Y-127059619D01*
X206464362Y-127059619D01*
X206561124Y-127011238D01*
X206609505Y-126962857D01*
X206657886Y-126866095D01*
X206657886Y-126769333D01*
X206609505Y-126672571D01*
X206561124Y-126624190D01*
X206464362Y-126575809D01*
X206270838Y-126527428D01*
X206174076Y-126479047D01*
X206125695Y-126430666D01*
X206077314Y-126333904D01*
X206077314Y-126237142D01*
X206125695Y-126140380D01*
X206174076Y-126092000D01*
X206270838Y-126043619D01*
X206512743Y-126043619D01*
X206657886Y-126092000D01*
X250564761Y-142499257D02*
X250516380Y-142547638D01*
X250371238Y-142596019D01*
X250274476Y-142596019D01*
X250129333Y-142547638D01*
X250032571Y-142450876D01*
X249984190Y-142354114D01*
X249935809Y-142160590D01*
X249935809Y-142015447D01*
X249984190Y-141821923D01*
X250032571Y-141725161D01*
X250129333Y-141628400D01*
X250274476Y-141580019D01*
X250371238Y-141580019D01*
X250516380Y-141628400D01*
X250564761Y-141676780D01*
X251193714Y-141580019D02*
X251387238Y-141580019D01*
X251484000Y-141628400D01*
X251580761Y-141725161D01*
X251629142Y-141918685D01*
X251629142Y-142257352D01*
X251580761Y-142450876D01*
X251484000Y-142547638D01*
X251387238Y-142596019D01*
X251193714Y-142596019D01*
X251096952Y-142547638D01*
X251000190Y-142450876D01*
X250951809Y-142257352D01*
X250951809Y-141918685D01*
X251000190Y-141725161D01*
X251096952Y-141628400D01*
X251193714Y-141580019D01*
X252064571Y-142596019D02*
X252064571Y-141580019D01*
X252645142Y-142596019D01*
X252645142Y-141580019D01*
X253467619Y-142063828D02*
X253128952Y-142063828D01*
X253128952Y-142596019D02*
X253128952Y-141580019D01*
X253612761Y-141580019D01*
X253999809Y-142596019D02*
X253999809Y-141580019D01*
X255015809Y-141628400D02*
X254919047Y-141580019D01*
X254773904Y-141580019D01*
X254628761Y-141628400D01*
X254532000Y-141725161D01*
X254483619Y-141821923D01*
X254435238Y-142015447D01*
X254435238Y-142160590D01*
X254483619Y-142354114D01*
X254532000Y-142450876D01*
X254628761Y-142547638D01*
X254773904Y-142596019D01*
X254870666Y-142596019D01*
X255015809Y-142547638D01*
X255064190Y-142499257D01*
X255064190Y-142160590D01*
X254870666Y-142160590D01*
X250661523Y-144348619D02*
X250661523Y-143332619D01*
X251000190Y-144058333D01*
X251338857Y-143332619D01*
X251338857Y-144348619D01*
X252016190Y-143332619D02*
X252209714Y-143332619D01*
X252306476Y-143381000D01*
X252403238Y-143477761D01*
X252451619Y-143671285D01*
X252451619Y-144009952D01*
X252403238Y-144203476D01*
X252306476Y-144300238D01*
X252209714Y-144348619D01*
X252016190Y-144348619D01*
X251919428Y-144300238D01*
X251822666Y-144203476D01*
X251774285Y-144009952D01*
X251774285Y-143671285D01*
X251822666Y-143477761D01*
X251919428Y-143381000D01*
X252016190Y-143332619D01*
X252887047Y-144348619D02*
X252887047Y-143332619D01*
X253128952Y-143332619D01*
X253274095Y-143381000D01*
X253370857Y-143477761D01*
X253419238Y-143574523D01*
X253467619Y-143768047D01*
X253467619Y-143913190D01*
X253419238Y-144106714D01*
X253370857Y-144203476D01*
X253274095Y-144300238D01*
X253128952Y-144348619D01*
X252887047Y-144348619D01*
X253903047Y-143816428D02*
X254241714Y-143816428D01*
X254386857Y-144348619D02*
X253903047Y-144348619D01*
X253903047Y-143332619D01*
X254386857Y-143332619D01*
X241338857Y-142596019D02*
X240855047Y-142596019D01*
X240855047Y-141580019D01*
X241871047Y-141580019D02*
X242064571Y-141580019D01*
X242161333Y-141628400D01*
X242258095Y-141725161D01*
X242306476Y-141918685D01*
X242306476Y-142257352D01*
X242258095Y-142450876D01*
X242161333Y-142547638D01*
X242064571Y-142596019D01*
X241871047Y-142596019D01*
X241774285Y-142547638D01*
X241677523Y-142450876D01*
X241629142Y-142257352D01*
X241629142Y-141918685D01*
X241677523Y-141725161D01*
X241774285Y-141628400D01*
X241871047Y-141580019D01*
X242693523Y-142305733D02*
X243177333Y-142305733D01*
X242596761Y-142596019D02*
X242935428Y-141580019D01*
X243274095Y-142596019D01*
X243612761Y-142596019D02*
X243612761Y-141580019D01*
X243854666Y-141580019D01*
X243999809Y-141628400D01*
X244096571Y-141725161D01*
X244144952Y-141821923D01*
X244193333Y-142015447D01*
X244193333Y-142160590D01*
X244144952Y-142354114D01*
X244096571Y-142450876D01*
X243999809Y-142547638D01*
X243854666Y-142596019D01*
X243612761Y-142596019D01*
X239597142Y-143816428D02*
X239258476Y-143816428D01*
X239258476Y-144348619D02*
X239258476Y-143332619D01*
X239742285Y-143332619D01*
X240129333Y-144348619D02*
X240129333Y-143332619D01*
X241096952Y-144348619D02*
X240613142Y-144348619D01*
X240613142Y-143332619D01*
X241387238Y-144058333D02*
X241871047Y-144058333D01*
X241290476Y-144348619D02*
X241629142Y-143332619D01*
X241967809Y-144348619D01*
X242306476Y-144348619D02*
X242306476Y-143332619D01*
X242645142Y-144058333D01*
X242983809Y-143332619D01*
X242983809Y-144348619D01*
X243467619Y-143816428D02*
X243806285Y-143816428D01*
X243951428Y-144348619D02*
X243467619Y-144348619D01*
X243467619Y-143332619D01*
X243951428Y-143332619D01*
X244386857Y-144348619D02*
X244386857Y-143332619D01*
X244967428Y-144348619D01*
X244967428Y-143332619D01*
X245306095Y-143332619D02*
X245886666Y-143332619D01*
X245596380Y-144348619D02*
X245596380Y-143332619D01*
X229790666Y-141580019D02*
X229790666Y-142402495D01*
X229839047Y-142499257D01*
X229887428Y-142547638D01*
X229984190Y-142596019D01*
X230177714Y-142596019D01*
X230274476Y-142547638D01*
X230322857Y-142499257D01*
X230371238Y-142402495D01*
X230371238Y-141580019D01*
X230855047Y-142596019D02*
X230855047Y-141580019D01*
X231435619Y-142596019D01*
X231435619Y-141580019D01*
X232403238Y-142596019D02*
X231919428Y-142596019D01*
X231919428Y-141580019D01*
X232935428Y-141580019D02*
X233128952Y-141580019D01*
X233225714Y-141628400D01*
X233322476Y-141725161D01*
X233370857Y-141918685D01*
X233370857Y-142257352D01*
X233322476Y-142450876D01*
X233225714Y-142547638D01*
X233128952Y-142596019D01*
X232935428Y-142596019D01*
X232838666Y-142547638D01*
X232741904Y-142450876D01*
X232693523Y-142257352D01*
X232693523Y-141918685D01*
X232741904Y-141725161D01*
X232838666Y-141628400D01*
X232935428Y-141580019D01*
X233757904Y-142305733D02*
X234241714Y-142305733D01*
X233661142Y-142596019D02*
X233999809Y-141580019D01*
X234338476Y-142596019D01*
X234677142Y-142596019D02*
X234677142Y-141580019D01*
X234919047Y-141580019D01*
X235064190Y-141628400D01*
X235160952Y-141725161D01*
X235209333Y-141821923D01*
X235257714Y-142015447D01*
X235257714Y-142160590D01*
X235209333Y-142354114D01*
X235160952Y-142450876D01*
X235064190Y-142547638D01*
X234919047Y-142596019D01*
X234677142Y-142596019D01*
X229597142Y-143816428D02*
X229258476Y-143816428D01*
X229258476Y-144348619D02*
X229258476Y-143332619D01*
X229742285Y-143332619D01*
X230129333Y-144348619D02*
X230129333Y-143332619D01*
X231096952Y-144348619D02*
X230613142Y-144348619D01*
X230613142Y-143332619D01*
X231387238Y-144058333D02*
X231871047Y-144058333D01*
X231290476Y-144348619D02*
X231629142Y-143332619D01*
X231967809Y-144348619D01*
X232306476Y-144348619D02*
X232306476Y-143332619D01*
X232645142Y-144058333D01*
X232983809Y-143332619D01*
X232983809Y-144348619D01*
X233467619Y-143816428D02*
X233806285Y-143816428D01*
X233951428Y-144348619D02*
X233467619Y-144348619D01*
X233467619Y-143332619D01*
X233951428Y-143332619D01*
X234386857Y-144348619D02*
X234386857Y-143332619D01*
X234967428Y-144348619D01*
X234967428Y-143332619D01*
X235306095Y-143332619D02*
X235886666Y-143332619D01*
X235596380Y-144348619D02*
X235596380Y-143332619D01*
X220879238Y-142596019D02*
X220879238Y-141580019D01*
X221459809Y-142596019D01*
X221459809Y-141580019D01*
X221943619Y-142063828D02*
X222282285Y-142063828D01*
X222427428Y-142596019D02*
X221943619Y-142596019D01*
X221943619Y-141580019D01*
X222427428Y-141580019D01*
X222766095Y-141580019D02*
X223443428Y-142596019D01*
X223443428Y-141580019D02*
X222766095Y-142596019D01*
X223685333Y-141580019D02*
X224265904Y-141580019D01*
X223975619Y-142596019D02*
X223975619Y-141580019D01*
X220564761Y-144348619D02*
X220564761Y-143332619D01*
X220951809Y-143332619D01*
X221048571Y-143381000D01*
X221096952Y-143429380D01*
X221145333Y-143526142D01*
X221145333Y-143671285D01*
X221096952Y-143768047D01*
X221048571Y-143816428D01*
X220951809Y-143864809D01*
X220564761Y-143864809D01*
X222161333Y-144348619D02*
X221822666Y-143864809D01*
X221580761Y-144348619D02*
X221580761Y-143332619D01*
X221967809Y-143332619D01*
X222064571Y-143381000D01*
X222112952Y-143429380D01*
X222161333Y-143526142D01*
X222161333Y-143671285D01*
X222112952Y-143768047D01*
X222064571Y-143816428D01*
X221967809Y-143864809D01*
X221580761Y-143864809D01*
X222596761Y-144348619D02*
X222596761Y-143332619D01*
X223080571Y-144348619D02*
X223080571Y-143332619D01*
X223661142Y-144348619D01*
X223661142Y-143332619D01*
X223999809Y-143332619D02*
X224580380Y-143332619D01*
X224290095Y-144348619D02*
X224290095Y-143332619D01*
X210177714Y-142699619D02*
X209839047Y-142215809D01*
X209597142Y-142699619D02*
X209597142Y-141683619D01*
X209984190Y-141683619D01*
X210080952Y-141732000D01*
X210129333Y-141780380D01*
X210177714Y-141877142D01*
X210177714Y-142022285D01*
X210129333Y-142119047D01*
X210080952Y-142167428D01*
X209984190Y-142215809D01*
X209597142Y-142215809D01*
X210613142Y-142167428D02*
X210951809Y-142167428D01*
X211096952Y-142699619D02*
X210613142Y-142699619D01*
X210613142Y-141683619D01*
X211096952Y-141683619D01*
X211532380Y-142699619D02*
X211532380Y-141683619D01*
X211919428Y-141683619D01*
X212016190Y-141732000D01*
X212064571Y-141780380D01*
X212112952Y-141877142D01*
X212112952Y-142022285D01*
X212064571Y-142119047D01*
X212016190Y-142167428D01*
X211919428Y-142215809D01*
X211532380Y-142215809D01*
X213128952Y-142699619D02*
X212790285Y-142215809D01*
X212548380Y-142699619D02*
X212548380Y-141683619D01*
X212935428Y-141683619D01*
X213032190Y-141732000D01*
X213080571Y-141780380D01*
X213128952Y-141877142D01*
X213128952Y-142022285D01*
X213080571Y-142119047D01*
X213032190Y-142167428D01*
X212935428Y-142215809D01*
X212548380Y-142215809D01*
X213564380Y-142699619D02*
X213564380Y-141683619D01*
X214048190Y-142699619D02*
X214048190Y-141683619D01*
X214628761Y-142699619D01*
X214628761Y-141683619D01*
X214967428Y-141683619D02*
X215548000Y-141683619D01*
X215257714Y-142699619D02*
X215257714Y-141683619D01*
D14*
G04 #@! TO.C,J1*
X207500000Y-117500000D02*
X206140000Y-117500000D01*
X206140000Y-117500000D02*
X206140000Y-122500000D01*
X206140000Y-122500000D02*
X207500000Y-122500000D01*
X257500000Y-117500000D02*
X258860000Y-117500000D01*
X258860000Y-117500000D02*
X258860000Y-122500000D01*
X258860000Y-122500000D02*
X257500000Y-122500000D01*
G04 #@! TO.C,SW3*
X233500000Y-137000000D02*
G75*
G03X233500000Y-137000000I-1000000J0D01*
G01*
X234500000Y-137000000D02*
G75*
G03X234500000Y-137000000I-2000000J0D01*
G01*
X229900000Y-139600000D02*
X230100000Y-139600000D01*
X229900000Y-134400000D02*
X229900000Y-139600000D01*
X230100000Y-134400000D02*
X229900000Y-134400000D01*
X234900000Y-134400000D02*
X235100000Y-134400000D01*
X235100000Y-139600000D02*
X234900000Y-139600000D01*
X235100000Y-134400000D02*
X235100000Y-139600000D01*
X233800000Y-139600000D02*
X231200000Y-139600000D01*
X231200000Y-134400000D02*
X233800000Y-134400000D01*
G04 #@! TO.C,SW1*
X213500000Y-137000000D02*
G75*
G03X213500000Y-137000000I-1000000J0D01*
G01*
X214500000Y-137000000D02*
G75*
G03X214500000Y-137000000I-2000000J0D01*
G01*
X209900000Y-139600000D02*
X210100000Y-139600000D01*
X209900000Y-134400000D02*
X209900000Y-139600000D01*
X210100000Y-134400000D02*
X209900000Y-134400000D01*
X214900000Y-134400000D02*
X215100000Y-134400000D01*
X215100000Y-139600000D02*
X214900000Y-139600000D01*
X215100000Y-134400000D02*
X215100000Y-139600000D01*
X213800000Y-139600000D02*
X211200000Y-139600000D01*
X211200000Y-134400000D02*
X213800000Y-134400000D01*
G04 #@! TO.C,SW2*
X223500000Y-137000000D02*
G75*
G03X223500000Y-137000000I-1000000J0D01*
G01*
X224500000Y-137000000D02*
G75*
G03X224500000Y-137000000I-2000000J0D01*
G01*
X219900000Y-139600000D02*
X220100000Y-139600000D01*
X219900000Y-134400000D02*
X219900000Y-139600000D01*
X220100000Y-134400000D02*
X219900000Y-134400000D01*
X224900000Y-134400000D02*
X225100000Y-134400000D01*
X225100000Y-139600000D02*
X224900000Y-139600000D01*
X225100000Y-134400000D02*
X225100000Y-139600000D01*
X223800000Y-139600000D02*
X221200000Y-139600000D01*
X221200000Y-134400000D02*
X223800000Y-134400000D01*
G04 #@! TO.C,SW4*
X243500000Y-137000000D02*
G75*
G03X243500000Y-137000000I-1000000J0D01*
G01*
X244500000Y-137000000D02*
G75*
G03X244500000Y-137000000I-2000000J0D01*
G01*
X239900000Y-139600000D02*
X240100000Y-139600000D01*
X239900000Y-134400000D02*
X239900000Y-139600000D01*
X240100000Y-134400000D02*
X239900000Y-134400000D01*
X244900000Y-134400000D02*
X245100000Y-134400000D01*
X245100000Y-139600000D02*
X244900000Y-139600000D01*
X245100000Y-134400000D02*
X245100000Y-139600000D01*
X243800000Y-139600000D02*
X241200000Y-139600000D01*
X241200000Y-134400000D02*
X243800000Y-134400000D01*
G04 #@! TO.C,SW5*
X253500000Y-137000000D02*
G75*
G03X253500000Y-137000000I-1000000J0D01*
G01*
X254500000Y-137000000D02*
G75*
G03X254500000Y-137000000I-2000000J0D01*
G01*
X249900000Y-139600000D02*
X250100000Y-139600000D01*
X249900000Y-134400000D02*
X249900000Y-139600000D01*
X250100000Y-134400000D02*
X249900000Y-134400000D01*
X254900000Y-134400000D02*
X255100000Y-134400000D01*
X255100000Y-139600000D02*
X254900000Y-139600000D01*
X255100000Y-134400000D02*
X255100000Y-139600000D01*
X253800000Y-139600000D02*
X251200000Y-139600000D01*
X251200000Y-134400000D02*
X253800000Y-134400000D01*
D10*
G04 #@! TO.C,D1*
X208500000Y-126250000D02*
X208700000Y-126250000D01*
X208500000Y-127050000D02*
X208700000Y-127050000D01*
X209200000Y-127350000D02*
X209200000Y-127350000D01*
X209200000Y-127450000D02*
X209200000Y-127450000D01*
X209200000Y-127450000D02*
G75*
G02X209200000Y-127350000I0J50000D01*
G01*
X209200000Y-127350000D02*
G75*
G02X209200000Y-127450000I0J-50000D01*
G01*
G04 #@! TD*
M02*
