G04 #@! TF.GenerationSoftware,KiCad,Pcbnew,(5.0.2)-1*
G04 #@! TF.CreationDate,2019-07-28T23:35:27-04:00*
G04 #@! TF.ProjectId,AD3D Cloud Connect Board,41443344-2043-46c6-9f75-6420436f6e6e,rev?*
G04 #@! TF.SameCoordinates,Original*
G04 #@! TF.FileFunction,Copper,L1,Top*
G04 #@! TF.FilePolarity,Positive*
%FSLAX46Y46*%
G04 Gerber Fmt 4.6, Leading zero omitted, Abs format (unit mm)*
G04 Created by KiCad (PCBNEW (5.0.2)-1) date 7/28/2019 11:35:27 PM*
%MOMM*%
%LPD*%
G01*
G04 APERTURE LIST*
G04 #@! TA.AperFunction,SMDPad,CuDef*
%ADD10R,1.270000X3.000000*%
G04 #@! TD*
G04 #@! TA.AperFunction,SMDPad,CuDef*
%ADD11R,0.700000X1.000000*%
G04 #@! TD*
G04 #@! TA.AperFunction,SMDPad,CuDef*
%ADD12R,0.500000X0.400000*%
G04 #@! TD*
G04 #@! TA.AperFunction,ViaPad*
%ADD13C,1.016000*%
G04 #@! TD*
G04 #@! TA.AperFunction,ViaPad*
%ADD14C,0.900000*%
G04 #@! TD*
G04 #@! TA.AperFunction,Conductor*
%ADD15C,0.508000*%
G04 #@! TD*
G04 #@! TA.AperFunction,Conductor*
%ADD16C,0.762000*%
G04 #@! TD*
G04 #@! TA.AperFunction,Conductor*
%ADD17C,1.016000*%
G04 #@! TD*
G04 #@! TA.AperFunction,Conductor*
%ADD18C,0.254000*%
G04 #@! TD*
G04 APERTURE END LIST*
D10*
G04 #@! TO.P,J1,2*
G04 #@! TO.N,+5V*
X208370000Y-117270000D03*
G04 #@! TO.P,J1,1*
G04 #@! TO.N,+3V3*
X208370000Y-122730000D03*
G04 #@! TO.P,J1,4*
G04 #@! TO.N,+5V*
X210910000Y-117270000D03*
G04 #@! TO.P,J1,3*
G04 #@! TO.N,/GPIO2(SDA1)*
X210910000Y-122730000D03*
G04 #@! TO.P,J1,6*
G04 #@! TO.N,GND*
X213450000Y-117270000D03*
G04 #@! TO.P,J1,5*
G04 #@! TO.N,/GPIO3(SCL1)*
X213450000Y-122730000D03*
G04 #@! TO.P,J1,8*
G04 #@! TO.N,/GPIO14(TXD0)*
X215990000Y-117270000D03*
G04 #@! TO.P,J1,7*
G04 #@! TO.N,/GPIO4(GCLK)*
X215990000Y-122730000D03*
G04 #@! TO.P,J1,10*
G04 #@! TO.N,/GPIO15(RXD0)*
X218530000Y-117270000D03*
G04 #@! TO.P,J1,9*
G04 #@! TO.N,GND*
X218530000Y-122730000D03*
G04 #@! TO.P,J1,12*
G04 #@! TO.N,/GPIO18(GEN1)(PWM0)*
X221070000Y-117270000D03*
G04 #@! TO.P,J1,11*
G04 #@! TO.N,/GPIO17(GEN0)*
X221070000Y-122730000D03*
G04 #@! TO.P,J1,14*
G04 #@! TO.N,GND*
X223610000Y-117270000D03*
G04 #@! TO.P,J1,13*
G04 #@! TO.N,/GPIO27(GEN2)*
X223610000Y-122730000D03*
G04 #@! TO.P,J1,16*
G04 #@! TO.N,/GPIO23(GEN4)*
X226150000Y-117270000D03*
G04 #@! TO.P,J1,15*
G04 #@! TO.N,/GPIO22(GEN3)*
X226150000Y-122730000D03*
G04 #@! TO.P,J1,18*
G04 #@! TO.N,/GPIO24(GEN5)*
X228690000Y-117270000D03*
G04 #@! TO.P,J1,17*
G04 #@! TO.N,+3V3*
X228690000Y-122730000D03*
G04 #@! TO.P,J1,20*
G04 #@! TO.N,GND*
X231230000Y-117270000D03*
G04 #@! TO.P,J1,19*
G04 #@! TO.N,/GPIO10(SPI0_MOSI)*
X231230000Y-122730000D03*
G04 #@! TO.P,J1,22*
G04 #@! TO.N,/GPIO25(GEN6)*
X233770000Y-117270000D03*
G04 #@! TO.P,J1,21*
G04 #@! TO.N,/GPIO9(SPI0_MISO)*
X233770000Y-122730000D03*
G04 #@! TO.P,J1,24*
G04 #@! TO.N,/GPIO8(SPI0_CE_N)*
X236310000Y-117270000D03*
G04 #@! TO.P,J1,23*
G04 #@! TO.N,/GPIO11(SPI0_SCK)*
X236310000Y-122730000D03*
G04 #@! TO.P,J1,26*
G04 #@! TO.N,/GPIO7(SPI1_CE_N)*
X238850000Y-117270000D03*
G04 #@! TO.P,J1,25*
G04 #@! TO.N,GND*
X238850000Y-122730000D03*
G04 #@! TO.P,J1,28*
G04 #@! TO.N,/ID_SC*
X241390000Y-117270000D03*
G04 #@! TO.P,J1,27*
G04 #@! TO.N,/ID_SD*
X241390000Y-122730000D03*
G04 #@! TO.P,J1,30*
G04 #@! TO.N,GND*
X243930000Y-117270000D03*
G04 #@! TO.P,J1,29*
G04 #@! TO.N,/GPIO5*
X243930000Y-122730000D03*
G04 #@! TO.P,J1,32*
G04 #@! TO.N,/GPIO12(PWM0)*
X246470000Y-117270000D03*
G04 #@! TO.P,J1,31*
G04 #@! TO.N,/GPIO6*
X246470000Y-122730000D03*
G04 #@! TO.P,J1,34*
G04 #@! TO.N,GND*
X249010000Y-117270000D03*
G04 #@! TO.P,J1,33*
G04 #@! TO.N,/GPIO13(PWM1)*
X249010000Y-122730000D03*
G04 #@! TO.P,J1,36*
G04 #@! TO.N,/GPIO16*
X251550000Y-117270000D03*
G04 #@! TO.P,J1,35*
G04 #@! TO.N,/GPIO19(SPI1_MISO)*
X251550000Y-122730000D03*
G04 #@! TO.P,J1,38*
G04 #@! TO.N,/GPIO20(SPI1_MOSI)*
X254090000Y-117270000D03*
G04 #@! TO.P,J1,37*
G04 #@! TO.N,/GPIO26*
X254090000Y-122730000D03*
G04 #@! TO.P,J1,40*
G04 #@! TO.N,/GPIO21(SPI1_SCK)*
X256630000Y-117270000D03*
G04 #@! TO.P,J1,39*
G04 #@! TO.N,GND*
X256630000Y-122730000D03*
G04 #@! TD*
D11*
G04 #@! TO.P,SW3,4*
G04 #@! TO.N,GND*
X230650000Y-140000000D03*
G04 #@! TO.P,SW3,3*
G04 #@! TO.N,/GPIO13(PWM1)*
X230650000Y-134000000D03*
G04 #@! TO.P,SW3,2*
G04 #@! TO.N,GND*
X234350000Y-140000000D03*
G04 #@! TO.P,SW3,1*
G04 #@! TO.N,/GPIO13(PWM1)*
X234350000Y-134000000D03*
G04 #@! TD*
G04 #@! TO.P,SW1,4*
G04 #@! TO.N,GND*
X210650000Y-140000000D03*
G04 #@! TO.P,SW1,3*
G04 #@! TO.N,/GPIO16*
X210650000Y-134000000D03*
G04 #@! TO.P,SW1,2*
G04 #@! TO.N,GND*
X214350000Y-140000000D03*
G04 #@! TO.P,SW1,1*
G04 #@! TO.N,/GPIO16*
X214350000Y-134000000D03*
G04 #@! TD*
G04 #@! TO.P,SW2,4*
G04 #@! TO.N,GND*
X220650000Y-140000000D03*
G04 #@! TO.P,SW2,3*
G04 #@! TO.N,/GPIO17(GEN0)*
X220650000Y-134000000D03*
G04 #@! TO.P,SW2,2*
G04 #@! TO.N,GND*
X224350000Y-140000000D03*
G04 #@! TO.P,SW2,1*
G04 #@! TO.N,/GPIO17(GEN0)*
X224350000Y-134000000D03*
G04 #@! TD*
G04 #@! TO.P,SW4,4*
G04 #@! TO.N,GND*
X240650000Y-140000000D03*
G04 #@! TO.P,SW4,3*
G04 #@! TO.N,/GPIO18(GEN1)(PWM0)*
X240650000Y-134000000D03*
G04 #@! TO.P,SW4,2*
G04 #@! TO.N,GND*
X244350000Y-140000000D03*
G04 #@! TO.P,SW4,1*
G04 #@! TO.N,/GPIO18(GEN1)(PWM0)*
X244350000Y-134000000D03*
G04 #@! TD*
G04 #@! TO.P,SW5,4*
G04 #@! TO.N,GND*
X250650000Y-140000000D03*
G04 #@! TO.P,SW5,3*
G04 #@! TO.N,/GPIO12(PWM0)*
X250650000Y-134000000D03*
G04 #@! TO.P,SW5,2*
G04 #@! TO.N,GND*
X254350000Y-140000000D03*
G04 #@! TO.P,SW5,1*
G04 #@! TO.N,/GPIO12(PWM0)*
X254350000Y-134000000D03*
G04 #@! TD*
D12*
G04 #@! TO.P,D1,1*
G04 #@! TO.N,Net-(D1-Pad1)*
X209200000Y-127000000D03*
G04 #@! TO.P,D1,2*
G04 #@! TO.N,/GPIO5*
X208000000Y-127000000D03*
G04 #@! TO.P,D1,3*
G04 #@! TO.N,Net-(D1-Pad3)*
X209200000Y-126300000D03*
G04 #@! TO.P,D1,4*
G04 #@! TO.N,/GPIO4(GCLK)*
X208000000Y-126300000D03*
G04 #@! TD*
D13*
G04 #@! TO.N,+3V3*
X236699992Y-135600000D03*
X228690000Y-122730000D03*
X228750000Y-130000000D03*
X208370000Y-122730000D03*
D14*
X222000000Y-136000000D03*
X225500000Y-131000000D03*
D13*
G04 #@! TO.N,+5V*
X210910000Y-117270000D03*
X208370000Y-117270000D03*
X206500000Y-118000000D03*
X205300000Y-131000002D03*
G04 #@! TO.N,GND*
X218500000Y-122730000D03*
X213450000Y-117270000D03*
X243930000Y-117270000D03*
X249010000Y-117270000D03*
X256630000Y-122730000D03*
X238850000Y-122730000D03*
X208500000Y-139000000D03*
X217500000Y-142000000D03*
X227500000Y-138000000D03*
X237500000Y-138000000D03*
X247500000Y-142000000D03*
X256500000Y-139000000D03*
X223610000Y-117270000D03*
X231230000Y-117270000D03*
G04 #@! TO.N,/ID_SD*
X241390000Y-122723180D03*
G04 #@! TO.N,/ID_SC*
X241390000Y-117270000D03*
G04 #@! TO.N,/GPIO5*
X243930000Y-122730000D03*
X244165311Y-131722079D03*
X213300000Y-132799998D03*
G04 #@! TO.N,/GPIO6*
X246470000Y-122730000D03*
G04 #@! TO.N,/GPIO26*
X254090000Y-122730000D03*
X251300000Y-129300000D03*
G04 #@! TO.N,/GPIO2(SDA1)*
X210910000Y-122730000D03*
X246250000Y-126250000D03*
X223600000Y-128700000D03*
X223239461Y-125246010D03*
X246100000Y-134500000D03*
G04 #@! TO.N,/GPIO3(SCL1)*
X213450000Y-122730000D03*
X240000000Y-125976000D03*
X225400000Y-127000000D03*
X224371166Y-124989917D03*
X245674462Y-133439154D03*
G04 #@! TO.N,/GPIO4(GCLK)*
X215990000Y-122730000D03*
G04 #@! TO.N,/GPIO14(TXD0)*
X215990000Y-117270000D03*
X219000000Y-134249992D03*
G04 #@! TO.N,/GPIO15(RXD0)*
X218530000Y-117270000D03*
X216450000Y-132849996D03*
X216255046Y-134824012D03*
X220270908Y-132524023D03*
G04 #@! TO.N,/GPIO17(GEN0)*
X221070000Y-122730000D03*
G04 #@! TO.N,/GPIO27(GEN2)*
X223610000Y-122730000D03*
G04 #@! TO.N,/GPIO22(GEN3)*
X226150000Y-122730000D03*
G04 #@! TO.N,/GPIO23(GEN4)*
X226150000Y-117270000D03*
X226899994Y-134000000D03*
G04 #@! TO.N,/GPIO24(GEN5)*
X228714580Y-117294580D03*
G04 #@! TO.N,/GPIO25(GEN6)*
X233770000Y-117270000D03*
X229250000Y-134000000D03*
X228300000Y-125100000D03*
G04 #@! TO.N,/GPIO18(GEN1)(PWM0)*
X221070000Y-117270000D03*
X238900000Y-133950000D03*
X222659022Y-133356980D03*
G04 #@! TO.N,/GPIO10(SPI0_MOSI)*
X231230000Y-122730000D03*
G04 #@! TO.N,/GPIO9(SPI0_MISO)*
X233770000Y-122730000D03*
G04 #@! TO.N,/GPIO11(SPI0_SCK)*
X236310000Y-122730000D03*
G04 #@! TO.N,/GPIO8(SPI0_CE_N)*
X236310000Y-117270000D03*
G04 #@! TO.N,/GPIO7(SPI1_CE_N)*
X238850000Y-117270000D03*
G04 #@! TO.N,/GPIO12(PWM0)*
X246470000Y-117270000D03*
G04 #@! TO.N,/GPIO13(PWM1)*
X249010000Y-122730000D03*
X238300000Y-125000000D03*
X235000000Y-129000000D03*
X237900000Y-128100000D03*
G04 #@! TO.N,/GPIO19(SPI1_MISO)*
X251550000Y-122730000D03*
G04 #@! TO.N,/GPIO16*
X251550000Y-117270000D03*
X250250000Y-127499990D03*
X215350000Y-130750002D03*
G04 #@! TO.N,/GPIO20(SPI1_MOSI)*
X254090000Y-117270000D03*
G04 #@! TO.N,/GPIO21(SPI1_SCK)*
X256630000Y-117270000D03*
G04 #@! TO.N,Net-(D1-Pad1)*
X213400000Y-130400000D03*
G04 #@! TO.N,Net-(D1-Pad3)*
X212375076Y-125324924D03*
G04 #@! TD*
D15*
G04 #@! TO.N,+3V3*
X230639001Y-128110999D02*
X228750000Y-130000000D01*
X235910999Y-128110999D02*
X230639001Y-128110999D01*
X236699992Y-135600000D02*
X236699992Y-128899992D01*
X236699992Y-128899992D02*
X235910999Y-128110999D01*
D16*
X230087000Y-128663000D02*
X229257999Y-129492001D01*
X228690000Y-123595000D02*
X230087000Y-124992000D01*
X230087000Y-124992000D02*
X230087000Y-128663000D01*
X229257999Y-129492001D02*
X228750000Y-130000000D01*
X228690000Y-122730000D02*
X228690000Y-123595000D01*
D15*
X225500000Y-134385802D02*
X225500000Y-131000000D01*
X222000000Y-136000000D02*
X223885802Y-136000000D01*
X223885802Y-136000000D02*
X225500000Y-134385802D01*
D16*
G04 #@! TO.N,+5V*
X206500000Y-118000000D02*
X206500000Y-129800002D01*
X206500000Y-129800002D02*
X205807999Y-130492003D01*
X205807999Y-130492003D02*
X205300000Y-131000002D01*
D17*
G04 #@! TO.N,GND*
X210650000Y-140000000D02*
X209500000Y-140000000D01*
X209500000Y-140000000D02*
X208500000Y-139000000D01*
X217500000Y-140000000D02*
X217500000Y-142000000D01*
X210650000Y-140000000D02*
X217500000Y-140000000D01*
X227500000Y-140000000D02*
X227500000Y-138000000D01*
X217500000Y-140000000D02*
X227500000Y-140000000D01*
X237500000Y-140000000D02*
X237500000Y-138000000D01*
X227500000Y-140000000D02*
X237500000Y-140000000D01*
X247500000Y-140000000D02*
X247500000Y-142000000D01*
X247500000Y-140000000D02*
X254350000Y-140000000D01*
X237500000Y-140000000D02*
X247500000Y-140000000D01*
X254350000Y-140000000D02*
X255500000Y-140000000D01*
X255500000Y-140000000D02*
X256500000Y-139000000D01*
D15*
X243930000Y-118135000D02*
X243930000Y-117270000D01*
X231230000Y-117270000D02*
X231230000Y-118135000D01*
D17*
X242065000Y-120000000D02*
X243930000Y-118135000D01*
X231230000Y-118135000D02*
X233095000Y-120000000D01*
D16*
X238500000Y-120118000D02*
X238500000Y-120000000D01*
X238850000Y-120468000D02*
X238500000Y-120118000D01*
D17*
X233095000Y-120000000D02*
X238500000Y-120000000D01*
D16*
X239318000Y-120000000D02*
X239500000Y-120000000D01*
X238850000Y-120468000D02*
X239318000Y-120000000D01*
X238850000Y-122730000D02*
X238850000Y-120468000D01*
D17*
X238500000Y-120000000D02*
X239500000Y-120000000D01*
X239500000Y-120000000D02*
X242065000Y-120000000D01*
D18*
G04 #@! TO.N,/GPIO5*
X243930000Y-122730000D02*
X243930000Y-131486768D01*
X243930000Y-131486768D02*
X244165311Y-131722079D01*
X211850004Y-131650004D02*
X212692001Y-132492001D01*
X211834000Y-130733996D02*
X211850004Y-130750000D01*
X208000000Y-127000000D02*
X208000000Y-127800000D01*
X211850004Y-130750000D02*
X211850004Y-131650004D01*
X212692001Y-132492001D02*
X212999998Y-132799998D01*
X212999998Y-132799998D02*
X213300000Y-132799998D01*
X208000000Y-127800000D02*
X212692001Y-132492001D01*
G04 #@! TO.N,/GPIO26*
X254090000Y-126510000D02*
X251807999Y-128792001D01*
X251807999Y-128792001D02*
X251300000Y-129300000D01*
X254090000Y-122730000D02*
X254090000Y-126510000D01*
G04 #@! TO.N,/GPIO2(SDA1)*
X223600000Y-125606549D02*
X223239461Y-125246010D01*
X223600000Y-128700000D02*
X223600000Y-125606549D01*
X246607999Y-133992001D02*
X246100000Y-134500000D01*
X246757999Y-133842001D02*
X246607999Y-133992001D01*
X246757999Y-126757999D02*
X246757999Y-133842001D01*
X246250000Y-126250000D02*
X246757999Y-126757999D01*
G04 #@! TO.N,/GPIO3(SCL1)*
X224371166Y-125708337D02*
X224371166Y-124989917D01*
X225400000Y-127000000D02*
X224371166Y-125971166D01*
X224371166Y-125971166D02*
X224371166Y-125708337D01*
X245166463Y-132931155D02*
X245674462Y-133439154D01*
X244264694Y-132931155D02*
X245166463Y-132931155D01*
X240000000Y-125976000D02*
X240000000Y-128666461D01*
X240000000Y-128666461D02*
X244264694Y-132931155D01*
G04 #@! TO.N,/GPIO4(GCLK)*
X215990000Y-122730000D02*
X215990000Y-123595000D01*
X208050000Y-126300000D02*
X208000000Y-126300000D01*
X209866000Y-124484000D02*
X208050000Y-126300000D01*
X215101000Y-124484000D02*
X209866000Y-124484000D01*
X215990000Y-123595000D02*
X215101000Y-124484000D01*
G04 #@! TO.N,/GPIO14(TXD0)*
X216879000Y-119024000D02*
X216879000Y-132128992D01*
X215990000Y-118135000D02*
X216879000Y-119024000D01*
X216879000Y-132128992D02*
X218492001Y-133741993D01*
X218492001Y-133741993D02*
X219000000Y-134249992D01*
X215990000Y-117270000D02*
X215990000Y-118135000D01*
G04 #@! TO.N,/GPIO15(RXD0)*
X216450000Y-134629058D02*
X216255046Y-134824012D01*
X216450000Y-132849996D02*
X216450000Y-134629058D01*
X218530000Y-118135000D02*
X219419000Y-119024000D01*
X219419000Y-131672115D02*
X219762909Y-132016024D01*
X219762909Y-132016024D02*
X220270908Y-132524023D01*
X218530000Y-117270000D02*
X218530000Y-118135000D01*
X219419000Y-119024000D02*
X219419000Y-131672115D01*
G04 #@! TO.N,/GPIO17(GEN0)*
X221254000Y-134000000D02*
X220650000Y-134000000D01*
X223746000Y-134754000D02*
X222008000Y-134754000D01*
X222008000Y-134754000D02*
X221254000Y-134000000D01*
X224350000Y-134150000D02*
X223746000Y-134754000D01*
X224350000Y-134000000D02*
X224350000Y-134150000D01*
X221262001Y-127262001D02*
X221070000Y-127070000D01*
X220650000Y-134000000D02*
X220650000Y-133850000D01*
X220650000Y-133850000D02*
X221262001Y-133237999D01*
X221070000Y-124484000D02*
X221070000Y-122730000D01*
X221070000Y-127070000D02*
X221070000Y-124484000D01*
X221262001Y-133237999D02*
X221262001Y-127262001D01*
G04 #@! TO.N,/GPIO23(GEN4)*
X226899994Y-133281580D02*
X226899994Y-134000000D01*
X226899994Y-124800006D02*
X226899994Y-133281580D01*
X227500000Y-124200000D02*
X226899994Y-124800006D01*
X227500000Y-119485000D02*
X227500000Y-124200000D01*
X226150000Y-117270000D02*
X226150000Y-118135000D01*
X226150000Y-118135000D02*
X227500000Y-119485000D01*
G04 #@! TO.N,/GPIO24(GEN5)*
X228714580Y-117294580D02*
X228690000Y-117270000D01*
G04 #@! TO.N,/GPIO25(GEN6)*
X227792001Y-132542001D02*
X227792001Y-125607999D01*
X229250000Y-134000000D02*
X227792001Y-132542001D01*
X227792001Y-125607999D02*
X228300000Y-125100000D01*
G04 #@! TO.N,/GPIO18(GEN1)(PWM0)*
X244350000Y-134000000D02*
X240650000Y-134000000D01*
X238950000Y-134000000D02*
X238900000Y-133950000D01*
X240650000Y-134000000D02*
X238950000Y-134000000D01*
X222594012Y-120548012D02*
X222594012Y-124745226D01*
X221070000Y-117270000D02*
X221070000Y-119024000D01*
X222086021Y-125253217D02*
X222086021Y-126649151D01*
X222659022Y-132638560D02*
X222659022Y-133356980D01*
X222594012Y-124745226D02*
X222086021Y-125253217D01*
X222086021Y-126649151D02*
X222659022Y-127222152D01*
X222659022Y-127222152D02*
X222659022Y-132638560D01*
X221070000Y-119024000D02*
X222594012Y-120548012D01*
G04 #@! TO.N,/GPIO12(PWM0)*
X254350000Y-134000000D02*
X250650000Y-134000000D01*
X246470000Y-118135000D02*
X246470000Y-117270000D01*
X247750000Y-119415000D02*
X246470000Y-118135000D01*
X247750000Y-130346000D02*
X247750000Y-119415000D01*
X250650000Y-134000000D02*
X250650000Y-133246000D01*
X250650000Y-133246000D02*
X247750000Y-130346000D01*
G04 #@! TO.N,/GPIO13(PWM1)*
X234350000Y-134000000D02*
X230650000Y-134000000D01*
X234350000Y-134000000D02*
X234350000Y-134150000D01*
X234350000Y-129650000D02*
X235000000Y-129000000D01*
X234350000Y-134000000D02*
X234350000Y-129650000D01*
X238300000Y-127700000D02*
X237900000Y-128100000D01*
X238300000Y-125000000D02*
X238300000Y-127700000D01*
G04 #@! TO.N,/GPIO16*
X214350000Y-134000000D02*
X210650000Y-134000000D01*
X250300000Y-127449990D02*
X250250000Y-127499990D01*
X251550000Y-117270000D02*
X251550000Y-118135000D01*
X250300000Y-119385000D02*
X250300000Y-127449990D01*
X251550000Y-118135000D02*
X250300000Y-119385000D01*
X214350000Y-134000000D02*
X214350000Y-131750002D01*
X214842001Y-131258001D02*
X215350000Y-130750002D01*
X214350000Y-131750002D02*
X214842001Y-131258001D01*
G04 #@! TO.N,Net-(D1-Pad1)*
X212892001Y-129892001D02*
X213400000Y-130400000D01*
X210000000Y-127000000D02*
X212892001Y-129892001D01*
X209200000Y-127000000D02*
X210000000Y-127000000D01*
G04 #@! TO.N,Net-(D1-Pad3)*
X211400000Y-126300000D02*
X212375076Y-125324924D01*
X209200000Y-126300000D02*
X211400000Y-126300000D01*
G04 #@! TD*
M02*
