M48
;DRILL file {KiCad (5.0.2)-1} date 9/16/2019 9:44:10 PM
;FORMAT={-:-/ absolute / inch / decimal}
FMAT,2
INCH,TZ
T1C0.0120
T2C0.0236
T3C0.0300
%
G90
G05
T1
X7.3561Y-4.9319
X7.3996Y-6.2224
X7.6378Y-4.8819
X7.6624Y-6.7874
X7.6996Y-6.3724
X7.8496Y-5.0224
X7.8996Y-4.9224
X7.9496Y-5.0724
X8.0496Y-5.7224
X8.0504Y-5.9224
X8.1246Y-5.2724
X8.1496Y-6.7724
X8.2488Y-4.8224
X8.2488Y-5.0224
X8.2488Y-6.2224
X8.2488Y-6.3224
X8.3996Y-4.8224
X8.8666Y-4.7638
X8.8666Y-4.8819
X8.8666Y-5.
X9.1996Y-5.8724
T2
X7.3561Y-3.9445
X7.3561Y-4.7319
X7.4864Y-6.3886
X7.7346Y-3.9506
X8.0496Y-4.8224
X8.0496Y-5.0224
X8.0496Y-5.5224
X8.0496Y-5.8224
X8.0496Y-6.2224
X8.2496Y-4.5224
X8.2496Y-5.2224
X8.2496Y-6.0224
X8.3646Y-3.9506
X8.9431Y-3.9551
T3
X7.4894Y-6.2886
X7.6969Y-4.0945
X7.8772Y-6.2886
X8.0315Y-3.937
X8.3496Y-5.6224
X8.3496Y-6.4224
X8.7402Y-3.9173
X9.0996Y-5.8224
X9.0996Y-6.3724
X9.1142Y-4.4291
T0
M30
