G04 #@! TF.GenerationSoftware,KiCad,Pcbnew,(5.0.2)-1*
G04 #@! TF.CreationDate,2019-07-28T23:35:27-04:00*
G04 #@! TF.ProjectId,AD3D Cloud Connect Board,41443344-2043-46c6-9f75-6420436f6e6e,rev?*
G04 #@! TF.SameCoordinates,Original*
G04 #@! TF.FileFunction,Copper,L2,Bot*
G04 #@! TF.FilePolarity,Positive*
%FSLAX46Y46*%
G04 Gerber Fmt 4.6, Leading zero omitted, Abs format (unit mm)*
G04 Created by KiCad (PCBNEW (5.0.2)-1) date 7/28/2019 11:35:27 PM*
%MOMM*%
%LPD*%
G01*
G04 APERTURE LIST*
G04 #@! TA.AperFunction,SMDPad,CuDef*
%ADD10R,1.270000X3.000000*%
G04 #@! TD*
G04 #@! TA.AperFunction,SMDPad,CuDef*
%ADD11R,1.800000X3.900000*%
G04 #@! TD*
G04 #@! TA.AperFunction,SMDPad,CuDef*
%ADD12R,1.300000X4.500000*%
G04 #@! TD*
G04 #@! TA.AperFunction,SMDPad,CuDef*
%ADD13R,3.900000X1.800000*%
G04 #@! TD*
G04 #@! TA.AperFunction,SMDPad,CuDef*
%ADD14R,4.500000X1.300000*%
G04 #@! TD*
G04 #@! TA.AperFunction,Conductor*
%ADD15C,0.150000*%
G04 #@! TD*
G04 #@! TA.AperFunction,SMDPad,CuDef*
%ADD16C,0.875000*%
G04 #@! TD*
G04 #@! TA.AperFunction,ViaPad*
%ADD17C,1.016000*%
G04 #@! TD*
G04 #@! TA.AperFunction,ViaPad*
%ADD18C,0.900000*%
G04 #@! TD*
G04 #@! TA.AperFunction,Conductor*
%ADD19C,0.508000*%
G04 #@! TD*
G04 #@! TA.AperFunction,Conductor*
%ADD20C,0.762000*%
G04 #@! TD*
G04 #@! TA.AperFunction,Conductor*
%ADD21C,1.016000*%
G04 #@! TD*
G04 #@! TA.AperFunction,Conductor*
%ADD22C,0.254000*%
G04 #@! TD*
G04 APERTURE END LIST*
D10*
G04 #@! TO.P,P1,1*
G04 #@! TO.N,+3V3*
X208370000Y-122730000D03*
G04 #@! TO.P,P1,2*
G04 #@! TO.N,+5V*
X208370000Y-117270000D03*
G04 #@! TO.P,P1,3*
G04 #@! TO.N,/GPIO2(SDA1)*
X210910000Y-122730000D03*
G04 #@! TO.P,P1,4*
G04 #@! TO.N,+5V*
X210910000Y-117270000D03*
G04 #@! TO.P,P1,5*
G04 #@! TO.N,/GPIO3(SCL1)*
X213450000Y-122730000D03*
G04 #@! TO.P,P1,6*
G04 #@! TO.N,GND*
X213450000Y-117270000D03*
G04 #@! TO.P,P1,7*
G04 #@! TO.N,/GPIO4(GCLK)*
X215990000Y-122730000D03*
G04 #@! TO.P,P1,8*
G04 #@! TO.N,/GPIO14(TXD0)*
X215990000Y-117270000D03*
G04 #@! TO.P,P1,9*
G04 #@! TO.N,GND*
X218530000Y-122730000D03*
G04 #@! TO.P,P1,10*
G04 #@! TO.N,/GPIO15(RXD0)*
X218530000Y-117270000D03*
G04 #@! TO.P,P1,11*
G04 #@! TO.N,/GPIO17(GEN0)*
X221070000Y-122730000D03*
G04 #@! TO.P,P1,12*
G04 #@! TO.N,/GPIO18(GEN1)(PWM0)*
X221070000Y-117270000D03*
G04 #@! TO.P,P1,13*
G04 #@! TO.N,/GPIO27(GEN2)*
X223610000Y-122730000D03*
G04 #@! TO.P,P1,14*
G04 #@! TO.N,GND*
X223610000Y-117270000D03*
G04 #@! TO.P,P1,15*
G04 #@! TO.N,/GPIO22(GEN3)*
X226150000Y-122730000D03*
G04 #@! TO.P,P1,16*
G04 #@! TO.N,/GPIO23(GEN4)*
X226150000Y-117270000D03*
G04 #@! TO.P,P1,17*
G04 #@! TO.N,+3V3*
X228690000Y-122730000D03*
G04 #@! TO.P,P1,18*
G04 #@! TO.N,/GPIO24(GEN5)*
X228690000Y-117270000D03*
G04 #@! TO.P,P1,19*
G04 #@! TO.N,/GPIO10(SPI0_MOSI)*
X231230000Y-122730000D03*
G04 #@! TO.P,P1,20*
G04 #@! TO.N,GND*
X231230000Y-117270000D03*
G04 #@! TO.P,P1,21*
G04 #@! TO.N,/GPIO9(SPI0_MISO)*
X233770000Y-122730000D03*
G04 #@! TO.P,P1,22*
G04 #@! TO.N,/GPIO25(GEN6)*
X233770000Y-117270000D03*
G04 #@! TO.P,P1,23*
G04 #@! TO.N,/GPIO11(SPI0_SCK)*
X236310000Y-122730000D03*
G04 #@! TO.P,P1,24*
G04 #@! TO.N,/GPIO8(SPI0_CE_N)*
X236310000Y-117270000D03*
G04 #@! TO.P,P1,25*
G04 #@! TO.N,GND*
X238850000Y-122730000D03*
G04 #@! TO.P,P1,26*
G04 #@! TO.N,/GPIO7(SPI1_CE_N)*
X238850000Y-117270000D03*
G04 #@! TO.P,P1,27*
G04 #@! TO.N,/ID_SD*
X241390000Y-122730000D03*
G04 #@! TO.P,P1,28*
G04 #@! TO.N,/ID_SC*
X241390000Y-117270000D03*
G04 #@! TO.P,P1,29*
G04 #@! TO.N,/GPIO5*
X243930000Y-122730000D03*
G04 #@! TO.P,P1,30*
G04 #@! TO.N,GND*
X243930000Y-117270000D03*
G04 #@! TO.P,P1,31*
G04 #@! TO.N,/GPIO6*
X246470000Y-122730000D03*
G04 #@! TO.P,P1,32*
G04 #@! TO.N,/GPIO12(PWM0)*
X246470000Y-117270000D03*
G04 #@! TO.P,P1,33*
G04 #@! TO.N,/GPIO13(PWM1)*
X249010000Y-122730000D03*
G04 #@! TO.P,P1,34*
G04 #@! TO.N,GND*
X249010000Y-117270000D03*
G04 #@! TO.P,P1,35*
G04 #@! TO.N,/GPIO19(SPI1_MISO)*
X251550000Y-122730000D03*
G04 #@! TO.P,P1,36*
G04 #@! TO.N,/GPIO16*
X251550000Y-117270000D03*
G04 #@! TO.P,P1,37*
G04 #@! TO.N,/GPIO26*
X254090000Y-122730000D03*
G04 #@! TO.P,P1,38*
G04 #@! TO.N,/GPIO20(SPI1_MOSI)*
X254090000Y-117270000D03*
G04 #@! TO.P,P1,39*
G04 #@! TO.N,GND*
X256630000Y-122730000D03*
G04 #@! TO.P,P1,40*
G04 #@! TO.N,/GPIO21(SPI1_SCK)*
X256630000Y-117270000D03*
G04 #@! TD*
D11*
G04 #@! TO.P,J3,*
G04 #@! TO.N,*
X226800000Y-144550000D03*
X238200000Y-144550000D03*
D12*
G04 #@! TO.P,J3,3*
G04 #@! TO.N,GND*
X230000000Y-137750000D03*
G04 #@! TO.P,J3,1*
G04 #@! TO.N,+3V3*
X235000000Y-137750000D03*
G04 #@! TO.P,J3,2*
G04 #@! TO.N,/GPIO25(GEN6)*
X232500000Y-137750000D03*
G04 #@! TD*
D13*
G04 #@! TO.P,J6,*
G04 #@! TO.N,*
X201950000Y-125300000D03*
X201950000Y-136700000D03*
D14*
G04 #@! TO.P,J6,3*
G04 #@! TO.N,GND*
X208750000Y-128500000D03*
G04 #@! TO.P,J6,1*
G04 #@! TO.N,/GPIO23(GEN4)*
X208750000Y-133500000D03*
G04 #@! TO.P,J6,2*
G04 #@! TO.N,+5V*
X208750000Y-131000000D03*
G04 #@! TD*
D13*
G04 #@! TO.P,J5,*
G04 #@! TO.N,*
X263050000Y-136700000D03*
X263050000Y-125300000D03*
D14*
G04 #@! TO.P,J5,3*
G04 #@! TO.N,GND*
X256250000Y-133500000D03*
G04 #@! TO.P,J5,1*
G04 #@! TO.N,+3V3*
X256250000Y-128500000D03*
G04 #@! TO.P,J5,2*
G04 #@! TO.N,/GPIO26*
X256250000Y-131000000D03*
G04 #@! TD*
D12*
G04 #@! TO.P,J2,1*
G04 #@! TO.N,+3V3*
X252250000Y-137750000D03*
G04 #@! TO.P,J2,2*
G04 #@! TO.N,/GPIO3(SCL1)*
X249750000Y-137750000D03*
G04 #@! TO.P,J2,3*
G04 #@! TO.N,/GPIO2(SDA1)*
X247250000Y-137750000D03*
G04 #@! TO.P,J2,4*
G04 #@! TO.N,GND*
X244750000Y-137750000D03*
D11*
G04 #@! TO.P,J2,5*
G04 #@! TO.N,N/C*
X241550000Y-144550000D03*
G04 #@! TO.P,J2,6*
X255450000Y-144550000D03*
G04 #@! TD*
G04 #@! TO.P,J4,6*
G04 #@! TO.N,N/C*
X223450000Y-144550000D03*
G04 #@! TO.P,J4,5*
X209550000Y-144550000D03*
D12*
G04 #@! TO.P,J4,4*
G04 #@! TO.N,GND*
X212750000Y-137750000D03*
G04 #@! TO.P,J4,3*
G04 #@! TO.N,/GPIO15(RXD0)*
X215250000Y-137750000D03*
G04 #@! TO.P,J4,2*
G04 #@! TO.N,/GPIO14(TXD0)*
X217750000Y-137750000D03*
G04 #@! TO.P,J4,1*
G04 #@! TO.N,+3V3*
X220250000Y-137750000D03*
G04 #@! TD*
D15*
G04 #@! TO.N,Net-(D1-Pad1)*
G04 #@! TO.C,R8*
G36*
X214463691Y-128431053D02*
X214484926Y-128434203D01*
X214505750Y-128439419D01*
X214525962Y-128446651D01*
X214545368Y-128455830D01*
X214563781Y-128466866D01*
X214581024Y-128479654D01*
X214596930Y-128494070D01*
X214611346Y-128509976D01*
X214624134Y-128527219D01*
X214635170Y-128545632D01*
X214644349Y-128565038D01*
X214651581Y-128585250D01*
X214656797Y-128606074D01*
X214659947Y-128627309D01*
X214661000Y-128648750D01*
X214661000Y-129161250D01*
X214659947Y-129182691D01*
X214656797Y-129203926D01*
X214651581Y-129224750D01*
X214644349Y-129244962D01*
X214635170Y-129264368D01*
X214624134Y-129282781D01*
X214611346Y-129300024D01*
X214596930Y-129315930D01*
X214581024Y-129330346D01*
X214563781Y-129343134D01*
X214545368Y-129354170D01*
X214525962Y-129363349D01*
X214505750Y-129370581D01*
X214484926Y-129375797D01*
X214463691Y-129378947D01*
X214442250Y-129380000D01*
X214004750Y-129380000D01*
X213983309Y-129378947D01*
X213962074Y-129375797D01*
X213941250Y-129370581D01*
X213921038Y-129363349D01*
X213901632Y-129354170D01*
X213883219Y-129343134D01*
X213865976Y-129330346D01*
X213850070Y-129315930D01*
X213835654Y-129300024D01*
X213822866Y-129282781D01*
X213811830Y-129264368D01*
X213802651Y-129244962D01*
X213795419Y-129224750D01*
X213790203Y-129203926D01*
X213787053Y-129182691D01*
X213786000Y-129161250D01*
X213786000Y-128648750D01*
X213787053Y-128627309D01*
X213790203Y-128606074D01*
X213795419Y-128585250D01*
X213802651Y-128565038D01*
X213811830Y-128545632D01*
X213822866Y-128527219D01*
X213835654Y-128509976D01*
X213850070Y-128494070D01*
X213865976Y-128479654D01*
X213883219Y-128466866D01*
X213901632Y-128455830D01*
X213921038Y-128446651D01*
X213941250Y-128439419D01*
X213962074Y-128434203D01*
X213983309Y-128431053D01*
X214004750Y-128430000D01*
X214442250Y-128430000D01*
X214463691Y-128431053D01*
X214463691Y-128431053D01*
G37*
D16*
G04 #@! TD*
G04 #@! TO.P,R8,2*
G04 #@! TO.N,Net-(D1-Pad1)*
X214223500Y-128905000D03*
D15*
G04 #@! TO.N,+3V3*
G04 #@! TO.C,R8*
G36*
X216038691Y-128431053D02*
X216059926Y-128434203D01*
X216080750Y-128439419D01*
X216100962Y-128446651D01*
X216120368Y-128455830D01*
X216138781Y-128466866D01*
X216156024Y-128479654D01*
X216171930Y-128494070D01*
X216186346Y-128509976D01*
X216199134Y-128527219D01*
X216210170Y-128545632D01*
X216219349Y-128565038D01*
X216226581Y-128585250D01*
X216231797Y-128606074D01*
X216234947Y-128627309D01*
X216236000Y-128648750D01*
X216236000Y-129161250D01*
X216234947Y-129182691D01*
X216231797Y-129203926D01*
X216226581Y-129224750D01*
X216219349Y-129244962D01*
X216210170Y-129264368D01*
X216199134Y-129282781D01*
X216186346Y-129300024D01*
X216171930Y-129315930D01*
X216156024Y-129330346D01*
X216138781Y-129343134D01*
X216120368Y-129354170D01*
X216100962Y-129363349D01*
X216080750Y-129370581D01*
X216059926Y-129375797D01*
X216038691Y-129378947D01*
X216017250Y-129380000D01*
X215579750Y-129380000D01*
X215558309Y-129378947D01*
X215537074Y-129375797D01*
X215516250Y-129370581D01*
X215496038Y-129363349D01*
X215476632Y-129354170D01*
X215458219Y-129343134D01*
X215440976Y-129330346D01*
X215425070Y-129315930D01*
X215410654Y-129300024D01*
X215397866Y-129282781D01*
X215386830Y-129264368D01*
X215377651Y-129244962D01*
X215370419Y-129224750D01*
X215365203Y-129203926D01*
X215362053Y-129182691D01*
X215361000Y-129161250D01*
X215361000Y-128648750D01*
X215362053Y-128627309D01*
X215365203Y-128606074D01*
X215370419Y-128585250D01*
X215377651Y-128565038D01*
X215386830Y-128545632D01*
X215397866Y-128527219D01*
X215410654Y-128509976D01*
X215425070Y-128494070D01*
X215440976Y-128479654D01*
X215458219Y-128466866D01*
X215476632Y-128455830D01*
X215496038Y-128446651D01*
X215516250Y-128439419D01*
X215537074Y-128434203D01*
X215558309Y-128431053D01*
X215579750Y-128430000D01*
X216017250Y-128430000D01*
X216038691Y-128431053D01*
X216038691Y-128431053D01*
G37*
D16*
G04 #@! TD*
G04 #@! TO.P,R8,1*
G04 #@! TO.N,+3V3*
X215798500Y-128905000D03*
D15*
G04 #@! TO.N,Net-(D1-Pad3)*
G04 #@! TO.C,R7*
G36*
X214463691Y-126653053D02*
X214484926Y-126656203D01*
X214505750Y-126661419D01*
X214525962Y-126668651D01*
X214545368Y-126677830D01*
X214563781Y-126688866D01*
X214581024Y-126701654D01*
X214596930Y-126716070D01*
X214611346Y-126731976D01*
X214624134Y-126749219D01*
X214635170Y-126767632D01*
X214644349Y-126787038D01*
X214651581Y-126807250D01*
X214656797Y-126828074D01*
X214659947Y-126849309D01*
X214661000Y-126870750D01*
X214661000Y-127383250D01*
X214659947Y-127404691D01*
X214656797Y-127425926D01*
X214651581Y-127446750D01*
X214644349Y-127466962D01*
X214635170Y-127486368D01*
X214624134Y-127504781D01*
X214611346Y-127522024D01*
X214596930Y-127537930D01*
X214581024Y-127552346D01*
X214563781Y-127565134D01*
X214545368Y-127576170D01*
X214525962Y-127585349D01*
X214505750Y-127592581D01*
X214484926Y-127597797D01*
X214463691Y-127600947D01*
X214442250Y-127602000D01*
X214004750Y-127602000D01*
X213983309Y-127600947D01*
X213962074Y-127597797D01*
X213941250Y-127592581D01*
X213921038Y-127585349D01*
X213901632Y-127576170D01*
X213883219Y-127565134D01*
X213865976Y-127552346D01*
X213850070Y-127537930D01*
X213835654Y-127522024D01*
X213822866Y-127504781D01*
X213811830Y-127486368D01*
X213802651Y-127466962D01*
X213795419Y-127446750D01*
X213790203Y-127425926D01*
X213787053Y-127404691D01*
X213786000Y-127383250D01*
X213786000Y-126870750D01*
X213787053Y-126849309D01*
X213790203Y-126828074D01*
X213795419Y-126807250D01*
X213802651Y-126787038D01*
X213811830Y-126767632D01*
X213822866Y-126749219D01*
X213835654Y-126731976D01*
X213850070Y-126716070D01*
X213865976Y-126701654D01*
X213883219Y-126688866D01*
X213901632Y-126677830D01*
X213921038Y-126668651D01*
X213941250Y-126661419D01*
X213962074Y-126656203D01*
X213983309Y-126653053D01*
X214004750Y-126652000D01*
X214442250Y-126652000D01*
X214463691Y-126653053D01*
X214463691Y-126653053D01*
G37*
D16*
G04 #@! TD*
G04 #@! TO.P,R7,1*
G04 #@! TO.N,Net-(D1-Pad3)*
X214223500Y-127127000D03*
D15*
G04 #@! TO.N,+3V3*
G04 #@! TO.C,R7*
G36*
X216038691Y-126653053D02*
X216059926Y-126656203D01*
X216080750Y-126661419D01*
X216100962Y-126668651D01*
X216120368Y-126677830D01*
X216138781Y-126688866D01*
X216156024Y-126701654D01*
X216171930Y-126716070D01*
X216186346Y-126731976D01*
X216199134Y-126749219D01*
X216210170Y-126767632D01*
X216219349Y-126787038D01*
X216226581Y-126807250D01*
X216231797Y-126828074D01*
X216234947Y-126849309D01*
X216236000Y-126870750D01*
X216236000Y-127383250D01*
X216234947Y-127404691D01*
X216231797Y-127425926D01*
X216226581Y-127446750D01*
X216219349Y-127466962D01*
X216210170Y-127486368D01*
X216199134Y-127504781D01*
X216186346Y-127522024D01*
X216171930Y-127537930D01*
X216156024Y-127552346D01*
X216138781Y-127565134D01*
X216120368Y-127576170D01*
X216100962Y-127585349D01*
X216080750Y-127592581D01*
X216059926Y-127597797D01*
X216038691Y-127600947D01*
X216017250Y-127602000D01*
X215579750Y-127602000D01*
X215558309Y-127600947D01*
X215537074Y-127597797D01*
X215516250Y-127592581D01*
X215496038Y-127585349D01*
X215476632Y-127576170D01*
X215458219Y-127565134D01*
X215440976Y-127552346D01*
X215425070Y-127537930D01*
X215410654Y-127522024D01*
X215397866Y-127504781D01*
X215386830Y-127486368D01*
X215377651Y-127466962D01*
X215370419Y-127446750D01*
X215365203Y-127425926D01*
X215362053Y-127404691D01*
X215361000Y-127383250D01*
X215361000Y-126870750D01*
X215362053Y-126849309D01*
X215365203Y-126828074D01*
X215370419Y-126807250D01*
X215377651Y-126787038D01*
X215386830Y-126767632D01*
X215397866Y-126749219D01*
X215410654Y-126731976D01*
X215425070Y-126716070D01*
X215440976Y-126701654D01*
X215458219Y-126688866D01*
X215476632Y-126677830D01*
X215496038Y-126668651D01*
X215516250Y-126661419D01*
X215537074Y-126656203D01*
X215558309Y-126653053D01*
X215579750Y-126652000D01*
X216017250Y-126652000D01*
X216038691Y-126653053D01*
X216038691Y-126653053D01*
G37*
D16*
G04 #@! TD*
G04 #@! TO.P,R7,2*
G04 #@! TO.N,+3V3*
X215798500Y-127127000D03*
D17*
G04 #@! TO.N,+3V3*
X236699992Y-135600000D03*
X228690000Y-122730000D03*
X228750000Y-130000000D03*
X208370000Y-122730000D03*
D18*
X222000000Y-136000000D03*
X225500000Y-131000000D03*
D17*
G04 #@! TO.N,+5V*
X210910000Y-117270000D03*
X208370000Y-117270000D03*
X206500000Y-118000000D03*
X205300000Y-131000002D03*
G04 #@! TO.N,GND*
X218500000Y-122730000D03*
X213450000Y-117270000D03*
X243930000Y-117270000D03*
X249010000Y-117270000D03*
X256630000Y-122730000D03*
X238850000Y-122730000D03*
X208500000Y-139000000D03*
X217500000Y-142000000D03*
X227500000Y-138000000D03*
X237500000Y-138000000D03*
X247500000Y-142000000D03*
X256500000Y-139000000D03*
X223610000Y-117270000D03*
X231230000Y-117270000D03*
G04 #@! TO.N,/ID_SD*
X241390000Y-122723180D03*
G04 #@! TO.N,/ID_SC*
X241390000Y-117270000D03*
G04 #@! TO.N,/GPIO5*
X243930000Y-122730000D03*
X244165311Y-131722079D03*
X213300000Y-132799998D03*
G04 #@! TO.N,/GPIO6*
X246470000Y-122730000D03*
G04 #@! TO.N,/GPIO26*
X254090000Y-122730000D03*
X251300000Y-129300000D03*
G04 #@! TO.N,/GPIO2(SDA1)*
X210910000Y-122730000D03*
X246250000Y-126250000D03*
X223600000Y-128700000D03*
X223239461Y-125246010D03*
X246100000Y-134500000D03*
G04 #@! TO.N,/GPIO3(SCL1)*
X213450000Y-122730000D03*
X240000000Y-125976000D03*
X225400000Y-127000000D03*
X224371166Y-124989917D03*
X245674462Y-133439154D03*
G04 #@! TO.N,/GPIO4(GCLK)*
X215990000Y-122730000D03*
G04 #@! TO.N,/GPIO14(TXD0)*
X215990000Y-117270000D03*
X219000000Y-134249992D03*
G04 #@! TO.N,/GPIO15(RXD0)*
X218530000Y-117270000D03*
X216450000Y-132849996D03*
X216255046Y-134824012D03*
X220270908Y-132524023D03*
G04 #@! TO.N,/GPIO17(GEN0)*
X221070000Y-122730000D03*
G04 #@! TO.N,/GPIO27(GEN2)*
X223610000Y-122730000D03*
G04 #@! TO.N,/GPIO22(GEN3)*
X226150000Y-122730000D03*
G04 #@! TO.N,/GPIO23(GEN4)*
X226150000Y-117270000D03*
X226899994Y-134000000D03*
G04 #@! TO.N,/GPIO24(GEN5)*
X228714580Y-117294580D03*
G04 #@! TO.N,/GPIO25(GEN6)*
X233770000Y-117270000D03*
X229250000Y-134000000D03*
X228300000Y-125100000D03*
G04 #@! TO.N,/GPIO18(GEN1)(PWM0)*
X221070000Y-117270000D03*
X238900000Y-133950000D03*
X222659022Y-133356980D03*
G04 #@! TO.N,/GPIO10(SPI0_MOSI)*
X231230000Y-122730000D03*
G04 #@! TO.N,/GPIO9(SPI0_MISO)*
X233770000Y-122730000D03*
G04 #@! TO.N,/GPIO11(SPI0_SCK)*
X236310000Y-122730000D03*
G04 #@! TO.N,/GPIO8(SPI0_CE_N)*
X236310000Y-117270000D03*
G04 #@! TO.N,/GPIO7(SPI1_CE_N)*
X238850000Y-117270000D03*
G04 #@! TO.N,/GPIO12(PWM0)*
X246470000Y-117270000D03*
G04 #@! TO.N,/GPIO13(PWM1)*
X249010000Y-122730000D03*
X238300000Y-125000000D03*
X235000000Y-129000000D03*
X237900000Y-128100000D03*
G04 #@! TO.N,/GPIO19(SPI1_MISO)*
X251550000Y-122730000D03*
G04 #@! TO.N,/GPIO16*
X251550000Y-117270000D03*
X250250000Y-127499990D03*
X215350000Y-130750002D03*
G04 #@! TO.N,/GPIO20(SPI1_MOSI)*
X254090000Y-117270000D03*
G04 #@! TO.N,/GPIO21(SPI1_SCK)*
X256630000Y-117270000D03*
G04 #@! TO.N,Net-(D1-Pad1)*
X213400000Y-130400000D03*
G04 #@! TO.N,Net-(D1-Pad3)*
X212375076Y-125324924D03*
G04 #@! TD*
D19*
G04 #@! TO.N,+3V3*
X220250000Y-137750000D02*
X220250000Y-136011529D01*
X235000000Y-137750000D02*
X236158000Y-137750000D01*
X236699992Y-137208008D02*
X236699992Y-135600000D01*
X236158000Y-137750000D02*
X236699992Y-137208008D01*
X208370000Y-122730000D02*
X208370000Y-122730000D01*
X215798500Y-127981510D02*
X215800000Y-127983010D01*
X215798500Y-127127000D02*
X215798500Y-127981510D01*
X215798500Y-127984510D02*
X215800000Y-127983010D01*
X215798500Y-128905000D02*
X215798500Y-127984510D01*
X211867286Y-127983010D02*
X215800000Y-127983010D01*
X208370000Y-122730000D02*
X208370000Y-124485724D01*
X208370000Y-124485724D02*
X211867286Y-127983010D01*
X229468420Y-130000000D02*
X228750000Y-130000000D01*
X252250000Y-134992000D02*
X247258000Y-130000000D01*
X252250000Y-137750000D02*
X252250000Y-134992000D01*
X247258000Y-130000000D02*
X229468420Y-130000000D01*
X237523279Y-127210999D02*
X236623294Y-128110984D01*
X230639016Y-128110984D02*
X229257999Y-129492001D01*
X251942276Y-127342000D02*
X250784276Y-128500000D01*
X238326721Y-127210999D02*
X237523279Y-127210999D01*
X253492000Y-127342000D02*
X251942276Y-127342000D01*
X229257999Y-129492001D02*
X228750000Y-130000000D01*
X250784276Y-128500000D02*
X239615722Y-128500000D01*
X256250000Y-128500000D02*
X254650000Y-128500000D01*
X254650000Y-128500000D02*
X253492000Y-127342000D01*
X239615722Y-128500000D02*
X238326721Y-127210999D01*
X236623294Y-128110984D02*
X230639016Y-128110984D01*
X228690000Y-123010802D02*
X228690000Y-122730000D01*
X226800802Y-124900000D02*
X228690000Y-123010802D01*
X225776805Y-124900000D02*
X226800802Y-124900000D01*
X222693795Y-127983010D02*
X225776805Y-124900000D01*
X215800000Y-127983010D02*
X222693795Y-127983010D01*
X220250000Y-137750000D02*
X222000000Y-136000000D01*
X227750000Y-131000000D02*
X228750000Y-130000000D01*
X225500000Y-131000000D02*
X227750000Y-131000000D01*
D20*
G04 #@! TO.N,+5V*
X210735000Y-117270000D02*
X210910000Y-117095000D01*
X208370000Y-117095000D02*
X208545000Y-117270000D01*
D21*
X208545000Y-117270000D02*
X210735000Y-117270000D01*
X208370000Y-117095000D02*
X208370000Y-117270000D01*
X207230000Y-117270000D02*
X206500000Y-118000000D01*
X208370000Y-117270000D02*
X207230000Y-117270000D01*
X208750000Y-131000000D02*
X205300002Y-131000000D01*
X205300002Y-131000000D02*
X205300000Y-131000002D01*
D20*
G04 #@! TO.N,GND*
X223610000Y-117095000D02*
X223955598Y-117095000D01*
D22*
G04 #@! TO.N,/GPIO5*
X214337985Y-131762013D02*
X213807999Y-132291999D01*
X220705695Y-131722079D02*
X220665761Y-131762013D01*
X244165311Y-131722079D02*
X220705695Y-131722079D01*
X220665761Y-131762013D02*
X214337985Y-131762013D01*
X213807999Y-132291999D02*
X213300000Y-132799998D01*
G04 #@! TO.N,/GPIO26*
X251807999Y-129807999D02*
X251300000Y-129300000D01*
X253000000Y-131000000D02*
X251807999Y-129807999D01*
X256250000Y-131000000D02*
X253000000Y-131000000D01*
G04 #@! TO.N,/GPIO2(SDA1)*
X239130987Y-126757999D02*
X238694964Y-126321978D01*
X246250000Y-126250000D02*
X245742001Y-126757999D01*
X226918420Y-127000000D02*
X225218420Y-128700000D01*
X245742001Y-126757999D02*
X239130987Y-126757999D01*
X238694964Y-126321978D02*
X237105032Y-126321980D01*
X237105032Y-126321980D02*
X236427012Y-127000000D01*
X224318420Y-128700000D02*
X223600000Y-128700000D01*
X225218420Y-128700000D02*
X224318420Y-128700000D01*
X236427012Y-127000000D02*
X226918420Y-127000000D01*
X213373808Y-125246010D02*
X222521041Y-125246010D01*
X211032798Y-122905000D02*
X213373808Y-125246010D01*
X210910000Y-122905000D02*
X211032798Y-122905000D01*
X222521041Y-125246010D02*
X223239461Y-125246010D01*
X246100000Y-135000000D02*
X246100000Y-134500000D01*
X247250000Y-136150000D02*
X246100000Y-135000000D01*
X247250000Y-137750000D02*
X247250000Y-136150000D01*
G04 #@! TO.N,/GPIO3(SCL1)*
X236596181Y-126292001D02*
X226107999Y-126292001D01*
X226107999Y-126292001D02*
X225907999Y-126492001D01*
X239246551Y-125940971D02*
X236947211Y-125940971D01*
X239281580Y-125976000D02*
X239246551Y-125940971D01*
X236947211Y-125940971D02*
X236596181Y-126292001D01*
X225907999Y-126492001D02*
X225400000Y-127000000D01*
X240000000Y-125976000D02*
X239281580Y-125976000D01*
X213450000Y-122730000D02*
X213450000Y-123595000D01*
X223865250Y-124484001D02*
X224371166Y-124989917D01*
X214339000Y-124484000D02*
X223865250Y-124484001D01*
X213450000Y-123595000D02*
X214339000Y-124484000D01*
X249750000Y-136150000D02*
X247039154Y-133439154D01*
X246392882Y-133439154D02*
X245674462Y-133439154D01*
X247039154Y-133439154D02*
X246392882Y-133439154D01*
X249750000Y-137750000D02*
X249750000Y-136150000D01*
G04 #@! TO.N,/GPIO14(TXD0)*
X219000000Y-134900000D02*
X219000000Y-134249992D01*
X217750000Y-136150000D02*
X219000000Y-134900000D01*
X217750000Y-137750000D02*
X217750000Y-136150000D01*
G04 #@! TO.N,/GPIO15(RXD0)*
X216255046Y-135144954D02*
X216255046Y-134824012D01*
X215250000Y-136150000D02*
X216255046Y-135144954D01*
X215250000Y-137750000D02*
X215250000Y-136150000D01*
X217494393Y-132524023D02*
X220270908Y-132524023D01*
X217168420Y-132849996D02*
X217494393Y-132524023D01*
X216450000Y-132849996D02*
X217168420Y-132849996D01*
G04 #@! TO.N,/GPIO17(GEN0)*
X221074260Y-122905000D02*
X221070000Y-122905000D01*
G04 #@! TO.N,/GPIO23(GEN4)*
X212212002Y-134062002D02*
X217560236Y-134062002D01*
X218481866Y-133140372D02*
X219759505Y-133140372D01*
X226391995Y-134507999D02*
X226899994Y-134000000D01*
X221127132Y-134507999D02*
X226391995Y-134507999D01*
X208750000Y-133500000D02*
X211650000Y-133500000D01*
X211650000Y-133500000D02*
X212212002Y-134062002D01*
X217560236Y-134062002D02*
X218481866Y-133140372D01*
X219759505Y-133140372D02*
X221127132Y-134507999D01*
G04 #@! TO.N,/GPIO25(GEN6)*
X230350000Y-134000000D02*
X229250000Y-134000000D01*
X232500000Y-137750000D02*
X232500000Y-136150000D01*
X232500000Y-136150000D02*
X230350000Y-134000000D01*
X232500000Y-118365000D02*
X232500000Y-124000000D01*
X233770000Y-117095000D02*
X232500000Y-118365000D01*
X229018420Y-125100000D02*
X228300000Y-125100000D01*
X232500000Y-124000000D02*
X231400000Y-125100000D01*
X231400000Y-125100000D02*
X229018420Y-125100000D01*
G04 #@! TO.N,/GPIO18(GEN1)(PWM0)*
X238900000Y-133950000D02*
X237798981Y-132848981D01*
X223167021Y-132848981D02*
X222659022Y-133356980D01*
X237798981Y-132848981D02*
X223167021Y-132848981D01*
G04 #@! TO.N,/GPIO13(PWM1)*
X247605000Y-125000000D02*
X238300000Y-125000000D01*
X249010000Y-123595000D02*
X247605000Y-125000000D01*
X249010000Y-122730000D02*
X249010000Y-123595000D01*
X237392001Y-128607999D02*
X237900000Y-128100000D01*
X235000000Y-129000000D02*
X237000000Y-129000000D01*
X237000000Y-129000000D02*
X237392001Y-128607999D01*
G04 #@! TO.N,/GPIO16*
X225807771Y-129800000D02*
X216300002Y-129800000D01*
X238537146Y-126702988D02*
X237262853Y-126702989D01*
X237262853Y-126702989D02*
X236465852Y-127499990D01*
X250250000Y-127499990D02*
X239334148Y-127499990D01*
X236465852Y-127499990D02*
X228107781Y-127499990D01*
X228107781Y-127499990D02*
X225807771Y-129800000D01*
X215857999Y-130242003D02*
X215350000Y-130750002D01*
X239334148Y-127499990D02*
X238537146Y-126702988D01*
X216300002Y-129800000D02*
X215857999Y-130242003D01*
G04 #@! TO.N,Net-(D1-Pad1)*
X213400000Y-129728500D02*
X213400000Y-130400000D01*
X214223500Y-128905000D02*
X213400000Y-129728500D01*
G04 #@! TO.N,Net-(D1-Pad3)*
X212421424Y-125324924D02*
X212375076Y-125324924D01*
X214223500Y-127127000D02*
X212421424Y-125324924D01*
G04 #@! TD*
G04 #@! TO.N,GND*
G36*
X206784024Y-116193318D02*
X206405943Y-116445943D01*
X206342174Y-116541380D01*
X205852545Y-117031010D01*
X205852542Y-117031011D01*
X205531011Y-117352542D01*
X205487082Y-117458595D01*
X205423319Y-117554024D01*
X205400928Y-117666592D01*
X205357000Y-117772643D01*
X205357000Y-117887429D01*
X205334608Y-118000000D01*
X205357000Y-118112571D01*
X205357000Y-118227357D01*
X205400928Y-118333408D01*
X205423319Y-118445976D01*
X205487082Y-118541405D01*
X205531011Y-118647458D01*
X205612181Y-118728628D01*
X205675944Y-118824056D01*
X205771372Y-118887819D01*
X205852542Y-118968989D01*
X205958595Y-119012918D01*
X206054024Y-119076681D01*
X206166592Y-119099072D01*
X206272643Y-119143000D01*
X206387429Y-119143000D01*
X206500000Y-119165392D01*
X206612571Y-119143000D01*
X206727357Y-119143000D01*
X206833408Y-119099072D01*
X206945976Y-119076681D01*
X207041405Y-119012918D01*
X207128687Y-118976764D01*
X207136843Y-119017765D01*
X207277191Y-119227809D01*
X207487235Y-119368157D01*
X207735000Y-119417440D01*
X209005000Y-119417440D01*
X209252765Y-119368157D01*
X209462809Y-119227809D01*
X209603157Y-119017765D01*
X209640000Y-118832541D01*
X209676843Y-119017765D01*
X209817191Y-119227809D01*
X210027235Y-119368157D01*
X210275000Y-119417440D01*
X211545000Y-119417440D01*
X211792765Y-119368157D01*
X212002809Y-119227809D01*
X212143157Y-119017765D01*
X212180000Y-118832541D01*
X212180000Y-118896310D01*
X212276673Y-119129699D01*
X212455302Y-119308327D01*
X212688691Y-119405000D01*
X213164250Y-119405000D01*
X213323000Y-119246250D01*
X213323000Y-117397000D01*
X213303000Y-117397000D01*
X213303000Y-117143000D01*
X213323000Y-117143000D01*
X213323000Y-117123000D01*
X213577000Y-117123000D01*
X213577000Y-117143000D01*
X213597000Y-117143000D01*
X213597000Y-117397000D01*
X213577000Y-117397000D01*
X213577000Y-119246250D01*
X213735750Y-119405000D01*
X214211309Y-119405000D01*
X214444698Y-119308327D01*
X214623327Y-119129699D01*
X214720000Y-118896310D01*
X214720000Y-118832541D01*
X214756843Y-119017765D01*
X214897191Y-119227809D01*
X215107235Y-119368157D01*
X215355000Y-119417440D01*
X216625000Y-119417440D01*
X216872765Y-119368157D01*
X217082809Y-119227809D01*
X217223157Y-119017765D01*
X217260000Y-118832541D01*
X217296843Y-119017765D01*
X217437191Y-119227809D01*
X217647235Y-119368157D01*
X217895000Y-119417440D01*
X219165000Y-119417440D01*
X219412765Y-119368157D01*
X219622809Y-119227809D01*
X219763157Y-119017765D01*
X219800000Y-118832541D01*
X219836843Y-119017765D01*
X219977191Y-119227809D01*
X220187235Y-119368157D01*
X220435000Y-119417440D01*
X221705000Y-119417440D01*
X221952765Y-119368157D01*
X222162809Y-119227809D01*
X222303157Y-119017765D01*
X222340000Y-118832541D01*
X222340000Y-118896310D01*
X222436673Y-119129699D01*
X222615302Y-119308327D01*
X222848691Y-119405000D01*
X223324250Y-119405000D01*
X223483000Y-119246250D01*
X223483000Y-117397000D01*
X223463000Y-117397000D01*
X223463000Y-117143000D01*
X223483000Y-117143000D01*
X223483000Y-117123000D01*
X223737000Y-117123000D01*
X223737000Y-117143000D01*
X223757000Y-117143000D01*
X223757000Y-117397000D01*
X223737000Y-117397000D01*
X223737000Y-119246250D01*
X223895750Y-119405000D01*
X224371309Y-119405000D01*
X224604698Y-119308327D01*
X224783327Y-119129699D01*
X224880000Y-118896310D01*
X224880000Y-118832541D01*
X224916843Y-119017765D01*
X225057191Y-119227809D01*
X225267235Y-119368157D01*
X225515000Y-119417440D01*
X226785000Y-119417440D01*
X227032765Y-119368157D01*
X227242809Y-119227809D01*
X227383157Y-119017765D01*
X227420000Y-118832541D01*
X227456843Y-119017765D01*
X227597191Y-119227809D01*
X227807235Y-119368157D01*
X228055000Y-119417440D01*
X229325000Y-119417440D01*
X229572765Y-119368157D01*
X229782809Y-119227809D01*
X229923157Y-119017765D01*
X229960000Y-118832541D01*
X229960000Y-118896310D01*
X230056673Y-119129699D01*
X230235302Y-119308327D01*
X230468691Y-119405000D01*
X230944250Y-119405000D01*
X231103000Y-119246250D01*
X231103000Y-117397000D01*
X231083000Y-117397000D01*
X231083000Y-117143000D01*
X231103000Y-117143000D01*
X231103000Y-117123000D01*
X231357000Y-117123000D01*
X231357000Y-117143000D01*
X231377000Y-117143000D01*
X231377000Y-117397000D01*
X231357000Y-117397000D01*
X231357000Y-119246250D01*
X231515750Y-119405000D01*
X231738000Y-119405000D01*
X231738000Y-120582560D01*
X230595000Y-120582560D01*
X230347235Y-120631843D01*
X230137191Y-120772191D01*
X229996843Y-120982235D01*
X229960000Y-121167459D01*
X229923157Y-120982235D01*
X229782809Y-120772191D01*
X229572765Y-120631843D01*
X229325000Y-120582560D01*
X228055000Y-120582560D01*
X227807235Y-120631843D01*
X227597191Y-120772191D01*
X227456843Y-120982235D01*
X227420000Y-121167459D01*
X227383157Y-120982235D01*
X227242809Y-120772191D01*
X227032765Y-120631843D01*
X226785000Y-120582560D01*
X225515000Y-120582560D01*
X225267235Y-120631843D01*
X225057191Y-120772191D01*
X224916843Y-120982235D01*
X224880000Y-121167459D01*
X224843157Y-120982235D01*
X224702809Y-120772191D01*
X224492765Y-120631843D01*
X224245000Y-120582560D01*
X222975000Y-120582560D01*
X222727235Y-120631843D01*
X222517191Y-120772191D01*
X222376843Y-120982235D01*
X222340000Y-121167459D01*
X222303157Y-120982235D01*
X222162809Y-120772191D01*
X221952765Y-120631843D01*
X221705000Y-120582560D01*
X220435000Y-120582560D01*
X220187235Y-120631843D01*
X219977191Y-120772191D01*
X219836843Y-120982235D01*
X219800000Y-121167459D01*
X219800000Y-121103690D01*
X219703327Y-120870301D01*
X219524698Y-120691673D01*
X219291309Y-120595000D01*
X218815750Y-120595000D01*
X218657000Y-120753750D01*
X218657000Y-122603000D01*
X218677000Y-122603000D01*
X218677000Y-122857000D01*
X218657000Y-122857000D01*
X218657000Y-122877000D01*
X218403000Y-122877000D01*
X218403000Y-122857000D01*
X218383000Y-122857000D01*
X218383000Y-122603000D01*
X218403000Y-122603000D01*
X218403000Y-120753750D01*
X218244250Y-120595000D01*
X217768691Y-120595000D01*
X217535302Y-120691673D01*
X217356673Y-120870301D01*
X217260000Y-121103690D01*
X217260000Y-121167459D01*
X217223157Y-120982235D01*
X217082809Y-120772191D01*
X216872765Y-120631843D01*
X216625000Y-120582560D01*
X215355000Y-120582560D01*
X215107235Y-120631843D01*
X214897191Y-120772191D01*
X214756843Y-120982235D01*
X214720000Y-121167459D01*
X214683157Y-120982235D01*
X214542809Y-120772191D01*
X214332765Y-120631843D01*
X214085000Y-120582560D01*
X212815000Y-120582560D01*
X212567235Y-120631843D01*
X212357191Y-120772191D01*
X212216843Y-120982235D01*
X212180000Y-121167459D01*
X212143157Y-120982235D01*
X212002809Y-120772191D01*
X211792765Y-120631843D01*
X211545000Y-120582560D01*
X210275000Y-120582560D01*
X210027235Y-120631843D01*
X209817191Y-120772191D01*
X209676843Y-120982235D01*
X209640000Y-121167459D01*
X209603157Y-120982235D01*
X209462809Y-120772191D01*
X209252765Y-120631843D01*
X209005000Y-120582560D01*
X207735000Y-120582560D01*
X207487235Y-120631843D01*
X207277191Y-120772191D01*
X207136843Y-120982235D01*
X207087560Y-121230000D01*
X207087560Y-124230000D01*
X207136843Y-124477765D01*
X207277191Y-124687809D01*
X207487235Y-124828157D01*
X207536114Y-124837879D01*
X207610157Y-124948693D01*
X207729068Y-125126657D01*
X207803294Y-125176253D01*
X209842040Y-127215000D01*
X209035750Y-127215000D01*
X208877000Y-127373750D01*
X208877000Y-128373000D01*
X208897000Y-128373000D01*
X208897000Y-128627000D01*
X208877000Y-128627000D01*
X208877000Y-128647000D01*
X208623000Y-128647000D01*
X208623000Y-128627000D01*
X206023750Y-128627000D01*
X205865000Y-128785750D01*
X205865000Y-129276309D01*
X205961673Y-129509698D01*
X206140301Y-129688327D01*
X206280209Y-129746279D01*
X206252235Y-129751843D01*
X206094858Y-129857000D01*
X205412573Y-129857000D01*
X205300002Y-129834608D01*
X205187431Y-129857000D01*
X205187430Y-129857000D01*
X205187420Y-129857002D01*
X205072643Y-129857002D01*
X204966603Y-129900925D01*
X204854026Y-129923318D01*
X204758588Y-129987087D01*
X204652542Y-130031013D01*
X204571378Y-130112177D01*
X204475945Y-130175943D01*
X204412179Y-130271376D01*
X204331011Y-130352544D01*
X204287083Y-130458595D01*
X204223320Y-130554024D01*
X204223319Y-130554026D01*
X204200928Y-130666594D01*
X204157000Y-130772645D01*
X204157000Y-130887431D01*
X204134608Y-131000002D01*
X204157000Y-131112573D01*
X204157000Y-131227359D01*
X204200928Y-131333410D01*
X204223319Y-131445978D01*
X204287082Y-131541407D01*
X204331011Y-131647460D01*
X204412181Y-131728630D01*
X204475944Y-131824058D01*
X204571372Y-131887821D01*
X204652542Y-131968991D01*
X204758595Y-132012920D01*
X204854024Y-132076683D01*
X204966592Y-132099074D01*
X205072643Y-132143002D01*
X205187429Y-132143002D01*
X205300000Y-132165394D01*
X205412571Y-132143002D01*
X205527357Y-132143002D01*
X205527362Y-132143000D01*
X206094858Y-132143000D01*
X206252235Y-132248157D01*
X206261500Y-132250000D01*
X206252235Y-132251843D01*
X206042191Y-132392191D01*
X205901843Y-132602235D01*
X205852560Y-132850000D01*
X205852560Y-134150000D01*
X205901843Y-134397765D01*
X206042191Y-134607809D01*
X206252235Y-134748157D01*
X206500000Y-134797440D01*
X211000000Y-134797440D01*
X211247765Y-134748157D01*
X211457809Y-134607809D01*
X211546878Y-134474509D01*
X211620120Y-134547751D01*
X211662631Y-134611373D01*
X211726253Y-134653884D01*
X211777801Y-134688327D01*
X211914685Y-134779790D01*
X212136954Y-134824002D01*
X212136955Y-134824002D01*
X212212002Y-134838930D01*
X212287049Y-134824002D01*
X215112046Y-134824002D01*
X215112046Y-134852560D01*
X214600000Y-134852560D01*
X214352235Y-134901843D01*
X214142191Y-135042191D01*
X214001843Y-135252235D01*
X213996279Y-135280209D01*
X213938327Y-135140301D01*
X213759698Y-134961673D01*
X213526309Y-134865000D01*
X213035750Y-134865000D01*
X212877000Y-135023750D01*
X212877000Y-137623000D01*
X212897000Y-137623000D01*
X212897000Y-137877000D01*
X212877000Y-137877000D01*
X212877000Y-140476250D01*
X213035750Y-140635000D01*
X213526309Y-140635000D01*
X213759698Y-140538327D01*
X213938327Y-140359699D01*
X213996279Y-140219791D01*
X214001843Y-140247765D01*
X214142191Y-140457809D01*
X214352235Y-140598157D01*
X214600000Y-140647440D01*
X215900000Y-140647440D01*
X216147765Y-140598157D01*
X216357809Y-140457809D01*
X216498157Y-140247765D01*
X216500000Y-140238500D01*
X216501843Y-140247765D01*
X216642191Y-140457809D01*
X216852235Y-140598157D01*
X217100000Y-140647440D01*
X218400000Y-140647440D01*
X218647765Y-140598157D01*
X218857809Y-140457809D01*
X218998157Y-140247765D01*
X219000000Y-140238500D01*
X219001843Y-140247765D01*
X219142191Y-140457809D01*
X219352235Y-140598157D01*
X219600000Y-140647440D01*
X220900000Y-140647440D01*
X221147765Y-140598157D01*
X221357809Y-140457809D01*
X221498157Y-140247765D01*
X221547440Y-140000000D01*
X221547440Y-138035750D01*
X228715000Y-138035750D01*
X228715000Y-140126310D01*
X228811673Y-140359699D01*
X228990302Y-140538327D01*
X229223691Y-140635000D01*
X229714250Y-140635000D01*
X229873000Y-140476250D01*
X229873000Y-137877000D01*
X228873750Y-137877000D01*
X228715000Y-138035750D01*
X221547440Y-138035750D01*
X221547440Y-137709795D01*
X222172236Y-137085000D01*
X222215820Y-137085000D01*
X222614603Y-136919818D01*
X222919818Y-136614603D01*
X223085000Y-136215820D01*
X223085000Y-135784180D01*
X222919818Y-135385397D01*
X222804420Y-135269999D01*
X226316952Y-135269999D01*
X226391995Y-135284926D01*
X226467038Y-135269999D01*
X226467043Y-135269999D01*
X226689312Y-135225787D01*
X226813212Y-135143000D01*
X227127351Y-135143000D01*
X227547452Y-134968989D01*
X227868983Y-134647458D01*
X228042994Y-134227357D01*
X228042994Y-133772643D01*
X227976032Y-133610981D01*
X228173962Y-133610981D01*
X228107000Y-133772643D01*
X228107000Y-134227357D01*
X228281011Y-134647458D01*
X228602542Y-134968989D01*
X228871556Y-135080418D01*
X228811673Y-135140301D01*
X228715000Y-135373690D01*
X228715000Y-137464250D01*
X228873750Y-137623000D01*
X229873000Y-137623000D01*
X229873000Y-137603000D01*
X230127000Y-137603000D01*
X230127000Y-137623000D01*
X230147000Y-137623000D01*
X230147000Y-137877000D01*
X230127000Y-137877000D01*
X230127000Y-140476250D01*
X230285750Y-140635000D01*
X230776309Y-140635000D01*
X231009698Y-140538327D01*
X231188327Y-140359699D01*
X231246279Y-140219791D01*
X231251843Y-140247765D01*
X231392191Y-140457809D01*
X231602235Y-140598157D01*
X231850000Y-140647440D01*
X233150000Y-140647440D01*
X233397765Y-140598157D01*
X233607809Y-140457809D01*
X233748157Y-140247765D01*
X233750000Y-140238500D01*
X233751843Y-140247765D01*
X233892191Y-140457809D01*
X234102235Y-140598157D01*
X234350000Y-140647440D01*
X235650000Y-140647440D01*
X235897765Y-140598157D01*
X236107809Y-140457809D01*
X236248157Y-140247765D01*
X236297440Y-140000000D01*
X236297440Y-138628680D01*
X236504870Y-138587419D01*
X236798933Y-138390933D01*
X236848531Y-138316704D01*
X237129485Y-138035750D01*
X243465000Y-138035750D01*
X243465000Y-140126310D01*
X243561673Y-140359699D01*
X243740302Y-140538327D01*
X243973691Y-140635000D01*
X244464250Y-140635000D01*
X244623000Y-140476250D01*
X244623000Y-137877000D01*
X243623750Y-137877000D01*
X243465000Y-138035750D01*
X237129485Y-138035750D01*
X237266696Y-137898539D01*
X237340925Y-137848941D01*
X237537411Y-137554878D01*
X237588992Y-137295564D01*
X237588992Y-137295560D01*
X237606407Y-137208009D01*
X237588992Y-137120458D01*
X237588992Y-136327447D01*
X237668981Y-136247458D01*
X237842992Y-135827357D01*
X237842992Y-135373690D01*
X243465000Y-135373690D01*
X243465000Y-137464250D01*
X243623750Y-137623000D01*
X244623000Y-137623000D01*
X244623000Y-135023750D01*
X244464250Y-134865000D01*
X243973691Y-134865000D01*
X243740302Y-134961673D01*
X243561673Y-135140301D01*
X243465000Y-135373690D01*
X237842992Y-135373690D01*
X237842992Y-135372643D01*
X237668981Y-134952542D01*
X237347450Y-134631011D01*
X236927349Y-134457000D01*
X236472635Y-134457000D01*
X236052534Y-134631011D01*
X235800958Y-134882587D01*
X235650000Y-134852560D01*
X234350000Y-134852560D01*
X234102235Y-134901843D01*
X233892191Y-135042191D01*
X233751843Y-135252235D01*
X233750000Y-135261500D01*
X233748157Y-135252235D01*
X233607809Y-135042191D01*
X233397765Y-134901843D01*
X233150000Y-134852560D01*
X232280191Y-134852560D01*
X231038611Y-133610981D01*
X237483351Y-133610981D01*
X237757000Y-133884630D01*
X237757000Y-134177357D01*
X237931011Y-134597458D01*
X238252542Y-134918989D01*
X238672643Y-135093000D01*
X239127357Y-135093000D01*
X239547458Y-134918989D01*
X239868989Y-134597458D01*
X240043000Y-134177357D01*
X240043000Y-133722643D01*
X239868989Y-133302542D01*
X239547458Y-132981011D01*
X239127357Y-132807000D01*
X238834630Y-132807000D01*
X238511709Y-132484079D01*
X243310864Y-132484079D01*
X243517853Y-132691068D01*
X243937954Y-132865079D01*
X244392668Y-132865079D01*
X244801386Y-132695783D01*
X244705473Y-132791696D01*
X244531462Y-133211797D01*
X244531462Y-133666511D01*
X244705473Y-134086612D01*
X244957000Y-134338139D01*
X244957000Y-134727357D01*
X245020380Y-134880370D01*
X244877000Y-135023750D01*
X244877000Y-137623000D01*
X244897000Y-137623000D01*
X244897000Y-137877000D01*
X244877000Y-137877000D01*
X244877000Y-140476250D01*
X245035750Y-140635000D01*
X245526309Y-140635000D01*
X245759698Y-140538327D01*
X245938327Y-140359699D01*
X245996279Y-140219791D01*
X246001843Y-140247765D01*
X246142191Y-140457809D01*
X246352235Y-140598157D01*
X246600000Y-140647440D01*
X247900000Y-140647440D01*
X248147765Y-140598157D01*
X248357809Y-140457809D01*
X248498157Y-140247765D01*
X248500000Y-140238500D01*
X248501843Y-140247765D01*
X248642191Y-140457809D01*
X248852235Y-140598157D01*
X249100000Y-140647440D01*
X250400000Y-140647440D01*
X250647765Y-140598157D01*
X250857809Y-140457809D01*
X250998157Y-140247765D01*
X251000000Y-140238500D01*
X251001843Y-140247765D01*
X251142191Y-140457809D01*
X251352235Y-140598157D01*
X251600000Y-140647440D01*
X252900000Y-140647440D01*
X253147765Y-140598157D01*
X253357809Y-140457809D01*
X253498157Y-140247765D01*
X253547440Y-140000000D01*
X253547440Y-135500000D01*
X253498157Y-135252235D01*
X253357809Y-135042191D01*
X253147765Y-134901843D01*
X253138100Y-134899921D01*
X253131154Y-134865000D01*
X253087419Y-134645130D01*
X252890933Y-134351067D01*
X252816707Y-134301471D01*
X252300986Y-133785750D01*
X253365000Y-133785750D01*
X253365000Y-134276309D01*
X253461673Y-134509698D01*
X253640301Y-134688327D01*
X253873690Y-134785000D01*
X255964250Y-134785000D01*
X256123000Y-134626250D01*
X256123000Y-133627000D01*
X256377000Y-133627000D01*
X256377000Y-134626250D01*
X256535750Y-134785000D01*
X258626310Y-134785000D01*
X258859699Y-134688327D01*
X259038327Y-134509698D01*
X259135000Y-134276309D01*
X259135000Y-133785750D01*
X258976250Y-133627000D01*
X256377000Y-133627000D01*
X256123000Y-133627000D01*
X253523750Y-133627000D01*
X253365000Y-133785750D01*
X252300986Y-133785750D01*
X247948531Y-129433296D01*
X247918934Y-129389000D01*
X250157000Y-129389000D01*
X250157000Y-129527357D01*
X250331011Y-129947458D01*
X250652542Y-130268989D01*
X251072643Y-130443000D01*
X251365370Y-130443000D01*
X252408118Y-131485749D01*
X252450629Y-131549371D01*
X252702683Y-131717788D01*
X252924952Y-131762000D01*
X252924957Y-131762000D01*
X253000000Y-131776927D01*
X253075043Y-131762000D01*
X253374838Y-131762000D01*
X253401843Y-131897765D01*
X253542191Y-132107809D01*
X253752235Y-132248157D01*
X253780209Y-132253721D01*
X253640301Y-132311673D01*
X253461673Y-132490302D01*
X253365000Y-132723691D01*
X253365000Y-133214250D01*
X253523750Y-133373000D01*
X256123000Y-133373000D01*
X256123000Y-133353000D01*
X256377000Y-133353000D01*
X256377000Y-133373000D01*
X258976250Y-133373000D01*
X259135000Y-133214250D01*
X259135000Y-132723691D01*
X259038327Y-132490302D01*
X258859699Y-132311673D01*
X258719791Y-132253721D01*
X258747765Y-132248157D01*
X258957809Y-132107809D01*
X259098157Y-131897765D01*
X259147440Y-131650000D01*
X259147440Y-130350000D01*
X259098157Y-130102235D01*
X258957809Y-129892191D01*
X258747765Y-129751843D01*
X258738500Y-129750000D01*
X258747765Y-129748157D01*
X258957809Y-129607809D01*
X259098157Y-129397765D01*
X259147440Y-129150000D01*
X259147440Y-127850000D01*
X259098157Y-127602235D01*
X258957809Y-127392191D01*
X258747765Y-127251843D01*
X258500000Y-127202560D01*
X254609795Y-127202560D01*
X254182531Y-126775296D01*
X254132933Y-126701067D01*
X253838870Y-126504581D01*
X253579556Y-126453000D01*
X253579555Y-126453000D01*
X253492000Y-126435584D01*
X253404445Y-126453000D01*
X252029826Y-126453000D01*
X251942275Y-126435585D01*
X251854724Y-126453000D01*
X251854720Y-126453000D01*
X251595406Y-126504581D01*
X251301343Y-126701067D01*
X251251747Y-126775294D01*
X251196749Y-126830292D01*
X250897458Y-126531001D01*
X250477357Y-126356990D01*
X250022643Y-126356990D01*
X249602542Y-126531001D01*
X249395553Y-126737990D01*
X247285043Y-126737990D01*
X247393000Y-126477357D01*
X247393000Y-126022643D01*
X247285038Y-125762000D01*
X247529957Y-125762000D01*
X247605000Y-125776927D01*
X247680043Y-125762000D01*
X247680048Y-125762000D01*
X247902317Y-125717788D01*
X248154371Y-125549371D01*
X248196883Y-125485747D01*
X248805190Y-124877440D01*
X249645000Y-124877440D01*
X249892765Y-124828157D01*
X250102809Y-124687809D01*
X250243157Y-124477765D01*
X250280000Y-124292541D01*
X250316843Y-124477765D01*
X250457191Y-124687809D01*
X250667235Y-124828157D01*
X250915000Y-124877440D01*
X252185000Y-124877440D01*
X252432765Y-124828157D01*
X252642809Y-124687809D01*
X252783157Y-124477765D01*
X252820000Y-124292541D01*
X252856843Y-124477765D01*
X252997191Y-124687809D01*
X253207235Y-124828157D01*
X253455000Y-124877440D01*
X254725000Y-124877440D01*
X254972765Y-124828157D01*
X255182809Y-124687809D01*
X255323157Y-124477765D01*
X255360000Y-124292541D01*
X255360000Y-124356310D01*
X255456673Y-124589699D01*
X255635302Y-124768327D01*
X255868691Y-124865000D01*
X256344250Y-124865000D01*
X256503000Y-124706250D01*
X256503000Y-122857000D01*
X256757000Y-122857000D01*
X256757000Y-124706250D01*
X256915750Y-124865000D01*
X257391309Y-124865000D01*
X257624698Y-124768327D01*
X257803327Y-124589699D01*
X257900000Y-124356310D01*
X257900000Y-123015750D01*
X257741250Y-122857000D01*
X256757000Y-122857000D01*
X256503000Y-122857000D01*
X256483000Y-122857000D01*
X256483000Y-122603000D01*
X256503000Y-122603000D01*
X256503000Y-120753750D01*
X256757000Y-120753750D01*
X256757000Y-122603000D01*
X257741250Y-122603000D01*
X257900000Y-122444250D01*
X257900000Y-121103690D01*
X257803327Y-120870301D01*
X257624698Y-120691673D01*
X257391309Y-120595000D01*
X256915750Y-120595000D01*
X256757000Y-120753750D01*
X256503000Y-120753750D01*
X256344250Y-120595000D01*
X255868691Y-120595000D01*
X255635302Y-120691673D01*
X255456673Y-120870301D01*
X255360000Y-121103690D01*
X255360000Y-121167459D01*
X255323157Y-120982235D01*
X255182809Y-120772191D01*
X254972765Y-120631843D01*
X254725000Y-120582560D01*
X253455000Y-120582560D01*
X253207235Y-120631843D01*
X252997191Y-120772191D01*
X252856843Y-120982235D01*
X252820000Y-121167459D01*
X252783157Y-120982235D01*
X252642809Y-120772191D01*
X252432765Y-120631843D01*
X252185000Y-120582560D01*
X250915000Y-120582560D01*
X250667235Y-120631843D01*
X250457191Y-120772191D01*
X250316843Y-120982235D01*
X250280000Y-121167459D01*
X250243157Y-120982235D01*
X250102809Y-120772191D01*
X249892765Y-120631843D01*
X249645000Y-120582560D01*
X248375000Y-120582560D01*
X248127235Y-120631843D01*
X247917191Y-120772191D01*
X247776843Y-120982235D01*
X247740000Y-121167459D01*
X247703157Y-120982235D01*
X247562809Y-120772191D01*
X247352765Y-120631843D01*
X247105000Y-120582560D01*
X245835000Y-120582560D01*
X245587235Y-120631843D01*
X245377191Y-120772191D01*
X245236843Y-120982235D01*
X245200000Y-121167459D01*
X245163157Y-120982235D01*
X245022809Y-120772191D01*
X244812765Y-120631843D01*
X244565000Y-120582560D01*
X243295000Y-120582560D01*
X243047235Y-120631843D01*
X242837191Y-120772191D01*
X242696843Y-120982235D01*
X242660000Y-121167459D01*
X242623157Y-120982235D01*
X242482809Y-120772191D01*
X242272765Y-120631843D01*
X242025000Y-120582560D01*
X240755000Y-120582560D01*
X240507235Y-120631843D01*
X240297191Y-120772191D01*
X240156843Y-120982235D01*
X240120000Y-121167459D01*
X240120000Y-121103690D01*
X240023327Y-120870301D01*
X239844698Y-120691673D01*
X239611309Y-120595000D01*
X239135750Y-120595000D01*
X238977000Y-120753750D01*
X238977000Y-122603000D01*
X238997000Y-122603000D01*
X238997000Y-122857000D01*
X238977000Y-122857000D01*
X238977000Y-122877000D01*
X238723000Y-122877000D01*
X238723000Y-122857000D01*
X238703000Y-122857000D01*
X238703000Y-122603000D01*
X238723000Y-122603000D01*
X238723000Y-120753750D01*
X238564250Y-120595000D01*
X238088691Y-120595000D01*
X237855302Y-120691673D01*
X237676673Y-120870301D01*
X237580000Y-121103690D01*
X237580000Y-121167459D01*
X237543157Y-120982235D01*
X237402809Y-120772191D01*
X237192765Y-120631843D01*
X236945000Y-120582560D01*
X235675000Y-120582560D01*
X235427235Y-120631843D01*
X235217191Y-120772191D01*
X235076843Y-120982235D01*
X235040000Y-121167459D01*
X235003157Y-120982235D01*
X234862809Y-120772191D01*
X234652765Y-120631843D01*
X234405000Y-120582560D01*
X233262000Y-120582560D01*
X233262000Y-119605159D01*
X259515000Y-119605159D01*
X259515000Y-120394841D01*
X259817199Y-121124412D01*
X260375588Y-121682801D01*
X261105159Y-121985000D01*
X261894841Y-121985000D01*
X262624412Y-121682801D01*
X263182801Y-121124412D01*
X263485000Y-120394841D01*
X263485000Y-119605159D01*
X263182801Y-118875588D01*
X262624412Y-118317199D01*
X261894841Y-118015000D01*
X261105159Y-118015000D01*
X260375588Y-118317199D01*
X259817199Y-118875588D01*
X259515000Y-119605159D01*
X233262000Y-119605159D01*
X233262000Y-119417440D01*
X234405000Y-119417440D01*
X234652765Y-119368157D01*
X234862809Y-119227809D01*
X235003157Y-119017765D01*
X235040000Y-118832541D01*
X235076843Y-119017765D01*
X235217191Y-119227809D01*
X235427235Y-119368157D01*
X235675000Y-119417440D01*
X236945000Y-119417440D01*
X237192765Y-119368157D01*
X237402809Y-119227809D01*
X237543157Y-119017765D01*
X237580000Y-118832541D01*
X237616843Y-119017765D01*
X237757191Y-119227809D01*
X237967235Y-119368157D01*
X238215000Y-119417440D01*
X239485000Y-119417440D01*
X239732765Y-119368157D01*
X239942809Y-119227809D01*
X240083157Y-119017765D01*
X240120000Y-118832541D01*
X240156843Y-119017765D01*
X240297191Y-119227809D01*
X240507235Y-119368157D01*
X240755000Y-119417440D01*
X242025000Y-119417440D01*
X242272765Y-119368157D01*
X242482809Y-119227809D01*
X242623157Y-119017765D01*
X242660000Y-118832541D01*
X242660000Y-118896310D01*
X242756673Y-119129699D01*
X242935302Y-119308327D01*
X243168691Y-119405000D01*
X243644250Y-119405000D01*
X243803000Y-119246250D01*
X243803000Y-117397000D01*
X243783000Y-117397000D01*
X243783000Y-117143000D01*
X243803000Y-117143000D01*
X243803000Y-117123000D01*
X244057000Y-117123000D01*
X244057000Y-117143000D01*
X244077000Y-117143000D01*
X244077000Y-117397000D01*
X244057000Y-117397000D01*
X244057000Y-119246250D01*
X244215750Y-119405000D01*
X244691309Y-119405000D01*
X244924698Y-119308327D01*
X245103327Y-119129699D01*
X245200000Y-118896310D01*
X245200000Y-118832541D01*
X245236843Y-119017765D01*
X245377191Y-119227809D01*
X245587235Y-119368157D01*
X245835000Y-119417440D01*
X247105000Y-119417440D01*
X247352765Y-119368157D01*
X247562809Y-119227809D01*
X247703157Y-119017765D01*
X247740000Y-118832541D01*
X247740000Y-118896310D01*
X247836673Y-119129699D01*
X248015302Y-119308327D01*
X248248691Y-119405000D01*
X248724250Y-119405000D01*
X248883000Y-119246250D01*
X248883000Y-117397000D01*
X248863000Y-117397000D01*
X248863000Y-117143000D01*
X248883000Y-117143000D01*
X248883000Y-117123000D01*
X249137000Y-117123000D01*
X249137000Y-117143000D01*
X249157000Y-117143000D01*
X249157000Y-117397000D01*
X249137000Y-117397000D01*
X249137000Y-119246250D01*
X249295750Y-119405000D01*
X249771309Y-119405000D01*
X250004698Y-119308327D01*
X250183327Y-119129699D01*
X250280000Y-118896310D01*
X250280000Y-118832541D01*
X250316843Y-119017765D01*
X250457191Y-119227809D01*
X250667235Y-119368157D01*
X250915000Y-119417440D01*
X252185000Y-119417440D01*
X252432765Y-119368157D01*
X252642809Y-119227809D01*
X252783157Y-119017765D01*
X252820000Y-118832541D01*
X252856843Y-119017765D01*
X252997191Y-119227809D01*
X253207235Y-119368157D01*
X253455000Y-119417440D01*
X254725000Y-119417440D01*
X254972765Y-119368157D01*
X255182809Y-119227809D01*
X255323157Y-119017765D01*
X255360000Y-118832541D01*
X255396843Y-119017765D01*
X255537191Y-119227809D01*
X255747235Y-119368157D01*
X255995000Y-119417440D01*
X257265000Y-119417440D01*
X257512765Y-119368157D01*
X257722809Y-119227809D01*
X257863157Y-119017765D01*
X257912440Y-118770000D01*
X257912440Y-116185000D01*
X261960207Y-116185000D01*
X262531494Y-116251605D01*
X263034485Y-116434182D01*
X263481979Y-116727572D01*
X263849977Y-117116039D01*
X264118738Y-117578745D01*
X264276565Y-118099847D01*
X264315000Y-118530506D01*
X264315000Y-123752560D01*
X261100000Y-123752560D01*
X260852235Y-123801843D01*
X260642191Y-123942191D01*
X260501843Y-124152235D01*
X260452560Y-124400000D01*
X260452560Y-126200000D01*
X260501843Y-126447765D01*
X260642191Y-126657809D01*
X260852235Y-126798157D01*
X261100000Y-126847440D01*
X264315000Y-126847440D01*
X264315001Y-135152560D01*
X261100000Y-135152560D01*
X260852235Y-135201843D01*
X260642191Y-135342191D01*
X260501843Y-135552235D01*
X260452560Y-135800000D01*
X260452560Y-137600000D01*
X260501843Y-137847765D01*
X260642191Y-138057809D01*
X260852235Y-138198157D01*
X261100000Y-138247440D01*
X264315001Y-138247440D01*
X264315001Y-143460198D01*
X264248395Y-144031494D01*
X264065819Y-144534483D01*
X263772427Y-144981980D01*
X263383961Y-145349977D01*
X262921253Y-145618739D01*
X262400153Y-145776565D01*
X261969495Y-145815000D01*
X256997440Y-145815000D01*
X256997440Y-142605159D01*
X259515000Y-142605159D01*
X259515000Y-143394841D01*
X259817199Y-144124412D01*
X260375588Y-144682801D01*
X261105159Y-144985000D01*
X261894841Y-144985000D01*
X262624412Y-144682801D01*
X263182801Y-144124412D01*
X263485000Y-143394841D01*
X263485000Y-142605159D01*
X263182801Y-141875588D01*
X262624412Y-141317199D01*
X261894841Y-141015000D01*
X261105159Y-141015000D01*
X260375588Y-141317199D01*
X259817199Y-141875588D01*
X259515000Y-142605159D01*
X256997440Y-142605159D01*
X256997440Y-142600000D01*
X256948157Y-142352235D01*
X256807809Y-142142191D01*
X256597765Y-142001843D01*
X256350000Y-141952560D01*
X254550000Y-141952560D01*
X254302235Y-142001843D01*
X254092191Y-142142191D01*
X253951843Y-142352235D01*
X253902560Y-142600000D01*
X253902560Y-145815000D01*
X243097440Y-145815000D01*
X243097440Y-142600000D01*
X243048157Y-142352235D01*
X242907809Y-142142191D01*
X242697765Y-142001843D01*
X242450000Y-141952560D01*
X240650000Y-141952560D01*
X240402235Y-142001843D01*
X240192191Y-142142191D01*
X240051843Y-142352235D01*
X240002560Y-142600000D01*
X240002560Y-145815000D01*
X239747440Y-145815000D01*
X239747440Y-142600000D01*
X239698157Y-142352235D01*
X239557809Y-142142191D01*
X239347765Y-142001843D01*
X239100000Y-141952560D01*
X237300000Y-141952560D01*
X237052235Y-142001843D01*
X236842191Y-142142191D01*
X236701843Y-142352235D01*
X236652560Y-142600000D01*
X236652560Y-145815000D01*
X228347440Y-145815000D01*
X228347440Y-142600000D01*
X228298157Y-142352235D01*
X228157809Y-142142191D01*
X227947765Y-142001843D01*
X227700000Y-141952560D01*
X225900000Y-141952560D01*
X225652235Y-142001843D01*
X225442191Y-142142191D01*
X225301843Y-142352235D01*
X225252560Y-142600000D01*
X225252560Y-145815000D01*
X224997440Y-145815000D01*
X224997440Y-142600000D01*
X224948157Y-142352235D01*
X224807809Y-142142191D01*
X224597765Y-142001843D01*
X224350000Y-141952560D01*
X222550000Y-141952560D01*
X222302235Y-142001843D01*
X222092191Y-142142191D01*
X221951843Y-142352235D01*
X221902560Y-142600000D01*
X221902560Y-145815000D01*
X211097440Y-145815000D01*
X211097440Y-142600000D01*
X211048157Y-142352235D01*
X210907809Y-142142191D01*
X210697765Y-142001843D01*
X210450000Y-141952560D01*
X208650000Y-141952560D01*
X208402235Y-142001843D01*
X208192191Y-142142191D01*
X208051843Y-142352235D01*
X208002560Y-142600000D01*
X208002560Y-145815000D01*
X203039794Y-145815000D01*
X202468506Y-145748395D01*
X201965517Y-145565819D01*
X201518020Y-145272427D01*
X201150023Y-144883961D01*
X200881261Y-144421253D01*
X200723435Y-143900153D01*
X200685000Y-143469495D01*
X200685000Y-142605159D01*
X201515000Y-142605159D01*
X201515000Y-143394841D01*
X201817199Y-144124412D01*
X202375588Y-144682801D01*
X203105159Y-144985000D01*
X203894841Y-144985000D01*
X204624412Y-144682801D01*
X205182801Y-144124412D01*
X205485000Y-143394841D01*
X205485000Y-142605159D01*
X205182801Y-141875588D01*
X204624412Y-141317199D01*
X203894841Y-141015000D01*
X203105159Y-141015000D01*
X202375588Y-141317199D01*
X201817199Y-141875588D01*
X201515000Y-142605159D01*
X200685000Y-142605159D01*
X200685000Y-138247440D01*
X203900000Y-138247440D01*
X204147765Y-138198157D01*
X204357809Y-138057809D01*
X204372548Y-138035750D01*
X211465000Y-138035750D01*
X211465000Y-140126310D01*
X211561673Y-140359699D01*
X211740302Y-140538327D01*
X211973691Y-140635000D01*
X212464250Y-140635000D01*
X212623000Y-140476250D01*
X212623000Y-137877000D01*
X211623750Y-137877000D01*
X211465000Y-138035750D01*
X204372548Y-138035750D01*
X204498157Y-137847765D01*
X204547440Y-137600000D01*
X204547440Y-135800000D01*
X204498157Y-135552235D01*
X204378857Y-135373690D01*
X211465000Y-135373690D01*
X211465000Y-137464250D01*
X211623750Y-137623000D01*
X212623000Y-137623000D01*
X212623000Y-135023750D01*
X212464250Y-134865000D01*
X211973691Y-134865000D01*
X211740302Y-134961673D01*
X211561673Y-135140301D01*
X211465000Y-135373690D01*
X204378857Y-135373690D01*
X204357809Y-135342191D01*
X204147765Y-135201843D01*
X203900000Y-135152560D01*
X200685000Y-135152560D01*
X200685000Y-127723691D01*
X205865000Y-127723691D01*
X205865000Y-128214250D01*
X206023750Y-128373000D01*
X208623000Y-128373000D01*
X208623000Y-127373750D01*
X208464250Y-127215000D01*
X206373690Y-127215000D01*
X206140301Y-127311673D01*
X205961673Y-127490302D01*
X205865000Y-127723691D01*
X200685000Y-127723691D01*
X200685000Y-126847440D01*
X203900000Y-126847440D01*
X204147765Y-126798157D01*
X204357809Y-126657809D01*
X204498157Y-126447765D01*
X204547440Y-126200000D01*
X204547440Y-124400000D01*
X204498157Y-124152235D01*
X204357809Y-123942191D01*
X204147765Y-123801843D01*
X203900000Y-123752560D01*
X200685000Y-123752560D01*
X200685000Y-119605159D01*
X201515000Y-119605159D01*
X201515000Y-120394841D01*
X201817199Y-121124412D01*
X202375588Y-121682801D01*
X203105159Y-121985000D01*
X203894841Y-121985000D01*
X204624412Y-121682801D01*
X205182801Y-121124412D01*
X205485000Y-120394841D01*
X205485000Y-119605159D01*
X205182801Y-118875588D01*
X204624412Y-118317199D01*
X203894841Y-118015000D01*
X203105159Y-118015000D01*
X202375588Y-118317199D01*
X201817199Y-118875588D01*
X201515000Y-119605159D01*
X200685000Y-119605159D01*
X200685000Y-118539793D01*
X200751605Y-117968506D01*
X200934182Y-117465515D01*
X201227572Y-117018021D01*
X201616039Y-116650023D01*
X202078745Y-116381262D01*
X202599847Y-116223435D01*
X203030505Y-116185000D01*
X206825842Y-116185000D01*
X206784024Y-116193318D01*
X206784024Y-116193318D01*
G37*
X206784024Y-116193318D02*
X206405943Y-116445943D01*
X206342174Y-116541380D01*
X205852545Y-117031010D01*
X205852542Y-117031011D01*
X205531011Y-117352542D01*
X205487082Y-117458595D01*
X205423319Y-117554024D01*
X205400928Y-117666592D01*
X205357000Y-117772643D01*
X205357000Y-117887429D01*
X205334608Y-118000000D01*
X205357000Y-118112571D01*
X205357000Y-118227357D01*
X205400928Y-118333408D01*
X205423319Y-118445976D01*
X205487082Y-118541405D01*
X205531011Y-118647458D01*
X205612181Y-118728628D01*
X205675944Y-118824056D01*
X205771372Y-118887819D01*
X205852542Y-118968989D01*
X205958595Y-119012918D01*
X206054024Y-119076681D01*
X206166592Y-119099072D01*
X206272643Y-119143000D01*
X206387429Y-119143000D01*
X206500000Y-119165392D01*
X206612571Y-119143000D01*
X206727357Y-119143000D01*
X206833408Y-119099072D01*
X206945976Y-119076681D01*
X207041405Y-119012918D01*
X207128687Y-118976764D01*
X207136843Y-119017765D01*
X207277191Y-119227809D01*
X207487235Y-119368157D01*
X207735000Y-119417440D01*
X209005000Y-119417440D01*
X209252765Y-119368157D01*
X209462809Y-119227809D01*
X209603157Y-119017765D01*
X209640000Y-118832541D01*
X209676843Y-119017765D01*
X209817191Y-119227809D01*
X210027235Y-119368157D01*
X210275000Y-119417440D01*
X211545000Y-119417440D01*
X211792765Y-119368157D01*
X212002809Y-119227809D01*
X212143157Y-119017765D01*
X212180000Y-118832541D01*
X212180000Y-118896310D01*
X212276673Y-119129699D01*
X212455302Y-119308327D01*
X212688691Y-119405000D01*
X213164250Y-119405000D01*
X213323000Y-119246250D01*
X213323000Y-117397000D01*
X213303000Y-117397000D01*
X213303000Y-117143000D01*
X213323000Y-117143000D01*
X213323000Y-117123000D01*
X213577000Y-117123000D01*
X213577000Y-117143000D01*
X213597000Y-117143000D01*
X213597000Y-117397000D01*
X213577000Y-117397000D01*
X213577000Y-119246250D01*
X213735750Y-119405000D01*
X214211309Y-119405000D01*
X214444698Y-119308327D01*
X214623327Y-119129699D01*
X214720000Y-118896310D01*
X214720000Y-118832541D01*
X214756843Y-119017765D01*
X214897191Y-119227809D01*
X215107235Y-119368157D01*
X215355000Y-119417440D01*
X216625000Y-119417440D01*
X216872765Y-119368157D01*
X217082809Y-119227809D01*
X217223157Y-119017765D01*
X217260000Y-118832541D01*
X217296843Y-119017765D01*
X217437191Y-119227809D01*
X217647235Y-119368157D01*
X217895000Y-119417440D01*
X219165000Y-119417440D01*
X219412765Y-119368157D01*
X219622809Y-119227809D01*
X219763157Y-119017765D01*
X219800000Y-118832541D01*
X219836843Y-119017765D01*
X219977191Y-119227809D01*
X220187235Y-119368157D01*
X220435000Y-119417440D01*
X221705000Y-119417440D01*
X221952765Y-119368157D01*
X222162809Y-119227809D01*
X222303157Y-119017765D01*
X222340000Y-118832541D01*
X222340000Y-118896310D01*
X222436673Y-119129699D01*
X222615302Y-119308327D01*
X222848691Y-119405000D01*
X223324250Y-119405000D01*
X223483000Y-119246250D01*
X223483000Y-117397000D01*
X223463000Y-117397000D01*
X223463000Y-117143000D01*
X223483000Y-117143000D01*
X223483000Y-117123000D01*
X223737000Y-117123000D01*
X223737000Y-117143000D01*
X223757000Y-117143000D01*
X223757000Y-117397000D01*
X223737000Y-117397000D01*
X223737000Y-119246250D01*
X223895750Y-119405000D01*
X224371309Y-119405000D01*
X224604698Y-119308327D01*
X224783327Y-119129699D01*
X224880000Y-118896310D01*
X224880000Y-118832541D01*
X224916843Y-119017765D01*
X225057191Y-119227809D01*
X225267235Y-119368157D01*
X225515000Y-119417440D01*
X226785000Y-119417440D01*
X227032765Y-119368157D01*
X227242809Y-119227809D01*
X227383157Y-119017765D01*
X227420000Y-118832541D01*
X227456843Y-119017765D01*
X227597191Y-119227809D01*
X227807235Y-119368157D01*
X228055000Y-119417440D01*
X229325000Y-119417440D01*
X229572765Y-119368157D01*
X229782809Y-119227809D01*
X229923157Y-119017765D01*
X229960000Y-118832541D01*
X229960000Y-118896310D01*
X230056673Y-119129699D01*
X230235302Y-119308327D01*
X230468691Y-119405000D01*
X230944250Y-119405000D01*
X231103000Y-119246250D01*
X231103000Y-117397000D01*
X231083000Y-117397000D01*
X231083000Y-117143000D01*
X231103000Y-117143000D01*
X231103000Y-117123000D01*
X231357000Y-117123000D01*
X231357000Y-117143000D01*
X231377000Y-117143000D01*
X231377000Y-117397000D01*
X231357000Y-117397000D01*
X231357000Y-119246250D01*
X231515750Y-119405000D01*
X231738000Y-119405000D01*
X231738000Y-120582560D01*
X230595000Y-120582560D01*
X230347235Y-120631843D01*
X230137191Y-120772191D01*
X229996843Y-120982235D01*
X229960000Y-121167459D01*
X229923157Y-120982235D01*
X229782809Y-120772191D01*
X229572765Y-120631843D01*
X229325000Y-120582560D01*
X228055000Y-120582560D01*
X227807235Y-120631843D01*
X227597191Y-120772191D01*
X227456843Y-120982235D01*
X227420000Y-121167459D01*
X227383157Y-120982235D01*
X227242809Y-120772191D01*
X227032765Y-120631843D01*
X226785000Y-120582560D01*
X225515000Y-120582560D01*
X225267235Y-120631843D01*
X225057191Y-120772191D01*
X224916843Y-120982235D01*
X224880000Y-121167459D01*
X224843157Y-120982235D01*
X224702809Y-120772191D01*
X224492765Y-120631843D01*
X224245000Y-120582560D01*
X222975000Y-120582560D01*
X222727235Y-120631843D01*
X222517191Y-120772191D01*
X222376843Y-120982235D01*
X222340000Y-121167459D01*
X222303157Y-120982235D01*
X222162809Y-120772191D01*
X221952765Y-120631843D01*
X221705000Y-120582560D01*
X220435000Y-120582560D01*
X220187235Y-120631843D01*
X219977191Y-120772191D01*
X219836843Y-120982235D01*
X219800000Y-121167459D01*
X219800000Y-121103690D01*
X219703327Y-120870301D01*
X219524698Y-120691673D01*
X219291309Y-120595000D01*
X218815750Y-120595000D01*
X218657000Y-120753750D01*
X218657000Y-122603000D01*
X218677000Y-122603000D01*
X218677000Y-122857000D01*
X218657000Y-122857000D01*
X218657000Y-122877000D01*
X218403000Y-122877000D01*
X218403000Y-122857000D01*
X218383000Y-122857000D01*
X218383000Y-122603000D01*
X218403000Y-122603000D01*
X218403000Y-120753750D01*
X218244250Y-120595000D01*
X217768691Y-120595000D01*
X217535302Y-120691673D01*
X217356673Y-120870301D01*
X217260000Y-121103690D01*
X217260000Y-121167459D01*
X217223157Y-120982235D01*
X217082809Y-120772191D01*
X216872765Y-120631843D01*
X216625000Y-120582560D01*
X215355000Y-120582560D01*
X215107235Y-120631843D01*
X214897191Y-120772191D01*
X214756843Y-120982235D01*
X214720000Y-121167459D01*
X214683157Y-120982235D01*
X214542809Y-120772191D01*
X214332765Y-120631843D01*
X214085000Y-120582560D01*
X212815000Y-120582560D01*
X212567235Y-120631843D01*
X212357191Y-120772191D01*
X212216843Y-120982235D01*
X212180000Y-121167459D01*
X212143157Y-120982235D01*
X212002809Y-120772191D01*
X211792765Y-120631843D01*
X211545000Y-120582560D01*
X210275000Y-120582560D01*
X210027235Y-120631843D01*
X209817191Y-120772191D01*
X209676843Y-120982235D01*
X209640000Y-121167459D01*
X209603157Y-120982235D01*
X209462809Y-120772191D01*
X209252765Y-120631843D01*
X209005000Y-120582560D01*
X207735000Y-120582560D01*
X207487235Y-120631843D01*
X207277191Y-120772191D01*
X207136843Y-120982235D01*
X207087560Y-121230000D01*
X207087560Y-124230000D01*
X207136843Y-124477765D01*
X207277191Y-124687809D01*
X207487235Y-124828157D01*
X207536114Y-124837879D01*
X207610157Y-124948693D01*
X207729068Y-125126657D01*
X207803294Y-125176253D01*
X209842040Y-127215000D01*
X209035750Y-127215000D01*
X208877000Y-127373750D01*
X208877000Y-128373000D01*
X208897000Y-128373000D01*
X208897000Y-128627000D01*
X208877000Y-128627000D01*
X208877000Y-128647000D01*
X208623000Y-128647000D01*
X208623000Y-128627000D01*
X206023750Y-128627000D01*
X205865000Y-128785750D01*
X205865000Y-129276309D01*
X205961673Y-129509698D01*
X206140301Y-129688327D01*
X206280209Y-129746279D01*
X206252235Y-129751843D01*
X206094858Y-129857000D01*
X205412573Y-129857000D01*
X205300002Y-129834608D01*
X205187431Y-129857000D01*
X205187430Y-129857000D01*
X205187420Y-129857002D01*
X205072643Y-129857002D01*
X204966603Y-129900925D01*
X204854026Y-129923318D01*
X204758588Y-129987087D01*
X204652542Y-130031013D01*
X204571378Y-130112177D01*
X204475945Y-130175943D01*
X204412179Y-130271376D01*
X204331011Y-130352544D01*
X204287083Y-130458595D01*
X204223320Y-130554024D01*
X204223319Y-130554026D01*
X204200928Y-130666594D01*
X204157000Y-130772645D01*
X204157000Y-130887431D01*
X204134608Y-131000002D01*
X204157000Y-131112573D01*
X204157000Y-131227359D01*
X204200928Y-131333410D01*
X204223319Y-131445978D01*
X204287082Y-131541407D01*
X204331011Y-131647460D01*
X204412181Y-131728630D01*
X204475944Y-131824058D01*
X204571372Y-131887821D01*
X204652542Y-131968991D01*
X204758595Y-132012920D01*
X204854024Y-132076683D01*
X204966592Y-132099074D01*
X205072643Y-132143002D01*
X205187429Y-132143002D01*
X205300000Y-132165394D01*
X205412571Y-132143002D01*
X205527357Y-132143002D01*
X205527362Y-132143000D01*
X206094858Y-132143000D01*
X206252235Y-132248157D01*
X206261500Y-132250000D01*
X206252235Y-132251843D01*
X206042191Y-132392191D01*
X205901843Y-132602235D01*
X205852560Y-132850000D01*
X205852560Y-134150000D01*
X205901843Y-134397765D01*
X206042191Y-134607809D01*
X206252235Y-134748157D01*
X206500000Y-134797440D01*
X211000000Y-134797440D01*
X211247765Y-134748157D01*
X211457809Y-134607809D01*
X211546878Y-134474509D01*
X211620120Y-134547751D01*
X211662631Y-134611373D01*
X211726253Y-134653884D01*
X211777801Y-134688327D01*
X211914685Y-134779790D01*
X212136954Y-134824002D01*
X212136955Y-134824002D01*
X212212002Y-134838930D01*
X212287049Y-134824002D01*
X215112046Y-134824002D01*
X215112046Y-134852560D01*
X214600000Y-134852560D01*
X214352235Y-134901843D01*
X214142191Y-135042191D01*
X214001843Y-135252235D01*
X213996279Y-135280209D01*
X213938327Y-135140301D01*
X213759698Y-134961673D01*
X213526309Y-134865000D01*
X213035750Y-134865000D01*
X212877000Y-135023750D01*
X212877000Y-137623000D01*
X212897000Y-137623000D01*
X212897000Y-137877000D01*
X212877000Y-137877000D01*
X212877000Y-140476250D01*
X213035750Y-140635000D01*
X213526309Y-140635000D01*
X213759698Y-140538327D01*
X213938327Y-140359699D01*
X213996279Y-140219791D01*
X214001843Y-140247765D01*
X214142191Y-140457809D01*
X214352235Y-140598157D01*
X214600000Y-140647440D01*
X215900000Y-140647440D01*
X216147765Y-140598157D01*
X216357809Y-140457809D01*
X216498157Y-140247765D01*
X216500000Y-140238500D01*
X216501843Y-140247765D01*
X216642191Y-140457809D01*
X216852235Y-140598157D01*
X217100000Y-140647440D01*
X218400000Y-140647440D01*
X218647765Y-140598157D01*
X218857809Y-140457809D01*
X218998157Y-140247765D01*
X219000000Y-140238500D01*
X219001843Y-140247765D01*
X219142191Y-140457809D01*
X219352235Y-140598157D01*
X219600000Y-140647440D01*
X220900000Y-140647440D01*
X221147765Y-140598157D01*
X221357809Y-140457809D01*
X221498157Y-140247765D01*
X221547440Y-140000000D01*
X221547440Y-138035750D01*
X228715000Y-138035750D01*
X228715000Y-140126310D01*
X228811673Y-140359699D01*
X228990302Y-140538327D01*
X229223691Y-140635000D01*
X229714250Y-140635000D01*
X229873000Y-140476250D01*
X229873000Y-137877000D01*
X228873750Y-137877000D01*
X228715000Y-138035750D01*
X221547440Y-138035750D01*
X221547440Y-137709795D01*
X222172236Y-137085000D01*
X222215820Y-137085000D01*
X222614603Y-136919818D01*
X222919818Y-136614603D01*
X223085000Y-136215820D01*
X223085000Y-135784180D01*
X222919818Y-135385397D01*
X222804420Y-135269999D01*
X226316952Y-135269999D01*
X226391995Y-135284926D01*
X226467038Y-135269999D01*
X226467043Y-135269999D01*
X226689312Y-135225787D01*
X226813212Y-135143000D01*
X227127351Y-135143000D01*
X227547452Y-134968989D01*
X227868983Y-134647458D01*
X228042994Y-134227357D01*
X228042994Y-133772643D01*
X227976032Y-133610981D01*
X228173962Y-133610981D01*
X228107000Y-133772643D01*
X228107000Y-134227357D01*
X228281011Y-134647458D01*
X228602542Y-134968989D01*
X228871556Y-135080418D01*
X228811673Y-135140301D01*
X228715000Y-135373690D01*
X228715000Y-137464250D01*
X228873750Y-137623000D01*
X229873000Y-137623000D01*
X229873000Y-137603000D01*
X230127000Y-137603000D01*
X230127000Y-137623000D01*
X230147000Y-137623000D01*
X230147000Y-137877000D01*
X230127000Y-137877000D01*
X230127000Y-140476250D01*
X230285750Y-140635000D01*
X230776309Y-140635000D01*
X231009698Y-140538327D01*
X231188327Y-140359699D01*
X231246279Y-140219791D01*
X231251843Y-140247765D01*
X231392191Y-140457809D01*
X231602235Y-140598157D01*
X231850000Y-140647440D01*
X233150000Y-140647440D01*
X233397765Y-140598157D01*
X233607809Y-140457809D01*
X233748157Y-140247765D01*
X233750000Y-140238500D01*
X233751843Y-140247765D01*
X233892191Y-140457809D01*
X234102235Y-140598157D01*
X234350000Y-140647440D01*
X235650000Y-140647440D01*
X235897765Y-140598157D01*
X236107809Y-140457809D01*
X236248157Y-140247765D01*
X236297440Y-140000000D01*
X236297440Y-138628680D01*
X236504870Y-138587419D01*
X236798933Y-138390933D01*
X236848531Y-138316704D01*
X237129485Y-138035750D01*
X243465000Y-138035750D01*
X243465000Y-140126310D01*
X243561673Y-140359699D01*
X243740302Y-140538327D01*
X243973691Y-140635000D01*
X244464250Y-140635000D01*
X244623000Y-140476250D01*
X244623000Y-137877000D01*
X243623750Y-137877000D01*
X243465000Y-138035750D01*
X237129485Y-138035750D01*
X237266696Y-137898539D01*
X237340925Y-137848941D01*
X237537411Y-137554878D01*
X237588992Y-137295564D01*
X237588992Y-137295560D01*
X237606407Y-137208009D01*
X237588992Y-137120458D01*
X237588992Y-136327447D01*
X237668981Y-136247458D01*
X237842992Y-135827357D01*
X237842992Y-135373690D01*
X243465000Y-135373690D01*
X243465000Y-137464250D01*
X243623750Y-137623000D01*
X244623000Y-137623000D01*
X244623000Y-135023750D01*
X244464250Y-134865000D01*
X243973691Y-134865000D01*
X243740302Y-134961673D01*
X243561673Y-135140301D01*
X243465000Y-135373690D01*
X237842992Y-135373690D01*
X237842992Y-135372643D01*
X237668981Y-134952542D01*
X237347450Y-134631011D01*
X236927349Y-134457000D01*
X236472635Y-134457000D01*
X236052534Y-134631011D01*
X235800958Y-134882587D01*
X235650000Y-134852560D01*
X234350000Y-134852560D01*
X234102235Y-134901843D01*
X233892191Y-135042191D01*
X233751843Y-135252235D01*
X233750000Y-135261500D01*
X233748157Y-135252235D01*
X233607809Y-135042191D01*
X233397765Y-134901843D01*
X233150000Y-134852560D01*
X232280191Y-134852560D01*
X231038611Y-133610981D01*
X237483351Y-133610981D01*
X237757000Y-133884630D01*
X237757000Y-134177357D01*
X237931011Y-134597458D01*
X238252542Y-134918989D01*
X238672643Y-135093000D01*
X239127357Y-135093000D01*
X239547458Y-134918989D01*
X239868989Y-134597458D01*
X240043000Y-134177357D01*
X240043000Y-133722643D01*
X239868989Y-133302542D01*
X239547458Y-132981011D01*
X239127357Y-132807000D01*
X238834630Y-132807000D01*
X238511709Y-132484079D01*
X243310864Y-132484079D01*
X243517853Y-132691068D01*
X243937954Y-132865079D01*
X244392668Y-132865079D01*
X244801386Y-132695783D01*
X244705473Y-132791696D01*
X244531462Y-133211797D01*
X244531462Y-133666511D01*
X244705473Y-134086612D01*
X244957000Y-134338139D01*
X244957000Y-134727357D01*
X245020380Y-134880370D01*
X244877000Y-135023750D01*
X244877000Y-137623000D01*
X244897000Y-137623000D01*
X244897000Y-137877000D01*
X244877000Y-137877000D01*
X244877000Y-140476250D01*
X245035750Y-140635000D01*
X245526309Y-140635000D01*
X245759698Y-140538327D01*
X245938327Y-140359699D01*
X245996279Y-140219791D01*
X246001843Y-140247765D01*
X246142191Y-140457809D01*
X246352235Y-140598157D01*
X246600000Y-140647440D01*
X247900000Y-140647440D01*
X248147765Y-140598157D01*
X248357809Y-140457809D01*
X248498157Y-140247765D01*
X248500000Y-140238500D01*
X248501843Y-140247765D01*
X248642191Y-140457809D01*
X248852235Y-140598157D01*
X249100000Y-140647440D01*
X250400000Y-140647440D01*
X250647765Y-140598157D01*
X250857809Y-140457809D01*
X250998157Y-140247765D01*
X251000000Y-140238500D01*
X251001843Y-140247765D01*
X251142191Y-140457809D01*
X251352235Y-140598157D01*
X251600000Y-140647440D01*
X252900000Y-140647440D01*
X253147765Y-140598157D01*
X253357809Y-140457809D01*
X253498157Y-140247765D01*
X253547440Y-140000000D01*
X253547440Y-135500000D01*
X253498157Y-135252235D01*
X253357809Y-135042191D01*
X253147765Y-134901843D01*
X253138100Y-134899921D01*
X253131154Y-134865000D01*
X253087419Y-134645130D01*
X252890933Y-134351067D01*
X252816707Y-134301471D01*
X252300986Y-133785750D01*
X253365000Y-133785750D01*
X253365000Y-134276309D01*
X253461673Y-134509698D01*
X253640301Y-134688327D01*
X253873690Y-134785000D01*
X255964250Y-134785000D01*
X256123000Y-134626250D01*
X256123000Y-133627000D01*
X256377000Y-133627000D01*
X256377000Y-134626250D01*
X256535750Y-134785000D01*
X258626310Y-134785000D01*
X258859699Y-134688327D01*
X259038327Y-134509698D01*
X259135000Y-134276309D01*
X259135000Y-133785750D01*
X258976250Y-133627000D01*
X256377000Y-133627000D01*
X256123000Y-133627000D01*
X253523750Y-133627000D01*
X253365000Y-133785750D01*
X252300986Y-133785750D01*
X247948531Y-129433296D01*
X247918934Y-129389000D01*
X250157000Y-129389000D01*
X250157000Y-129527357D01*
X250331011Y-129947458D01*
X250652542Y-130268989D01*
X251072643Y-130443000D01*
X251365370Y-130443000D01*
X252408118Y-131485749D01*
X252450629Y-131549371D01*
X252702683Y-131717788D01*
X252924952Y-131762000D01*
X252924957Y-131762000D01*
X253000000Y-131776927D01*
X253075043Y-131762000D01*
X253374838Y-131762000D01*
X253401843Y-131897765D01*
X253542191Y-132107809D01*
X253752235Y-132248157D01*
X253780209Y-132253721D01*
X253640301Y-132311673D01*
X253461673Y-132490302D01*
X253365000Y-132723691D01*
X253365000Y-133214250D01*
X253523750Y-133373000D01*
X256123000Y-133373000D01*
X256123000Y-133353000D01*
X256377000Y-133353000D01*
X256377000Y-133373000D01*
X258976250Y-133373000D01*
X259135000Y-133214250D01*
X259135000Y-132723691D01*
X259038327Y-132490302D01*
X258859699Y-132311673D01*
X258719791Y-132253721D01*
X258747765Y-132248157D01*
X258957809Y-132107809D01*
X259098157Y-131897765D01*
X259147440Y-131650000D01*
X259147440Y-130350000D01*
X259098157Y-130102235D01*
X258957809Y-129892191D01*
X258747765Y-129751843D01*
X258738500Y-129750000D01*
X258747765Y-129748157D01*
X258957809Y-129607809D01*
X259098157Y-129397765D01*
X259147440Y-129150000D01*
X259147440Y-127850000D01*
X259098157Y-127602235D01*
X258957809Y-127392191D01*
X258747765Y-127251843D01*
X258500000Y-127202560D01*
X254609795Y-127202560D01*
X254182531Y-126775296D01*
X254132933Y-126701067D01*
X253838870Y-126504581D01*
X253579556Y-126453000D01*
X253579555Y-126453000D01*
X253492000Y-126435584D01*
X253404445Y-126453000D01*
X252029826Y-126453000D01*
X251942275Y-126435585D01*
X251854724Y-126453000D01*
X251854720Y-126453000D01*
X251595406Y-126504581D01*
X251301343Y-126701067D01*
X251251747Y-126775294D01*
X251196749Y-126830292D01*
X250897458Y-126531001D01*
X250477357Y-126356990D01*
X250022643Y-126356990D01*
X249602542Y-126531001D01*
X249395553Y-126737990D01*
X247285043Y-126737990D01*
X247393000Y-126477357D01*
X247393000Y-126022643D01*
X247285038Y-125762000D01*
X247529957Y-125762000D01*
X247605000Y-125776927D01*
X247680043Y-125762000D01*
X247680048Y-125762000D01*
X247902317Y-125717788D01*
X248154371Y-125549371D01*
X248196883Y-125485747D01*
X248805190Y-124877440D01*
X249645000Y-124877440D01*
X249892765Y-124828157D01*
X250102809Y-124687809D01*
X250243157Y-124477765D01*
X250280000Y-124292541D01*
X250316843Y-124477765D01*
X250457191Y-124687809D01*
X250667235Y-124828157D01*
X250915000Y-124877440D01*
X252185000Y-124877440D01*
X252432765Y-124828157D01*
X252642809Y-124687809D01*
X252783157Y-124477765D01*
X252820000Y-124292541D01*
X252856843Y-124477765D01*
X252997191Y-124687809D01*
X253207235Y-124828157D01*
X253455000Y-124877440D01*
X254725000Y-124877440D01*
X254972765Y-124828157D01*
X255182809Y-124687809D01*
X255323157Y-124477765D01*
X255360000Y-124292541D01*
X255360000Y-124356310D01*
X255456673Y-124589699D01*
X255635302Y-124768327D01*
X255868691Y-124865000D01*
X256344250Y-124865000D01*
X256503000Y-124706250D01*
X256503000Y-122857000D01*
X256757000Y-122857000D01*
X256757000Y-124706250D01*
X256915750Y-124865000D01*
X257391309Y-124865000D01*
X257624698Y-124768327D01*
X257803327Y-124589699D01*
X257900000Y-124356310D01*
X257900000Y-123015750D01*
X257741250Y-122857000D01*
X256757000Y-122857000D01*
X256503000Y-122857000D01*
X256483000Y-122857000D01*
X256483000Y-122603000D01*
X256503000Y-122603000D01*
X256503000Y-120753750D01*
X256757000Y-120753750D01*
X256757000Y-122603000D01*
X257741250Y-122603000D01*
X257900000Y-122444250D01*
X257900000Y-121103690D01*
X257803327Y-120870301D01*
X257624698Y-120691673D01*
X257391309Y-120595000D01*
X256915750Y-120595000D01*
X256757000Y-120753750D01*
X256503000Y-120753750D01*
X256344250Y-120595000D01*
X255868691Y-120595000D01*
X255635302Y-120691673D01*
X255456673Y-120870301D01*
X255360000Y-121103690D01*
X255360000Y-121167459D01*
X255323157Y-120982235D01*
X255182809Y-120772191D01*
X254972765Y-120631843D01*
X254725000Y-120582560D01*
X253455000Y-120582560D01*
X253207235Y-120631843D01*
X252997191Y-120772191D01*
X252856843Y-120982235D01*
X252820000Y-121167459D01*
X252783157Y-120982235D01*
X252642809Y-120772191D01*
X252432765Y-120631843D01*
X252185000Y-120582560D01*
X250915000Y-120582560D01*
X250667235Y-120631843D01*
X250457191Y-120772191D01*
X250316843Y-120982235D01*
X250280000Y-121167459D01*
X250243157Y-120982235D01*
X250102809Y-120772191D01*
X249892765Y-120631843D01*
X249645000Y-120582560D01*
X248375000Y-120582560D01*
X248127235Y-120631843D01*
X247917191Y-120772191D01*
X247776843Y-120982235D01*
X247740000Y-121167459D01*
X247703157Y-120982235D01*
X247562809Y-120772191D01*
X247352765Y-120631843D01*
X247105000Y-120582560D01*
X245835000Y-120582560D01*
X245587235Y-120631843D01*
X245377191Y-120772191D01*
X245236843Y-120982235D01*
X245200000Y-121167459D01*
X245163157Y-120982235D01*
X245022809Y-120772191D01*
X244812765Y-120631843D01*
X244565000Y-120582560D01*
X243295000Y-120582560D01*
X243047235Y-120631843D01*
X242837191Y-120772191D01*
X242696843Y-120982235D01*
X242660000Y-121167459D01*
X242623157Y-120982235D01*
X242482809Y-120772191D01*
X242272765Y-120631843D01*
X242025000Y-120582560D01*
X240755000Y-120582560D01*
X240507235Y-120631843D01*
X240297191Y-120772191D01*
X240156843Y-120982235D01*
X240120000Y-121167459D01*
X240120000Y-121103690D01*
X240023327Y-120870301D01*
X239844698Y-120691673D01*
X239611309Y-120595000D01*
X239135750Y-120595000D01*
X238977000Y-120753750D01*
X238977000Y-122603000D01*
X238997000Y-122603000D01*
X238997000Y-122857000D01*
X238977000Y-122857000D01*
X238977000Y-122877000D01*
X238723000Y-122877000D01*
X238723000Y-122857000D01*
X238703000Y-122857000D01*
X238703000Y-122603000D01*
X238723000Y-122603000D01*
X238723000Y-120753750D01*
X238564250Y-120595000D01*
X238088691Y-120595000D01*
X237855302Y-120691673D01*
X237676673Y-120870301D01*
X237580000Y-121103690D01*
X237580000Y-121167459D01*
X237543157Y-120982235D01*
X237402809Y-120772191D01*
X237192765Y-120631843D01*
X236945000Y-120582560D01*
X235675000Y-120582560D01*
X235427235Y-120631843D01*
X235217191Y-120772191D01*
X235076843Y-120982235D01*
X235040000Y-121167459D01*
X235003157Y-120982235D01*
X234862809Y-120772191D01*
X234652765Y-120631843D01*
X234405000Y-120582560D01*
X233262000Y-120582560D01*
X233262000Y-119605159D01*
X259515000Y-119605159D01*
X259515000Y-120394841D01*
X259817199Y-121124412D01*
X260375588Y-121682801D01*
X261105159Y-121985000D01*
X261894841Y-121985000D01*
X262624412Y-121682801D01*
X263182801Y-121124412D01*
X263485000Y-120394841D01*
X263485000Y-119605159D01*
X263182801Y-118875588D01*
X262624412Y-118317199D01*
X261894841Y-118015000D01*
X261105159Y-118015000D01*
X260375588Y-118317199D01*
X259817199Y-118875588D01*
X259515000Y-119605159D01*
X233262000Y-119605159D01*
X233262000Y-119417440D01*
X234405000Y-119417440D01*
X234652765Y-119368157D01*
X234862809Y-119227809D01*
X235003157Y-119017765D01*
X235040000Y-118832541D01*
X235076843Y-119017765D01*
X235217191Y-119227809D01*
X235427235Y-119368157D01*
X235675000Y-119417440D01*
X236945000Y-119417440D01*
X237192765Y-119368157D01*
X237402809Y-119227809D01*
X237543157Y-119017765D01*
X237580000Y-118832541D01*
X237616843Y-119017765D01*
X237757191Y-119227809D01*
X237967235Y-119368157D01*
X238215000Y-119417440D01*
X239485000Y-119417440D01*
X239732765Y-119368157D01*
X239942809Y-119227809D01*
X240083157Y-119017765D01*
X240120000Y-118832541D01*
X240156843Y-119017765D01*
X240297191Y-119227809D01*
X240507235Y-119368157D01*
X240755000Y-119417440D01*
X242025000Y-119417440D01*
X242272765Y-119368157D01*
X242482809Y-119227809D01*
X242623157Y-119017765D01*
X242660000Y-118832541D01*
X242660000Y-118896310D01*
X242756673Y-119129699D01*
X242935302Y-119308327D01*
X243168691Y-119405000D01*
X243644250Y-119405000D01*
X243803000Y-119246250D01*
X243803000Y-117397000D01*
X243783000Y-117397000D01*
X243783000Y-117143000D01*
X243803000Y-117143000D01*
X243803000Y-117123000D01*
X244057000Y-117123000D01*
X244057000Y-117143000D01*
X244077000Y-117143000D01*
X244077000Y-117397000D01*
X244057000Y-117397000D01*
X244057000Y-119246250D01*
X244215750Y-119405000D01*
X244691309Y-119405000D01*
X244924698Y-119308327D01*
X245103327Y-119129699D01*
X245200000Y-118896310D01*
X245200000Y-118832541D01*
X245236843Y-119017765D01*
X245377191Y-119227809D01*
X245587235Y-119368157D01*
X245835000Y-119417440D01*
X247105000Y-119417440D01*
X247352765Y-119368157D01*
X247562809Y-119227809D01*
X247703157Y-119017765D01*
X247740000Y-118832541D01*
X247740000Y-118896310D01*
X247836673Y-119129699D01*
X248015302Y-119308327D01*
X248248691Y-119405000D01*
X248724250Y-119405000D01*
X248883000Y-119246250D01*
X248883000Y-117397000D01*
X248863000Y-117397000D01*
X248863000Y-117143000D01*
X248883000Y-117143000D01*
X248883000Y-117123000D01*
X249137000Y-117123000D01*
X249137000Y-117143000D01*
X249157000Y-117143000D01*
X249157000Y-117397000D01*
X249137000Y-117397000D01*
X249137000Y-119246250D01*
X249295750Y-119405000D01*
X249771309Y-119405000D01*
X250004698Y-119308327D01*
X250183327Y-119129699D01*
X250280000Y-118896310D01*
X250280000Y-118832541D01*
X250316843Y-119017765D01*
X250457191Y-119227809D01*
X250667235Y-119368157D01*
X250915000Y-119417440D01*
X252185000Y-119417440D01*
X252432765Y-119368157D01*
X252642809Y-119227809D01*
X252783157Y-119017765D01*
X252820000Y-118832541D01*
X252856843Y-119017765D01*
X252997191Y-119227809D01*
X253207235Y-119368157D01*
X253455000Y-119417440D01*
X254725000Y-119417440D01*
X254972765Y-119368157D01*
X255182809Y-119227809D01*
X255323157Y-119017765D01*
X255360000Y-118832541D01*
X255396843Y-119017765D01*
X255537191Y-119227809D01*
X255747235Y-119368157D01*
X255995000Y-119417440D01*
X257265000Y-119417440D01*
X257512765Y-119368157D01*
X257722809Y-119227809D01*
X257863157Y-119017765D01*
X257912440Y-118770000D01*
X257912440Y-116185000D01*
X261960207Y-116185000D01*
X262531494Y-116251605D01*
X263034485Y-116434182D01*
X263481979Y-116727572D01*
X263849977Y-117116039D01*
X264118738Y-117578745D01*
X264276565Y-118099847D01*
X264315000Y-118530506D01*
X264315000Y-123752560D01*
X261100000Y-123752560D01*
X260852235Y-123801843D01*
X260642191Y-123942191D01*
X260501843Y-124152235D01*
X260452560Y-124400000D01*
X260452560Y-126200000D01*
X260501843Y-126447765D01*
X260642191Y-126657809D01*
X260852235Y-126798157D01*
X261100000Y-126847440D01*
X264315000Y-126847440D01*
X264315001Y-135152560D01*
X261100000Y-135152560D01*
X260852235Y-135201843D01*
X260642191Y-135342191D01*
X260501843Y-135552235D01*
X260452560Y-135800000D01*
X260452560Y-137600000D01*
X260501843Y-137847765D01*
X260642191Y-138057809D01*
X260852235Y-138198157D01*
X261100000Y-138247440D01*
X264315001Y-138247440D01*
X264315001Y-143460198D01*
X264248395Y-144031494D01*
X264065819Y-144534483D01*
X263772427Y-144981980D01*
X263383961Y-145349977D01*
X262921253Y-145618739D01*
X262400153Y-145776565D01*
X261969495Y-145815000D01*
X256997440Y-145815000D01*
X256997440Y-142605159D01*
X259515000Y-142605159D01*
X259515000Y-143394841D01*
X259817199Y-144124412D01*
X260375588Y-144682801D01*
X261105159Y-144985000D01*
X261894841Y-144985000D01*
X262624412Y-144682801D01*
X263182801Y-144124412D01*
X263485000Y-143394841D01*
X263485000Y-142605159D01*
X263182801Y-141875588D01*
X262624412Y-141317199D01*
X261894841Y-141015000D01*
X261105159Y-141015000D01*
X260375588Y-141317199D01*
X259817199Y-141875588D01*
X259515000Y-142605159D01*
X256997440Y-142605159D01*
X256997440Y-142600000D01*
X256948157Y-142352235D01*
X256807809Y-142142191D01*
X256597765Y-142001843D01*
X256350000Y-141952560D01*
X254550000Y-141952560D01*
X254302235Y-142001843D01*
X254092191Y-142142191D01*
X253951843Y-142352235D01*
X253902560Y-142600000D01*
X253902560Y-145815000D01*
X243097440Y-145815000D01*
X243097440Y-142600000D01*
X243048157Y-142352235D01*
X242907809Y-142142191D01*
X242697765Y-142001843D01*
X242450000Y-141952560D01*
X240650000Y-141952560D01*
X240402235Y-142001843D01*
X240192191Y-142142191D01*
X240051843Y-142352235D01*
X240002560Y-142600000D01*
X240002560Y-145815000D01*
X239747440Y-145815000D01*
X239747440Y-142600000D01*
X239698157Y-142352235D01*
X239557809Y-142142191D01*
X239347765Y-142001843D01*
X239100000Y-141952560D01*
X237300000Y-141952560D01*
X237052235Y-142001843D01*
X236842191Y-142142191D01*
X236701843Y-142352235D01*
X236652560Y-142600000D01*
X236652560Y-145815000D01*
X228347440Y-145815000D01*
X228347440Y-142600000D01*
X228298157Y-142352235D01*
X228157809Y-142142191D01*
X227947765Y-142001843D01*
X227700000Y-141952560D01*
X225900000Y-141952560D01*
X225652235Y-142001843D01*
X225442191Y-142142191D01*
X225301843Y-142352235D01*
X225252560Y-142600000D01*
X225252560Y-145815000D01*
X224997440Y-145815000D01*
X224997440Y-142600000D01*
X224948157Y-142352235D01*
X224807809Y-142142191D01*
X224597765Y-142001843D01*
X224350000Y-141952560D01*
X222550000Y-141952560D01*
X222302235Y-142001843D01*
X222092191Y-142142191D01*
X221951843Y-142352235D01*
X221902560Y-142600000D01*
X221902560Y-145815000D01*
X211097440Y-145815000D01*
X211097440Y-142600000D01*
X211048157Y-142352235D01*
X210907809Y-142142191D01*
X210697765Y-142001843D01*
X210450000Y-141952560D01*
X208650000Y-141952560D01*
X208402235Y-142001843D01*
X208192191Y-142142191D01*
X208051843Y-142352235D01*
X208002560Y-142600000D01*
X208002560Y-145815000D01*
X203039794Y-145815000D01*
X202468506Y-145748395D01*
X201965517Y-145565819D01*
X201518020Y-145272427D01*
X201150023Y-144883961D01*
X200881261Y-144421253D01*
X200723435Y-143900153D01*
X200685000Y-143469495D01*
X200685000Y-142605159D01*
X201515000Y-142605159D01*
X201515000Y-143394841D01*
X201817199Y-144124412D01*
X202375588Y-144682801D01*
X203105159Y-144985000D01*
X203894841Y-144985000D01*
X204624412Y-144682801D01*
X205182801Y-144124412D01*
X205485000Y-143394841D01*
X205485000Y-142605159D01*
X205182801Y-141875588D01*
X204624412Y-141317199D01*
X203894841Y-141015000D01*
X203105159Y-141015000D01*
X202375588Y-141317199D01*
X201817199Y-141875588D01*
X201515000Y-142605159D01*
X200685000Y-142605159D01*
X200685000Y-138247440D01*
X203900000Y-138247440D01*
X204147765Y-138198157D01*
X204357809Y-138057809D01*
X204372548Y-138035750D01*
X211465000Y-138035750D01*
X211465000Y-140126310D01*
X211561673Y-140359699D01*
X211740302Y-140538327D01*
X211973691Y-140635000D01*
X212464250Y-140635000D01*
X212623000Y-140476250D01*
X212623000Y-137877000D01*
X211623750Y-137877000D01*
X211465000Y-138035750D01*
X204372548Y-138035750D01*
X204498157Y-137847765D01*
X204547440Y-137600000D01*
X204547440Y-135800000D01*
X204498157Y-135552235D01*
X204378857Y-135373690D01*
X211465000Y-135373690D01*
X211465000Y-137464250D01*
X211623750Y-137623000D01*
X212623000Y-137623000D01*
X212623000Y-135023750D01*
X212464250Y-134865000D01*
X211973691Y-134865000D01*
X211740302Y-134961673D01*
X211561673Y-135140301D01*
X211465000Y-135373690D01*
X204378857Y-135373690D01*
X204357809Y-135342191D01*
X204147765Y-135201843D01*
X203900000Y-135152560D01*
X200685000Y-135152560D01*
X200685000Y-127723691D01*
X205865000Y-127723691D01*
X205865000Y-128214250D01*
X206023750Y-128373000D01*
X208623000Y-128373000D01*
X208623000Y-127373750D01*
X208464250Y-127215000D01*
X206373690Y-127215000D01*
X206140301Y-127311673D01*
X205961673Y-127490302D01*
X205865000Y-127723691D01*
X200685000Y-127723691D01*
X200685000Y-126847440D01*
X203900000Y-126847440D01*
X204147765Y-126798157D01*
X204357809Y-126657809D01*
X204498157Y-126447765D01*
X204547440Y-126200000D01*
X204547440Y-124400000D01*
X204498157Y-124152235D01*
X204357809Y-123942191D01*
X204147765Y-123801843D01*
X203900000Y-123752560D01*
X200685000Y-123752560D01*
X200685000Y-119605159D01*
X201515000Y-119605159D01*
X201515000Y-120394841D01*
X201817199Y-121124412D01*
X202375588Y-121682801D01*
X203105159Y-121985000D01*
X203894841Y-121985000D01*
X204624412Y-121682801D01*
X205182801Y-121124412D01*
X205485000Y-120394841D01*
X205485000Y-119605159D01*
X205182801Y-118875588D01*
X204624412Y-118317199D01*
X203894841Y-118015000D01*
X203105159Y-118015000D01*
X202375588Y-118317199D01*
X201817199Y-118875588D01*
X201515000Y-119605159D01*
X200685000Y-119605159D01*
X200685000Y-118539793D01*
X200751605Y-117968506D01*
X200934182Y-117465515D01*
X201227572Y-117018021D01*
X201616039Y-116650023D01*
X202078745Y-116381262D01*
X202599847Y-116223435D01*
X203030505Y-116185000D01*
X206825842Y-116185000D01*
X206784024Y-116193318D01*
G04 #@! TD*
M02*
